<?xml version="1.0" encoding="utf-8"?>
<!-- Generator: Adobe Illustrator 28.1.0, SVG Export Plug-In . SVG Version: 6.00 Build 0)  -->
<svg version="1.1" id="Layer_1" xmlns="http://www.w3.org/2000/svg" xmlns:xlink="http://www.w3.org/1999/xlink" x="0px" y="0px"
	 viewBox="0 0 198.4 99.2" style="enable-background:new 0 0 198.4 99.2;" xml:space="preserve">
<style type="text/css">
	.st0{fill:#B31E44;}
</style>
<g>
	<path class="st0" d="M132.6,47.8c0.8-0.4,1.6-0.6,2.3-1c1.8-1.1,2.7-2.6,2.7-4.7c-0.1-10.6-0.2-21.1-0.3-31.7c0-0.3,0-0.5,0-0.8
		c1.5-0.3,3-0.5,4.5-0.8c0,3.6,0,7.1,0,10.6c-0.1,7.4-0.2,14.8-0.3,22.2c-0.1,7.9-4.8,12.7-12.7,12.9c-4.1,0.1-8-0.6-11.1-3.5
		c-3.5-3.2-3.9-7.4-3.3-11.8c0.5-3.1,1.7-5.9,3.7-8.5c0.9,0.5,1.6,1,2.2,1.4c-0.6,2.2-1.3,4.1-1.6,6.1c-0.8,5,1.6,8.9,6,9.9
		C127.4,48.7,130,48.6,132.6,47.8z"/>
	<path class="st0" d="M12.2,56.9c-0.7-5.2,1.4-8.2,6.4-9.5c0.8-0.2,1.5-0.6,2.2-1.1c1-0.6,1.9-0.6,2.8,0.1c0.8,0.7,1,2,0.4,2.9
		c-0.7,0.9-1.6,1.2-2.7,0.8c-3-1.2-6.9,1.3-6.6,4.5c0.2,2.7,0.8,5.5,1.8,8c5.2,13,14.8,20.6,28.7,21.9c18.1,1.7,33.9-11.3,36.2-29.4
		c0.1-1.1,0.3-2.2-0.4-3.3c-0.6-0.8-0.3-1.9,0.6-2.6s1.8-0.7,2.7,0c0.9,0.7,1.3,1.8,0.7,2.6c-1.1,1.5-0.9,3.1-1.1,4.7
		c-3,18.6-18.7,31.6-37.5,30.8c-16.6-0.7-30.7-12.9-33.8-29.2C12.3,57.7,12.3,57.4,12.2,56.9z"/>
	<path class="st0" d="M72.5,52.7c-1.6,0.2-2.5-0.2-2.9-1.4c-0.3-1,0-1.9,0.8-2.5c1-0.8,2.1-0.6,3,0.3c0.2,0.2,0.5,0.4,0.8,0.4
		c3.1,0,5.5-2.8,5.1-5.9C77,28.4,65.6,17,50.3,14.8c-17.8-2.6-35.1,10.5-37.6,28.4c-0.1,1-0.4,2,0.3,3c0.6,1,0.2,2-0.7,2.7
		c-0.8,0.6-2.2,0.5-2.9-0.3c-0.8-0.9-0.8-1.8-0.2-2.8c0.3-0.6,0.7-1.2,0.8-1.9c1.8-16.3,15-29.7,31.4-31.6C61,10,78.4,23,81.7,42.6
		c0.9,5.2-1.8,8.6-7.2,9.5C73.9,52.2,73.3,52.4,72.5,52.7z"/>
	<path class="st0" d="M172.1,91c-1.2,0-2.3,0-3.5,0c-0.7,0-1-0.2-1-0.9c0-0.9-0.1-1.8-0.2-3c-0.6,0.7-1,1.1-1.4,1.5
		c-2.8,3.3-8.3,4.2-12,1.9c-3.8-2.3-4.1-8.6-0.5-11.6c1.5-1.3,3.3-2.1,5.3-2.2c2.9-0.2,5.7,0,8.6,0c0.7-3.7-1.3-6.3-5.2-6.4
		c-1.3,0-2.7,0-4,0.3s-2.5,0.8-3.9,1.3c-0.6-0.9-1.3-1.9-2-3c1.7-1.3,3.6-2,5.6-2.3c2.2-0.3,4.5-0.5,6.8-0.3c5,0.4,8.2,3.8,8.4,9.1
		c0.2,4.9,0,9.9,0.1,14.8C173.3,91,172.8,91,172.1,91 M165.3,87c2.7-1.9,2.4-4.6,2.2-7.4c-0.5-0.1-0.8-0.2-1.2-0.2
		c-2.4-0.3-4.9-0.4-7.2,0.6c-2,0.9-2.9,2.6-2.5,4.9c0.3,1.8,1.8,3,3.9,3.2C162.2,88.2,163.8,88,165.3,87z"/>
	<path class="st0" d="M136.4,69.7c3.6,2.6,6.6,5.6,8.5,9.5c2.4,4.8,0.8,8.8-4.3,10.5c-3.9,1.3-7.9,1.5-12,1.4
		c-3.9-0.1-7.7-0.5-11.5-0.7c-1-0.1-1.6-0.4-1.7-1.5c-0.2-1.5-0.6-3-0.9-4.6c1.5,0.1,2.9,0.3,4.3,0.3c5.7,0.1,11.3,0.2,17,0.1
		c1.4,0,2.8-0.5,4.1-1c1.8-0.8,2.3-2.4,1.2-3.9c-2.5-3.8-6.2-6.2-10.6-7.2c-1.6-0.4-2.7,0.5-3.4,2.1c-1-0.3-1.9-0.6-2.9-1
		c0-0.5,0-1,0.1-1.4c0.9-5.5,3.5-7,8.6-4.6C134,68.3,135.1,69,136.4,69.7z"/>
	<path class="st0" d="M175,25.8c-0.9,0.6-1.7,1.2-2.7,1.9c-0.6-0.2-1.5-0.5-2.5-0.8c0.1-2.1,0.6-4.1,1.9-5.8c1-1.2,2.3-1.5,3.7-1.2
		c3.4,0.7,6.2,2.5,8.8,4.7c2.8,2.4,5.3,5.2,6.7,8.7c1.7,4.2,0.3,7.7-3.9,9.4c-3.3,1.3-6.8,1.7-10.3,1.6c-4.8-0.1-9.6-0.5-14.3-0.7
		c-0.8,0-1.1-0.3-1.2-1.1c-0.3-1.6-0.6-3.2-1-4.9c2.4,0.2,4.7,0.4,7,0.5c5,0,10,0,15-0.1c1.2,0,2.4-0.5,3.5-1c1.5-0.7,2-2.1,1.2-3.6
		c-0.6-1.1-1.5-2.2-2.5-3.1c-2.4-2.1-5-3.8-8.2-4.4C175.8,25.7,175.4,25.8,175,25.8z"/>
	<path class="st0" d="M17.9,76.5C24,83.7,31.6,87.8,41,88.7c0.5,0,1.1-0.1,1.6-0.4c1.2-0.6,2.4-0.5,3.1,0.4c0.7,0.8,0.6,2.2-0.2,2.9
		c-0.8,0.9-2,0.9-3.1,0.1c-0.4-0.3-0.9-0.4-1.3-0.5C23.5,90,9.2,75.9,7.8,58.4c-0.1-0.7-0.4-1.3-0.7-1.9c-0.5-1-0.4-2.2,0.4-2.9
		c0.8-0.7,2.1-0.8,2.9-0.1c0.8,0.7,1,1.9,0.5,2.9c-0.3,0.6-0.5,1.4-0.5,2.1C11.1,65.2,13.6,71.2,17.9,76.5z"/>
	<path class="st0" d="M65.1,11.2c11.4,5.6,18.2,14.5,20.6,26.9c0.2,0.9,0.2,1.8,0.4,2.6c0.2,0.7,0.4,1.5,0.7,2.2
		c0.5,1,0.4,2-0.4,2.8s-2.1,0.8-2.9,0.1c-0.9-0.7-1.3-1.8-0.6-2.7c0.7-1,0.5-2,0.4-3c-1.6-15.5-15.2-28.6-30.8-29.5
		c-0.4,0-0.9,0.2-1.3,0.4c-1.1,0.6-2.3,0.5-3-0.4c-0.7-0.8-0.7-2.1,0-2.9c0.8-0.9,2-0.9,3.1-0.2C51.7,7.8,52.2,8,52.7,8
		C57.1,8.3,61.1,9.4,65.1,11.2z"/>
	<path class="st0" d="M185.6,63.5c0,9.2,0,18.2,0,27.4c-1.6,0-2.7,0-4.1,0c-0.1-11.2-0.3-22.4-0.4-33.7c1.5-0.3,3-0.6,4.6-0.9
		C185.6,58.7,185.6,61.1,185.6,63.5z"/>
	<path class="st0" d="M154.4,38.1c0,1.8,0,3.4,0,5.1c-1.3,0-2.5,0-3.9,0c-0.1-11.2-0.3-22.4-0.4-33.7c1.6-0.3,3-0.5,4.3-0.7
		C154.4,18.6,154.4,28.3,154.4,38.1z"/>
	<path class="st0" d="M71.7,65.7c0.9-2,1.8-4,2.6-5.9c0.4-0.8,0.5-1.7,0.1-2.7c-0.4-1.1,0.1-2,1.2-2.5c1-0.5,2-0.3,2.7,0.7
		c0.7,0.9,0.5,2.1-0.2,2.9c-0.5,0.6-1,1.3-1.2,2c-2.6,8.2-7.8,14.3-15.4,18.3c-0.4,0.2-0.8,0.6-1.2,1c-0.8,0.9-2,1.2-3,0.7
		c-0.9-0.5-1.4-1.8-0.9-2.8c0.5-1.1,1.5-1.5,2.8-1.3c0.5,0.1,1.2,0.1,1.7-0.2C65.4,73.6,69,70.1,71.7,65.7z"/>
	<path class="st0" d="M30.6,21.7c1.3-0.8,2.6-1.3,3.5-2.6c0.6-0.9,1.8-0.9,2.8-0.2s1.2,1.7,0.8,2.7S36.4,23,35.3,23
		c-0.7,0-1.5,0-2.1,0.4c-6.6,3.6-11,9.1-13.2,16.3c-0.2,0.6-0.1,1.3,0.1,1.9c0.3,1.2,0,2.3-1,2.9c-1,0.5-2.2,0.2-2.8-0.7
		c-0.7-1-0.5-2.1,0.3-3c0.4-0.4,0.7-0.9,0.9-1.4C19.6,31.7,24,25.9,30.6,21.7z"/>
</g>
</svg>
