<svg xmlns="http://www.w3.org/2000/svg" xmlns:xlink="http://www.w3.org/1999/xlink" width="179" zoomAndPan="magnify" viewBox="0 0 134.25 128.249994" height="171" preserveAspectRatio="xMidYMid meet" version="1.0"><defs><filter x="0%" y="0%" width="100%" height="100%" id="ba8d9ec4a8"><feColorMatrix values="0 0 0 0 1 0 0 0 0 1 0 0 0 0 1 0 0 0 1 0" color-interpolation-filters="sRGB"/></filter><clipPath id="071ae23b3a"><path d="M 0.015625 0 L 133.488281 0 L 133.488281 127.503906 L 0.015625 127.503906 Z M 0.015625 0 " clip-rule="nonzero"/></clipPath><mask id="34fb987544"><g filter="url(#ba8d9ec4a8)"><rect x="-13.425" width="161.1" fill="#000000" y="-12.824999" height="153.899993" fill-opacity="0.55"/></g></mask><clipPath id="15498f90a6"><path d="M 0.015625 0 L 133.1875 0 L 133.1875 127.207031 L 0.015625 127.207031 Z M 0.015625 0 " clip-rule="nonzero"/></clipPath><clipPath id="954a727477"><path d="M 42.519531 0 L 90.582031 0 C 101.855469 0 112.664062 4.476562 120.632812 12.449219 C 128.605469 20.417969 133.082031 31.230469 133.082031 42.5 L 133.082031 84.703125 C 133.082031 95.976562 128.605469 106.785156 120.632812 114.757812 C 112.664062 122.726562 101.855469 127.207031 90.582031 127.207031 L 42.519531 127.207031 C 31.246094 127.207031 20.4375 122.726562 12.464844 114.757812 C 4.496094 106.785156 0.015625 95.976562 0.015625 84.703125 L 0.015625 42.5 C 0.015625 31.230469 4.496094 20.417969 12.464844 12.449219 C 20.4375 4.476562 31.246094 0 42.519531 0 Z M 42.519531 0 " clip-rule="nonzero"/></clipPath><clipPath id="4e6b2d053c"><path d="M 0.015625 0 L 133.160156 0 L 133.160156 127.207031 L 0.015625 127.207031 Z M 0.015625 0 " clip-rule="nonzero"/></clipPath><clipPath id="4f0450bc6d"><path d="M 42.519531 0 L 90.582031 0 C 101.855469 0 112.664062 4.476562 120.632812 12.449219 C 128.605469 20.417969 133.082031 31.230469 133.082031 42.5 L 133.082031 84.703125 C 133.082031 95.976562 128.605469 106.785156 120.632812 114.757812 C 112.664062 122.726562 101.855469 127.207031 90.582031 127.207031 L 42.519531 127.207031 C 31.246094 127.207031 20.4375 122.726562 12.464844 114.757812 C 4.496094 106.785156 0.015625 95.976562 0.015625 84.703125 L 0.015625 42.5 C 0.015625 31.230469 4.496094 20.417969 12.464844 12.449219 C 20.4375 4.476562 31.246094 0 42.519531 0 Z M 42.519531 0 " clip-rule="nonzero"/></clipPath><clipPath id="b06168052f"><rect x="0" width="134" y="0" height="128"/></clipPath><clipPath id="40f9f150f8"><rect x="0" width="134" y="0" height="128"/></clipPath><clipPath id="8df1c12b45"><path d="M 37 27 L 95 27 L 95 106.328125 L 37 106.328125 Z M 37 27 " clip-rule="nonzero"/></clipPath><clipPath id="26aa2b9557"><path d="M 22.875 20.582031 L 110.113281 20.582031 L 110.113281 73 L 22.875 73 Z M 22.875 20.582031 " clip-rule="nonzero"/></clipPath></defs><g clip-path="url(#071ae23b3a)"><g mask="url(#34fb987544)"><g transform="matrix(1, 0, 0, 1, 0.000000000000000003, 0.000000000000020212)"><g clip-path="url(#40f9f150f8)"><g clip-path="url(#15498f90a6)"><g clip-path="url(#954a727477)"><g transform="matrix(1, 0, 0, 1, 0.000000000000000003, 0.000000000000020212)"><g clip-path="url(#b06168052f)"><g clip-path="url(#4e6b2d053c)"><g clip-path="url(#4f0450bc6d)"><path fill="#afd57f" d="M 0.015625 0 L 133.1875 0 L 133.1875 127.207031 L 0.015625 127.207031 Z M 0.015625 0 " fill-opacity="1" fill-rule="nonzero"/></g></g></g></g></g></g></g></g></g></g><g clip-path="url(#8df1c12b45)"><path fill="#135662" d="M 81.960938 57.445312 L 81.507812 68.699219 C 81.488281 69.253906 81.21875 69.753906 80.769531 70.078125 L 74.691406 74.46875 C 74.144531 74.867188 73.5 75.074219 72.824219 75.074219 L 57.539062 75.074219 C 56.53125 75.074219 55.550781 75.367188 54.703125 75.917969 L 51.140625 78.242188 L 48.269531 69.035156 C 47.394531 66.21875 44.390625 64.632812 41.542969 65.550781 C 40.152344 65.996094 39.03125 66.964844 38.386719 68.277344 C 37.746094 69.589844 37.664062 71.070312 38.164062 72.445312 L 43.703125 87.667969 C 44.78125 90.636719 48.179688 91.929688 50.9375 90.550781 L 54.71875 88.660156 C 54.992188 88.527344 55.292969 88.726562 55.292969 89.015625 L 55.292969 105.636719 C 55.292969 106.1875 55.742188 106.636719 56.292969 106.636719 C 56.84375 106.636719 57.292969 106.1875 57.292969 105.636719 L 57.292969 89.015625 C 57.292969 87.226562 55.410156 86.078125 53.824219 86.875 L 50.042969 88.765625 C 48.347656 89.613281 46.246094 88.824219 45.578125 86.988281 L 40.042969 71.761719 C 38.996094 68.886719 42.058594 66.285156 44.71875 67.664062 C 45.511719 68.078125 46.097656 68.773438 46.363281 69.628906 L 49.625 80.097656 C 49.820312 80.722656 50.5625 81 51.125 80.636719 L 55.796875 77.589844 C 56.316406 77.25 56.917969 77.074219 57.539062 77.074219 L 72.824219 77.074219 C 73.921875 77.074219 74.972656 76.734375 75.863281 76.089844 L 81.9375 71.699219 C 82.886719 71.011719 83.457031 69.949219 83.507812 68.777344 L 83.960938 57.527344 C 84.027344 55.8125 85.429688 54.464844 87.148438 54.464844 L 87.476562 54.464844 C 89.234375 54.464844 90.664062 55.898438 90.664062 57.65625 L 90.664062 71.9375 C 90.664062 72.414062 90.476562 72.867188 90.097656 73.25 L 79.773438 84.984375 C 79.054688 85.699219 78.664062 86.652344 78.664062 87.664062 L 78.664062 105.636719 C 78.664062 106.1875 79.109375 106.636719 79.660156 106.636719 C 80.210938 106.636719 80.660156 106.1875 80.660156 105.636719 L 80.660156 87.664062 C 80.660156 87.183594 80.847656 86.734375 81.226562 86.351562 L 91.554688 74.617188 C 92.269531 73.902344 92.664062 72.949219 92.664062 71.9375 L 92.664062 57.65625 C 92.664062 55.734375 91.597656 54.070312 90.042969 53.175781 C 90.101562 52.8125 90.054688 51.761719 90.074219 47.625 C 90.074219 47.074219 89.625 46.628906 89.074219 46.628906 L 88.128906 46.628906 L 88.128906 42.625 C 91.777344 42.132812 94.601562 39.003906 94.601562 35.222656 C 94.601562 31.101562 91.25 27.75 87.128906 27.75 C 83.007812 27.75 79.65625 31.101562 79.65625 35.222656 C 79.65625 39.003906 82.480469 42.132812 86.128906 42.625 L 86.128906 46.628906 L 85.183594 46.628906 C 84.632812 46.628906 84.183594 47.074219 84.183594 47.625 C 84.214844 53.960938 84.136719 52.964844 84.226562 53.371094 C 82.914062 54.265625 82.03125 55.738281 81.960938 57.445312 Z M 81.652344 35.222656 C 81.652344 32.203125 84.109375 29.746094 87.128906 29.746094 C 90.148438 29.746094 92.605469 32.203125 92.605469 35.222656 C 92.605469 38.242188 90.148438 40.699219 87.128906 40.699219 C 84.109375 40.699219 81.652344 38.242188 81.652344 35.222656 Z M 86.183594 48.625 L 88.074219 48.625 L 88.074219 52.527344 C 87.390625 52.449219 86.863281 52.433594 86.183594 52.5625 Z M 86.183594 48.625 " fill-opacity="1" fill-rule="nonzero"/></g><path fill="#135662" d="M 74.453125 61.234375 C 74.003906 61.554688 73.902344 62.175781 74.222656 62.625 C 74.761719 63.382812 74.390625 64.550781 73.394531 64.785156 C 72.648438 64.964844 72.105469 65.574219 72.046875 66.308594 C 72 66.917969 71.84375 67.539062 71.632812 68.148438 C 68.269531 69.792969 64.761719 69.742188 60.9375 67.996094 C 60.753906 67.433594 60.609375 66.863281 60.566406 66.308594 C 60.511719 65.578125 59.96875 64.964844 59.21875 64.789062 C 58.203125 64.546875 57.828125 63.335938 58.441406 62.558594 C 58.785156 62.125 58.710938 61.496094 58.277344 61.15625 C 57.84375 60.8125 57.21875 60.886719 56.875 61.320312 C 55.40625 63.179688 56.257812 66.007812 58.597656 66.6875 C 58.769531 68.351562 59.539062 70.316406 60.714844 71.804688 L 60.714844 73.601562 C 60.714844 74.152344 61.160156 74.601562 61.710938 74.601562 C 62.265625 74.601562 62.710938 74.152344 62.710938 73.601562 C 62.636719 71.335938 62.910156 71.320312 62.375 70.667969 C 65.039062 71.476562 67.46875 71.605469 70.179688 70.835938 C 70.058594 71.160156 70.136719 71.21875 70.113281 73.601562 C 70.113281 74.152344 70.5625 74.601562 71.113281 74.601562 C 71.664062 74.601562 72.113281 74.152344 72.113281 73.601562 L 72.113281 71.519531 C 73.15625 70.09375 73.839844 68.359375 74.019531 66.6875 C 76.308594 66.023438 77.160156 63.300781 75.847656 61.464844 C 75.527344 61.015625 74.902344 60.914062 74.453125 61.234375 Z M 74.453125 61.234375 " fill-opacity="1" fill-rule="nonzero"/><path fill="#135662" d="M 73.867188 49.894531 C 72.65625 48.933594 71.527344 47.695312 71.300781 47.527344 C 67.46875 44.648438 62.636719 47.417969 60.734375 48.742188 C 60.511719 48.898438 60.285156 49.003906 60.0625 49.058594 C 55.34375 50.222656 57.113281 58.464844 57.191406 58.8125 C 57.292969 59.28125 57.707031 59.597656 58.164062 59.597656 C 58.800781 59.597656 59.277344 59.007812 59.140625 58.382812 C 58.757812 56.652344 58.199219 51.574219 60.539062 51 C 61.003906 50.882812 61.457031 50.675781 61.878906 50.378906 C 63.074219 49.546875 67.175781 47.003906 70.046875 49.082031 C 72.667969 51.722656 73.007812 51.496094 73.386719 52.519531 C 73.839844 53.742188 74.21875 55.695312 73.449219 58.066406 C 73.277344 58.59375 73.566406 59.15625 74.089844 59.328125 C 74.621094 59.5 75.179688 59.210938 75.347656 58.683594 C 76.296875 55.765625 75.824219 53.34375 75.257812 51.824219 C 74.976562 51.066406 74.496094 50.398438 73.867188 49.894531 Z M 73.867188 49.894531 " fill-opacity="1" fill-rule="nonzero"/><g clip-path="url(#26aa2b9557)"><path fill="#135662" d="M 107.703125 20.566406 L 25.253906 20.566406 C 23.933594 20.566406 22.859375 21.640625 22.859375 22.960938 L 22.859375 70.464844 C 22.859375 71.785156 23.933594 72.859375 25.253906 72.859375 L 32.769531 72.859375 C 33.324219 72.859375 33.769531 72.410156 33.769531 71.859375 C 33.769531 71.308594 33.324219 70.859375 32.769531 70.859375 L 25.253906 70.859375 C 25.035156 70.859375 24.859375 70.683594 24.859375 70.464844 L 24.859375 22.960938 C 24.859375 22.742188 25.035156 22.5625 25.253906 22.5625 L 107.703125 22.5625 C 107.921875 22.5625 108.101562 22.742188 108.101562 22.960938 L 108.101562 70.464844 C 108.101562 70.683594 107.921875 70.859375 107.703125 70.859375 L 98.363281 70.859375 C 97.8125 70.859375 97.367188 71.308594 97.367188 71.859375 C 97.367188 72.410156 97.8125 72.859375 98.363281 72.859375 L 107.703125 72.859375 C 109.023438 72.859375 110.097656 71.785156 110.097656 70.464844 L 110.097656 22.960938 C 110.097656 21.640625 109.023438 20.566406 107.703125 20.566406 Z M 107.703125 20.566406 " fill-opacity="1" fill-rule="nonzero"/></g><path fill="#135662" d="M 59.628906 27.75 L 31.5625 27.75 C 30.644531 27.75 29.898438 28.496094 29.898438 29.414062 L 29.898438 32.933594 C 29.898438 33.855469 30.644531 34.601562 31.5625 34.601562 L 59.628906 34.601562 C 60.546875 34.601562 61.296875 33.855469 61.296875 32.933594 L 61.296875 29.414062 C 61.296875 28.496094 60.546875 27.75 59.628906 27.75 Z M 59.296875 32.601562 L 31.894531 32.601562 L 31.894531 29.746094 L 59.296875 29.746094 Z M 59.296875 32.601562 " fill-opacity="1" fill-rule="nonzero"/><path fill="#135662" d="M 33.160156 38.199219 C 32.609375 38.199219 32.160156 38.648438 32.160156 39.199219 C 32.160156 39.75 32.609375 40.199219 33.160156 40.199219 L 36.394531 40.199219 C 36.945312 40.199219 37.394531 39.75 37.394531 39.199219 C 37.394531 38.648438 36.945312 38.199219 36.394531 38.199219 Z M 33.160156 38.199219 " fill-opacity="1" fill-rule="nonzero"/><path fill="#135662" d="M 57.253906 39.199219 C 57.253906 38.648438 56.808594 38.199219 56.253906 38.199219 L 41.15625 38.199219 C 40.605469 38.199219 40.160156 38.648438 40.160156 39.199219 C 40.160156 39.75 40.605469 40.199219 41.15625 40.199219 L 56.253906 40.199219 C 56.808594 40.199219 57.253906 39.75 57.253906 39.199219 Z M 57.253906 39.199219 " fill-opacity="1" fill-rule="nonzero"/><path fill="#135662" d="M 28.621094 54.519531 L 28.621094 58.75 C 28.621094 59.300781 29.070312 59.75 29.621094 59.75 C 36.65625 59.757812 42.414062 59.730469 49.464844 59.75 C 50.015625 59.75 50.464844 59.300781 50.464844 58.75 L 50.464844 46.476562 C 50.464844 45.925781 50.015625 45.476562 49.464844 45.476562 L 42.925781 45.476562 C 42.371094 45.476562 41.925781 45.925781 41.925781 46.476562 L 41.925781 50.59375 L 36.160156 50.59375 C 35.609375 50.59375 35.164062 51.039062 35.164062 51.589844 L 35.164062 53.519531 L 29.621094 53.519531 C 29.070312 53.519531 28.621094 53.964844 28.621094 54.519531 Z M 43.921875 47.476562 L 48.464844 47.476562 L 48.464844 57.75 L 43.921875 57.75 Z M 37.160156 52.589844 L 41.703125 52.589844 L 41.703125 57.75 L 37.160156 57.75 Z M 30.621094 55.515625 L 35.164062 55.515625 L 35.164062 57.75 L 30.621094 57.75 Z M 30.621094 55.515625 " fill-opacity="1" fill-rule="nonzero"/><path fill="#135662" d="M 104.992188 47.214844 L 95.382812 47.214844 C 94.832031 47.214844 94.382812 47.664062 94.382812 48.214844 C 94.382812 48.765625 94.832031 49.210938 95.382812 49.210938 L 104.992188 49.210938 C 105.542969 49.210938 105.988281 48.765625 105.988281 48.214844 C 105.988281 47.664062 105.542969 47.214844 104.992188 47.214844 Z M 104.992188 47.214844 " fill-opacity="1" fill-rule="nonzero"/><path fill="#135662" d="M 105.988281 53.160156 C 105.988281 52.605469 105.542969 52.160156 104.992188 52.160156 L 95.382812 52.160156 C 94.832031 52.160156 94.382812 52.605469 94.382812 53.160156 C 94.382812 53.710938 94.832031 54.15625 95.382812 54.15625 L 104.992188 54.15625 C 105.542969 54.15625 105.988281 53.710938 105.988281 53.160156 Z M 105.988281 53.160156 " fill-opacity="1" fill-rule="nonzero"/></svg>