<svg xmlns="http://www.w3.org/2000/svg" xmlns:xlink="http://www.w3.org/1999/xlink" width="179" zoomAndPan="magnify" viewBox="0 0 134.25 128.249994" height="171" preserveAspectRatio="xMidYMid meet" version="1.0"><defs><filter x="0%" y="0%" width="100%" height="100%" id="b1b19bec3e"><feColorMatrix values="0 0 0 0 1 0 0 0 0 1 0 0 0 0 1 0 0 0 1 0" color-interpolation-filters="sRGB"/></filter><clipPath id="984091d463"><path d="M 0.015625 0 L 133.488281 0 L 133.488281 127.503906 L 0.015625 127.503906 Z M 0.015625 0 " clip-rule="nonzero"/></clipPath><mask id="3fd85dc92f"><g filter="url(#b1b19bec3e)"><rect x="-13.425" width="161.1" fill="#000000" y="-12.824999" height="153.899993" fill-opacity="0.55"/></g></mask><clipPath id="9a2fc3eb55"><path d="M 0.015625 0 L 133.1875 0 L 133.1875 127.207031 L 0.015625 127.207031 Z M 0.015625 0 " clip-rule="nonzero"/></clipPath><clipPath id="eac1d983b9"><path d="M 42.519531 0 L 90.582031 0 C 101.855469 0 112.664062 4.476562 120.632812 12.449219 C 128.605469 20.417969 133.082031 31.230469 133.082031 42.5 L 133.082031 84.703125 C 133.082031 95.976562 128.605469 106.785156 120.632812 114.757812 C 112.664062 122.726562 101.855469 127.207031 90.582031 127.207031 L 42.519531 127.207031 C 31.246094 127.207031 20.4375 122.726562 12.464844 114.757812 C 4.496094 106.785156 0.015625 95.976562 0.015625 84.703125 L 0.015625 42.5 C 0.015625 31.230469 4.496094 20.417969 12.464844 12.449219 C 20.4375 4.476562 31.246094 0 42.519531 0 Z M 42.519531 0 " clip-rule="nonzero"/></clipPath><clipPath id="b0facfa1d6"><path d="M 0.015625 0 L 133.160156 0 L 133.160156 127.207031 L 0.015625 127.207031 Z M 0.015625 0 " clip-rule="nonzero"/></clipPath><clipPath id="636596a48f"><path d="M 42.519531 0 L 90.582031 0 C 101.855469 0 112.664062 4.476562 120.632812 12.449219 C 128.605469 20.417969 133.082031 31.230469 133.082031 42.5 L 133.082031 84.703125 C 133.082031 95.976562 128.605469 106.785156 120.632812 114.757812 C 112.664062 122.726562 101.855469 127.207031 90.582031 127.207031 L 42.519531 127.207031 C 31.246094 127.207031 20.4375 122.726562 12.464844 114.757812 C 4.496094 106.785156 0.015625 95.976562 0.015625 84.703125 L 0.015625 42.5 C 0.015625 31.230469 4.496094 20.417969 12.464844 12.449219 C 20.4375 4.476562 31.246094 0 42.519531 0 Z M 42.519531 0 " clip-rule="nonzero"/></clipPath><clipPath id="086139bbeb"><rect x="0" width="134" y="0" height="128"/></clipPath><clipPath id="16cb4a668b"><rect x="0" width="134" y="0" height="128"/></clipPath><clipPath id="1a3345aa50"><path d="M 47 89 L 86 89 L 86 112.894531 L 47 112.894531 Z M 47 89 " clip-rule="nonzero"/></clipPath><clipPath id="d57699f666"><path d="M 54 89 L 68 89 L 68 112.894531 L 54 112.894531 Z M 54 89 " clip-rule="nonzero"/></clipPath><clipPath id="5c16d47e40"><path d="M 65 89 L 78 89 L 78 112.894531 L 65 112.894531 Z M 65 89 " clip-rule="nonzero"/></clipPath><clipPath id="752bea2897"><path d="M 54 103 L 57 103 L 57 112.894531 L 54 112.894531 Z M 54 103 " clip-rule="nonzero"/></clipPath><clipPath id="b6e2f00552"><path d="M 76 103 L 79 103 L 79 112.894531 L 76 112.894531 Z M 76 103 " clip-rule="nonzero"/></clipPath><clipPath id="1552982dc9"><path d="M 75 95 L 102.957031 95 L 102.957031 112.894531 L 75 112.894531 Z M 75 95 " clip-rule="nonzero"/></clipPath><clipPath id="c5ce286f07"><path d="M 83 100 L 91 100 L 91 112.894531 L 83 112.894531 Z M 83 100 " clip-rule="nonzero"/></clipPath><clipPath id="9d8be45f72"><path d="M 88 95 L 98 95 L 98 112.894531 L 88 112.894531 Z M 88 95 " clip-rule="nonzero"/></clipPath><clipPath id="a96a7b3c11"><path d="M 96 105 L 99 105 L 99 112.894531 L 96 112.894531 Z M 96 105 " clip-rule="nonzero"/></clipPath><clipPath id="df8350aefc"><path d="M 29.882812 95 L 58 95 L 58 112.894531 L 29.882812 112.894531 Z M 29.882812 95 " clip-rule="nonzero"/></clipPath><clipPath id="6469afe968"><path d="M 35 95 L 45 95 L 45 112.894531 L 35 112.894531 Z M 35 95 " clip-rule="nonzero"/></clipPath><clipPath id="229391eeb4"><path d="M 42 100 L 50 100 L 50 112.894531 L 42 112.894531 Z M 42 100 " clip-rule="nonzero"/></clipPath><clipPath id="a46bb5864d"><path d="M 34 105 L 38 105 L 38 112.894531 L 34 112.894531 Z M 34 105 " clip-rule="nonzero"/></clipPath><clipPath id="ed32776956"><path d="M 44 14.46875 L 89 14.46875 L 89 60 L 44 60 Z M 44 14.46875 " clip-rule="nonzero"/></clipPath></defs><g clip-path="url(#984091d463)"><g mask="url(#3fd85dc92f)"><g transform="matrix(1, 0, 0, 1, 0.000000000000000003, 0.000000000000020212)"><g clip-path="url(#16cb4a668b)"><g clip-path="url(#9a2fc3eb55)"><g clip-path="url(#eac1d983b9)"><g transform="matrix(1, 0, 0, 1, 0.000000000000000003, 0.000000000000020212)"><g clip-path="url(#086139bbeb)"><g clip-path="url(#b0facfa1d6)"><g clip-path="url(#636596a48f)"><path fill="#afd57f" d="M 0.015625 0 L 133.1875 0 L 133.1875 127.207031 L 0.015625 127.207031 Z M 0.015625 0 " fill-opacity="1" fill-rule="nonzero"/></g></g></g></g></g></g></g></g></g></g><path fill="#135662" d="M 58.570312 75.742188 C 58.121094 75.742188 57.714844 75.472656 57.542969 75.050781 C 57.300781 74.460938 55.257812 69.1875 57.335938 66.007812 C 58.175781 64.726562 59.515625 64 61.324219 63.84375 C 62.355469 62.75 65.40625 60.453125 70.863281 63.699219 C 70.894531 63.71875 70.921875 63.734375 70.949219 63.753906 C 71.042969 63.820312 73.234375 65.417969 74.179688 67.289062 C 74.191406 67.304688 74.195312 67.320312 74.203125 67.335938 C 74.226562 67.382812 74.859375 68.714844 76.019531 68.570312 C 76.113281 68.558594 76.210938 68.558594 76.304688 68.570312 C 76.871094 68.652344 77.308594 68.984375 77.46875 69.464844 C 77.617188 69.898438 77.507812 70.371094 77.179688 70.738281 C 76.796875 71.222656 74.328125 74.0625 69.148438 74.0625 C 67.515625 74.0625 65.613281 73.78125 63.417969 73.050781 C 62.804688 74.101562 61.464844 75.511719 58.664062 75.738281 C 58.628906 75.742188 58.597656 75.742188 58.570312 75.742188 Z M 65.628906 64.25 C 63.636719 64.25 62.8125 65.5 62.800781 65.519531 C 62.601562 65.832031 62.261719 66.023438 61.890625 66.035156 C 60.578125 66.070312 59.695312 66.457031 59.191406 67.222656 C 58.164062 68.796875 58.773438 71.726562 59.308594 73.40625 C 61.386719 72.925781 61.726562 71.449219 61.730469 71.433594 C 61.796875 71.113281 62 70.84375 62.285156 70.6875 C 62.570312 70.53125 62.90625 70.511719 63.210938 70.625 C 69.09375 72.855469 72.570312 71.542969 74.238281 70.425781 C 73.199219 69.90625 72.507812 68.960938 72.191406 68.277344 C 71.613281 67.152344 70.226562 65.980469 69.6875 65.582031 C 67.992188 64.582031 66.65625 64.25 65.628906 64.25 Z M 61.859375 64.925781 Z M 61.859375 64.925781 " fill-opacity="1" fill-rule="nonzero"/><path fill="#135662" d="M 66.234375 87.800781 C 61.371094 87.800781 57.414062 82.609375 57.414062 76.230469 C 57.414062 75.652344 57.445312 75.074219 57.511719 74.503906 C 57.578125 73.894531 58.128906 73.457031 58.738281 73.527344 C 59.347656 73.59375 59.785156 74.144531 59.71875 74.753906 C 59.660156 75.238281 59.636719 75.734375 59.636719 76.226562 C 59.636719 81.386719 62.597656 85.582031 66.238281 85.582031 C 69.878906 85.582031 72.839844 81.382812 72.839844 76.226562 C 72.839844 74.921875 72.652344 73.660156 72.28125 72.472656 C 72.097656 71.890625 72.421875 71.265625 73.007812 71.082031 C 73.59375 70.898438 74.214844 71.222656 74.402344 71.808594 C 74.839844 73.210938 75.0625 74.695312 75.0625 76.226562 C 75.058594 82.609375 71.101562 87.800781 66.234375 87.800781 Z M 66.234375 87.800781 " fill-opacity="1" fill-rule="nonzero"/><g clip-path="url(#1a3345aa50)"><path fill="#135662" d="M 84.144531 112.65625 L 48.328125 112.65625 C 47.714844 112.65625 47.21875 112.160156 47.21875 111.546875 L 47.21875 101.152344 C 47.21875 94.804688 52.378906 89.644531 58.722656 89.644531 L 61.871094 89.644531 C 62.484375 89.644531 62.980469 90.144531 62.980469 90.757812 C 62.980469 91.367188 62.484375 91.867188 61.871094 91.867188 L 58.722656 91.867188 C 53.601562 91.867188 49.4375 96.03125 49.4375 101.152344 L 49.4375 110.4375 L 83.035156 110.4375 L 83.035156 101.152344 C 83.035156 96.03125 78.871094 91.867188 73.75 91.867188 L 70.605469 91.867188 C 69.992188 91.867188 69.496094 91.367188 69.496094 90.757812 C 69.496094 90.144531 69.992188 89.644531 70.605469 89.644531 L 73.75 89.644531 C 80.09375 89.644531 85.253906 94.808594 85.253906 101.152344 L 85.253906 111.546875 C 85.253906 112.160156 84.757812 112.65625 84.144531 112.65625 Z M 84.144531 112.65625 " fill-opacity="1" fill-rule="nonzero"/></g><path fill="#135662" d="M 66.238281 102.261719 C 65.804688 102.261719 65.390625 102.007812 65.214844 101.582031 L 60.847656 91.1875 C 60.609375 90.621094 60.875 89.96875 61.4375 89.734375 C 62.003906 89.496094 62.65625 89.761719 62.894531 90.324219 L 67.261719 100.722656 C 67.5 101.285156 67.230469 101.9375 66.667969 102.175781 C 66.527344 102.234375 66.378906 102.261719 66.238281 102.261719 Z M 66.238281 102.261719 " fill-opacity="1" fill-rule="nonzero"/><path fill="#135662" d="M 66.234375 102.261719 C 66.089844 102.261719 65.945312 102.234375 65.808594 102.175781 C 65.242188 101.9375 64.976562 101.285156 65.214844 100.722656 L 69.582031 90.324219 C 69.820312 89.761719 70.46875 89.492188 71.035156 89.734375 C 71.601562 89.96875 71.867188 90.621094 71.628906 91.1875 L 67.261719 101.582031 C 67.082031 102.007812 66.671875 102.261719 66.234375 102.261719 Z M 66.234375 102.261719 " fill-opacity="1" fill-rule="nonzero"/><g clip-path="url(#d57699f666)"><path fill="#135662" d="M 66.234375 112.65625 C 65.621094 112.65625 65.125 112.160156 65.125 111.546875 L 65.125 101.816406 L 55.40625 96.625 C 55.066406 96.445312 54.847656 96.105469 54.820312 95.726562 C 54.792969 95.34375 54.964844 94.976562 55.273438 94.75 L 57.265625 93.296875 L 55.453125 91.996094 C 54.953125 91.636719 54.839844 90.945312 55.195312 90.445312 C 55.554688 89.949219 56.246094 89.832031 56.746094 90.191406 L 59.804688 92.386719 C 60.09375 92.597656 60.265625 92.929688 60.265625 93.285156 C 60.269531 93.640625 60.097656 93.972656 59.8125 94.183594 L 58.007812 95.5 L 66.757812 100.171875 C 67.117188 100.367188 67.34375 100.742188 67.34375 101.152344 L 67.34375 111.546875 C 67.34375 112.160156 66.851562 112.65625 66.234375 112.65625 Z M 66.234375 112.65625 " fill-opacity="1" fill-rule="nonzero"/></g><g clip-path="url(#5c16d47e40)"><path fill="#135662" d="M 66.234375 112.65625 C 65.621094 112.65625 65.125 112.160156 65.125 111.546875 L 65.125 101.152344 C 65.125 100.742188 65.351562 100.367188 65.714844 100.171875 L 74.460938 95.5 L 72.65625 94.183594 C 72.367188 93.972656 72.199219 93.640625 72.203125 93.285156 C 72.203125 92.929688 72.375 92.59375 72.664062 92.386719 L 75.722656 90.191406 C 76.21875 89.832031 76.914062 89.945312 77.273438 90.445312 C 77.628906 90.941406 77.515625 91.636719 77.015625 91.996094 L 75.203125 93.296875 L 77.195312 94.75 C 77.503906 94.976562 77.675781 95.34375 77.648438 95.726562 C 77.621094 96.105469 77.402344 96.445312 77.0625 96.625 L 67.34375 101.816406 L 67.34375 111.546875 C 67.34375 112.160156 66.851562 112.65625 66.234375 112.65625 Z M 66.234375 112.65625 " fill-opacity="1" fill-rule="nonzero"/></g><g clip-path="url(#752bea2897)"><path fill="#135662" d="M 55.230469 112.65625 C 54.617188 112.65625 54.121094 112.160156 54.121094 111.546875 L 54.121094 104.820312 C 54.121094 104.207031 54.617188 103.710938 55.230469 103.710938 C 55.84375 103.710938 56.339844 104.207031 56.339844 104.820312 L 56.339844 111.546875 C 56.339844 112.160156 55.84375 112.65625 55.230469 112.65625 Z M 55.230469 112.65625 " fill-opacity="1" fill-rule="nonzero"/></g><g clip-path="url(#b6e2f00552)"><path fill="#135662" d="M 77.242188 112.65625 C 76.632812 112.65625 76.132812 112.160156 76.132812 111.546875 L 76.132812 104.820312 C 76.132812 104.207031 76.632812 103.710938 77.242188 103.710938 C 77.855469 103.710938 78.351562 104.207031 78.351562 104.820312 L 78.351562 111.546875 C 78.351562 112.160156 77.855469 112.65625 77.242188 112.65625 Z M 77.242188 112.65625 " fill-opacity="1" fill-rule="nonzero"/></g><path fill="#135662" d="M 61.871094 91.867188 C 61.585938 91.867188 61.304688 91.757812 61.085938 91.542969 C 60.65625 91.109375 60.652344 90.414062 61.074219 89.980469 C 61.144531 89.90625 62.429688 88.496094 61.839844 85.929688 C 61.703125 85.332031 62.074219 84.734375 62.671875 84.597656 C 63.269531 84.460938 63.863281 84.835938 64 85.433594 C 64.878906 89.25 62.746094 91.449219 62.652344 91.539062 C 62.4375 91.757812 62.152344 91.867188 61.871094 91.867188 Z M 61.871094 91.867188 " fill-opacity="1" fill-rule="nonzero"/><path fill="#135662" d="M 70.601562 91.867188 C 70.320312 91.867188 70.035156 91.757812 69.816406 91.539062 C 69.726562 91.449219 67.589844 89.253906 68.46875 85.433594 C 68.609375 84.835938 69.203125 84.460938 69.800781 84.597656 C 70.398438 84.738281 70.769531 85.332031 70.632812 85.929688 C 70.035156 88.527344 71.375 89.960938 71.390625 89.972656 C 71.820312 90.40625 71.820312 91.109375 71.386719 91.542969 C 71.171875 91.757812 70.886719 91.867188 70.601562 91.867188 Z M 70.601562 91.867188 " fill-opacity="1" fill-rule="nonzero"/><path fill="#135662" d="M 83.699219 86.105469 C 83.25 86.105469 82.839844 85.835938 82.671875 85.414062 C 82.492188 84.972656 80.96875 81.042969 82.550781 78.621094 C 83 77.9375 83.867188 77.125 85.507812 76.941406 C 86.597656 75.785156 89.058594 74.699219 92.703125 76.863281 C 92.730469 76.882812 92.757812 76.898438 92.785156 76.921875 C 92.960938 77.046875 94.5 78.1875 95.207031 79.574219 C 95.210938 79.589844 95.222656 79.601562 95.226562 79.617188 C 95.238281 79.640625 95.605469 80.398438 96.210938 80.324219 C 96.308594 80.3125 96.402344 80.3125 96.5 80.328125 C 97.019531 80.398438 97.4375 80.726562 97.589844 81.179688 C 97.730469 81.597656 97.628906 82.050781 97.320312 82.398438 C 96.890625 82.929688 93.867188 86.304688 87.320312 84.230469 C 86.789062 85.015625 85.753906 85.945312 83.789062 86.105469 C 83.757812 86.105469 83.726562 86.105469 83.699219 86.105469 Z M 88.769531 77.839844 C 87.511719 77.839844 87.007812 78.597656 87.003906 78.609375 C 86.804688 78.921875 86.464844 79.117188 86.09375 79.125 C 84.855469 79.15625 84.515625 79.671875 84.40625 79.839844 C 83.789062 80.78125 84.105469 82.566406 84.441406 83.730469 C 85.476562 83.378906 85.664062 82.640625 85.667969 82.628906 C 85.734375 82.3125 85.933594 82.042969 86.222656 81.886719 C 86.503906 81.730469 86.84375 81.710938 87.148438 81.824219 C 90.804688 83.210938 93.113281 82.640625 94.371094 81.96875 C 93.808594 81.550781 93.417969 80.992188 93.214844 80.5625 C 92.832031 79.820312 91.878906 79.015625 91.519531 78.75 C 90.355469 78.0625 89.449219 77.839844 88.769531 77.839844 Z M 95.6875 80.894531 Z M 86.066406 78.015625 Z M 86.066406 78.015625 " fill-opacity="1" fill-rule="nonzero"/><path fill="#135662" d="M 89.214844 94.78125 C 85.542969 94.78125 82.554688 90.90625 82.554688 86.144531 C 82.554688 85.71875 82.578125 85.289062 82.625 84.867188 C 82.695312 84.261719 83.246094 83.816406 83.851562 83.890625 C 84.460938 83.957031 84.902344 84.507812 84.832031 85.117188 C 84.792969 85.453125 84.773438 85.796875 84.773438 86.140625 C 84.773438 89.679688 86.765625 92.558594 89.214844 92.558594 C 91.660156 92.558594 93.652344 89.679688 93.652344 86.140625 C 93.652344 85.234375 93.519531 84.359375 93.261719 83.535156 C 93.078125 82.949219 93.40625 82.328125 93.992188 82.144531 C 94.578125 81.960938 95.199219 82.285156 95.378906 82.871094 C 95.703125 83.910156 95.871094 85.011719 95.871094 86.144531 C 95.867188 90.90625 92.882812 94.78125 89.214844 94.78125 Z M 89.214844 94.78125 " fill-opacity="1" fill-rule="nonzero"/><g clip-path="url(#1552982dc9)"><path fill="#135662" d="M 102.09375 112.65625 L 76.332031 112.65625 C 75.71875 112.65625 75.222656 112.160156 75.222656 111.546875 C 75.222656 110.933594 75.71875 110.4375 76.332031 110.4375 L 100.984375 110.4375 L 100.984375 104.070312 C 100.984375 100.558594 98.128906 97.703125 94.617188 97.703125 L 92.351562 97.703125 C 91.742188 97.703125 91.242188 97.207031 91.242188 96.59375 C 91.242188 95.980469 91.742188 95.484375 92.351562 95.484375 L 94.617188 95.484375 C 99.351562 95.484375 103.203125 99.335938 103.203125 104.070312 L 103.203125 111.546875 C 103.203125 112.160156 102.707031 112.65625 102.09375 112.65625 Z M 83.101562 97.734375 C 82.535156 97.734375 82.050781 97.304688 81.996094 96.730469 C 81.941406 96.121094 82.386719 95.578125 83 95.519531 C 83.269531 95.496094 83.539062 95.484375 83.808594 95.484375 L 86.074219 95.484375 C 86.683594 95.484375 87.183594 95.980469 87.183594 96.59375 C 87.183594 97.207031 86.683594 97.703125 86.074219 97.703125 L 83.808594 97.703125 C 83.609375 97.703125 83.40625 97.710938 83.207031 97.730469 C 83.171875 97.734375 83.136719 97.734375 83.101562 97.734375 Z M 83.101562 97.734375 " fill-opacity="1" fill-rule="nonzero"/></g><path fill="#135662" d="M 89.214844 105.179688 C 88.78125 105.179688 88.367188 104.925781 88.191406 104.5 L 85.050781 97.023438 C 84.8125 96.457031 85.078125 95.808594 85.640625 95.570312 C 86.207031 95.332031 86.859375 95.597656 87.09375 96.164062 L 90.234375 103.640625 C 90.472656 104.207031 90.207031 104.855469 89.644531 105.09375 C 89.5 105.152344 89.355469 105.179688 89.214844 105.179688 Z M 89.214844 105.179688 " fill-opacity="1" fill-rule="nonzero"/><path fill="#135662" d="M 89.214844 105.179688 C 89.070312 105.179688 88.925781 105.152344 88.785156 105.09375 C 88.21875 104.855469 87.953125 104.207031 88.191406 103.640625 L 91.332031 96.164062 C 91.570312 95.597656 92.21875 95.332031 92.785156 95.570312 C 93.351562 95.808594 93.617188 96.457031 93.378906 97.023438 L 90.238281 104.5 C 90.054688 104.925781 89.644531 105.179688 89.214844 105.179688 Z M 89.214844 105.179688 " fill-opacity="1" fill-rule="nonzero"/><g clip-path="url(#c5ce286f07)"><path fill="#135662" d="M 89.214844 112.65625 C 88.601562 112.65625 88.101562 112.160156 88.101562 111.546875 L 88.101562 104.734375 L 83.625 102.34375 C 83.082031 102.054688 82.878906 101.382812 83.167969 100.839844 C 83.457031 100.300781 84.128906 100.09375 84.667969 100.382812 L 89.738281 103.089844 C 90.097656 103.28125 90.324219 103.660156 90.324219 104.066406 L 90.324219 111.546875 C 90.324219 112.160156 89.824219 112.65625 89.214844 112.65625 Z M 89.214844 112.65625 " fill-opacity="1" fill-rule="nonzero"/></g><g clip-path="url(#9d8be45f72)"><path fill="#135662" d="M 89.214844 112.65625 C 88.601562 112.65625 88.101562 112.160156 88.101562 111.546875 L 88.101562 104.070312 C 88.101562 103.660156 88.328125 103.285156 88.6875 103.089844 L 94.542969 99.964844 L 93.648438 99.3125 C 93.359375 99.101562 93.191406 98.765625 93.191406 98.410156 C 93.195312 98.054688 93.367188 97.71875 93.652344 97.515625 L 95.855469 95.933594 C 96.351562 95.578125 97.046875 95.691406 97.40625 96.1875 C 97.761719 96.6875 97.648438 97.382812 97.148438 97.738281 L 96.191406 98.425781 L 97.277344 99.214844 C 97.585938 99.441406 97.757812 99.808594 97.730469 100.191406 C 97.703125 100.574219 97.484375 100.910156 97.148438 101.089844 L 90.320312 104.734375 L 90.320312 111.546875 C 90.324219 112.160156 89.824219 112.65625 89.214844 112.65625 Z M 89.214844 112.65625 " fill-opacity="1" fill-rule="nonzero"/></g><g clip-path="url(#a96a7b3c11)"><path fill="#135662" d="M 97.128906 112.65625 C 96.515625 112.65625 96.019531 112.160156 96.019531 111.546875 L 96.019531 106.710938 C 96.019531 106.097656 96.515625 105.597656 97.128906 105.597656 C 97.742188 105.597656 98.238281 106.097656 98.238281 106.710938 L 98.238281 111.546875 C 98.238281 112.160156 97.742188 112.65625 97.128906 112.65625 Z M 97.128906 112.65625 " fill-opacity="1" fill-rule="nonzero"/></g><path fill="#135662" d="M 86.074219 97.703125 C 85.789062 97.703125 85.507812 97.59375 85.289062 97.378906 C 84.859375 96.949219 84.855469 96.253906 85.277344 95.820312 C 85.332031 95.761719 86.128906 94.847656 85.75 93.191406 C 85.609375 92.59375 85.984375 92 86.582031 91.859375 C 87.175781 91.722656 87.773438 92.097656 87.910156 92.695312 C 88.582031 95.609375 86.929688 97.304688 86.859375 97.375 C 86.640625 97.59375 86.355469 97.703125 86.074219 97.703125 Z M 86.074219 97.703125 " fill-opacity="1" fill-rule="nonzero"/><path fill="#135662" d="M 92.363281 97.703125 C 92.074219 97.703125 91.789062 97.59375 91.566406 97.375 C 91.496094 97.304688 89.84375 95.605469 90.515625 92.691406 C 90.652344 92.09375 91.25 91.722656 91.84375 91.859375 C 92.441406 91.996094 92.816406 92.589844 92.675781 93.1875 C 92.292969 94.867188 93.117188 95.78125 93.152344 95.820312 C 93.585938 96.253906 93.578125 96.949219 93.144531 97.382812 C 92.929688 97.597656 92.644531 97.703125 92.363281 97.703125 Z M 92.363281 97.703125 " fill-opacity="1" fill-rule="nonzero"/><path fill="#135662" d="M 38.351562 86.105469 C 37.902344 86.105469 37.496094 85.835938 37.324219 85.414062 C 37.144531 84.972656 35.621094 81.042969 37.203125 78.621094 C 37.648438 77.9375 38.515625 77.125 40.15625 76.941406 C 41.25 75.785156 43.714844 74.699219 47.351562 76.863281 C 47.382812 76.882812 47.410156 76.898438 47.4375 76.921875 C 47.609375 77.046875 49.152344 78.1875 49.855469 79.574219 C 49.863281 79.589844 49.871094 79.601562 49.878906 79.617188 C 49.890625 79.640625 50.265625 80.398438 50.863281 80.324219 C 50.960938 80.3125 51.054688 80.3125 51.148438 80.328125 C 51.671875 80.398438 52.089844 80.726562 52.238281 81.179688 C 52.382812 81.597656 52.28125 82.050781 51.972656 82.398438 C 51.542969 82.929688 48.519531 86.304688 41.972656 84.230469 C 41.441406 85.015625 40.40625 85.945312 38.441406 86.105469 C 38.410156 86.105469 38.382812 86.105469 38.351562 86.105469 Z M 43.421875 77.839844 C 42.167969 77.839844 41.664062 78.597656 41.65625 78.609375 C 41.457031 78.921875 41.117188 79.117188 40.746094 79.125 C 39.503906 79.15625 39.167969 79.671875 39.058594 79.839844 C 38.441406 80.785156 38.757812 82.570312 39.089844 83.730469 C 40.125 83.382812 40.316406 82.636719 40.316406 82.628906 C 40.382812 82.3125 40.585938 82.039062 40.871094 81.886719 C 41.15625 81.730469 41.492188 81.707031 41.796875 81.820312 C 45.457031 83.207031 47.761719 82.640625 49.023438 81.964844 C 48.457031 81.550781 48.070312 80.992188 47.871094 80.558594 C 47.484375 79.820312 46.535156 79.011719 46.175781 78.746094 C 45.007812 78.0625 44.105469 77.839844 43.421875 77.839844 Z M 40.71875 78.015625 Z M 40.71875 78.015625 " fill-opacity="1" fill-rule="nonzero"/><path fill="#135662" d="M 43.867188 94.78125 C 40.195312 94.78125 37.207031 90.90625 37.207031 86.144531 C 37.207031 85.71875 37.230469 85.289062 37.277344 84.867188 C 37.347656 84.261719 37.898438 83.816406 38.507812 83.890625 C 39.113281 83.957031 39.554688 84.507812 39.484375 85.117188 C 39.449219 85.453125 39.425781 85.796875 39.425781 86.140625 C 39.425781 89.679688 41.417969 92.558594 43.867188 92.558594 C 46.3125 92.558594 48.304688 89.679688 48.304688 86.140625 C 48.304688 85.234375 48.175781 84.359375 47.917969 83.535156 C 47.730469 82.949219 48.058594 82.328125 48.644531 82.140625 C 49.230469 81.960938 49.851562 82.285156 50.035156 82.871094 C 50.363281 83.910156 50.527344 85.011719 50.527344 86.140625 C 50.523438 90.90625 47.535156 94.78125 43.867188 94.78125 Z M 43.867188 94.78125 " fill-opacity="1" fill-rule="nonzero"/><g clip-path="url(#df8350aefc)"><path fill="#135662" d="M 56.746094 112.65625 L 30.984375 112.65625 C 30.371094 112.65625 29.875 112.160156 29.875 111.546875 L 29.875 104.070312 C 29.875 99.335938 33.726562 95.484375 38.460938 95.484375 L 40.726562 95.484375 C 41.339844 95.484375 41.835938 95.980469 41.835938 96.59375 C 41.835938 97.207031 41.339844 97.703125 40.726562 97.703125 L 38.460938 97.703125 C 34.949219 97.703125 32.09375 100.558594 32.09375 104.070312 L 32.09375 110.4375 L 56.746094 110.4375 C 57.359375 110.4375 57.855469 110.933594 57.855469 111.546875 C 57.855469 112.160156 57.359375 112.65625 56.746094 112.65625 Z M 49.386719 97.703125 C 49.382812 97.703125 49.375 97.703125 49.371094 97.703125 L 47.003906 97.703125 C 46.390625 97.703125 45.894531 97.207031 45.894531 96.59375 C 45.894531 95.980469 46.390625 95.484375 47.003906 95.484375 L 49.394531 95.484375 C 50.007812 95.488281 50.496094 95.992188 50.492188 96.605469 C 50.488281 97.214844 49.992188 97.703125 49.386719 97.703125 Z M 49.386719 97.703125 " fill-opacity="1" fill-rule="nonzero"/></g><path fill="#135662" d="M 43.867188 105.179688 C 43.433594 105.179688 43.019531 104.925781 42.84375 104.5 L 39.703125 97.023438 C 39.464844 96.457031 39.730469 95.808594 40.296875 95.570312 C 40.859375 95.332031 41.511719 95.597656 41.75 96.164062 L 44.890625 103.640625 C 45.125 104.207031 44.859375 104.855469 44.296875 105.09375 C 44.15625 105.152344 44.011719 105.179688 43.867188 105.179688 Z M 43.867188 105.179688 " fill-opacity="1" fill-rule="nonzero"/><path fill="#135662" d="M 43.867188 105.179688 C 43.722656 105.179688 43.578125 105.152344 43.4375 105.09375 C 42.871094 104.855469 42.609375 104.207031 42.84375 103.640625 L 45.984375 96.164062 C 46.222656 95.597656 46.875 95.332031 47.4375 95.570312 C 48.003906 95.808594 48.269531 96.457031 48.03125 97.023438 L 44.890625 104.5 C 44.710938 104.925781 44.300781 105.179688 43.867188 105.179688 Z M 43.867188 105.179688 " fill-opacity="1" fill-rule="nonzero"/><g clip-path="url(#6469afe968)"><path fill="#135662" d="M 43.867188 112.65625 C 43.253906 112.65625 42.757812 112.160156 42.757812 111.546875 L 42.757812 104.734375 L 35.929688 101.089844 C 35.59375 100.910156 35.371094 100.574219 35.347656 100.191406 C 35.320312 99.808594 35.488281 99.441406 35.796875 99.214844 L 36.882812 98.425781 L 35.925781 97.738281 C 35.429688 97.382812 35.316406 96.6875 35.671875 96.1875 C 36.03125 95.691406 36.722656 95.578125 37.222656 95.933594 L 39.421875 97.515625 C 39.710938 97.722656 39.882812 98.054688 39.882812 98.410156 C 39.886719 98.765625 39.714844 99.101562 39.429688 99.3125 L 38.53125 99.964844 L 44.386719 103.089844 C 44.75 103.285156 44.976562 103.660156 44.976562 104.070312 L 44.976562 111.546875 C 44.976562 112.160156 44.480469 112.65625 43.867188 112.65625 Z M 43.867188 112.65625 " fill-opacity="1" fill-rule="nonzero"/></g><g clip-path="url(#229391eeb4)"><path fill="#135662" d="M 43.867188 112.65625 C 43.253906 112.65625 42.757812 112.160156 42.757812 111.546875 L 42.757812 104.070312 C 42.757812 103.660156 42.984375 103.285156 43.34375 103.089844 L 47.804688 100.710938 C 48.34375 100.421875 49.015625 100.625 49.308594 101.164062 C 49.597656 101.707031 49.390625 102.378906 48.851562 102.667969 L 44.976562 104.734375 L 44.976562 111.546875 C 44.976562 112.160156 44.480469 112.65625 43.867188 112.65625 Z M 43.867188 112.65625 " fill-opacity="1" fill-rule="nonzero"/></g><g clip-path="url(#a46bb5864d)"><path fill="#135662" d="M 35.949219 112.65625 C 35.335938 112.65625 34.839844 112.160156 34.839844 111.546875 L 34.839844 106.710938 C 34.839844 106.097656 35.335938 105.597656 35.949219 105.597656 C 36.5625 105.597656 37.058594 106.097656 37.058594 106.710938 L 37.058594 111.546875 C 37.058594 112.160156 36.5625 112.65625 35.949219 112.65625 Z M 35.949219 112.65625 " fill-opacity="1" fill-rule="nonzero"/></g><path fill="#135662" d="M 40.726562 97.703125 C 40.441406 97.703125 40.160156 97.59375 39.941406 97.378906 C 39.511719 96.949219 39.507812 96.253906 39.929688 95.820312 C 39.984375 95.761719 40.78125 94.847656 40.402344 93.191406 C 40.265625 92.59375 40.636719 91.996094 41.234375 91.859375 C 41.832031 91.722656 42.425781 92.097656 42.5625 92.695312 C 43.234375 95.609375 41.582031 97.304688 41.511719 97.375 C 41.292969 97.59375 41.007812 97.703125 40.726562 97.703125 Z M 40.726562 97.703125 " fill-opacity="1" fill-rule="nonzero"/><path fill="#135662" d="M 47.007812 97.703125 C 46.722656 97.703125 46.4375 97.59375 46.222656 97.375 C 46.148438 97.304688 44.5 95.609375 45.167969 92.695312 C 45.304688 92.097656 45.902344 91.722656 46.5 91.859375 C 47.09375 92 47.46875 92.59375 47.332031 93.191406 C 46.9375 94.894531 47.785156 95.800781 47.792969 95.808594 C 48.226562 96.246094 48.222656 96.945312 47.789062 97.378906 C 47.574219 97.59375 47.289062 97.703125 47.007812 97.703125 Z M 47.007812 97.703125 " fill-opacity="1" fill-rule="nonzero"/><path fill="#135662" d="M 66.539062 55.667969 C 65.085938 55.667969 63.011719 54.640625 61.40625 49.753906 C 60.277344 46.324219 59.65625 41.796875 59.65625 37.007812 C 59.65625 32.21875 60.277344 27.695312 61.40625 24.261719 C 63.011719 19.375 65.085938 18.351562 66.539062 18.351562 C 67.992188 18.351562 70.066406 19.375 71.671875 24.261719 C 72.800781 27.691406 73.425781 32.21875 73.425781 37.007812 C 73.425781 41.796875 72.800781 46.324219 71.671875 49.753906 C 70.066406 54.640625 67.992188 55.667969 66.539062 55.667969 Z M 66.539062 20.570312 C 64.636719 20.570312 61.875 26.972656 61.875 37.007812 C 61.875 47.042969 64.636719 53.449219 66.539062 53.449219 C 68.441406 53.449219 71.203125 47.042969 71.203125 37.007812 C 71.203125 26.972656 68.441406 20.570312 66.539062 20.570312 Z M 66.539062 20.570312 " fill-opacity="1" fill-rule="nonzero"/><path fill="#135662" d="M 54.75 48.222656 C 52.117188 48.222656 50.917969 47.277344 50.378906 46.339844 C 49.652344 45.078125 49.5 42.769531 52.921875 38.941406 C 55.324219 36.253906 58.9375 33.449219 63.097656 31.050781 C 71.128906 26.414062 80.4375 23.769531 82.695312 27.683594 C 84.957031 31.59375 78.007812 38.339844 69.980469 42.972656 C 65.820312 45.375 61.589844 47.101562 58.058594 47.839844 C 56.761719 48.109375 55.667969 48.222656 54.75 48.222656 Z M 78.390625 28.019531 C 75.472656 28.019531 70.269531 29.46875 64.210938 32.96875 C 60.25 35.253906 56.828125 37.902344 54.582031 40.417969 C 52.316406 42.953125 51.9375 44.59375 52.304688 45.230469 C 52.671875 45.863281 54.28125 46.359375 57.609375 45.664062 C 60.910156 44.972656 64.914062 43.335938 68.871094 41.050781 C 77.5625 36.03125 81.726562 30.4375 80.777344 28.792969 C 80.488281 28.289062 79.652344 28.019531 78.390625 28.019531 Z M 78.390625 28.019531 " fill-opacity="1" fill-rule="nonzero"/><path fill="#135662" d="M 78.308594 48.234375 C 74.289062 48.234375 68.414062 46.039062 63.097656 42.96875 C 55.066406 38.332031 48.121094 31.59375 50.378906 27.679688 C 51.109375 26.414062 53.03125 25.132812 58.0625 26.179688 C 61.589844 26.917969 65.824219 28.644531 69.980469 31.046875 C 78.011719 35.679688 84.957031 42.421875 82.699219 46.335938 C 81.933594 47.660156 80.363281 48.234375 78.308594 48.234375 Z M 54.761719 28.019531 C 53.320312 28.019531 52.542969 28.375 52.304688 28.789062 C 51.355469 30.4375 55.519531 36.03125 64.210938 41.046875 C 72.898438 46.066406 79.828125 46.875 80.777344 45.226562 C 81.726562 43.582031 77.5625 37.984375 68.871094 32.96875 C 64.914062 30.683594 60.910156 29.042969 57.609375 28.355469 C 56.460938 28.117188 55.519531 28.019531 54.761719 28.019531 Z M 81.738281 45.785156 Z M 81.738281 45.785156 " fill-opacity="1" fill-rule="nonzero"/><g clip-path="url(#ed32776956)"><path fill="#135662" d="M 66.539062 59.457031 C 54.160156 59.457031 44.089844 49.386719 44.089844 37.007812 C 44.089844 24.632812 54.160156 14.558594 66.539062 14.558594 C 78.917969 14.558594 88.988281 24.632812 88.988281 37.007812 C 88.988281 49.386719 78.917969 59.457031 66.539062 59.457031 Z M 66.539062 16.777344 C 55.386719 16.777344 46.308594 25.855469 46.308594 37.007812 C 46.308594 48.164062 55.386719 57.238281 66.539062 57.238281 C 77.695312 57.238281 86.769531 48.164062 86.769531 37.007812 C 86.769531 25.855469 77.695312 16.777344 66.539062 16.777344 Z M 66.539062 16.777344 " fill-opacity="1" fill-rule="nonzero"/></g></svg>