<svg xmlns="http://www.w3.org/2000/svg" xmlns:xlink="http://www.w3.org/1999/xlink" width="179" zoomAndPan="magnify" viewBox="0 0 134.25 128.249994" height="171" preserveAspectRatio="xMidYMid meet" version="1.0"><defs><filter x="0%" y="0%" width="100%" height="100%" id="e9ecdf12c4"><feColorMatrix values="0 0 0 0 1 0 0 0 0 1 0 0 0 0 1 0 0 0 1 0" color-interpolation-filters="sRGB"/></filter><clipPath id="d0d3b1792d"><path d="M 0.015625 0 L 133.488281 0 L 133.488281 127.503906 L 0.015625 127.503906 Z M 0.015625 0 " clip-rule="nonzero"/></clipPath><mask id="8cb80a6b79"><g filter="url(#e9ecdf12c4)"><rect x="-13.425" width="161.1" fill="#000000" y="-12.824999" height="153.899993" fill-opacity="0.55"/></g></mask><clipPath id="fff5c9e09b"><path d="M 0.015625 0 L 133.1875 0 L 133.1875 127.207031 L 0.015625 127.207031 Z M 0.015625 0 " clip-rule="nonzero"/></clipPath><clipPath id="f5ba5c4a19"><path d="M 42.519531 0 L 90.582031 0 C 101.855469 0 112.664062 4.476562 120.632812 12.449219 C 128.605469 20.417969 133.082031 31.230469 133.082031 42.5 L 133.082031 84.703125 C 133.082031 95.976562 128.605469 106.785156 120.632812 114.757812 C 112.664062 122.726562 101.855469 127.207031 90.582031 127.207031 L 42.519531 127.207031 C 31.246094 127.207031 20.4375 122.726562 12.464844 114.757812 C 4.496094 106.785156 0.015625 95.976562 0.015625 84.703125 L 0.015625 42.5 C 0.015625 31.230469 4.496094 20.417969 12.464844 12.449219 C 20.4375 4.476562 31.246094 0 42.519531 0 Z M 42.519531 0 " clip-rule="nonzero"/></clipPath><clipPath id="3840e6675a"><path d="M 0.015625 0 L 133.160156 0 L 133.160156 127.207031 L 0.015625 127.207031 Z M 0.015625 0 " clip-rule="nonzero"/></clipPath><clipPath id="364f403bff"><path d="M 42.519531 0 L 90.582031 0 C 101.855469 0 112.664062 4.476562 120.632812 12.449219 C 128.605469 20.417969 133.082031 31.230469 133.082031 42.5 L 133.082031 84.703125 C 133.082031 95.976562 128.605469 106.785156 120.632812 114.757812 C 112.664062 122.726562 101.855469 127.207031 90.582031 127.207031 L 42.519531 127.207031 C 31.246094 127.207031 20.4375 122.726562 12.464844 114.757812 C 4.496094 106.785156 0.015625 95.976562 0.015625 84.703125 L 0.015625 42.5 C 0.015625 31.230469 4.496094 20.417969 12.464844 12.449219 C 20.4375 4.476562 31.246094 0 42.519531 0 Z M 42.519531 0 " clip-rule="nonzero"/></clipPath><clipPath id="512d89bb1d"><rect x="0" width="134" y="0" height="128"/></clipPath><clipPath id="f887bbdac2"><rect x="0" width="134" y="0" height="128"/></clipPath><clipPath id="7e2d33f114"><path d="M 18.160156 20.582031 L 115 20.582031 L 115 106.328125 L 18.160156 106.328125 Z M 18.160156 20.582031 " clip-rule="nonzero"/></clipPath></defs><g clip-path="url(#d0d3b1792d)"><g mask="url(#8cb80a6b79)"><g transform="matrix(1, 0, 0, 1, 0.000000000000000003, 0.000000000000020212)"><g clip-path="url(#f887bbdac2)"><g clip-path="url(#fff5c9e09b)"><g clip-path="url(#f5ba5c4a19)"><g transform="matrix(1, 0, 0, 1, 0.000000000000000003, 0.000000000000020212)"><g clip-path="url(#512d89bb1d)"><g clip-path="url(#3840e6675a)"><g clip-path="url(#364f403bff)"><path fill="#afd57f" d="M 0.015625 0 L 133.1875 0 L 133.1875 127.207031 L 0.015625 127.207031 Z M 0.015625 0 " fill-opacity="1" fill-rule="nonzero"/></g></g></g></g></g></g></g></g></g></g><g clip-path="url(#7e2d33f114)"><path fill="#135662" d="M 102.585938 82 L 102.355469 82 L 102.355469 81.472656 C 102.355469 79.175781 100.742188 77.257812 98.589844 76.769531 L 98.589844 66.964844 C 100.742188 66.476562 102.355469 64.558594 102.355469 62.257812 L 102.355469 60.65625 C 102.355469 60.0625 101.875 59.582031 101.28125 59.582031 L 99.804688 59.582031 C 100.171875 58.949219 100.398438 58.222656 100.398438 57.441406 C 100.398438 55.070312 98.472656 53.144531 96.105469 53.144531 L 94.871094 53.144531 L 94.871094 41.085938 L 100.601562 39.472656 L 104.980469 40.703125 C 106.136719 41.03125 106.945312 42.097656 106.945312 43.300781 L 106.945312 47.039062 C 104.785156 47.136719 103.054688 48.910156 103.054688 51.089844 C 103.054688 53.335938 104.878906 55.160156 107.125 55.160156 L 108.917969 55.160156 C 111.164062 55.160156 112.988281 53.335938 112.988281 51.089844 C 112.988281 48.910156 111.257812 47.136719 109.097656 47.039062 L 109.097656 43.300781 C 109.097656 41.136719 107.644531 39.21875 105.5625 38.632812 L 104.570312 38.355469 L 113.140625 35.9375 C 113.601562 35.808594 113.925781 35.386719 113.925781 34.902344 C 113.925781 34.421875 113.601562 34 113.140625 33.867188 L 66.3125 20.671875 C 66.121094 20.621094 65.917969 20.621094 65.730469 20.671875 L 18.902344 33.867188 C 18.4375 34 18.117188 34.421875 18.117188 34.902344 C 18.117188 35.386719 18.4375 35.808594 18.902344 35.9375 L 37.171875 41.085938 L 37.171875 53.144531 L 35.9375 53.144531 C 33.570312 53.144531 31.644531 55.070312 31.644531 57.4375 C 31.644531 58.234375 31.875 58.972656 32.257812 59.617188 C 25.804688 59.976562 20.660156 65.324219 20.660156 71.867188 C 20.660156 78.640625 26.171875 84.152344 32.945312 84.152344 L 33.171875 84.152344 L 33.171875 84.675781 C 33.171875 86.972656 34.785156 88.894531 36.9375 89.382812 L 36.9375 99.1875 C 34.785156 99.675781 33.171875 101.59375 33.171875 103.890625 L 33.171875 105.492188 C 33.171875 106.085938 33.652344 106.566406 34.246094 106.566406 L 102.585938 106.566406 C 109.359375 106.566406 114.871094 101.058594 114.871094 94.28125 C 114.871094 87.507812 109.359375 81.996094 102.585938 81.996094 Z M 110.835938 51.09375 C 110.835938 52.148438 109.976562 53.007812 108.921875 53.007812 L 107.125 53.007812 C 106.070312 53.007812 105.207031 52.148438 105.207031 51.09375 C 105.207031 50.035156 106.070312 49.175781 107.125 49.175781 L 108.921875 49.175781 C 109.976562 49.175781 110.835938 50.035156 110.835938 51.09375 Z M 32.941406 76.644531 C 30.308594 76.644531 28.167969 74.5 28.167969 71.867188 C 28.167969 69.234375 30.308594 67.089844 32.941406 67.089844 L 96.4375 67.089844 L 96.4375 76.644531 Z M 66.019531 22.828125 L 108.878906 34.90625 L 100.605469 37.234375 L 78.40625 30.980469 C 77.835938 30.820312 77.242188 31.152344 77.078125 31.726562 C 76.917969 32.296875 77.25 32.890625 77.824219 33.050781 L 96.636719 38.355469 L 66.019531 46.980469 L 23.164062 34.90625 Z M 39.324219 41.695312 L 65.730469 49.136719 C 65.824219 49.164062 65.921875 49.175781 66.019531 49.175781 C 66.121094 49.175781 66.21875 49.164062 66.3125 49.136719 L 92.71875 41.695312 L 92.71875 53.144531 L 39.320312 53.144531 L 39.320312 41.695312 Z M 35.9375 55.296875 L 96.105469 55.296875 C 97.285156 55.296875 98.246094 56.257812 98.246094 57.441406 C 98.246094 58.621094 97.285156 59.582031 96.105469 59.582031 L 35.9375 59.582031 C 34.753906 59.582031 33.792969 58.621094 33.792969 57.441406 C 33.792969 56.257812 34.753906 55.296875 35.9375 55.296875 Z M 22.8125 71.867188 C 22.8125 66.28125 27.359375 61.734375 32.945312 61.734375 L 100.207031 61.734375 L 100.207031 62.257812 C 100.207031 63.738281 99.003906 64.9375 97.527344 64.9375 L 32.941406 64.9375 C 29.121094 64.9375 26.015625 68.046875 26.015625 71.867188 C 26.015625 75.6875 29.121094 78.796875 32.941406 78.796875 L 97.527344 78.796875 C 99.003906 78.796875 100.203125 79.996094 100.203125 81.472656 L 100.203125 82 L 32.941406 82 C 27.355469 82 22.8125 77.453125 22.8125 71.867188 Z M 102.585938 89.507812 C 105.21875 89.507812 107.359375 91.648438 107.359375 94.285156 C 107.359375 96.917969 105.21875 99.0625 102.585938 99.0625 L 39.089844 99.0625 L 39.089844 89.507812 Z M 102.585938 104.417969 L 35.320312 104.417969 L 35.320312 103.890625 C 35.320312 102.414062 36.523438 101.214844 38 101.214844 L 102.585938 101.214844 C 106.40625 101.214844 109.515625 98.105469 109.515625 94.285156 C 109.515625 90.464844 106.40625 87.355469 102.585938 87.355469 L 38 87.355469 C 36.523438 87.355469 35.320312 86.152344 35.320312 84.675781 L 35.320312 84.152344 L 102.585938 84.152344 C 108.167969 84.152344 112.714844 88.699219 112.714844 94.285156 C 112.714844 99.871094 108.167969 104.417969 102.585938 104.417969 Z M 102.585938 104.417969 " fill-opacity="1" fill-rule="nonzero"/></g><path fill="#135662" d="M 42.492188 96.785156 L 58.761719 96.785156 C 59.355469 96.785156 59.835938 96.300781 59.835938 95.707031 C 59.835938 95.113281 59.355469 94.632812 58.761719 94.632812 L 42.492188 94.632812 C 41.898438 94.632812 41.414062 95.113281 41.414062 95.707031 C 41.414062 96.300781 41.898438 96.785156 42.492188 96.785156 Z M 42.492188 96.785156 " fill-opacity="1" fill-rule="nonzero"/><path fill="#135662" d="M 56.953125 93.382812 L 73.222656 93.382812 C 73.816406 93.382812 74.300781 92.898438 74.300781 92.304688 C 74.300781 91.710938 73.816406 91.230469 73.222656 91.230469 L 56.953125 91.230469 C 56.359375 91.230469 55.875 91.710938 55.875 92.304688 C 55.875 92.898438 56.359375 93.382812 56.953125 93.382812 Z M 56.953125 93.382812 " fill-opacity="1" fill-rule="nonzero"/><path fill="#135662" d="M 76.773438 93.382812 L 83.609375 93.382812 C 84.203125 93.382812 84.683594 92.898438 84.683594 92.304688 C 84.683594 91.710938 84.203125 91.230469 83.609375 91.230469 L 76.773438 91.230469 C 76.175781 91.230469 75.695312 91.710938 75.695312 92.304688 C 75.695312 92.898438 76.175781 93.382812 76.773438 93.382812 Z M 76.773438 93.382812 " fill-opacity="1" fill-rule="nonzero"/><path fill="#135662" d="M 93.074219 72.492188 L 76.804688 72.492188 C 76.210938 72.492188 75.726562 72.972656 75.726562 73.570312 C 75.726562 74.164062 76.210938 74.644531 76.804688 74.644531 L 93.074219 74.644531 C 93.667969 74.644531 94.148438 74.164062 94.148438 73.570312 C 94.148438 72.972656 93.667969 72.492188 93.074219 72.492188 Z M 93.074219 72.492188 " fill-opacity="1" fill-rule="nonzero"/><path fill="#135662" d="M 79.691406 70.167969 C 79.691406 69.570312 79.207031 69.089844 78.613281 69.089844 L 62.34375 69.089844 C 61.75 69.089844 61.269531 69.570312 61.269531 70.167969 C 61.269531 70.761719 61.75 71.242188 62.34375 71.242188 L 78.613281 71.242188 C 79.207031 71.242188 79.691406 70.761719 79.691406 70.167969 Z M 79.691406 70.167969 " fill-opacity="1" fill-rule="nonzero"/><path fill="#135662" d="M 58.792969 69.089844 L 51.957031 69.089844 C 51.363281 69.089844 50.878906 69.570312 50.878906 70.167969 C 50.878906 70.761719 51.363281 71.242188 51.957031 71.242188 L 58.792969 71.242188 C 59.386719 71.242188 59.871094 70.761719 59.871094 70.167969 C 59.871094 69.570312 59.386719 69.089844 58.792969 69.089844 Z M 58.792969 69.089844 " fill-opacity="1" fill-rule="nonzero"/></svg>