<svg xmlns="http://www.w3.org/2000/svg" xmlns:xlink="http://www.w3.org/1999/xlink" width="179" zoomAndPan="magnify" viewBox="0 0 134.25 128.249994" height="171" preserveAspectRatio="xMidYMid meet" version="1.0"><defs><filter x="0%" y="0%" width="100%" height="100%" id="0493f5776a"><feColorMatrix values="0 0 0 0 1 0 0 0 0 1 0 0 0 0 1 0 0 0 1 0" color-interpolation-filters="sRGB"/></filter><clipPath id="71e50cfbbc"><path d="M 0.015625 0 L 133.488281 0 L 133.488281 127.503906 L 0.015625 127.503906 Z M 0.015625 0 " clip-rule="nonzero"/></clipPath><mask id="85005867f1"><g filter="url(#0493f5776a)"><rect x="-13.425" width="161.1" fill="#000000" y="-12.824999" height="153.899993" fill-opacity="0.55"/></g></mask><clipPath id="2cb9981304"><path d="M 0.015625 0 L 133.1875 0 L 133.1875 127.207031 L 0.015625 127.207031 Z M 0.015625 0 " clip-rule="nonzero"/></clipPath><clipPath id="2f5c74e329"><path d="M 42.519531 0 L 90.582031 0 C 101.855469 0 112.664062 4.476562 120.632812 12.449219 C 128.605469 20.417969 133.082031 31.230469 133.082031 42.5 L 133.082031 84.703125 C 133.082031 95.976562 128.605469 106.785156 120.632812 114.757812 C 112.664062 122.726562 101.855469 127.207031 90.582031 127.207031 L 42.519531 127.207031 C 31.246094 127.207031 20.4375 122.726562 12.464844 114.757812 C 4.496094 106.785156 0.015625 95.976562 0.015625 84.703125 L 0.015625 42.5 C 0.015625 31.230469 4.496094 20.417969 12.464844 12.449219 C 20.4375 4.476562 31.246094 0 42.519531 0 Z M 42.519531 0 " clip-rule="nonzero"/></clipPath><clipPath id="566b27d4bd"><path d="M 0.015625 0 L 133.160156 0 L 133.160156 127.207031 L 0.015625 127.207031 Z M 0.015625 0 " clip-rule="nonzero"/></clipPath><clipPath id="f8941320cd"><path d="M 42.519531 0 L 90.582031 0 C 101.855469 0 112.664062 4.476562 120.632812 12.449219 C 128.605469 20.417969 133.082031 31.230469 133.082031 42.5 L 133.082031 84.703125 C 133.082031 95.976562 128.605469 106.785156 120.632812 114.757812 C 112.664062 122.726562 101.855469 127.207031 90.582031 127.207031 L 42.519531 127.207031 C 31.246094 127.207031 20.4375 122.726562 12.464844 114.757812 C 4.496094 106.785156 0.015625 95.976562 0.015625 84.703125 L 0.015625 42.5 C 0.015625 31.230469 4.496094 20.417969 12.464844 12.449219 C 20.4375 4.476562 31.246094 0 42.519531 0 Z M 42.519531 0 " clip-rule="nonzero"/></clipPath><clipPath id="5b6f77a2a2"><rect x="0" width="134" y="0" height="128"/></clipPath><clipPath id="809c67fd37"><rect x="0" width="134" y="0" height="128"/></clipPath><clipPath id="602dfd60f0"><path d="M 27 18.15625 L 63 18.15625 L 63 66 L 27 66 Z M 27 18.15625 " clip-rule="nonzero"/></clipPath><clipPath id="2a84cc04ec"><path d="M 65 88 L 68 88 L 68 109.125 L 65 109.125 Z M 65 88 " clip-rule="nonzero"/></clipPath><clipPath id="e875b44ac2"><path d="M 102 88 L 105 88 L 105 109.125 L 102 109.125 Z M 102 88 " clip-rule="nonzero"/></clipPath><clipPath id="14fae02ae7"><path d="M 79 88 L 84 88 L 84 109.125 L 79 109.125 Z M 79 88 " clip-rule="nonzero"/></clipPath><clipPath id="ef52cee3d0"><path d="M 86 88 L 91 88 L 91 109.125 L 86 109.125 Z M 86 88 " clip-rule="nonzero"/></clipPath><clipPath id="057a362f8f"><path d="M 57 73 L 112.929688 73 L 112.929688 109.125 L 57 109.125 Z M 57 73 " clip-rule="nonzero"/></clipPath><clipPath id="f7f587f3b3"><path d="M 57 106 L 112.929688 106 L 112.929688 109.125 L 57 109.125 Z M 57 106 " clip-rule="nonzero"/></clipPath><clipPath id="7712b42b40"><path d="M 20.472656 76 L 53 76 L 53 109.125 L 20.472656 109.125 Z M 20.472656 76 " clip-rule="nonzero"/></clipPath></defs><g clip-path="url(#71e50cfbbc)"><g mask="url(#85005867f1)"><g transform="matrix(1, 0, 0, 1, 0.000000000000000003, 0.000000000000020212)"><g clip-path="url(#809c67fd37)"><g clip-path="url(#2cb9981304)"><g clip-path="url(#2f5c74e329)"><g transform="matrix(1, 0, 0, 1, 0.000000000000000003, 0.000000000000020212)"><g clip-path="url(#5b6f77a2a2)"><g clip-path="url(#566b27d4bd)"><g clip-path="url(#f8941320cd)"><path fill="#afd57f" d="M 0.015625 0 L 133.1875 0 L 133.1875 127.207031 L 0.015625 127.207031 Z M 0.015625 0 " fill-opacity="1" fill-rule="nonzero"/></g></g></g></g></g></g></g></g></g></g><g clip-path="url(#602dfd60f0)"><path fill="#135662" d="M 46.027344 65.585938 C 45.5625 65.585938 45.140625 65.277344 45.015625 64.808594 C 42.289062 54.636719 38.230469 51.441406 34.648438 48.617188 C 32.070312 46.585938 29.628906 44.664062 28.523438 40.535156 C 27.328125 36.078125 27.941406 31.421875 30.25 27.421875 C 32.558594 23.425781 36.285156 20.566406 40.742188 19.375 C 45.199219 18.179688 49.855469 18.792969 53.855469 21.101562 C 57.851562 23.40625 60.710938 27.132812 61.90625 31.59375 C 63.011719 35.722656 61.859375 38.601562 60.640625 41.65625 C 58.949219 45.886719 57.03125 50.6875 59.757812 60.859375 C 59.90625 61.417969 59.578125 61.992188 59.019531 62.140625 C 58.457031 62.292969 57.886719 61.960938 57.738281 61.402344 C 54.828125 50.554688 56.972656 45.1875 58.695312 40.878906 C 59.875 37.921875 60.808594 35.589844 59.882812 32.132812 C 58.832031 28.214844 56.320312 24.941406 52.808594 22.914062 C 49.296875 20.882812 45.203125 20.347656 41.285156 21.398438 C 33.195312 23.5625 28.378906 31.90625 30.546875 39.996094 C 31.472656 43.453125 33.445312 45.007812 35.945312 46.976562 C 39.59375 49.847656 44.132812 53.421875 47.039062 64.269531 C 47.1875 64.828125 46.855469 65.402344 46.296875 65.550781 C 46.207031 65.574219 46.117188 65.585938 46.027344 65.585938 Z M 46.027344 65.585938 " fill-opacity="1" fill-rule="nonzero"/></g><path fill="#135662" d="M 45.785156 71.164062 C 44.125 71.164062 42.601562 70.058594 42.15625 68.378906 C 41.894531 67.414062 42.03125 66.402344 42.535156 65.53125 C 43.035156 64.660156 43.847656 64.039062 44.8125 63.78125 L 59.421875 59.863281 C 61.421875 59.328125 63.488281 60.519531 64.023438 62.519531 C 64.558594 64.519531 63.367188 66.585938 61.367188 67.121094 L 46.753906 71.039062 C 46.429688 71.125 46.105469 71.164062 45.785156 71.164062 Z M 60.394531 61.832031 C 60.25 61.832031 60.105469 61.851562 59.964844 61.886719 L 45.355469 65.804688 C 44.925781 65.917969 44.570312 66.195312 44.347656 66.582031 C 44.125 66.964844 44.066406 67.414062 44.179688 67.839844 C 44.414062 68.726562 45.328125 69.253906 46.214844 69.015625 L 60.824219 65.101562 C 61.710938 64.863281 62.238281 63.949219 62 63.066406 C 61.800781 62.320312 61.125 61.832031 60.394531 61.832031 Z M 45.082031 64.789062 Z M 45.082031 64.789062 " fill-opacity="1" fill-rule="nonzero"/><path fill="#135662" d="M 50.898438 75.40625 C 50.25 75.40625 49.601562 75.234375 49.023438 74.898438 C 48.152344 74.394531 47.53125 73.585938 47.269531 72.621094 L 46.570312 70.003906 C 46.421875 69.445312 46.75 68.871094 47.3125 68.722656 C 47.871094 68.574219 48.445312 68.902344 48.59375 69.460938 L 49.292969 72.078125 C 49.410156 72.507812 49.683594 72.863281 50.070312 73.085938 C 50.457031 73.3125 50.902344 73.371094 51.332031 73.257812 L 58.511719 71.332031 C 59.398438 71.097656 59.925781 70.179688 59.6875 69.296875 L 58.984375 66.679688 C 58.835938 66.121094 59.167969 65.546875 59.726562 65.398438 C 60.285156 65.25 60.859375 65.582031 61.007812 66.140625 L 61.707031 68.757812 C 62.246094 70.757812 61.054688 72.820312 59.050781 73.355469 L 51.871094 75.28125 C 51.554688 75.363281 51.226562 75.40625 50.898438 75.40625 Z M 50.898438 75.40625 " fill-opacity="1" fill-rule="nonzero"/><path fill="#135662" d="M 55.195312 78.136719 C 53.0625 78.136719 51.101562 76.710938 50.523438 74.554688 L 51.535156 74.28125 L 52.550781 74.03125 C 52.9375 75.472656 54.441406 76.339844 55.902344 75.949219 C 56.609375 75.761719 57.199219 75.308594 57.566406 74.675781 C 57.929688 74.039062 58.027344 73.304688 57.839844 72.59375 C 57.832031 72.574219 57.828125 72.550781 57.824219 72.53125 C 57.710938 71.960938 58.078125 71.410156 58.644531 71.296875 C 59.195312 71.1875 59.730469 71.527344 59.867188 72.066406 C 60.195312 73.308594 60.023438 74.605469 59.378906 75.722656 C 58.734375 76.839844 57.691406 77.640625 56.445312 77.972656 C 56.027344 78.082031 55.605469 78.136719 55.195312 78.136719 Z M 55.195312 78.136719 " fill-opacity="1" fill-rule="nonzero"/><path fill="#135662" d="M 49.703125 64.601562 C 49.242188 64.601562 48.816406 64.292969 48.691406 63.824219 L 41.472656 36.886719 L 39.015625 41.390625 C 38.738281 41.898438 38.101562 42.085938 37.597656 41.808594 C 37.089844 41.53125 36.902344 40.894531 37.179688 40.390625 L 40.890625 33.589844 C 41.097656 33.214844 41.511719 33.003906 41.933594 33.050781 C 42.359375 33.101562 42.710938 33.40625 42.824219 33.820312 L 50.71875 63.28125 C 50.867188 63.839844 50.535156 64.414062 49.976562 64.5625 C 49.882812 64.585938 49.792969 64.601562 49.703125 64.601562 Z M 49.703125 64.601562 " fill-opacity="1" fill-rule="nonzero"/><path fill="#135662" d="M 55.070312 63.160156 C 54.605469 63.160156 54.183594 62.855469 54.058594 62.386719 L 46.164062 32.925781 C 46.054688 32.511719 46.207031 32.070312 46.546875 31.816406 C 46.890625 31.558594 47.355469 31.535156 47.722656 31.757812 L 54.335938 35.789062 C 54.828125 36.089844 54.984375 36.734375 54.6875 37.226562 C 54.382812 37.722656 53.742188 37.875 53.246094 37.578125 L 48.867188 34.90625 L 56.085938 61.84375 C 56.234375 62.402344 55.902344 62.976562 55.34375 63.125 C 55.25 63.152344 55.160156 63.160156 55.070312 63.160156 Z M 55.070312 63.160156 " fill-opacity="1" fill-rule="nonzero"/><path fill="#135662" d="M 79.359375 87.621094 C 79.300781 87.621094 79.238281 87.617188 79.175781 87.605469 C 78.871094 87.550781 78.605469 87.363281 78.453125 87.097656 L 71.515625 75.011719 C 71.226562 74.511719 71.398438 73.871094 71.902344 73.582031 C 72.402344 73.292969 73.042969 73.464844 73.332031 73.96875 L 79.648438 84.96875 L 83.484375 81.757812 L 77.0625 75.199219 C 76.65625 74.785156 76.664062 74.121094 77.078125 73.71875 C 77.488281 73.3125 78.152344 73.320312 78.558594 73.730469 L 85.773438 81.097656 C 85.976562 81.308594 86.085938 81.589844 86.070312 81.882812 C 86.054688 82.175781 85.921875 82.449219 85.699219 82.636719 L 80.035156 87.378906 C 79.84375 87.539062 79.605469 87.621094 79.359375 87.621094 Z M 79.359375 87.621094 " fill-opacity="1" fill-rule="nonzero"/><g clip-path="url(#2a84cc04ec)"><path fill="#135662" d="M 66.738281 109.023438 C 66.160156 109.023438 65.691406 108.554688 65.691406 107.976562 L 65.691406 89.167969 C 65.691406 88.589844 66.160156 88.121094 66.738281 88.121094 C 67.316406 88.121094 67.785156 88.589844 67.785156 89.167969 L 67.785156 107.976562 C 67.785156 108.558594 67.316406 109.023438 66.738281 109.023438 Z M 66.738281 109.023438 " fill-opacity="1" fill-rule="nonzero"/></g><path fill="#135662" d="M 92.238281 75.511719 C 91.660156 75.511719 91.191406 75.042969 91.191406 74.464844 L 91.191406 68.277344 C 91.191406 67.699219 91.660156 67.230469 92.238281 67.230469 C 92.816406 67.230469 93.285156 67.699219 93.285156 68.277344 L 93.285156 74.464844 C 93.285156 75.042969 92.816406 75.511719 92.238281 75.511719 Z M 92.238281 75.511719 " fill-opacity="1" fill-rule="nonzero"/><path fill="#135662" d="M 85.210938 71.792969 C 85.207031 71.792969 85.203125 71.792969 85.195312 71.792969 C 78.757812 71.785156 71.722656 66.621094 71.484375 55.304688 C 71.472656 54.726562 71.929688 54.246094 72.507812 54.238281 C 72.515625 54.238281 72.523438 54.238281 72.53125 54.238281 C 73.097656 54.238281 73.566406 54.691406 73.578125 55.261719 C 73.785156 65.167969 79.75 69.691406 85.199219 69.699219 C 85.203125 69.699219 85.210938 69.699219 85.214844 69.699219 C 90.652344 69.699219 96.609375 65.207031 96.847656 55.335938 C 96.863281 54.765625 97.328125 54.316406 97.894531 54.316406 C 97.902344 54.316406 97.910156 54.316406 97.921875 54.316406 C 98.5 54.328125 98.953125 54.808594 98.941406 55.386719 C 98.667969 66.664062 91.636719 71.792969 85.210938 71.792969 Z M 85.210938 71.792969 " fill-opacity="1" fill-rule="nonzero"/><path fill="#135662" d="M 97.894531 56.445312 C 97.816406 56.445312 97.734375 56.4375 97.652344 56.414062 C 97.191406 56.304688 96.863281 55.898438 96.847656 55.425781 C 96.648438 48.753906 95.03125 46.089844 94.269531 45.203125 C 88.042969 48.773438 82.996094 46.863281 79.617188 45.585938 C 77.320312 44.71875 76.460938 44.496094 75.953125 44.984375 C 75.945312 50.582031 73.574219 55.523438 73.472656 55.738281 C 73.308594 56.070312 72.988281 56.292969 72.621094 56.324219 C 72.253906 56.355469 71.898438 56.195312 71.683594 55.894531 C 67.917969 50.703125 67.644531 44.9375 70.90625 39.660156 C 74.753906 33.445312 82.828125 29.417969 89.289062 30.488281 C 93.8125 31.242188 96.964844 34.332031 98.203125 39.21875 C 104.898438 44.5 99.070312 55.425781 98.816406 55.894531 C 98.628906 56.242188 98.273438 56.445312 97.894531 56.445312 Z M 87.152344 32.414062 C 81.878906 32.414062 75.710938 35.878906 72.683594 40.765625 C 70.238281 44.71875 70.128906 49.007812 72.324219 53.011719 C 73.007812 51.109375 73.914062 47.945312 73.859375 44.648438 C 73.855469 44.4375 73.914062 44.230469 74.027344 44.054688 C 75.503906 41.792969 77.96875 42.726562 80.355469 43.628906 C 83.839844 44.945312 88.175781 46.585938 93.832031 43.023438 C 94.15625 42.820312 94.5625 42.808594 94.898438 42.996094 C 95.214844 43.171875 97.589844 44.691406 98.554688 50.9375 C 99.535156 47.644531 100.042969 43.121094 96.65625 40.679688 C 96.449219 40.53125 96.304688 40.308594 96.25 40.0625 C 95.269531 35.78125 92.742188 33.1875 88.941406 32.554688 C 88.363281 32.460938 87.761719 32.414062 87.152344 32.414062 Z M 87.152344 32.414062 " fill-opacity="1" fill-rule="nonzero"/><g clip-path="url(#e875b44ac2)"><path fill="#135662" d="M 103.308594 109.023438 C 102.730469 109.023438 102.261719 108.554688 102.261719 107.976562 L 102.261719 89.167969 C 102.261719 88.589844 102.730469 88.121094 103.308594 88.121094 C 103.886719 88.121094 104.355469 88.589844 104.355469 89.167969 L 104.355469 107.976562 C 104.355469 108.558594 103.886719 109.023438 103.308594 109.023438 Z M 103.308594 109.023438 " fill-opacity="1" fill-rule="nonzero"/></g><path fill="#135662" d="M 90.683594 87.621094 C 90.441406 87.621094 90.203125 87.535156 90.011719 87.375 L 84.351562 82.632812 C 84.128906 82.441406 83.992188 82.171875 83.976562 81.878906 C 83.964844 81.589844 84.074219 81.304688 84.277344 81.09375 L 91.492188 73.726562 C 91.894531 73.316406 92.558594 73.308594 92.972656 73.714844 C 93.382812 74.117188 93.390625 74.78125 92.988281 75.195312 L 86.5625 81.757812 L 90.402344 84.96875 L 96.714844 73.972656 C 97.003906 73.46875 97.644531 73.296875 98.144531 73.582031 C 98.648438 73.871094 98.820312 74.511719 98.535156 75.011719 L 91.597656 87.097656 C 91.441406 87.367188 91.175781 87.550781 90.871094 87.605469 C 90.808594 87.617188 90.75 87.621094 90.683594 87.621094 Z M 90.683594 87.621094 " fill-opacity="1" fill-rule="nonzero"/><path fill="#135662" d="M 87.277344 90.695312 L 82.769531 90.695312 C 82.28125 90.695312 81.855469 90.355469 81.75 89.875 L 80.621094 84.894531 C 80.492188 84.328125 80.847656 83.769531 81.414062 83.640625 C 81.976562 83.511719 82.539062 83.867188 82.664062 84.433594 L 83.609375 88.601562 L 86.441406 88.601562 L 87.382812 84.433594 C 87.511719 83.867188 88.070312 83.511719 88.636719 83.640625 C 89.199219 83.769531 89.550781 84.328125 89.425781 84.894531 L 88.300781 89.875 C 88.1875 90.355469 87.765625 90.695312 87.277344 90.695312 Z M 87.277344 90.695312 " fill-opacity="1" fill-rule="nonzero"/><g clip-path="url(#14fae02ae7)"><path fill="#135662" d="M 80.371094 109.023438 C 80.328125 109.023438 80.28125 109.023438 80.238281 109.015625 C 79.664062 108.941406 79.257812 108.414062 79.332031 107.839844 L 81.730469 89.511719 C 81.808594 88.9375 82.332031 88.535156 82.90625 88.609375 C 83.480469 88.683594 83.882812 89.207031 83.808594 89.78125 L 81.410156 108.113281 C 81.339844 108.640625 80.890625 109.023438 80.371094 109.023438 Z M 80.371094 109.023438 " fill-opacity="1" fill-rule="nonzero"/></g><g clip-path="url(#ef52cee3d0)"><path fill="#135662" d="M 89.675781 109.023438 C 89.15625 109.023438 88.707031 108.640625 88.636719 108.113281 L 86.238281 89.78125 C 86.164062 89.207031 86.570312 88.683594 87.140625 88.609375 C 87.714844 88.535156 88.242188 88.9375 88.316406 89.511719 L 90.714844 107.839844 C 90.789062 108.414062 90.386719 108.941406 89.8125 109.015625 C 89.765625 109.023438 89.71875 109.023438 89.675781 109.023438 Z M 89.675781 109.023438 " fill-opacity="1" fill-rule="nonzero"/></g><g clip-path="url(#057a362f8f)"><path fill="#135662" d="M 111.582031 109.023438 C 111.003906 109.023438 110.535156 108.554688 110.535156 107.976562 L 110.535156 89.324219 C 110.535156 81.707031 104.339844 75.511719 96.722656 75.511719 L 92.238281 75.511719 C 91.660156 75.511719 91.191406 75.042969 91.191406 74.464844 C 91.191406 73.886719 91.660156 73.417969 92.238281 73.417969 L 96.722656 73.417969 C 105.492188 73.417969 112.628906 80.554688 112.628906 89.324219 L 112.628906 107.976562 C 112.628906 108.558594 112.160156 109.023438 111.582031 109.023438 Z M 58.464844 109.023438 C 57.886719 109.023438 57.417969 108.554688 57.417969 107.976562 L 57.417969 89.324219 C 57.417969 80.550781 64.554688 73.417969 73.324219 73.417969 L 77.808594 73.417969 C 78.386719 73.417969 78.855469 73.886719 78.855469 74.464844 C 78.855469 75.042969 78.386719 75.511719 77.808594 75.511719 L 73.324219 75.511719 C 65.707031 75.511719 59.511719 81.707031 59.511719 89.324219 L 59.511719 107.976562 C 59.511719 108.558594 59.042969 109.023438 58.464844 109.023438 Z M 58.464844 109.023438 " fill-opacity="1" fill-rule="nonzero"/></g><g clip-path="url(#f7f587f3b3)"><path fill="#135662" d="M 111.582031 109.023438 L 58.464844 109.023438 C 57.886719 109.023438 57.417969 108.554688 57.417969 107.976562 C 57.417969 107.398438 57.886719 106.929688 58.464844 106.929688 L 111.582031 106.929688 C 112.160156 106.929688 112.628906 107.398438 112.628906 107.976562 C 112.628906 108.554688 112.160156 109.023438 111.582031 109.023438 Z M 111.582031 109.023438 " fill-opacity="1" fill-rule="nonzero"/></g><g clip-path="url(#7712b42b40)"><path fill="#135662" d="M 39.25 109.023438 L 33.921875 109.023438 C 33.34375 109.023438 32.875 108.554688 32.875 107.976562 L 32.875 105.621094 C 31.957031 105.351562 31.070312 104.984375 30.226562 104.523438 L 28.558594 106.191406 C 28.152344 106.597656 27.488281 106.597656 27.078125 106.191406 L 23.3125 102.425781 C 23.113281 102.226562 23.003906 101.960938 23.003906 101.683594 C 23.003906 101.402344 23.117188 101.136719 23.3125 100.941406 L 24.980469 99.273438 C 24.515625 98.429688 24.152344 97.546875 23.882812 96.625 L 21.523438 96.625 C 20.945312 96.625 20.476562 96.15625 20.476562 95.578125 L 20.476562 90.25 C 20.476562 89.671875 20.945312 89.203125 21.523438 89.203125 L 23.882812 89.203125 C 24.148438 88.285156 24.515625 87.398438 24.976562 86.558594 L 23.308594 84.890625 C 23.113281 84.691406 23.003906 84.425781 23.003906 84.148438 C 23.003906 83.867188 23.113281 83.601562 23.308594 83.40625 L 27.078125 79.640625 C 27.273438 79.441406 27.539062 79.332031 27.816406 79.332031 C 28.097656 79.332031 28.363281 79.445312 28.558594 79.640625 L 30.226562 81.308594 C 31.070312 80.84375 31.957031 80.480469 32.875 80.210938 L 32.875 77.851562 C 32.875 77.273438 33.34375 76.804688 33.921875 76.804688 L 39.25 76.804688 C 39.828125 76.804688 40.296875 77.273438 40.296875 77.851562 L 40.296875 80.210938 C 41.214844 80.480469 42.101562 80.84375 42.941406 81.308594 L 44.613281 79.640625 C 45.019531 79.230469 45.683594 79.230469 46.09375 79.640625 L 49.859375 83.40625 C 50.054688 83.601562 50.164062 83.867188 50.164062 84.148438 C 50.164062 84.425781 50.054688 84.691406 49.859375 84.890625 L 48.191406 86.558594 C 48.652344 87.398438 49.019531 88.285156 49.289062 89.203125 L 51.644531 89.203125 C 52.222656 89.203125 52.691406 89.671875 52.691406 90.25 L 52.691406 95.578125 C 52.691406 96.15625 52.222656 96.625 51.644531 96.625 L 49.289062 96.625 C 49.019531 97.546875 48.652344 98.433594 48.191406 99.273438 L 49.859375 100.941406 C 50.054688 101.136719 50.164062 101.402344 50.164062 101.683594 C 50.164062 101.960938 50.054688 102.226562 49.859375 102.425781 L 46.09375 106.191406 C 45.894531 106.386719 45.628906 106.496094 45.351562 106.496094 C 45.070312 106.496094 44.804688 106.386719 44.609375 106.191406 L 42.941406 104.523438 C 42.097656 104.984375 41.210938 105.351562 40.292969 105.621094 L 40.292969 107.976562 C 40.296875 108.558594 39.828125 109.023438 39.25 109.023438 Z M 34.96875 106.929688 L 38.203125 106.929688 L 38.203125 104.808594 C 38.203125 104.316406 38.542969 103.890625 39.019531 103.785156 C 40.273438 103.507812 41.460938 103.015625 42.546875 102.320312 C 42.960938 102.058594 43.5 102.117188 43.847656 102.464844 L 45.351562 103.96875 L 47.640625 101.679688 L 46.136719 100.179688 C 45.789062 99.832031 45.730469 99.292969 45.996094 98.875 C 46.6875 97.789062 47.179688 96.601562 47.457031 95.351562 C 47.5625 94.871094 47.988281 94.53125 48.480469 94.53125 L 50.601562 94.53125 L 50.601562 91.296875 L 48.480469 91.296875 C 47.988281 91.296875 47.5625 90.957031 47.457031 90.480469 C 47.179688 89.226562 46.683594 88.039062 45.992188 86.953125 C 45.730469 86.535156 45.789062 85.996094 46.136719 85.648438 L 47.636719 84.148438 L 45.351562 81.859375 L 43.847656 83.363281 C 43.5 83.710938 42.960938 83.769531 42.546875 83.507812 C 41.460938 82.816406 40.273438 82.324219 39.019531 82.046875 C 38.539062 81.9375 38.203125 81.511719 38.203125 81.023438 L 38.203125 78.898438 L 34.96875 78.898438 L 34.96875 81.023438 C 34.96875 81.511719 34.628906 81.9375 34.148438 82.046875 C 32.898438 82.324219 31.710938 82.816406 30.625 83.507812 C 30.207031 83.769531 29.667969 83.710938 29.320312 83.363281 L 27.816406 81.863281 L 25.53125 84.148438 L 27.03125 85.652344 C 27.378906 86 27.4375 86.539062 27.175781 86.953125 C 26.484375 88.039062 25.992188 89.226562 25.710938 90.480469 C 25.605469 90.960938 25.179688 91.300781 24.6875 91.300781 L 22.570312 91.300781 L 22.570312 94.535156 L 24.695312 94.535156 C 25.183594 94.535156 25.609375 94.875 25.714844 95.351562 C 25.992188 96.605469 26.484375 97.792969 27.175781 98.878906 C 27.441406 99.292969 27.378906 99.832031 27.03125 100.179688 L 25.53125 101.683594 L 27.816406 103.96875 L 29.320312 102.46875 C 29.667969 102.121094 30.207031 102.0625 30.621094 102.324219 C 31.707031 103.015625 32.894531 103.507812 34.148438 103.785156 C 34.628906 103.894531 34.964844 104.320312 34.964844 104.808594 L 34.964844 106.929688 Z M 34.96875 106.929688 " fill-opacity="1" fill-rule="nonzero"/></g><path fill="#135662" d="M 36.585938 101.433594 C 31.890625 101.433594 28.070312 97.613281 28.070312 92.917969 C 28.070312 88.21875 31.886719 84.402344 36.585938 84.402344 C 41.28125 84.402344 45.101562 88.21875 45.101562 92.917969 C 45.101562 97.613281 41.28125 101.433594 36.585938 101.433594 Z M 36.585938 86.496094 C 33.042969 86.496094 30.164062 89.375 30.164062 92.917969 C 30.164062 96.457031 33.042969 99.339844 36.585938 99.339844 C 40.125 99.339844 43.007812 96.457031 43.007812 92.917969 C 43.003906 89.375 40.125 86.496094 36.585938 86.496094 Z M 36.585938 86.496094 " fill-opacity="1" fill-rule="nonzero"/><path fill="#135662" d="M 77.808594 75.511719 C 77.230469 75.511719 76.761719 75.042969 76.761719 74.464844 L 76.761719 67.960938 C 76.761719 67.382812 77.230469 66.914062 77.808594 66.914062 C 78.386719 66.914062 78.855469 67.382812 78.855469 67.960938 L 78.855469 74.464844 C 78.855469 75.042969 78.386719 75.511719 77.808594 75.511719 Z M 77.808594 75.511719 " fill-opacity="1" fill-rule="nonzero"/></svg>