<svg xmlns="http://www.w3.org/2000/svg" xmlns:xlink="http://www.w3.org/1999/xlink" width="543" zoomAndPan="magnify" viewBox="0 0 407.25 53.25" height="71" preserveAspectRatio="xMidYMid meet" version="1.0"><defs><clipPath id="a4b4eba586"><path d="M 10 0.320312 L 114 0.320312 L 114 47 L 10 47 Z M 10 0.320312 " clip-rule="nonzero"/></clipPath><clipPath id="69661ad9e5"><path d="M 198 0.320312 L 232 0.320312 L 232 37 L 198 37 Z M 198 0.320312 " clip-rule="nonzero"/></clipPath><clipPath id="86a0fe9619"><path d="M 226 0.320312 L 231 0.320312 L 231 3 L 226 3 Z M 226 0.320312 " clip-rule="nonzero"/></clipPath><clipPath id="31a695a975"><path d="M 142 0.320312 L 147 0.320312 L 147 3 L 142 3 Z M 142 0.320312 " clip-rule="nonzero"/></clipPath></defs><path fill="#1a5c67" d="M 356.25 13.632812 C 357.199219 13.992188 358.09375 14.359375 359.007812 14.789062 L 359.710938 15.105469 C 360.371094 15.441406 360.371094 15.441406 361.4375 16.222656 C 361.820312 17.34375 361.820312 17.34375 361.808594 18.441406 C 361.066406 19.714844 361.066406 19.714844 359.957031 20.660156 C 358.84375 20.613281 358.84375 20.613281 358.1875 20.457031 C 357.089844 20.234375 356.027344 20.214844 354.910156 20.199219 L 353.691406 20.167969 C 352.53125 20.226562 352.53125 20.226562 351.519531 20.78125 C 350.613281 21.390625 350.613281 21.390625 349.953125 22.507812 C 349.738281 23.773438 349.738281 23.773438 349.953125 25.097656 C 350.863281 26.308594 351.695312 26.886719 353.035156 27.59375 C 354.566406 28.113281 355.746094 28.347656 357.363281 28.425781 C 358.109375 28.191406 358.847656 27.941406 359.585938 27.6875 C 361.0625 27.511719 362.546875 27.40625 364.03125 27.316406 C 363.8125 29.355469 363.433594 31.246094 362.921875 33.234375 C 354.996094 35.382812 354.996094 35.382812 351.804688 35.820312 L 350.941406 35.945312 C 341.839844 37.003906 341.839844 37.003906 338.253906 35.714844 C 337.605469 35.363281 336.960938 35 336.320312 34.632812 L 335.507812 34.34375 C 334.304688 34.730469 333.503906 35.398438 332.542969 36.191406 C 330.507812 36.867188 328.363281 36.722656 326.246094 36.5625 C 324.898438 36.234375 323.730469 35.792969 322.539062 35.082031 L 320.6875 33.234375 C 319.660156 33.3125 319 33.492188 318.148438 34.074219 L 317.445312 34.644531 C 313.363281 37.398438 307.84375 37.527344 303.070312 38.109375 L 302.292969 38.207031 C 296.304688 38.925781 290.34375 39.238281 284.316406 39.242188 L 283.382812 39.242188 C 272.164062 39.234375 261.058594 38.425781 250.300781 35.082031 L 250.003906 35.90625 C 248.890625 38.492188 246.789062 40.640625 244.671875 42.457031 C 242.214844 44.257812 239.222656 46.261719 236.226562 46.914062 C 235.726562 46.273438 235.234375 45.625 234.742188 44.972656 L 233.910156 43.882812 L 233.261719 42.847656 L 233.261719 41.367188 L 233.957031 41.007812 C 235.015625 40.457031 236.074219 39.894531 237.128906 39.335938 L 238.222656 38.769531 C 241.058594 37.253906 243.710938 35.539062 245.507812 32.816406 C 245.90625 31.609375 245.953125 30.804688 245.855469 29.535156 C 245.382812 28.230469 245.382812 28.230469 244.746094 26.925781 C 243.667969 24.632812 243.667969 24.632812 243.503906 23.324219 L 243.632812 22.507812 C 245.128906 21.238281 246.582031 20.738281 248.449219 20.289062 C 249.4375 22.414062 250.265625 24.53125 250.960938 26.769531 C 251.378906 27.730469 251.378906 27.730469 252.179688 28.5 C 253.617188 29.378906 254.953125 29.640625 256.601562 29.929688 L 257.578125 30.109375 C 264.484375 31.367188 271.335938 32.167969 278.363281 32.210938 L 279.792969 32.222656 C 281.308594 32.234375 282.824219 32.238281 284.335938 32.238281 L 285.117188 32.242188 C 292.375 32.253906 299.496094 32.152344 306.65625 30.835938 C 307.710938 30.648438 308.765625 30.492188 309.828125 30.351562 C 310.445312 30.265625 311.0625 30.179688 311.683594 30.089844 L 312.476562 29.984375 C 313.542969 29.8125 314.300781 29.601562 315.179688 28.960938 C 316.175781 27.660156 316.988281 26.277344 317.816406 24.867188 C 320.027344 21.1875 322.183594 17.828125 325.875 15.484375 C 326.9375 14.953125 327.871094 14.996094 329.046875 15.011719 C 330.546875 15.179688 331.660156 15.777344 332.914062 16.59375 L 333.609375 17.042969 C 335.03125 18.097656 335.792969 19.203125 336.546875 20.800781 C 337.824219 23.902344 338.101562 26.039062 338.101562 29.535156 L 345.507812 29.535156 L 344.769531 26.207031 C 344.582031 24.179688 344.597656 22.339844 345.183594 20.382812 C 347.242188 16.820312 347.242188 16.820312 348.921875 15.652344 C 349.742188 15.191406 350.582031 14.765625 351.4375 14.375 L 352.386719 13.890625 C 353.761719 13.5 354.855469 13.351562 356.25 13.632812 M 326.210938 21.875 C 324.664062 23.140625 323.605469 24.457031 322.722656 26.246094 C 322.492188 26.953125 322.492188 26.953125 322.632812 27.726562 C 322.890625 28.535156 322.890625 28.535156 323.859375 29.210938 C 325.75 30.242188 327.308594 30.660156 329.464844 30.621094 C 330.726562 30.335938 330.726562 30.335938 331.777344 29.535156 C 332.566406 28.539062 332.566406 28.539062 332.722656 27.667969 C 332.800781 26.394531 332.6875 25.421875 332.164062 24.25 C 331.398438 22.980469 330.832031 22.234375 329.578125 21.398438 C 328.25 21.167969 327.378906 21.160156 326.210938 21.875 " fill-opacity="1" fill-rule="nonzero"/><g clip-path="url(#a4b4eba586)"><path fill="#1e5f69" d="M 36.5625 0.976562 C 37.292969 1.0625 37.292969 1.0625 38.402344 1.800781 C 38.53125 2.816406 38.53125 2.816406 38.511719 4.125 L 38.507812 4.847656 C 38.503906 5.363281 38.496094 5.882812 38.488281 6.398438 C 38.472656 7.222656 38.464844 8.042969 38.460938 8.863281 C 38.445312 10.902344 38.417969 12.941406 38.394531 14.984375 C 38.371094 16.703125 38.351562 18.425781 38.34375 20.148438 C 38.335938 20.953125 38.320312 21.761719 38.304688 22.566406 L 38.296875 24.0625 L 38.277344 25.375 C 38.421875 26.753906 38.777344 27.625 39.515625 28.796875 C 41.964844 30.042969 44.695312 30.386719 47.386719 30.851562 L 48.65625 31.085938 C 56.082031 32.398438 63.449219 32.625 70.972656 32.609375 C 72.066406 32.609375 73.164062 32.613281 74.257812 32.617188 C 91.292969 33.074219 91.292969 33.074219 107.308594 28.425781 L 108.117188 27.664062 C 108.523438 26.199219 108.320312 25.085938 108.003906 23.613281 C 107.5625 22.125 106.925781 20.777344 106.207031 19.40625 C 105.753906 18.257812 105.691406 17.445312 105.828125 16.222656 C 106.796875 15.160156 106.796875 15.160156 108.050781 14.375 C 109.207031 14.167969 109.207031 14.167969 110.273438 14.375 C 111.015625 14.929688 111.015625 14.929688 111.753906 15.851562 C 112.1875 16.882812 112.472656 17.9375 112.75 19.019531 L 112.988281 19.921875 C 113.804688 23.113281 114.332031 26.125 113.550781 29.378906 C 112.988281 30.984375 112.226562 32.402344 111.011719 33.601562 C 109.121094 34.777344 107.09375 35.457031 104.945312 36.007812 L 104.039062 36.238281 C 101.484375 36.867188 98.910156 37.332031 96.308594 37.742188 L 95.226562 37.914062 C 87.929688 38.996094 80.59375 39.289062 73.226562 39.265625 L 71.988281 39.265625 C 60.753906 39.238281 49.242188 38.601562 38.402344 35.453125 L 38.277344 36.132812 C 37.890625 38.175781 37.378906 40.015625 36.179688 41.738281 C 34.328125 43.851562 32.230469 45.222656 29.601562 46.210938 C 26.378906 47.113281 23.085938 47.117188 19.816406 46.46875 C 17.167969 45.726562 14.765625 44.441406 12.84375 42.476562 C 11.367188 40.304688 10.386719 38.125 10.15625 35.488281 C 10.027344 32.042969 10.78125 29.324219 12.246094 26.230469 C 12.757812 25.28125 13.261719 24.445312 13.953125 23.617188 C 15.113281 23.132812 15.113281 23.132812 16.175781 23.25 C 17.058594 23.78125 17.058594 23.78125 17.660156 24.359375 C 17.503906 25.839844 17.316406 26.882812 16.710938 28.265625 C 15.847656 30.460938 15.894531 32.769531 16.175781 35.082031 C 16.589844 36.300781 17.117188 37.136719 18.027344 38.039062 C 19.238281 39.007812 20.441406 39.710938 21.917969 40.191406 C 24.714844 40.398438 26.886719 40.167969 29.511719 39.148438 C 30.796875 38.5625 30.796875 38.5625 31.734375 37.671875 C 32.796875 35.671875 33 34.097656 32.960938 31.859375 L 32.957031 30.914062 C 32.953125 29.890625 32.941406 28.867188 32.929688 27.84375 C 32.925781 27.128906 32.921875 26.414062 32.917969 25.703125 C 32.910156 23.828125 32.898438 21.953125 32.878906 20.078125 C 32.855469 17.074219 32.835938 14.066406 32.820312 11.0625 C 32.8125 10.015625 32.804688 8.964844 32.792969 7.917969 L 32.78125 5.992188 L 32.765625 5.109375 C 32.765625 3.996094 32.796875 3.050781 33.175781 2 C 34.046875 0.796875 35.171875 1.003906 36.5625 0.976562 " fill-opacity="1" fill-rule="nonzero"/></g><path fill="#185a65" d="M 143.242188 1.0625 C 144.953125 0.960938 146.128906 1.121094 147.6875 1.800781 L 147.679688 2.707031 C 147.648438 8.457031 147.652344 14.183594 148.058594 19.921875 L 148.925781 19.003906 C 153.058594 14.703125 153.058594 14.703125 155.46875 14.003906 L 156.230469 13.777344 C 157.570312 13.503906 158.585938 13.578125 159.910156 13.921875 C 161.816406 14.625 163.355469 15.402344 164.75 16.894531 C 166.054688 18.570312 166.617188 20.25 167.207031 22.277344 C 167.511719 24.832031 167.472656 27.105469 166.542969 29.527344 C 165.886719 31.011719 165.265625 32.085938 163.953125 33.082031 C 160.753906 35.144531 157.367188 35.921875 153.613281 36.191406 C 152.234375 36.203125 150.855469 36.148438 149.476562 36.097656 C 148.6875 36.078125 147.898438 36.0625 147.109375 36.042969 C 145.878906 36.019531 144.644531 35.980469 143.414062 35.933594 C 142.21875 35.886719 141.019531 35.863281 139.824219 35.84375 L 138.710938 35.78125 C 137.632812 35.777344 136.84375 35.816406 135.832031 36.191406 C 135.066406 37.058594 134.578125 37.902344 134.070312 38.941406 C 133.144531 40.847656 131.769531 42.265625 130.101562 43.554688 C 127.734375 45.152344 125.28125 46.25 122.496094 46.914062 L 121.015625 46.914062 C 120.398438 46.160156 120.398438 46.160156 119.835938 45.160156 L 119.261719 44.171875 C 118.855469 43.34375 118.597656 42.636719 118.421875 41.738281 C 120.199219 40.925781 121.855469 40.402344 123.769531 39.980469 C 125.546875 39.550781 126.96875 39.039062 128.378906 37.832031 C 129.234375 37.003906 129.519531 36.605469 129.90625 35.453125 L 129.199219 35.492188 C 126.394531 35.578125 124.539062 35.019531 122.078125 33.742188 C 120.921875 32.789062 120.019531 31.96875 119.214844 30.699219 C 118.238281 28.011719 118.417969 24.945312 118.792969 22.140625 C 119.273438 20.355469 120.023438 19.140625 121.242188 17.769531 C 122.683594 16.398438 124.269531 15.582031 126.203125 15.113281 C 127.527344 14.917969 128.441406 14.988281 129.703125 15.4375 C 131.460938 16.234375 133.042969 17.121094 134.238281 18.664062 C 136.015625 21.921875 136.796875 25.894531 137.316406 29.535156 L 140.648438 29.535156 C 142.105469 26.226562 141.804688 22.480469 141.757812 18.929688 L 141.738281 16.273438 C 141.726562 14.890625 141.714844 13.507812 141.695312 12.125 C 141.683594 10.78125 141.671875 9.4375 141.664062 8.09375 L 141.644531 6.84375 C 141.636719 5.136719 141.667969 3.886719 142.296875 2.285156 C 142.871094 1.429688 142.871094 1.429688 143.242188 1.0625 M 154.75 20.800781 C 151.777344 22.753906 149.855469 25.375 148.070312 28.402344 C 147.632812 29.132812 147.632812 29.132812 147.6875 29.90625 C 148.976562 29.925781 150.265625 29.941406 151.554688 29.953125 L 152.648438 29.96875 C 155.21875 29.988281 157.726562 29.90625 160.050781 28.714844 C 161.269531 27.800781 161.269531 27.800781 162.136719 26.578125 C 162.246094 25.15625 162.195312 24.152344 161.695312 22.808594 C 160.945312 21.648438 160.351562 21.011719 159.171875 20.289062 C 157.375 19.65625 156.359375 19.910156 154.75 20.800781 M 124.371094 22.300781 L 123.609375 23.25 L 123.238281 23.617188 C 123.074219 24.75 123.070312 25.816406 123.238281 26.945312 C 124.121094 28.179688 124.957031 28.71875 126.269531 29.464844 C 127.96875 29.992188 129.625 30.234375 131.386719 29.90625 L 132.128906 28.796875 C 132.0625 26.8125 131.664062 25.273438 130.703125 23.53125 C 130.046875 22.53125 129.480469 21.976562 128.425781 21.398438 C 126.679688 21.027344 125.761719 21.152344 124.371094 22.300781 " fill-opacity="1" fill-rule="nonzero"/><path fill="#1b5d68" d="M 382.183594 2.539062 C 383.027344 2.457031 383.027344 2.457031 384.011719 2.472656 L 384.996094 2.480469 C 385.886719 2.539062 385.886719 2.539062 387 2.910156 L 386.675781 4.316406 L 386.257812 6.144531 L 386.042969 7.070312 L 385.839844 7.964844 L 385.652344 8.789062 C 385.476562 9.679688 385.476562 9.679688 385.519531 11.046875 C 386.097656 11.078125 386.675781 11.097656 387.253906 11.117188 L 388.230469 11.15625 C 389.25 11.09375 389.25 11.09375 390.222656 10.605469 C 391.121094 9.992188 391.121094 9.992188 391.539062 9.054688 L 391.863281 8.042969 L 392.21875 6.957031 C 392.328125 6.597656 392.441406 6.238281 392.554688 5.867188 C 392.769531 5.230469 392.988281 4.589844 393.203125 3.949219 C 393.359375 3.480469 393.515625 3.011719 393.667969 2.539062 C 394.175781 2.53125 394.6875 2.523438 395.195312 2.519531 L 396.054688 2.503906 C 397 2.539062 397 2.539062 399.222656 2.910156 L 397.742188 10.675781 L 399.964844 10.675781 L 400.335938 11.046875 C 400.425781 13.828125 400.425781 13.828125 399.964844 14.742188 L 400.707031 15.113281 L 401.078125 10.675781 L 402.1875 10.675781 L 402.1875 16.222656 L 395.890625 16.222656 L 394.039062 23.617188 L 398.855469 23.25 L 398.484375 28.425781 C 397.703125 28.4375 397.703125 28.4375 396.910156 28.449219 L 396.023438 28.460938 C 395.148438 28.425781 395.148438 28.425781 394.390625 28.148438 L 393.667969 28.054688 C 392.816406 28.546875 392.816406 28.546875 392.1875 29.535156 C 391.761719 30.644531 391.472656 31.777344 391.191406 32.933594 C 391.035156 33.539062 390.878906 34.144531 390.722656 34.75 L 390.523438 35.5625 C 390.332031 36.191406 390.332031 36.191406 389.964844 36.5625 C 389.089844 36.589844 388.21875 36.59375 387.347656 36.585938 L 385.898438 36.574219 L 384.777344 36.5625 C 385.175781 33.820312 385.617188 31.121094 386.257812 28.425781 C 385.546875 28.417969 384.839844 28.410156 384.128906 28.402344 L 382.929688 28.390625 C 381.589844 28.425781 381.589844 28.425781 380.332031 28.796875 C 379.925781 29.523438 379.925781 29.523438 379.714844 30.4375 L 379.429688 31.4375 L 379.152344 32.492188 C 378.960938 33.179688 378.769531 33.867188 378.578125 34.550781 L 378.332031 35.476562 C 378.109375 36.191406 378.109375 36.191406 377.738281 36.5625 C 376.867188 36.589844 375.992188 36.59375 375.121094 36.585938 L 373.671875 36.574219 L 372.550781 36.5625 C 372.949219 33.820312 373.394531 31.121094 374.035156 28.425781 L 369.589844 28.425781 L 369.589844 23.25 L 375.515625 23.25 L 377.738281 15.851562 L 376.996094 16.222656 C 376.242188 16.25 375.484375 16.253906 374.726562 16.246094 L 372.550781 16.222656 L 372.550781 10.675781 C 374.71875 10.648438 376.714844 10.644531 378.847656 11.046875 L 379.039062 10.191406 C 379.609375 7.777344 380.230469 5.460938 381.441406 3.28125 Z M 383.664062 16.222656 C 382.375 18.082031 382.097656 20.304688 381.8125 22.507812 L 381.8125 23.988281 L 387.742188 23.617188 C 388.050781 22.671875 388.359375 21.726562 388.667969 20.777344 L 388.933594 19.96875 C 389.386719 18.554688 389.710938 17.355469 389.59375 15.851562 C 388.953125 15.769531 388.3125 15.695312 387.671875 15.621094 L 386.589844 15.492188 C 385.410156 15.484375 384.707031 15.679688 383.664062 16.222656 M 376.625 34.710938 L 375.886719 35.453125 L 376.996094 35.453125 Z M 376.625 34.710938 " fill-opacity="1" fill-rule="nonzero"/><g clip-path="url(#69661ad9e5)"><path fill="#23626d" d="M 230.667969 1.429688 L 231.039062 1.800781 C 231.074219 2.664062 231.085938 3.515625 231.082031 4.375 L 231.082031 5.191406 C 231.082031 6.089844 231.078125 6.984375 231.074219 7.882812 L 231.066406 8.808594 C 231.058594 10.429688 231.046875 12.050781 231.03125 13.675781 C 231.019531 15.015625 231.015625 16.355469 231.015625 17.695312 C 231.015625 19.3125 231.003906 20.933594 230.988281 22.550781 C 230.980469 23.167969 230.980469 23.78125 230.984375 24.398438 C 231 29.207031 231 29.207031 230.183594 30.933594 C 229.644531 31.664062 229.121094 32.265625 228.445312 32.863281 L 227.617188 33.597656 C 224.8125 35.386719 221.988281 36.4375 218.640625 36.609375 C 208.179688 36.894531 208.179688 36.894531 203.796875 35.058594 C 202.050781 34.070312 200.699219 32.648438 199.550781 31.015625 C 198.4375 29.074219 198.632812 27.074219 198.617188 24.890625 C 198.675781 21.558594 199.613281 18.835938 201.03125 15.851562 C 202.261719 15.96875 202.261719 15.96875 203.625 16.222656 C 204.453125 16.878906 204.863281 17.566406 205.476562 18.441406 L 204.921875 19.644531 C 204.167969 21.6875 204.011719 23.6875 204.367188 25.835938 C 204.773438 26.714844 205.1875 27.261719 205.882812 27.933594 C 207.867188 29.316406 210.160156 29.625 212.515625 29.90625 C 216.292969 30.097656 220.023438 30.09375 223.628906 28.796875 C 224.480469 28.308594 224.480469 28.308594 225.113281 27.6875 C 225.910156 25.292969 225.519531 22.554688 225.347656 20.066406 C 225.121094 16.691406 225.050781 13.316406 225.027344 9.933594 C 225.019531 9.382812 225.015625 8.832031 225.007812 8.285156 C 224.996094 7.5 224.992188 6.714844 224.992188 5.933594 L 224.980469 4.546875 C 225.125 3.144531 225.480469 2.253906 226.222656 1.0625 C 227.792969 0.363281 229.101562 0.890625 230.667969 1.429688 " fill-opacity="1" fill-rule="nonzero"/></g><path fill="#316d76" d="M 169.171875 39.148438 C 170.003906 39.117188 170.832031 39.105469 171.664062 39.109375 L 172.453125 39.109375 C 173.316406 39.109375 174.179688 39.113281 175.042969 39.113281 L 176.835938 39.117188 C 178.414062 39.117188 179.988281 39.121094 181.5625 39.125 C 183.171875 39.128906 184.777344 39.128906 186.382812 39.132812 C 189.539062 39.136719 192.691406 39.140625 195.847656 39.148438 L 196.214844 42.476562 L 169.171875 42.476562 C 168.667969 41.46875 168.753906 40.636719 168.804688 39.519531 Z M 169.171875 39.148438 " fill-opacity="1" fill-rule="nonzero"/><path fill="#25606a" d="M 219.554688 8.828125 L 219.554688 11.414062 L 216.960938 12.894531 L 217.597656 13.328125 L 218.421875 13.910156 L 219.242188 14.484375 C 219.925781 15.113281 219.925781 15.113281 220.214844 15.871094 C 220.296875 16.59375 220.296875 16.59375 220.132812 17.492188 C 219.40625 18.683594 218.632812 19.183594 217.4375 19.871094 C 215.726562 20.71875 214.039062 21.351562 212.121094 21.46875 L 211.40625 21.398438 L 211.035156 18.070312 L 214 16.59375 L 213.257812 16.015625 L 212.515625 15.113281 C 212.339844 13.734375 212.398438 12.824219 212.910156 11.53125 C 213.894531 10.355469 214.839844 9.875 216.222656 9.195312 C 217.347656 8.800781 218.363281 8.792969 219.554688 8.828125 " fill-opacity="1" fill-rule="nonzero"/><path fill="#1f5f69" d="M 102.492188 40.257812 C 103.28125 40.074219 103.28125 40.074219 104.34375 40.257812 C 105.296875 41.046875 106.121094 41.925781 106.9375 42.847656 C 107.898438 42.40625 108.433594 42.09375 109.160156 41.300781 L 109.902344 40.628906 C 110.597656 40.605469 110.597656 40.605469 111.382812 41 C 112.539062 41.832031 112.539062 41.832031 113.605469 42.847656 C 114.042969 43.835938 114.042969 43.835938 114.347656 44.695312 C 113.878906 45.183594 113.40625 45.667969 112.933594 46.152344 L 112.140625 46.972656 C 111.382812 47.65625 111.382812 47.65625 110.273438 48.023438 C 109.582031 47.550781 109.582031 47.550781 108.835938 46.894531 C 108.074219 46.265625 108.074219 46.265625 107.308594 45.804688 C 106.246094 45.890625 106.246094 45.890625 105.457031 46.546875 L 104.878906 47.171875 L 104.34375 47.65625 C 102.929688 47.445312 101.949219 46.796875 100.828125 45.945312 C 100.269531 45.4375 100.269531 45.4375 99.785156 44.582031 C 99.917969 43.414062 100.273438 42.953125 100.964844 42.015625 C 101.941406 40.808594 101.941406 40.808594 102.492188 40.257812 " fill-opacity="1" fill-rule="nonzero"/><path fill="#f8f8f7" d="M 111.011719 16.222656 L 111.753906 16.222656 C 114.363281 24.425781 114.363281 24.425781 113.769531 28.472656 C 113.371094 30.121094 112.671875 31.4375 111.761719 32.859375 C 110.140625 34.46875 107.945312 35.199219 105.777344 35.796875 L 104.945312 36.007812 L 104.039062 36.238281 C 101.484375 36.867188 98.910156 37.332031 96.308594 37.742188 L 95.226562 37.914062 C 87.929688 38.996094 80.59375 39.289062 73.226562 39.265625 L 71.992188 39.265625 C 63.394531 39.25 55.058594 38.550781 46.554688 37.300781 L 46.554688 36.929688 C 49.410156 37.085938 52.261719 37.257812 55.105469 37.578125 C 69.71875 39.226562 84.441406 38.738281 98.949219 36.398438 L 100.292969 36.183594 C 103.5625 35.613281 106.753906 34.832031 109.714844 33.304688 C 110.90625 32.265625 111.425781 31.320312 112.125 29.90625 C 112.9375 27.46875 112.820312 24.25 112.347656 21.726562 C 112.0625 20.582031 111.710938 19.46875 111.335938 18.351562 C 111.011719 17.332031 111.011719 17.332031 111.011719 16.222656 " fill-opacity="1" fill-rule="nonzero"/><path fill="#fdfdfd" d="M 318.464844 32.492188 L 319.578125 32.863281 C 317.253906 34.929688 315.152344 36.160156 312.097656 36.820312 C 302.660156 38.605469 293.042969 39.21875 283.457031 39.171875 C 282.789062 39.171875 282.121094 39.167969 281.449219 39.167969 C 279.835938 39.164062 278.21875 39.15625 276.605469 39.148438 L 276.605469 38.78125 L 277.589844 38.757812 C 287.195312 38.53125 296.753906 38.238281 306.265625 36.792969 L 307.011719 36.683594 C 312.242188 35.988281 312.242188 35.988281 316.96875 33.828125 C 317.46875 33.382812 317.96875 32.941406 318.464844 32.492188 " fill-opacity="1" fill-rule="nonzero"/><path fill="#ede1e9" d="M 164.359375 17.703125 C 165.03125 17.886719 165.03125 17.886719 165.839844 18.441406 C 167.070312 20.820312 167.433594 23.328125 167.402344 25.976562 C 167.234375 27.984375 166.511719 29.664062 165.632812 31.453125 C 164.085938 33.230469 162.191406 34.277344 159.992188 35.097656 C 157.816406 35.75 155.878906 35.933594 153.613281 35.820312 L 153.613281 35.453125 L 154.675781 35.289062 C 157.902344 34.722656 160.855469 34 163.617188 32.125 C 164.925781 30.671875 165.773438 29.226562 166.210938 27.316406 C 166.503906 24.433594 166.164062 21.871094 165.097656 19.179688 C 164.859375 18.683594 164.613281 18.191406 164.359375 17.703125 " fill-opacity="1" fill-rule="nonzero"/><path fill="#fbfcfb" d="M 401.078125 10.675781 L 402.1875 10.675781 L 402.1875 16.222656 L 395.890625 16.222656 L 394.039062 23.25 L 393.296875 23.25 C 393.511719 20.519531 394.304688 18.089844 395.148438 15.484375 L 400.707031 15.113281 Z M 401.078125 10.675781 " fill-opacity="1" fill-rule="nonzero"/><path fill="#fdfdfd" d="M 363.289062 27.316406 L 364.03125 27.316406 C 363.8125 29.355469 363.433594 31.246094 362.921875 33.234375 C 354.996094 35.382812 354.996094 35.382812 351.804688 35.820312 L 350.941406 35.945312 C 348.460938 36.234375 345.964844 36.242188 343.472656 36.261719 L 342.371094 36.277344 L 341.328125 36.277344 L 340.390625 36.28125 C 339.582031 36.191406 339.582031 36.191406 338.46875 35.453125 L 339.128906 35.46875 C 344.449219 35.59375 349.542969 35.355469 354.769531 34.34375 L 355.773438 34.152344 C 356.753906 33.953125 357.730469 33.738281 358.707031 33.511719 L 359.605469 33.324219 C 360.417969 33.117188 361.082031 32.914062 361.808594 32.492188 C 362.441406 31.628906 362.625 30.96875 362.921875 29.90625 C 362.980469 28.703125 362.980469 28.703125 362.921875 27.6875 Z M 363.289062 27.316406 " fill-opacity="1" fill-rule="nonzero"/><path fill="#ece3e1" d="M 146.574219 1.429688 L 147.6875 1.800781 C 147.695312 4.109375 147.703125 6.417969 147.707031 8.726562 C 147.710938 9.511719 147.710938 10.296875 147.714844 11.082031 C 147.71875 12.210938 147.722656 13.34375 147.722656 14.476562 L 147.730469 15.527344 C 147.730469 17.636719 147.585938 19.675781 147.316406 21.769531 L 146.207031 21.769531 L 146.238281 20.777344 C 146.457031 14.328125 146.636719 7.886719 146.574219 1.429688 " fill-opacity="1" fill-rule="nonzero"/><path fill="#fdfdfd" d="M 379.589844 28.054688 C 380.332031 28.042969 381.070312 28.039062 381.8125 28.054688 L 381.109375 28.320312 L 380.332031 28.796875 C 379.933594 29.5625 379.933594 29.5625 379.714844 30.472656 L 379.429688 31.472656 L 379.152344 32.515625 C 378.960938 33.199219 378.769531 33.882812 378.578125 34.5625 L 378.332031 35.484375 C 378.109375 36.191406 378.109375 36.191406 377.738281 36.5625 C 376.867188 36.589844 375.992188 36.59375 375.121094 36.585938 L 373.671875 36.574219 L 372.550781 36.5625 L 372.921875 35.453125 L 375.128906 35.488281 C 375.960938 35.484375 375.960938 35.484375 376.996094 35.082031 C 377.351562 34.421875 377.351562 34.421875 377.578125 33.601562 L 377.867188 32.703125 L 378.15625 31.753906 C 378.347656 31.136719 378.542969 30.519531 378.738281 29.90625 L 378.992188 29.074219 C 379.21875 28.425781 379.21875 28.425781 379.589844 28.054688 M 249.5625 34.710938 L 250.671875 35.082031 C 247.246094 40.542969 243.539062 43.433594 237.953125 46.480469 L 236.964844 46.914062 L 236.226562 46.546875 L 237.222656 45.992188 C 243.972656 42.132812 243.972656 42.132812 248.820312 36.191406 C 249.074219 35.703125 249.320312 35.207031 249.5625 34.710938 " fill-opacity="1" fill-rule="nonzero"/><path fill="#f2e8e8" d="M 155.46875 19.921875 L 156.578125 20.289062 L 155.886719 20.632812 C 152.796875 22.300781 150.835938 24.570312 148.945312 27.496094 L 148.453125 28.3125 L 147.6875 29.535156 L 146.945312 29.535156 C 147.175781 28.042969 147.976562 26.933594 148.820312 25.722656 L 149.273438 25.078125 C 150.761719 23.003906 152.382812 21.316406 154.65625 20.105469 Z M 155.46875 19.921875 " fill-opacity="1" fill-rule="nonzero"/><path fill="#fdfdfd" d="M 391.816406 28.054688 L 392.925781 28.425781 L 392.421875 29.355469 C 391.78125 30.71875 391.382812 32.078125 391.027344 33.535156 C 390.808594 34.421875 390.574219 35.308594 390.332031 36.191406 L 389.964844 36.5625 C 389.089844 36.589844 388.21875 36.59375 387.347656 36.585938 L 385.898438 36.574219 L 384.777344 36.5625 L 384.777344 35.453125 L 385.546875 35.464844 L 386.558594 35.476562 L 387.5625 35.488281 C 388.53125 35.492188 388.53125 35.492188 389.59375 35.082031 C 389.914062 34.417969 389.914062 34.417969 390.09375 33.601562 L 390.332031 32.703125 L 390.566406 31.753906 C 390.722656 31.136719 390.882812 30.523438 391.042969 29.90625 L 391.25 29.074219 C 391.445312 28.425781 391.445312 28.425781 391.816406 28.054688 " fill-opacity="1" fill-rule="nonzero"/><path fill="#f9efe9" d="M 204.367188 17.332031 L 205.476562 18.441406 L 204.921875 19.644531 C 204.171875 21.683594 203.996094 23.695312 204.367188 25.835938 C 204.96875 26.972656 205.683594 27.882812 206.589844 28.796875 C 205.898438 28.675781 205.898438 28.675781 205.109375 28.425781 C 204.273438 27.332031 203.691406 26.402344 203.253906 25.097656 C 202.988281 22.347656 203.53125 19.945312 204.367188 17.332031 " fill-opacity="1" fill-rule="nonzero"/><path fill="#fdfdfd" d="M 219.183594 15.484375 L 220.296875 15.851562 C 220.136719 16.855469 220.003906 17.546875 219.554688 18.441406 C 217.835938 20.023438 215.5 20.863281 213.257812 21.398438 C 212.125 21.46875 212.125 21.46875 211.40625 21.398438 L 211.40625 20.660156 C 211.816406 20.542969 212.226562 20.425781 212.648438 20.308594 L 214.277344 19.828125 L 215.09375 19.597656 C 216.351562 19.222656 217.214844 18.90625 218.246094 18.070312 C 218.878906 17.34375 218.878906 17.34375 219.09375 16.316406 Z M 219.183594 15.484375 " fill-opacity="1" fill-rule="nonzero"/><path fill="#e6dbd5" d="M 131.757812 16.960938 C 132.851562 17.453125 133.328125 17.796875 134.164062 18.71875 C 135.945312 21.347656 136.5625 24.714844 136.851562 27.824219 C 136.886719 28.394531 136.921875 28.964844 136.945312 29.535156 L 136.203125 29.535156 L 136.011719 28.277344 C 135.320312 23.933594 134.210938 20.648438 131.757812 16.960938 " fill-opacity="1" fill-rule="nonzero"/><path fill="#fcfcfc" d="M 165.097656 30.273438 L 165.46875 31.753906 C 162.964844 33.902344 160.1875 35.167969 156.949219 35.820312 C 156.363281 35.847656 155.777344 35.855469 155.1875 35.84375 L 154.292969 35.835938 L 153.613281 35.820312 L 153.613281 35.453125 L 154.675781 35.289062 C 157.902344 34.722656 160.855469 34 163.617188 32.125 C 164.464844 31.171875 164.464844 31.171875 165.097656 30.273438 " fill-opacity="1" fill-rule="nonzero"/><path fill="#fdfdfd" d="M 37.664062 34.710938 L 39.144531 35.453125 L 38.402344 35.453125 L 38.292969 36.078125 C 37.84375 38.375 37.21875 40.519531 35.671875 42.332031 C 35.242188 42.769531 34.789062 43.179688 34.328125 43.585938 L 33.589844 43.21875 L 34.582031 42.292969 C 36.425781 40.191406 36.945312 37.347656 37.664062 34.710938 " fill-opacity="1" fill-rule="nonzero"/><path fill="#e4d2d3" d="M 125.460938 20.660156 C 126.082031 20.761719 126.699219 20.886719 127.3125 21.03125 L 127.3125 21.398438 L 126.292969 21.675781 C 125.105469 22.085938 125.105469 22.085938 124.210938 22.71875 C 123.5625 23.550781 123.5625 23.550781 123.492188 24.402344 C 123.460938 25.660156 123.464844 26.628906 123.988281 27.789062 L 124.347656 28.425781 L 123.238281 28.054688 C 122.496094 26.945312 122.496094 26.945312 122.347656 26.203125 C 122.308594 25.292969 122.320312 24.511719 122.496094 23.617188 C 123.109375 22.609375 123.828125 21.804688 124.71875 21.03125 Z M 125.460938 20.660156 " fill-opacity="1" fill-rule="nonzero"/><path fill="#fdfdfd" d="M 382.925781 15.484375 L 384.40625 15.851562 L 383.902344 16.402344 C 383.078125 17.664062 382.816406 18.925781 382.484375 20.382812 L 382.285156 21.21875 C 382.125 21.894531 381.96875 22.570312 381.8125 23.25 L 381.070312 22.878906 C 381.480469 20.320312 382.023438 17.914062 382.925781 15.484375 " fill-opacity="1" fill-rule="nonzero"/><path fill="#ede8ec" d="M 386.257812 2.910156 L 387 2.910156 C 386.761719 3.996094 386.523438 5.082031 386.28125 6.167969 L 386.078125 7.101562 L 385.878906 8.003906 L 385.695312 8.828125 C 385.519531 9.566406 385.519531 9.566406 385.148438 10.675781 L 384.40625 10.675781 C 384.648438 8.148438 385.167969 5.714844 385.886719 3.28125 Z M 386.257812 2.910156 " fill-opacity="1" fill-rule="nonzero"/><path fill="#fdfdfd" d="M 398.113281 2.910156 L 399.222656 3.28125 L 397.742188 10.304688 L 396.632812 10.304688 Z M 398.113281 2.910156 " fill-opacity="1" fill-rule="nonzero"/><path fill="#f8eaee" d="M 335.878906 20.289062 C 337.0625 21.476562 337.320312 22.992188 337.796875 24.570312 C 338.179688 26.175781 338.210938 27.527344 338.101562 29.164062 L 336.988281 28.425781 C 336.988281 27.738281 336.992188 27.050781 337.023438 26.367188 C 336.96875 24.945312 336.535156 23.648438 336.121094 22.292969 C 335.878906 21.398438 335.878906 21.398438 335.878906 20.289062 " fill-opacity="1" fill-rule="nonzero"/><path fill="#a5ccd0" d="M 401.078125 10.675781 L 402.1875 10.675781 L 401.816406 15.484375 L 400.335938 15.113281 Z M 401.078125 10.675781 " fill-opacity="1" fill-rule="nonzero"/><path fill="#fdfdfd" d="M 135.09375 36.191406 L 135.460938 36.929688 C 134.308594 39.152344 132.902344 41.195312 131.015625 42.847656 L 130.277344 42.476562 L 130.859375 41.761719 C 132.328125 39.941406 133.753906 38.109375 135.09375 36.191406 M 325.875 21.398438 L 326.984375 21.769531 L 325.804688 22.648438 C 324.15625 24.039062 323.378906 25.734375 322.539062 27.6875 C 322.304688 27.050781 322.304688 27.050781 322.171875 26.207031 C 322.789062 24.539062 323.742188 23.160156 324.996094 21.910156 Z M 325.875 21.398438 " fill-opacity="1" fill-rule="nonzero"/><path fill="#c1adb6" d="M 164.359375 17.703125 C 165.03125 17.886719 165.03125 17.886719 165.839844 18.441406 C 166.597656 19.824219 166.9375 21.125 167.019531 22.695312 L 166.949219 23.617188 C 166.09375 22.761719 165.96875 22.230469 165.65625 21.078125 C 165.324219 19.871094 164.953125 18.804688 164.359375 17.703125 " fill-opacity="1" fill-rule="nonzero"/><path fill="#f1edee" d="M 113.605469 43.585938 L 114.347656 43.957031 C 113.808594 45.230469 113.132812 45.941406 112.078125 46.824219 L 111.265625 47.511719 L 110.640625 48.023438 L 109.902344 47.285156 L 110.921875 46.683594 C 112.199219 45.84375 112.832031 44.894531 113.605469 43.585938 " fill-opacity="1" fill-rule="nonzero"/><path fill="#1e1d22" d="M 345.507812 28.054688 L 346.621094 28.425781 L 346.992188 29.90625 L 341.804688 30.273438 L 342.175781 29.535156 L 345.507812 29.535156 Z M 345.507812 28.054688 " fill-opacity="1" fill-rule="nonzero"/><path fill="#1a080c" d="M 213.257812 15.484375 C 214.355469 15.710938 214.878906 15.945312 215.851562 16.59375 L 215.851562 17.332031 L 212.886719 18.070312 L 213.257812 16.960938 L 214 16.59375 Z M 213.257812 15.484375 " fill-opacity="1" fill-rule="nonzero"/><g clip-path="url(#86a0fe9619)"><path fill="#212224" d="M 228.074219 0.691406 C 228.945312 0.914062 229.8125 1.15625 230.667969 1.429688 L 230.667969 2.171875 L 226.222656 2.171875 L 226.964844 1.0625 Z M 228.074219 0.691406 " fill-opacity="1" fill-rule="nonzero"/></g><g clip-path="url(#31a695a975)"><path fill="#1c1011" d="M 143.242188 1.0625 C 144.515625 0.921875 144.515625 0.921875 145.835938 1.0625 L 146.945312 2.171875 L 142.5 2.171875 Z M 143.242188 1.0625 " fill-opacity="1" fill-rule="nonzero"/></g><path fill="#fbf9f9" d="M 351.4375 19.921875 L 352.546875 20.289062 L 351.667969 20.777344 C 350.613281 21.359375 350.613281 21.359375 349.953125 22.507812 C 349.808594 23.367188 349.683594 24.230469 349.582031 25.097656 L 349.214844 25.097656 C 349.078125 23.960938 349.027344 22.902344 349.214844 21.769531 C 349.871094 20.835938 350.417969 20.519531 351.4375 19.921875 " fill-opacity="1" fill-rule="nonzero"/><path fill="#e1f1f2" d="M 219.183594 11.414062 L 218.445312 12.15625 C 217.472656 12.386719 217.472656 12.386719 216.589844 12.523438 L 216.589844 13.265625 L 215.480469 13.265625 C 215.597656 12.546875 215.597656 12.546875 215.851562 11.785156 C 217.035156 11.390625 217.945312 11.386719 219.183594 11.414062 " fill-opacity="1" fill-rule="nonzero"/><path fill="#f4eeee" d="M 361.4375 16.960938 C 361.738281 17.5625 361.738281 17.5625 361.808594 18.441406 C 361.265625 19.273438 360.636719 19.929688 359.957031 20.660156 L 358.472656 20.289062 L 359.585938 20.289062 L 359.886719 19.667969 C 360.363281 18.738281 360.894531 17.851562 361.4375 16.960938 " fill-opacity="1" fill-rule="nonzero"/><path fill="#776e76" d="M 161.023438 14.742188 C 162.019531 14.976562 162.019531 14.976562 163.246094 15.484375 C 163.960938 16.175781 164.503906 16.898438 165.097656 17.703125 L 163.617188 17.332031 L 163.617188 16.59375 L 162.945312 16.292969 C 162.144531 15.859375 161.632812 15.410156 161.023438 14.742188 " fill-opacity="1" fill-rule="nonzero"/><path fill="#917a79" d="M 102.492188 40.257812 C 103.304688 40.121094 103.304688 40.121094 104.34375 40.257812 C 105.082031 40.941406 105.601562 41.660156 106.195312 42.476562 C 104.71875 41.972656 103.675781 41.273438 102.492188 40.257812 " fill-opacity="1" fill-rule="nonzero"/><path fill="#dcc4c1" d="M 203.996094 25.835938 C 204.976562 26.789062 205.828125 27.65625 206.589844 28.796875 C 205.917969 28.703125 205.917969 28.703125 205.109375 28.425781 C 204.460938 27.734375 204.460938 27.734375 203.996094 26.945312 Z M 203.996094 25.835938 " fill-opacity="1" fill-rule="nonzero"/><path fill="#9c9ea0" d="M 131.757812 16.960938 C 132.445312 17.261719 132.445312 17.261719 133.238281 17.703125 C 134.074219 18.859375 134.074219 18.859375 134.722656 19.921875 L 133.609375 19.921875 C 133.097656 19.273438 133.097656 19.273438 132.613281 18.441406 L 132.125 17.609375 Z M 131.757812 16.960938 " fill-opacity="1" fill-rule="nonzero"/></svg>