<svg xmlns="http://www.w3.org/2000/svg" xmlns:xlink="http://www.w3.org/1999/xlink" width="573" zoomAndPan="magnify" viewBox="0 0 429.75 191.999996" height="256" preserveAspectRatio="xMidYMid meet" version="1.0"><path fill="#afd580" d="M 82.230469 8.359375 C 84.191406 8.921875 85.976562 9.679688 87.433594 11.140625 L 87.875 12.175781 C 88.230469 12.765625 88.230469 12.765625 88.820312 13.222656 C 90.375 13.703125 91.960938 13.871094 93.570312 14.070312 C 94.515625 14.207031 95.464844 14.351562 96.410156 14.496094 C 96.648438 14.53125 96.886719 14.570312 97.132812 14.609375 C 103.269531 15.578125 109.167969 17.667969 114.835938 20.171875 L 115.671875 20.535156 C 123.710938 24.089844 130.808594 28.953125 137.382812 34.757812 L 137.914062 35.226562 C 142.601562 39.351562 146.554688 43.949219 150.21875 49 C 150.445312 49.316406 150.445312 49.316406 150.679688 49.636719 C 155.042969 55.710938 158.457031 62.457031 160.972656 69.492188 L 161.265625 70.304688 C 163.011719 75.171875 164.222656 80.082031 165.046875 85.1875 L 165.179688 86.019531 C 165.402344 87.472656 165.527344 88.859375 165.480469 90.332031 L 166.21875 90.570312 C 167.425781 91.125 168.382812 91.804688 169.296875 92.765625 C 170.3125 94.203125 170.925781 95.609375 171.113281 97.359375 C 171.171875 99.300781 170.9375 100.910156 170.15625 102.695312 C 169.230469 104.199219 167.925781 105.269531 166.519531 106.308594 L 165.828125 106.65625 C 165.574219 107.445312 165.574219 107.445312 165.390625 108.410156 L 165.148438 109.527344 L 164.894531 110.738281 C 162.238281 122.722656 157.378906 133.644531 149.070312 142.78125 C 148.417969 143.480469 147.757812 144.175781 147.097656 144.863281 L 146.5625 145.429688 C 143.929688 148.195312 141.191406 150.648438 138.078125 152.855469 C 137.871094 153 137.667969 153.144531 137.457031 153.292969 C 127.886719 160.027344 116.746094 164.183594 105.078125 165.289062 C 98.726562 165.726562 92.296875 165.558594 86.046875 164.316406 L 85.28125 164.167969 C 73.34375 161.824219 62.875 156.003906 53.742188 148.097656 C 51.027344 145.71875 48.746094 143.179688 46.503906 140.347656 L 45.667969 139.332031 C 43.136719 136.179688 41.15625 132.777344 39.21875 129.234375 L 38.601562 128.117188 C 34.707031 120.726562 32.546875 112.238281 31.890625 103.945312 L 31.800781 102.914062 C 31.578125 100.199219 31.585938 97.59375 31.585938 94.847656 L 58.988281 94.847656 L 59.683594 93.113281 C 60.808594 91.839844 62.132812 90.875 63.585938 90.007812 C 65.4375 89.480469 67.136719 89.410156 69.050781 89.636719 C 70.898438 90.179688 72.519531 91.066406 73.90625 92.417969 C 75.027344 93.859375 75.621094 95.140625 75.988281 96.933594 C 76.195312 98.644531 76.078125 100.058594 75.421875 101.664062 C 74.542969 103.433594 73.488281 104.832031 71.949219 106.074219 C 70.8125 106.78125 69.839844 106.996094 68.503906 107.136719 C 64.730469 107.253906 64.730469 107.253906 62.980469 106.460938 C 61.574219 105.601562 60.398438 104.4375 59.335938 103.183594 L 58.988281 102.488281 L 39.21875 102.140625 C 40.433594 110.089844 40.433594 110.089844 42.6875 117.773438 L 43.160156 119.066406 C 45.742188 125.914062 49.324219 132.050781 54.132812 137.570312 L 54.578125 138.085938 C 56.777344 140.625 59.089844 142.820312 61.765625 144.863281 L 62.324219 145.296875 C 64.386719 146.957031 64.386719 146.957031 66.621094 148.339844 L 66.46875 147.714844 C 64.808594 140.285156 66.507812 131.558594 68.707031 124.375 C 69.773438 121.082031 71.191406 118.019531 72.863281 114.992188 L 73.238281 114.320312 C 75.378906 110.5 77.945312 107.09375 80.730469 103.722656 L 81.394531 102.917969 C 81.828125 102.394531 82.261719 101.875 82.699219 101.355469 L 83.304688 100.632812 L 83.84375 99.992188 C 84.324219 99.347656 84.667969 98.703125 85.003906 97.972656 L 84.304688 97.234375 C 76.699219 89.109375 70.394531 79.761719 67.730469 68.824219 C 67.382812 67.320312 67.054688 65.820312 66.792969 64.296875 C 66.644531 63.378906 66.644531 63.378906 66.273438 62.199219 C 65.566406 61.367188 65.566406 61.367188 64.539062 61.15625 C 62.726562 61.550781 61.214844 62.257812 59.640625 63.21875 C 59.417969 63.355469 59.191406 63.488281 58.960938 63.628906 C 56.570312 65.125 54.476562 66.902344 52.398438 68.796875 L 51.703125 69.410156 C 50.316406 70.691406 49.175781 72.179688 48.042969 73.683594 L 47.550781 74.304688 C 47.035156 74.976562 47.035156 74.976562 46.503906 76.09375 C 46.664062 77.191406 46.664062 77.191406 47.195312 78.175781 C 47.917969 79.835938 48.054688 81.183594 48.019531 82.992188 C 47.808594 84.757812 47.175781 86.109375 46.15625 87.554688 C 45.023438 88.828125 43.648438 89.914062 42.039062 90.515625 C 39.964844 90.976562 37.839844 91.003906 35.800781 90.375 C 34.09375 89.59375 32.785156 88.640625 31.652344 87.136719 C 30.789062 85.820312 30.277344 84.695312 30.078125 83.121094 C 29.988281 81.277344 30.128906 79.761719 30.894531 78.066406 C 31.871094 76.359375 33.035156 75.050781 34.707031 74.007812 C 36.058594 73.457031 37.433594 73.042969 38.886719 72.894531 C 39.660156 72.644531 39.660156 72.644531 40.25 71.742188 L 40.972656 70.597656 C 42.59375 68.144531 44.433594 66.019531 46.503906 63.933594 L 46.992188 63.4375 C 50.019531 60.425781 53.4375 57.757812 57.320312 55.941406 C 58.644531 55.316406 59.875 54.714844 61.070312 53.863281 C 61.5625 52.886719 61.726562 52.074219 61.890625 50.996094 C 62.160156 49.832031 62.613281 49.230469 63.390625 48.328125 C 64.433594 47.273438 65.4375 46.320312 66.804688 45.730469 C 69.046875 45.195312 71.480469 45.195312 73.71875 45.730469 C 74.472656 46.054688 75.003906 46.394531 75.640625 46.914062 L 76.140625 47.671875 C 76.816406 48.6875 77.414062 49.332031 78.414062 50.042969 C 80.578125 50.507812 82.707031 50.453125 84.90625 50.421875 C 85.542969 50.425781 86.175781 50.429688 86.808594 50.433594 C 88.46875 50.441406 90.128906 50.429688 91.789062 50.417969 C 93.488281 50.40625 95.183594 50.414062 96.882812 50.417969 C 100.207031 50.425781 103.535156 50.414062 106.859375 50.390625 C 106.644531 49.785156 106.433594 49.183594 106.21875 48.585938 L 105.855469 47.570312 C 105.246094 45.988281 104.617188 44.628906 103.390625 43.441406 C 101.945312 42.640625 100.460938 42.164062 98.878906 41.707031 L 97.625 41.328125 C 87.269531 38.402344 76.582031 38.046875 66.101562 40.597656 C 55.160156 43.414062 45.90625 49.160156 37.765625 56.945312 C 35.878906 58.898438 34.242188 61.0625 32.628906 63.242188 L 32.179688 63.839844 C 26.84375 71.113281 23.566406 79.714844 22.007812 88.558594 C 21.886719 89.21875 21.746094 89.878906 21.601562 90.535156 C 21.421875 91.601562 21.316406 92.394531 21.527344 93.457031 C 22.226562 94.339844 22.9375 94.953125 23.851562 95.605469 C 24.75 96.320312 25.179688 96.953125 25.691406 97.972656 C 26.300781 99.742188 26.164062 101.6875 26.035156 103.53125 C 25.492188 105.460938 24.433594 106.742188 23.128906 108.21875 L 22.566406 108.742188 L 21.875 108.742188 C 22.804688 114.078125 23.832031 119.273438 25.691406 124.371094 L 25.992188 125.207031 C 28.480469 132.015625 31.773438 138.355469 36.097656 144.171875 L 36.554688 144.792969 C 44.601562 155.632812 55.257812 164.082031 67.5625 169.601562 C 75.101562 172.84375 82.8125 174.578125 90.902344 175.777344 L 91.171875 174.988281 C 91.746094 173.707031 92.515625 173.046875 93.578125 172.160156 C 95.164062 171.058594 96.773438 170.660156 98.664062 170.414062 C 100.949219 170.691406 102.960938 171.46875 104.90625 172.695312 C 106.167969 174.078125 106.996094 175.375 107.550781 177.167969 C 107.800781 179.097656 107.816406 180.960938 107.347656 182.859375 C 106.609375 184.597656 105.269531 185.773438 103.878906 187.007812 C 102.597656 187.894531 101.410156 188.234375 99.871094 188.398438 C 96.476562 188.441406 96.476562 188.441406 94.890625 187.675781 C 94.476562 187.425781 94.074219 187.167969 93.675781 186.894531 L 92.703125 186.21875 C 91.941406 185.503906 91.941406 185.503906 91.507812 184.589844 L 90.902344 183.765625 C 89.832031 183.425781 88.886719 183.238281 87.78125 183.070312 C 72.234375 180.597656 58.03125 175.054688 45.679688 165.121094 C 40.476562 160.898438 35.671875 156.382812 31.660156 150.984375 C 31.261719 150.457031 30.855469 149.929688 30.445312 149.410156 C 25.230469 142.703125 21.355469 135.089844 18.40625 127.152344 C 18.3125 126.90625 18.21875 126.664062 18.121094 126.414062 C 17.09375 123.714844 16.308594 120.945312 15.765625 118.109375 L 15.617188 117.359375 C 15.367188 116.109375 15.140625 114.855469 14.925781 113.601562 C 14.6875 112.28125 14.402344 111.035156 13.894531 109.785156 C 13.140625 109.015625 12.472656 108.5625 11.511719 108.085938 C 10.492188 107.550781 9.972656 106.84375 9.363281 105.886719 C 8.515625 104.261719 8.199219 102.621094 8.261719 100.789062 C 8.453125 99.128906 8.917969 97.636719 9.847656 96.242188 C 10.6875 95.210938 11.34375 94.566406 12.542969 93.941406 L 13.550781 93.113281 C 13.925781 92.039062 13.996094 90.960938 14.089844 89.832031 C 14.167969 89.171875 14.246094 88.511719 14.328125 87.847656 L 14.453125 86.824219 C 15.78125 77.167969 19.957031 67.605469 25.691406 59.765625 L 26.484375 58.671875 C 33.535156 49.148438 42.914062 41.53125 53.78125 36.785156 C 65.328125 31.933594 77.214844 30.351562 89.632812 31.835938 C 97.125 32.824219 104.296875 35.140625 111.019531 38.578125 L 111.765625 38.960938 C 116.832031 41.582031 121.363281 44.753906 125.539062 48.65625 C 126.214844 49.285156 126.914062 49.867188 127.628906 50.453125 C 135.078125 56.964844 140.773438 66.8125 144.078125 76.070312 C 145.257812 79.5625 146.21875 82.894531 146.027344 86.601562 C 146.058594 87.707031 146.339844 88.519531 146.726562 89.550781 C 147.664062 92.089844 147.738281 94.605469 147.789062 97.28125 L 147.820312 98.625 C 147.84375 100.828125 147.84375 100.828125 147.789062 101.792969 L 147.441406 102.140625 C 146.753906 102.171875 146.0625 102.175781 145.371094 102.167969 L 144.027344 102.164062 L 143.304688 102.15625 C 142.042969 102.152344 140.777344 102.15625 139.515625 102.160156 C 137.910156 102.164062 136.300781 102.164062 134.691406 102.152344 C 133.394531 102.140625 132.097656 102.140625 130.796875 102.152344 C 130.304688 102.152344 129.8125 102.148438 129.316406 102.140625 C 127.804688 102.117188 126.371094 102.140625 124.894531 102.488281 C 124.050781 103.121094 123.519531 103.71875 122.929688 104.589844 C 122.238281 105.605469 121.445312 106.054688 120.386719 106.65625 C 118.382812 107.328125 116.226562 107.191406 114.144531 107.003906 C 112.378906 106.449219 111.109375 105.453125 109.851562 104.117188 C 108.875 102.859375 108.238281 101.617188 107.898438 100.058594 C 107.65625 98.214844 107.773438 96.660156 108.484375 94.933594 C 109.28125 93.351562 110.144531 91.992188 111.621094 90.953125 C 113.296875 89.949219 114.6875 89.582031 116.613281 89.53125 C 118.328125 89.558594 119.730469 89.816406 121.296875 90.511719 C 122.78125 91.441406 123.90625 92.71875 124.894531 94.152344 L 124.894531 94.847656 L 139.8125 94.5 C 139.59375 91.90625 139.378906 89.472656 138.859375 86.945312 L 138.671875 86.042969 C 136.714844 76.835938 132.808594 67.960938 126.628906 60.808594 C 126.304688 60.417969 125.980469 60.023438 125.65625 59.628906 C 122.441406 55.761719 118.894531 52.648438 114.835938 49.695312 L 114.84375 50.328125 C 114.914062 59.726562 114.914062 59.726562 114.488281 61.503906 C 113.820312 62.359375 113.019531 62.835938 112.082031 63.371094 C 110.871094 64.121094 110.046875 64.78125 109.285156 66.019531 C 108.515625 67.640625 108.152344 69.101562 108.269531 70.902344 C 108.46875 72.351562 108.914062 73.488281 109.65625 74.742188 C 110.078125 75.59375 110.269531 76.175781 110.328125 77.132812 C 109.992188 78.019531 109.601562 78.882812 109.15625 79.71875 L 108.773438 80.457031 C 105.894531 85.910156 102.203125 90.707031 98.164062 95.339844 C 97.421875 96.195312 96.734375 97.03125 96.105469 97.972656 C 96.113281 98.664062 96.113281 98.664062 96.453125 99.363281 C 97.078125 100.167969 97.078125 100.167969 97.863281 100.96875 C 104.910156 108.605469 110.554688 117.6875 113.101562 127.84375 C 113.378906 129.238281 113.605469 130.636719 113.808594 132.042969 L 114.144531 133.054688 C 114.949219 133.511719 114.949219 133.511719 115.878906 133.75 C 116.351562 134.082031 116.816406 134.429688 117.265625 134.792969 C 123.332031 131.539062 128.296875 127.257812 132.449219 121.757812 L 132.875 120.898438 C 132.785156 119.765625 132.496094 119.101562 131.984375 118.078125 C 131.375 116.683594 131.316406 115.382812 131.367188 113.871094 C 131.558594 112.324219 132.03125 111.09375 132.875 109.785156 C 134.144531 108.199219 135.476562 107.058594 137.382812 106.308594 C 139.011719 105.851562 140.636719 105.769531 142.296875 106.121094 C 144.300781 106.710938 145.976562 107.582031 147.441406 109.089844 C 148.511719 110.523438 149.078125 111.898438 149.34375 113.667969 C 149.425781 115.570312 149.269531 117.191406 148.503906 118.945312 C 147.472656 120.742188 146.09375 121.933594 144.320312 122.984375 C 142.769531 123.589844 141.46875 123.757812 139.8125 123.675781 L 139.566406 124.40625 C 137.269531 129.558594 131.886719 134.292969 127.433594 137.570312 C 125.003906 139.3125 122.453125 140.847656 119.800781 142.222656 C 118.957031 142.726562 118.957031 142.726562 118.546875 143.558594 L 118.195312 144.429688 C 117.449219 146.015625 116.660156 147.101562 115.289062 148.195312 C 113.839844 149.085938 112.351562 149.496094 110.675781 149.726562 C 108.773438 149.773438 107.152344 149.195312 105.472656 148.339844 L 104.421875 147.449219 C 103.664062 146.90625 103.125 146.617188 102.207031 146.429688 C 101.210938 146.355469 100.226562 146.335938 99.230469 146.332031 L 98.089844 146.308594 C 97.277344 146.289062 96.464844 146.277344 95.652344 146.269531 C 94.347656 146.253906 93.046875 146.226562 91.746094 146.199219 C 89.03125 146.140625 86.3125 146.101562 83.597656 146.058594 L 80.757812 146.011719 C 78.472656 145.976562 76.1875 145.941406 73.90625 145.90625 C 74.066406 146.464844 74.230469 147.023438 74.394531 147.578125 L 74.671875 148.519531 C 74.984375 149.5 75.386719 150.34375 75.921875 151.226562 L 76.40625 152.046875 C 77.199219 153.074219 78.007812 153.90625 79.109375 154.589844 C 80.253906 155.058594 81.421875 155.375 82.621094 155.675781 L 83.648438 155.941406 C 93.730469 158.460938 104.257812 158.605469 114.34375 155.921875 C 115.6875 155.535156 116.996094 155.078125 118.304688 154.589844 L 118.960938 154.347656 C 126.8125 151.4375 133.730469 147.164062 139.8125 141.390625 L 140.804688 140.464844 C 147.734375 133.867188 152.90625 125.078125 155.648438 115.921875 C 156.8125 111.859375 156.8125 111.859375 157.503906 107.699219 L 157.597656 106.804688 L 157.503906 105.964844 C 156.949219 105.339844 156.949219 105.339844 156.203125 104.835938 C 154.914062 103.769531 154.160156 102.847656 153.554688 101.289062 C 153.148438 99.621094 153.128906 97.933594 153.339844 96.238281 C 153.570312 95.460938 153.570312 95.460938 154.035156 94.847656 C 154.949219 94.46875 154.949219 94.46875 156.050781 94.175781 C 157.363281 93.769531 158.148438 93.496094 159.238281 92.632812 C 160.683594 90.746094 160.683594 90.746094 161.664062 88.597656 C 161.890625 86.46875 161.863281 84.535156 160.992188 82.5625 C 160.121094 81.007812 159.042969 80.148438 157.53125 79.238281 C 156.773438 78.832031 156.773438 78.832031 155.769531 78.523438 C 155.445312 77.828125 155.445312 77.828125 155.167969 76.910156 L 154.847656 75.882812 L 154.511719 74.769531 C 151.144531 64.214844 145.773438 54.835938 138.425781 46.566406 L 137.9375 46.011719 C 129.1875 36 117.691406 28.855469 105.167969 24.578125 C 100.402344 23.007812 95.53125 21.902344 90.554688 21.261719 L 89.625 21.140625 L 88.820312 21.210938 C 88.144531 21.839844 87.746094 22.457031 87.269531 23.246094 C 86.492188 24.335938 85.53125 24.804688 84.363281 25.410156 C 82.625 26.148438 80.976562 26.238281 79.109375 26.074219 C 77.445312 25.746094 76.035156 25.175781 74.6875 24.144531 C 73.285156 22.808594 72.398438 21.320312 71.824219 19.476562 C 71.535156 17.558594 71.550781 15.816406 72.144531 13.960938 C 72.773438 12.582031 73.464844 11.585938 74.511719 10.488281 C 77.007812 8.851562 79.203125 7.898438 82.230469 8.359375 M 78.066406 58.03125 C 77.21875 59.011719 77.21875 59.011719 76.679688 60.113281 C 75.910156 60.789062 75.113281 61.289062 74.253906 61.851562 C 74.429688 64.085938 74.664062 66.292969 75.292969 68.449219 L 75.640625 68.796875 C 77.375 69.113281 79.070312 69.195312 80.828125 69.183594 L 81.628906 69.183594 C 82.492188 69.183594 83.359375 69.183594 84.222656 69.179688 L 86.03125 69.175781 C 87.613281 69.175781 89.195312 69.171875 90.777344 69.167969 C 92.394531 69.164062 94.007812 69.164062 95.625 69.164062 C 98.792969 69.160156 101.957031 69.152344 105.125 69.144531 C 106.289062 65.707031 107.175781 62.027344 107.207031 58.378906 L 106.859375 58.03125 C 105.96875 57.984375 105.089844 57.964844 104.199219 57.957031 L 103.355469 57.949219 C 102.429688 57.9375 101.5 57.929688 100.574219 57.921875 L 99.621094 57.917969 C 97.949219 57.90625 96.277344 57.894531 94.609375 57.890625 C 93.222656 57.882812 91.839844 57.871094 90.453125 57.855469 C 88.785156 57.832031 87.117188 57.824219 85.445312 57.820312 C 84.808594 57.816406 84.171875 57.808594 83.535156 57.800781 C 82.644531 57.785156 81.753906 57.785156 80.863281 57.789062 L 80.0625 57.765625 C 79.230469 57.757812 79.230469 57.757812 78.066406 58.03125 M 78.761719 76.09375 C 79.089844 77.738281 79.597656 78.839844 80.453125 80.238281 L 80.871094 80.929688 C 83.527344 85.207031 86.914062 88.972656 90.207031 92.765625 C 95.011719 88.792969 99.460938 82.863281 102.003906 77.132812 L 102.003906 76.4375 Z M 90.207031 103.878906 C 86.429688 107.980469 83.144531 112.378906 80.148438 117.078125 L 79.507812 118.03125 L 79.109375 118.8125 L 79.457031 119.855469 L 101.308594 119.855469 L 101.65625 118.8125 C 101.265625 118 100.832031 117.214844 100.355469 116.449219 L 99.925781 115.75 C 98.375 113.265625 96.585938 110.996094 94.71875 108.742188 L 94.1875 108.097656 C 93.664062 107.464844 93.140625 106.832031 92.613281 106.203125 L 92.125 105.613281 C 91.289062 104.601562 91.289062 104.601562 90.207031 103.878906 M 75.640625 127.496094 C 74.089844 133.082031 74.089844 133.082031 73.90625 138.613281 C 76.453125 138.660156 79.003906 138.703125 81.550781 138.75 C 82.734375 138.769531 83.917969 138.789062 85.105469 138.8125 C 90.503906 138.910156 95.90625 138.988281 101.308594 138.960938 L 101.726562 138.125 C 102.746094 136.117188 103.605469 134.675781 105.472656 133.402344 L 106.164062 133.054688 C 106.125 132.519531 106.082031 131.984375 106.035156 131.449219 L 105.960938 130.546875 C 105.816406 129.375 105.816406 129.375 105.125 127.496094 Z M 404.128906 92.765625 C 404.195312 109.285156 404.195312 109.285156 404.019531 116.652344 C 404.007812 117.191406 403.996094 117.730469 403.984375 118.269531 C 403.847656 124.691406 403.847656 124.691406 402.199219 127.542969 C 401.25 129.039062 400.265625 130.011719 398.742188 130.90625 C 395.929688 132.257812 393.214844 132.53125 390.113281 132.460938 C 388.210938 132.308594 386.402344 131.980469 384.785156 130.914062 L 384.25 130.515625 L 383.316406 129.929688 C 382.472656 130.191406 382.472656 130.191406 381.582031 130.625 C 379.300781 131.511719 377.0625 132.289062 374.644531 132.707031 L 373.964844 132.824219 C 367.953125 133.667969 361.21875 133.195312 355.566406 130.972656 C 355.089844 130.710938 354.621094 130.433594 354.160156 130.144531 L 353.140625 129.582031 C 352.160156 129.8125 351.734375 130.292969 350.992188 130.972656 C 349.65625 131.921875 348.511719 132.175781 346.894531 132.359375 C 343.980469 132.542969 341.242188 132.617188 338.570312 131.320312 C 337.242188 130.628906 336.394531 129.910156 335.558594 128.691406 C 334.578125 127.019531 334.136719 125.210938 333.714844 123.328125 C 332.96875 123.699219 332.226562 124.066406 331.480469 124.4375 L 330.75 124.800781 C 329.164062 125.59375 327.59375 126.410156 326.035156 127.25 C 318.496094 131.292969 318.496094 131.292969 314.636719 132.011719 L 313.734375 132.195312 C 312.265625 132.402344 310.832031 132.410156 309.351562 132.40625 L 308.382812 132.40625 C 307.3125 132.40625 306.246094 132.40625 305.175781 132.40625 L 302.875 132.40625 C 300.792969 132.410156 298.710938 132.410156 296.628906 132.40625 C 294.453125 132.40625 292.273438 132.40625 290.097656 132.40625 C 286.207031 132.410156 282.316406 132.40625 278.425781 132.40625 C 274.898438 132.402344 271.371094 132.40625 267.84375 132.40625 C 263.746094 132.40625 259.648438 132.410156 255.550781 132.40625 C 253.382812 132.40625 251.214844 132.40625 249.046875 132.40625 C 247.007812 132.410156 244.96875 132.410156 242.929688 132.40625 C 242.183594 132.40625 241.433594 132.40625 240.683594 132.40625 C 239.664062 132.40625 238.644531 132.40625 237.625 132.40625 L 236.71875 132.40625 C 235.460938 132.402344 234.332031 132.355469 233.121094 132.011719 L 233.09375 132.613281 C 232.976562 134.222656 232.773438 135.578125 231.871094 136.964844 C 229.550781 139.867188 226.398438 141.628906 223.0625 143.128906 C 219.605469 144.460938 216.039062 144.8125 212.363281 144.410156 C 209.394531 143.941406 206.707031 142.917969 204.332031 141.042969 C 202.410156 139.1875 201.027344 137.335938 200.167969 134.792969 C 199.289062 131.699219 199.386719 127.714844 200.121094 124.605469 C 200.972656 121.898438 202.144531 119.261719 203.984375 117.078125 L 205.371094 116.382812 L 208.839844 118.8125 C 208.574219 120.132812 208.292969 121.113281 207.800781 122.332031 C 206.972656 124.59375 206.535156 126.714844 206.898438 129.121094 C 207.34375 130.871094 208.007812 132.28125 209.261719 133.585938 C 210.679688 134.757812 212.160156 135.324219 213.957031 135.671875 C 217.09375 136.039062 220.28125 135.839844 223.230469 134.652344 C 225.191406 133.707031 225.191406 133.707031 226.875 132.359375 C 227.039062 131.367188 227.039062 131.367188 226.875 130.277344 C 226.371094 129.304688 226.371094 129.304688 225.640625 128.410156 L 224.882812 127.417969 C 223.84375 126.140625 222.785156 124.890625 221.671875 123.675781 C 222.0625 122.625 222.503906 122.164062 223.347656 121.390625 C 223.726562 121.082031 224.109375 120.769531 224.492188 120.464844 L 225.085938 119.980469 C 225.566406 119.589844 226.046875 119.203125 226.53125 118.8125 C 227.605469 119.289062 228.277344 119.816406 229.066406 120.679688 C 230.222656 121.871094 231.28125 122.609375 232.773438 123.328125 C 234.382812 123.773438 235.992188 123.726562 237.648438 123.726562 L 238.605469 123.730469 C 239.667969 123.730469 240.730469 123.734375 241.792969 123.734375 L 244.078125 123.738281 C 246.144531 123.742188 248.214844 123.746094 250.285156 123.746094 L 254.164062 123.75 C 258.917969 123.757812 263.667969 123.761719 268.417969 123.761719 C 272.15625 123.761719 275.894531 123.769531 279.636719 123.777344 C 283.480469 123.785156 287.324219 123.789062 291.171875 123.789062 C 293.328125 123.789062 295.484375 123.792969 297.640625 123.796875 C 299.671875 123.804688 301.703125 123.804688 303.734375 123.800781 C 304.476562 123.800781 305.21875 123.800781 305.960938 123.804688 C 310.960938 123.828125 315.457031 123.515625 320.164062 121.660156 L 320.847656 121.390625 C 321.316406 121.207031 321.78125 121.023438 322.25 120.835938 C 322.984375 120.542969 323.71875 120.257812 324.457031 119.976562 L 325.886719 119.421875 L 326.566406 119.164062 C 327.105469 118.949219 327.636719 118.710938 328.164062 118.46875 L 328.511719 117.773438 L 327.820312 117.65625 C 327.019531 117.476562 326.230469 117.265625 325.453125 117.011719 C 321.34375 115.660156 321.34375 115.660156 317.0625 115.6875 C 315.902344 116.167969 315.902344 116.167969 314.984375 116.730469 L 313.59375 116.730469 C 312.777344 116.199219 312.777344 116.199219 311.949219 115.515625 L 311.109375 114.832031 L 310.472656 114.300781 C 311.144531 112.417969 312.171875 111.164062 313.59375 109.785156 C 315.195312 108.535156 316.796875 107.746094 318.796875 107.351562 C 323.175781 107.199219 326.980469 108.632812 330.9375 110.347656 C 334.128906 111.726562 336.839844 112.332031 340.304688 112.5625 L 340.304688 120.550781 L 337.53125 121.59375 C 337.675781 122.296875 337.675781 122.296875 338.222656 122.984375 C 340.621094 123.90625 343.316406 123.960938 345.855469 123.675781 C 346.828125 123.289062 346.828125 123.289062 347.589844 122.636719 C 348.113281 121.902344 348.113281 121.902344 348.476562 121.050781 L 348.90625 120.128906 C 349.539062 118.660156 350.140625 117.179688 350.710938 115.6875 L 356.261719 117.078125 C 356.261719 118.925781 356.167969 120.488281 355.914062 122.289062 L 359.382812 123.328125 L 360.171875 121.742188 C 362.152344 117.808594 364.09375 114.136719 367.015625 110.824219 L 367.648438 110.089844 C 369.453125 108.128906 371.671875 106.789062 374.148438 105.832031 C 376.160156 105.464844 378.007812 105.421875 380 105.941406 C 382.066406 106.710938 383.570312 108.191406 385.050781 109.785156 C 386.554688 111.636719 387.367188 113.703125 387.828125 116.035156 C 388.132812 118.492188 388.347656 120.894531 387.828125 123.328125 C 389.929688 123.96875 392.378906 123.894531 394.535156 123.546875 C 395.242188 123.367188 395.242188 123.367188 396.152344 122.984375 L 396.84375 122.289062 C 396.910156 121.390625 396.933594 120.492188 396.925781 119.59375 L 396.925781 118.753906 C 396.925781 117.832031 396.917969 116.910156 396.914062 115.988281 L 396.910156 114.078125 C 396.90625 112.398438 396.902344 110.71875 396.894531 109.035156 C 396.886719 107.324219 396.882812 105.609375 396.878906 103.894531 C 396.871094 100.53125 396.859375 97.167969 396.84375 93.804688 C 397.667969 93.628906 398.492188 93.457031 399.316406 93.285156 L 400.015625 93.132812 C 401.410156 92.847656 402.707031 92.710938 404.128906 92.765625 M 372.125 115.558594 C 370.164062 117.214844 368.722656 119.078125 367.359375 121.246094 L 366.902344 121.96875 C 366.570312 122.523438 366.269531 123.101562 365.972656 123.675781 L 365.972656 124.71875 C 373.082031 125.039062 373.082031 125.039062 379.785156 123.015625 C 380.953125 122.351562 380.953125 122.351562 381.605469 121.179688 C 381.960938 119.734375 381.929688 118.867188 381.535156 117.453125 C 381.074219 116.335938 380.449219 115.726562 379.5 114.992188 C 378.515625 114.398438 377.734375 114 376.597656 113.820312 C 374.878906 114.066406 373.527344 114.550781 372.125 115.558594 M 308.738281 55.25 C 311.324219 61.042969 312.769531 66.480469 312.109375 72.871094 C 311.769531 74.777344 310.976562 76.316406 309.78125 77.828125 C 308.277344 79.53125 306.613281 80.304688 304.488281 81.039062 C 302.84375 81.492188 301.222656 81.691406 299.519531 81.757812 L 298.402344 81.800781 L 297.207031 81.84375 L 295.949219 81.886719 C 291.652344 82.027344 287.355469 82.039062 283.054688 82.03125 L 280.597656 82.027344 C 278.480469 82.027344 276.359375 82.023438 274.242188 82.019531 C 272.0625 82.015625 269.886719 82.015625 267.710938 82.011719 C 263.464844 82.011719 259.21875 82.003906 254.972656 81.996094 L 254.5 82.917969 L 253.863281 84.136719 L 253.238281 85.339844 C 251.796875 87.777344 249.753906 89.632812 247.386719 91.15625 C 244.273438 92.878906 241.160156 93.632812 237.628906 93.804688 C 237.167969 92.65625 236.703125 91.503906 236.242188 90.355469 L 235.839844 89.359375 L 235.460938 88.414062 L 235.109375 87.535156 C 234.855469 86.859375 234.855469 86.859375 234.855469 86.511719 L 235.5625 86.378906 C 236.644531 86.175781 237.722656 85.964844 238.800781 85.753906 L 239.914062 85.546875 C 242.347656 85.058594 244.554688 84.40625 246.648438 83.039062 C 247.445312 82.269531 248.066406 81.5 248.730469 80.605469 L 247.953125 80.644531 C 245.085938 80.71875 242.5625 80.4375 239.957031 79.183594 C 238.4375 78.300781 237.152344 77.269531 236.242188 75.746094 C 235.050781 73.371094 234.648438 71.167969 234.746094 68.519531 C 235.027344 65.675781 235.855469 63.292969 237.398438 60.886719 C 238.574219 59.316406 239.855469 58.324219 241.574219 57.402344 C 243.292969 56.835938 244.890625 56.515625 246.699219 56.726562 C 248.644531 57.144531 250.011719 58.007812 251.496094 59.339844 C 253.867188 61.734375 254.730469 64.484375 255.578125 67.6875 C 255.894531 69.085938 256.027344 70.375 256.019531 71.804688 L 256.015625 72.660156 L 256.015625 73.3125 C 261.847656 73.285156 267.675781 73.25 273.507812 73.214844 C 276.21875 73.195312 278.925781 73.179688 281.632812 73.167969 C 283.992188 73.15625 286.355469 73.140625 288.714844 73.125 C 289.964844 73.117188 291.214844 73.109375 292.464844 73.105469 C 293.859375 73.097656 295.257812 73.085938 296.652344 73.078125 L 297.902344 73.074219 C 300.441406 73.046875 302.546875 72.800781 304.921875 71.859375 L 305.617188 71.230469 C 305.769531 69.386719 305.429688 67.820312 304.859375 66.085938 L 304.625 65.351562 C 304.070312 63.644531 303.339844 62.015625 302.433594 60.46875 C 302.148438 59.765625 302.148438 59.765625 302.226562 59.078125 C 302.496094 58.378906 302.496094 58.378906 303.035156 57.933594 L 303.71875 57.558594 L 304.464844 57.144531 L 305.25 56.726562 L 306.027344 56.296875 C 307.9375 55.25 307.9375 55.25 308.738281 55.25 M 242.484375 65.324219 C 241.546875 66.222656 240.925781 66.867188 240.53125 68.101562 C 240.367188 68.921875 240.367188 68.921875 240.40625 70.1875 C 240.832031 71.203125 241.289062 71.769531 242.074219 72.53125 C 243.398438 73.289062 244.832031 73.332031 246.332031 73.347656 C 246.828125 73.34375 247.324219 73.339844 247.820312 73.335938 L 248.59375 73.332031 C 249.21875 73.324219 249.839844 73.320312 250.464844 73.3125 C 250.363281 70.867188 249.972656 68.84375 248.730469 66.714844 C 248.007812 65.640625 248.007812 65.640625 246.996094 64.976562 C 245.398438 64.484375 243.9375 64.421875 242.484375 65.324219 M 404.128906 42.054688 C 404.195312 58.574219 404.195312 58.574219 404.019531 65.921875 C 404.007812 66.460938 403.996094 66.996094 403.984375 67.535156 C 403.851562 73.847656 403.851562 73.847656 402.628906 76.335938 C 401.28125 78.253906 400.027344 79.570312 397.929688 80.652344 C 395.296875 81.746094 392.378906 82.214844 389.542969 81.855469 C 387.683594 81.546875 385.921875 81.171875 384.316406 80.152344 L 383.316406 79.566406 C 382.445312 79.707031 382.445312 79.707031 381.582031 80.261719 C 381.101562 80.496094 380.617188 80.730469 380.128906 80.953125 L 379.421875 81.300781 C 376.769531 82.261719 374.128906 82.449219 371.328125 82.410156 L 370.402344 82.410156 C 368.441406 82.394531 366.53125 82.242188 364.585938 81.996094 C 363.558594 79.160156 362.824219 76.347656 362.851562 73.3125 L 363.480469 73.386719 C 365.675781 73.628906 367.839844 73.726562 370.050781 73.726562 L 371.050781 73.726562 C 373.691406 73.707031 376.207031 73.4375 378.808594 72.964844 L 378.492188 72.230469 C 374.972656 64.058594 374.972656 64.058594 373.691406 60.503906 L 373.425781 59.792969 C 373.128906 58.9375 372.890625 58.222656 372.984375 57.3125 L 373.257812 56.640625 C 373.828125 56.226562 373.828125 56.226562 374.558594 55.898438 L 375.351562 55.53125 L 376.183594 55.164062 L 377.015625 54.78125 C 379.039062 53.863281 379.039062 53.863281 379.847656 53.863281 L 380.078125 54.554688 C 381.570312 58.984375 383.117188 63.386719 384.835938 67.734375 L 385.273438 68.855469 L 385.6875 69.890625 L 386.050781 70.804688 C 386.449219 71.59375 386.796875 72.0625 387.480469 72.617188 C 388.789062 73.054688 390.019531 73.042969 391.382812 73.050781 L 392.160156 73.074219 L 392.925781 73.078125 L 393.617188 73.089844 C 394.726562 72.953125 394.726562 72.953125 396.84375 71.921875 L 396.84375 43.09375 C 402.394531 42.054688 402.394531 42.054688 404.128906 42.054688 M 325.390625 42.054688 L 325.386719 43.136719 C 325.371094 46.511719 325.359375 49.882812 325.355469 53.257812 C 325.351562 54.992188 325.34375 56.726562 325.335938 58.460938 C 325.328125 60.132812 325.324219 61.804688 325.324219 63.480469 C 325.324219 64.117188 325.320312 64.757812 325.316406 65.394531 C 325.3125 66.289062 325.308594 67.183594 325.3125 68.078125 L 325.304688 68.878906 C 325.308594 69.898438 325.347656 70.761719 325.695312 71.726562 C 326.070312 72.332031 326.070312 72.332031 326.824219 72.699219 C 328.0625 73.03125 329.234375 73.070312 330.503906 73.050781 L 331.25 73.046875 C 333.742188 73 335.941406 72.609375 338.222656 71.578125 C 338.371094 66.957031 336.28125 62.832031 334.40625 58.726562 L 340.652344 55.25 C 342.476562 57.078125 343.183594 59.492188 343.847656 61.957031 C 344.925781 66.28125 345.367188 70.449219 344.136719 74.808594 C 343.417969 76.664062 342.273438 77.972656 340.847656 79.328125 C 338.0625 81.164062 335.003906 81.589844 331.742188 81.929688 C 328.691406 82.109375 325.789062 81.707031 322.964844 80.519531 C 321.464844 79.703125 320.410156 78.871094 319.472656 77.4375 C 318.507812 75.730469 318.398438 74.191406 318.34375 72.238281 L 318.320312 71.480469 C 318.296875 70.644531 318.277344 69.808594 318.257812 68.972656 L 318.234375 68.097656 C 318.027344 59.765625 318.074219 51.429688 318.105469 43.09375 C 318.929688 42.917969 319.753906 42.746094 320.578125 42.574219 L 321.277344 42.421875 C 322.675781 42.132812 323.964844 42.03125 325.390625 42.050781 M 226.183594 63.242188 C 227.28125 65.847656 228.152344 68.453125 228.871094 71.1875 L 229.09375 72.023438 C 230.101562 75.972656 230.445312 79.769531 229.335938 83.738281 C 228.53125 85.941406 227.382812 87.769531 225.699219 89.402344 C 223.433594 91.289062 221.050781 92.671875 218.207031 93.457031 C 214.433594 94.09375 210.101562 94.269531 206.410156 93.113281 C 203.46875 91.972656 201.085938 90.605469 199.046875 88.117188 C 197.777344 86.238281 197.054688 84.230469 196.699219 81.996094 C 196.429688 77.582031 196.964844 73.660156 198.910156 69.667969 C 199.71875 68.050781 200.574219 66.894531 201.902344 65.671875 L 206.066406 68.101562 C 205.71875 69.152344 205.363281 70.199219 205 71.242188 C 204.171875 73.714844 203.648438 75.914062 203.984375 78.523438 C 204.324219 80.039062 204.917969 81.144531 205.78125 82.429688 C 206.925781 83.550781 208.039062 84.222656 209.535156 84.773438 C 212.570312 85.523438 215.640625 85.253906 218.628906 84.421875 C 220.011719 83.929688 221.242188 83.292969 222.367188 82.34375 C 223.089844 81.40625 223.089844 81.40625 223.203125 80.585938 C 223.367188 76.152344 221.308594 71.804688 219.550781 67.820312 C 219.246094 67.0625 219.246094 67.0625 219.246094 66.367188 C 220.203125 65.84375 221.167969 65.324219 222.128906 64.804688 C 222.402344 64.652344 222.675781 64.503906 222.953125 64.351562 L 223.75 63.925781 L 224.484375 63.527344 C 225.144531 63.242188 225.144531 63.242188 226.183594 63.242188 " fill-opacity="1" fill-rule="nonzero"/><path fill="#afd581" d="M 357.996094 42.054688 C 358.03125 50.0625 357.933594 58.074219 357.835938 66.082031 L 357.773438 71.367188 C 357.730469 74.792969 357.691406 78.222656 357.648438 81.648438 L 351.058594 81.648438 C 350.996094 78.21875 350.941406 74.789062 350.882812 71.359375 L 350.871094 70.589844 C 350.722656 61.425781 350.667969 52.261719 350.710938 43.09375 C 351.597656 42.917969 352.488281 42.746094 353.378906 42.574219 L 354.136719 42.421875 L 354.878906 42.28125 L 355.554688 42.148438 C 356.375 42.039062 357.167969 42.039062 357.996094 42.054688 " fill-opacity="1" fill-rule="nonzero"/><path fill="#afd580" d="M 418.003906 92.765625 C 418.03125 98.902344 417.964844 105.039062 417.875 111.175781 C 417.859375 112.230469 417.847656 113.285156 417.832031 114.34375 C 417.753906 120.355469 417.625 126.355469 417.3125 132.359375 L 411.066406 132.359375 C 411.007812 129.257812 410.949219 126.152344 410.894531 123.046875 L 410.882812 122.34375 C 410.714844 112.832031 410.679688 103.320312 410.71875 93.804688 C 411.480469 93.628906 412.238281 93.457031 412.996094 93.285156 L 414.277344 92.992188 C 415.550781 92.769531 416.714844 92.722656 418.003906 92.765625 M 418.003906 42.054688 C 418.035156 47.964844 417.957031 53.875 417.875 59.789062 C 417.859375 60.902344 417.847656 62.015625 417.832031 63.128906 C 417.757812 69.308594 417.640625 75.476562 417.3125 81.648438 L 411.066406 81.648438 C 411 78.308594 410.941406 74.972656 410.882812 71.632812 C 410.714844 62.121094 410.679688 52.609375 410.71875 43.09375 C 411.542969 42.917969 412.367188 42.746094 413.191406 42.574219 L 413.890625 42.421875 C 415.285156 42.136719 416.582031 42 418.003906 42.054688 " fill-opacity="1" fill-rule="nonzero"/><path fill="#afd581" d="M 210.921875 148.683594 C 212.332031 149.296875 213.117188 150.199219 214.117188 151.339844 L 214.738281 151.8125 C 215.445312 151.847656 215.445312 151.847656 216.125 151.464844 C 216.867188 150.761719 217.527344 150.011719 218.207031 149.246094 L 218.898438 148.683594 C 219.570312 148.765625 219.570312 148.765625 220.285156 149.03125 C 220.824219 149.445312 220.824219 149.445312 221.332031 149.953125 L 221.886719 150.511719 L 222.453125 151.09375 L 223.035156 151.675781 C 223.523438 152.167969 223.988281 152.683594 224.449219 153.199219 L 224.449219 153.894531 L 223.753906 153.894531 L 223.484375 154.507812 C 223.027344 155.347656 222.523438 155.917969 221.847656 156.585938 L 221.207031 157.234375 L 220.632812 157.714844 L 219.941406 157.714844 L 219.941406 158.410156 C 219.347656 158.335938 219.347656 158.335938 218.550781 158.0625 C 217.734375 157.347656 217.734375 157.347656 216.90625 156.480469 L 216.0625 155.609375 L 215.429688 154.9375 C 214.109375 156.050781 212.8125 157.164062 211.613281 158.410156 C 210.203125 157.851562 209.269531 156.835938 208.234375 155.761719 L 207.699219 155.21875 C 207.269531 154.78125 206.839844 154.339844 206.410156 153.894531 C 206.96875 152.480469 207.984375 151.546875 209.054688 150.507812 L 209.597656 149.976562 C 210.039062 149.542969 210.480469 149.113281 210.921875 148.683594 " fill-opacity="1" fill-rule="nonzero"/><path fill="#b0d582" d="M 300.414062 41.359375 C 301.734375 42.472656 303.03125 43.582031 304.230469 44.832031 C 305.335938 44.347656 306.03125 43.78125 306.851562 42.898438 C 307.640625 42.054688 307.964844 41.734375 309.085938 41.359375 L 309.542969 41.894531 C 310.84375 43.394531 312.175781 44.832031 313.59375 46.222656 C 313.035156 47.636719 312.019531 48.570312 310.949219 49.605469 L 310.410156 50.140625 C 309.96875 50.570312 309.527344 51.003906 309.085938 51.429688 C 307.890625 50.917969 307.125 50.238281 306.222656 49.304688 L 305.480469 48.542969 L 304.921875 47.957031 C 303.730469 48.460938 303.0625 49.097656 302.234375 50.085938 L 301.589844 50.847656 L 301.109375 51.429688 C 299.609375 50.855469 298.648438 49.738281 297.550781 48.609375 L 296.96875 48.015625 C 296.496094 47.535156 296.027344 47.050781 295.558594 46.566406 C 297.085938 44.730469 298.707031 43.03125 300.414062 41.359375 " fill-opacity="1" fill-rule="nonzero"/><path fill="#afd581" d="M 333.019531 41.359375 C 334.339844 42.472656 335.636719 43.582031 336.835938 44.832031 C 338.035156 44.320312 338.796875 43.636719 339.699219 42.703125 L 340.441406 41.941406 L 341 41.359375 C 342.832031 42.890625 344.53125 44.511719 346.203125 46.222656 C 344.710938 47.96875 343.207031 49.703125 341.691406 51.429688 C 340.496094 50.917969 339.734375 50.238281 338.832031 49.304688 L 338.089844 48.542969 L 337.53125 47.957031 C 336.332031 48.46875 335.570312 49.152344 334.667969 50.085938 L 333.925781 50.847656 L 333.367188 51.429688 C 331.53125 49.898438 329.832031 48.277344 328.164062 46.566406 C 329.691406 44.730469 331.3125 43.03125 333.019531 41.359375 " fill-opacity="1" fill-rule="nonzero"/><path fill="#afd580" d="M 304.578125 31.632812 C 307.308594 33.976562 307.308594 33.976562 308.542969 35.234375 L 309.257812 35.960938 L 309.78125 36.496094 C 308.25 38.332031 306.632812 40.035156 304.921875 41.707031 C 303.59375 41.15625 302.742188 40.308594 301.738281 39.296875 L 300.8125 38.375 C 300.066406 37.539062 300.066406 37.539062 299.71875 36.496094 Z M 212.65625 51.777344 C 214.488281 53.308594 216.1875 54.929688 217.859375 56.640625 C 216.328125 58.476562 214.710938 60.179688 213.003906 61.851562 C 211.167969 60.320312 209.46875 58.699219 207.800781 56.988281 C 209.328125 55.152344 210.945312 53.449219 212.65625 51.777344 " fill-opacity="1" fill-rule="nonzero"/></svg>