<svg xmlns="http://www.w3.org/2000/svg" xmlns:xlink="http://www.w3.org/1999/xlink" width="1366" zoomAndPan="magnify" viewBox="0 0 1024.5 264.749989" height="353" preserveAspectRatio="xMidYMid meet" version="1.0"><defs><filter x="0%" y="0%" width="100%" height="100%" id="f909cb7c1b"><feColorMatrix values="0 0 0 0 1 0 0 0 0 1 0 0 0 0 1 0 0 0 1 0" color-interpolation-filters="sRGB"/></filter><g/><clipPath id="2fd9ec6aa4"><path d="M 0.234375 0 L 1023.765625 0 L 1023.765625 264.5 L 0.234375 264.5 Z M 0.234375 0 " clip-rule="nonzero"/></clipPath><mask id="af91f41590"><g filter="url(#f909cb7c1b)"><rect x="-102.45" width="1229.4" fill="#000000" y="-26.474999" height="317.699987" fill-opacity="0.75"/></g></mask><clipPath id="fc990b2fc2"><path d="M 0.234375 0 L 1023.765625 0 L 1023.765625 264 L 0.234375 264 Z M 0.234375 0 " clip-rule="nonzero"/></clipPath><clipPath id="f81388ecf9"><path d="M 3.230469 0 L 1020.769531 0 C 1021.566406 0 1022.328125 0.316406 1022.890625 0.878906 C 1023.449219 1.441406 1023.765625 2.203125 1023.765625 2.996094 L 1023.765625 261.003906 C 1023.765625 261.796875 1023.449219 262.5625 1022.890625 263.125 C 1022.328125 263.683594 1021.566406 264 1020.769531 264 L 3.230469 264 C 2.4375 264 1.671875 263.683594 1.113281 263.125 C 0.550781 262.5625 0.234375 261.796875 0.234375 261.003906 L 0.234375 2.996094 C 0.234375 2.203125 0.550781 1.441406 1.113281 0.878906 C 1.671875 0.316406 2.4375 0 3.230469 0 Z M 3.230469 0 " clip-rule="nonzero"/></clipPath><clipPath id="0804f87e26"><path d="M 0.234375 0 L 1023.761719 0 L 1023.761719 264 L 0.234375 264 Z M 0.234375 0 " clip-rule="nonzero"/></clipPath><clipPath id="0710cb09b7"><path d="M 3.230469 0 L 1020.769531 0 C 1021.566406 0 1022.328125 0.316406 1022.890625 0.878906 C 1023.449219 1.441406 1023.765625 2.203125 1023.765625 2.996094 L 1023.765625 261.003906 C 1023.765625 261.796875 1023.449219 262.5625 1022.890625 263.125 C 1022.328125 263.683594 1021.566406 264 1020.769531 264 L 3.230469 264 C 2.4375 264 1.671875 263.683594 1.113281 263.125 C 0.550781 262.5625 0.234375 261.796875 0.234375 261.003906 L 0.234375 2.996094 C 0.234375 2.203125 0.550781 1.441406 1.113281 0.878906 C 1.671875 0.316406 2.4375 0 3.230469 0 Z M 3.230469 0 " clip-rule="nonzero"/></clipPath><linearGradient x1="184.131113" gradientTransform="matrix(1.031254, 0, 0, 1.031254, 0.226808, 0.000000000000021296)" y1="-184.124907" x2="808.385156" gradientUnits="userSpaceOnUse" y2="440.128136" id="7bbc279d54"><stop stop-opacity="1" stop-color="rgb(7.060242%, 33.729553%, 38.42926%)" offset="0"/><stop stop-opacity="1" stop-color="rgb(7.299805%, 33.92334%, 38.473511%)" offset="0.00390625"/><stop stop-opacity="1" stop-color="rgb(7.540894%, 34.118652%, 38.517761%)" offset="0.0078125"/><stop stop-opacity="1" stop-color="rgb(7.780457%, 34.312439%, 38.562012%)" offset="0.0117188"/><stop stop-opacity="1" stop-color="rgb(8.021545%, 34.507751%, 38.606262%)" offset="0.015625"/><stop stop-opacity="1" stop-color="rgb(8.261108%, 34.701538%, 38.650513%)" offset="0.0195312"/><stop stop-opacity="1" stop-color="rgb(8.502197%, 34.896851%, 38.696289%)" offset="0.0234375"/><stop stop-opacity="1" stop-color="rgb(8.74176%, 35.090637%, 38.74054%)" offset="0.0273437"/><stop stop-opacity="1" stop-color="rgb(8.982849%, 35.28595%, 38.78479%)" offset="0.03125"/><stop stop-opacity="1" stop-color="rgb(9.223938%, 35.479736%, 38.829041%)" offset="0.0351562"/><stop stop-opacity="1" stop-color="rgb(9.465027%, 35.675049%, 38.873291%)" offset="0.0390625"/><stop stop-opacity="1" stop-color="rgb(9.70459%, 35.868835%, 38.917542%)" offset="0.0429688"/><stop stop-opacity="1" stop-color="rgb(9.945679%, 36.064148%, 38.961792%)" offset="0.046875"/><stop stop-opacity="1" stop-color="rgb(10.185242%, 36.257935%, 39.006042%)" offset="0.0507812"/><stop stop-opacity="1" stop-color="rgb(10.426331%, 36.453247%, 39.051819%)" offset="0.0546875"/><stop stop-opacity="1" stop-color="rgb(10.665894%, 36.647034%, 39.096069%)" offset="0.0585938"/><stop stop-opacity="1" stop-color="rgb(10.906982%, 36.842346%, 39.14032%)" offset="0.0625"/><stop stop-opacity="1" stop-color="rgb(11.148071%, 37.036133%, 39.18457%)" offset="0.0664063"/><stop stop-opacity="1" stop-color="rgb(11.38916%, 37.231445%, 39.228821%)" offset="0.0703125"/><stop stop-opacity="1" stop-color="rgb(11.628723%, 37.425232%, 39.273071%)" offset="0.0742188"/><stop stop-opacity="1" stop-color="rgb(11.869812%, 37.620544%, 39.317322%)" offset="0.078125"/><stop stop-opacity="1" stop-color="rgb(12.109375%, 37.814331%, 39.361572%)" offset="0.0820313"/><stop stop-opacity="1" stop-color="rgb(12.350464%, 38.009644%, 39.405823%)" offset="0.0859375"/><stop stop-opacity="1" stop-color="rgb(12.590027%, 38.20343%, 39.450073%)" offset="0.0898438"/><stop stop-opacity="1" stop-color="rgb(12.831116%, 38.398743%, 39.49585%)" offset="0.09375"/><stop stop-opacity="1" stop-color="rgb(13.072205%, 38.592529%, 39.5401%)" offset="0.0976563"/><stop stop-opacity="1" stop-color="rgb(13.313293%, 38.787842%, 39.584351%)" offset="0.101563"/><stop stop-opacity="1" stop-color="rgb(13.552856%, 38.981628%, 39.628601%)" offset="0.105469"/><stop stop-opacity="1" stop-color="rgb(13.793945%, 39.176941%, 39.672852%)" offset="0.109375"/><stop stop-opacity="1" stop-color="rgb(14.033508%, 39.370728%, 39.717102%)" offset="0.113281"/><stop stop-opacity="1" stop-color="rgb(14.274597%, 39.56604%, 39.761353%)" offset="0.117188"/><stop stop-opacity="1" stop-color="rgb(14.51416%, 39.759827%, 39.805603%)" offset="0.121094"/><stop stop-opacity="1" stop-color="rgb(14.755249%, 39.955139%, 39.849854%)" offset="0.125"/><stop stop-opacity="1" stop-color="rgb(14.996338%, 40.148926%, 39.894104%)" offset="0.128906"/><stop stop-opacity="1" stop-color="rgb(15.237427%, 40.344238%, 39.93988%)" offset="0.132813"/><stop stop-opacity="1" stop-color="rgb(15.47699%, 40.538025%, 39.984131%)" offset="0.136719"/><stop stop-opacity="1" stop-color="rgb(15.718079%, 40.733337%, 40.028381%)" offset="0.140625"/><stop stop-opacity="1" stop-color="rgb(15.957642%, 40.927124%, 40.072632%)" offset="0.144531"/><stop stop-opacity="1" stop-color="rgb(16.19873%, 41.120911%, 40.116882%)" offset="0.148438"/><stop stop-opacity="1" stop-color="rgb(16.438293%, 41.314697%, 40.161133%)" offset="0.152344"/><stop stop-opacity="1" stop-color="rgb(16.679382%, 41.51001%, 40.205383%)" offset="0.15625"/><stop stop-opacity="1" stop-color="rgb(16.920471%, 41.703796%, 40.249634%)" offset="0.160156"/><stop stop-opacity="1" stop-color="rgb(17.16156%, 41.899109%, 40.29541%)" offset="0.164063"/><stop stop-opacity="1" stop-color="rgb(17.401123%, 42.092896%, 40.339661%)" offset="0.167969"/><stop stop-opacity="1" stop-color="rgb(17.642212%, 42.288208%, 40.383911%)" offset="0.171875"/><stop stop-opacity="1" stop-color="rgb(17.881775%, 42.481995%, 40.428162%)" offset="0.175781"/><stop stop-opacity="1" stop-color="rgb(18.122864%, 42.677307%, 40.472412%)" offset="0.179688"/><stop stop-opacity="1" stop-color="rgb(18.362427%, 42.871094%, 40.516663%)" offset="0.183594"/><stop stop-opacity="1" stop-color="rgb(18.603516%, 43.066406%, 40.560913%)" offset="0.1875"/><stop stop-opacity="1" stop-color="rgb(18.843079%, 43.260193%, 40.605164%)" offset="0.191406"/><stop stop-opacity="1" stop-color="rgb(19.084167%, 43.455505%, 40.649414%)" offset="0.195313"/><stop stop-opacity="1" stop-color="rgb(19.325256%, 43.649292%, 40.693665%)" offset="0.199219"/><stop stop-opacity="1" stop-color="rgb(19.566345%, 43.844604%, 40.739441%)" offset="0.203125"/><stop stop-opacity="1" stop-color="rgb(19.805908%, 44.038391%, 40.783691%)" offset="0.207031"/><stop stop-opacity="1" stop-color="rgb(20.046997%, 44.233704%, 40.827942%)" offset="0.210938"/><stop stop-opacity="1" stop-color="rgb(20.28656%, 44.42749%, 40.872192%)" offset="0.214844"/><stop stop-opacity="1" stop-color="rgb(20.527649%, 44.622803%, 40.916443%)" offset="0.21875"/><stop stop-opacity="1" stop-color="rgb(20.767212%, 44.816589%, 40.960693%)" offset="0.222656"/><stop stop-opacity="1" stop-color="rgb(21.008301%, 45.011902%, 41.004944%)" offset="0.226563"/><stop stop-opacity="1" stop-color="rgb(21.24939%, 45.205688%, 41.049194%)" offset="0.230469"/><stop stop-opacity="1" stop-color="rgb(21.490479%, 45.401001%, 41.093445%)" offset="0.234375"/><stop stop-opacity="1" stop-color="rgb(21.730042%, 45.594788%, 41.137695%)" offset="0.238281"/><stop stop-opacity="1" stop-color="rgb(21.97113%, 45.7901%, 41.183472%)" offset="0.242188"/><stop stop-opacity="1" stop-color="rgb(22.210693%, 45.983887%, 41.227722%)" offset="0.246094"/><stop stop-opacity="1" stop-color="rgb(22.451782%, 46.179199%, 41.271973%)" offset="0.25"/><stop stop-opacity="1" stop-color="rgb(22.691345%, 46.372986%, 41.316223%)" offset="0.253906"/><stop stop-opacity="1" stop-color="rgb(22.932434%, 46.568298%, 41.360474%)" offset="0.257813"/><stop stop-opacity="1" stop-color="rgb(23.173523%, 46.762085%, 41.404724%)" offset="0.261719"/><stop stop-opacity="1" stop-color="rgb(23.414612%, 46.957397%, 41.448975%)" offset="0.265625"/><stop stop-opacity="1" stop-color="rgb(23.654175%, 47.151184%, 41.493225%)" offset="0.269531"/><stop stop-opacity="1" stop-color="rgb(23.895264%, 47.346497%, 41.539001%)" offset="0.273438"/><stop stop-opacity="1" stop-color="rgb(24.134827%, 47.540283%, 41.583252%)" offset="0.277344"/><stop stop-opacity="1" stop-color="rgb(24.375916%, 47.735596%, 41.627502%)" offset="0.28125"/><stop stop-opacity="1" stop-color="rgb(24.615479%, 47.929382%, 41.671753%)" offset="0.285156"/><stop stop-opacity="1" stop-color="rgb(24.856567%, 48.124695%, 41.716003%)" offset="0.289062"/><stop stop-opacity="1" stop-color="rgb(25.097656%, 48.318481%, 41.760254%)" offset="0.292969"/><stop stop-opacity="1" stop-color="rgb(25.338745%, 48.513794%, 41.804504%)" offset="0.296875"/><stop stop-opacity="1" stop-color="rgb(25.578308%, 48.707581%, 41.848755%)" offset="0.300781"/><stop stop-opacity="1" stop-color="rgb(25.819397%, 48.902893%, 41.893005%)" offset="0.304688"/><stop stop-opacity="1" stop-color="rgb(26.05896%, 49.09668%, 41.937256%)" offset="0.308594"/><stop stop-opacity="1" stop-color="rgb(26.300049%, 49.291992%, 41.983032%)" offset="0.3125"/><stop stop-opacity="1" stop-color="rgb(26.539612%, 49.485779%, 42.027283%)" offset="0.316406"/><stop stop-opacity="1" stop-color="rgb(26.780701%, 49.681091%, 42.071533%)" offset="0.320312"/><stop stop-opacity="1" stop-color="rgb(27.020264%, 49.874878%, 42.115784%)" offset="0.324219"/><stop stop-opacity="1" stop-color="rgb(27.261353%, 50.07019%, 42.160034%)" offset="0.328125"/><stop stop-opacity="1" stop-color="rgb(27.502441%, 50.263977%, 42.204285%)" offset="0.332031"/><stop stop-opacity="1" stop-color="rgb(27.74353%, 50.45929%, 42.248535%)" offset="0.335938"/><stop stop-opacity="1" stop-color="rgb(27.983093%, 50.653076%, 42.292786%)" offset="0.339844"/><stop stop-opacity="1" stop-color="rgb(28.224182%, 50.848389%, 42.337036%)" offset="0.34375"/><stop stop-opacity="1" stop-color="rgb(28.463745%, 51.042175%, 42.381287%)" offset="0.347656"/><stop stop-opacity="1" stop-color="rgb(28.704834%, 51.237488%, 42.427063%)" offset="0.351562"/><stop stop-opacity="1" stop-color="rgb(28.944397%, 51.431274%, 42.471313%)" offset="0.355469"/><stop stop-opacity="1" stop-color="rgb(29.185486%, 51.626587%, 42.515564%)" offset="0.359375"/><stop stop-opacity="1" stop-color="rgb(29.426575%, 51.820374%, 42.559814%)" offset="0.363281"/><stop stop-opacity="1" stop-color="rgb(29.667664%, 52.015686%, 42.604065%)" offset="0.367188"/><stop stop-opacity="1" stop-color="rgb(29.907227%, 52.209473%, 42.648315%)" offset="0.371094"/><stop stop-opacity="1" stop-color="rgb(30.148315%, 52.404785%, 42.692566%)" offset="0.375"/><stop stop-opacity="1" stop-color="rgb(30.387878%, 52.598572%, 42.736816%)" offset="0.378906"/><stop stop-opacity="1" stop-color="rgb(30.628967%, 52.793884%, 42.782593%)" offset="0.382812"/><stop stop-opacity="1" stop-color="rgb(30.86853%, 52.987671%, 42.826843%)" offset="0.386719"/><stop stop-opacity="1" stop-color="rgb(31.109619%, 53.182983%, 42.871094%)" offset="0.390625"/><stop stop-opacity="1" stop-color="rgb(31.350708%, 53.37677%, 42.915344%)" offset="0.394531"/><stop stop-opacity="1" stop-color="rgb(31.591797%, 53.572083%, 42.959595%)" offset="0.398438"/><stop stop-opacity="1" stop-color="rgb(31.83136%, 53.765869%, 43.003845%)" offset="0.402344"/><stop stop-opacity="1" stop-color="rgb(32.072449%, 53.961182%, 43.048096%)" offset="0.40625"/><stop stop-opacity="1" stop-color="rgb(32.312012%, 54.154968%, 43.092346%)" offset="0.410156"/><stop stop-opacity="1" stop-color="rgb(32.553101%, 54.350281%, 43.136597%)" offset="0.414062"/><stop stop-opacity="1" stop-color="rgb(32.792664%, 54.544067%, 43.180847%)" offset="0.417969"/><stop stop-opacity="1" stop-color="rgb(33.033752%, 54.73938%, 43.226624%)" offset="0.421875"/><stop stop-opacity="1" stop-color="rgb(33.274841%, 54.933167%, 43.270874%)" offset="0.425781"/><stop stop-opacity="1" stop-color="rgb(33.51593%, 55.128479%, 43.315125%)" offset="0.429688"/><stop stop-opacity="1" stop-color="rgb(33.755493%, 55.322266%, 43.359375%)" offset="0.433594"/><stop stop-opacity="1" stop-color="rgb(33.996582%, 55.517578%, 43.403625%)" offset="0.4375"/><stop stop-opacity="1" stop-color="rgb(34.236145%, 55.711365%, 43.447876%)" offset="0.441406"/><stop stop-opacity="1" stop-color="rgb(34.477234%, 55.906677%, 43.492126%)" offset="0.445312"/><stop stop-opacity="1" stop-color="rgb(34.716797%, 56.100464%, 43.536377%)" offset="0.449219"/><stop stop-opacity="1" stop-color="rgb(34.957886%, 56.29425%, 43.580627%)" offset="0.453125"/><stop stop-opacity="1" stop-color="rgb(35.198975%, 56.488037%, 43.624878%)" offset="0.457031"/><stop stop-opacity="1" stop-color="rgb(35.440063%, 56.68335%, 43.670654%)" offset="0.460938"/><stop stop-opacity="1" stop-color="rgb(35.679626%, 56.877136%, 43.714905%)" offset="0.464844"/><stop stop-opacity="1" stop-color="rgb(35.920715%, 57.072449%, 43.759155%)" offset="0.46875"/><stop stop-opacity="1" stop-color="rgb(36.160278%, 57.266235%, 43.803406%)" offset="0.472656"/><stop stop-opacity="1" stop-color="rgb(36.401367%, 57.461548%, 43.847656%)" offset="0.476562"/><stop stop-opacity="1" stop-color="rgb(36.64093%, 57.655334%, 43.891907%)" offset="0.480469"/><stop stop-opacity="1" stop-color="rgb(36.882019%, 57.850647%, 43.936157%)" offset="0.484375"/><stop stop-opacity="1" stop-color="rgb(37.121582%, 58.044434%, 43.980408%)" offset="0.488281"/><stop stop-opacity="1" stop-color="rgb(37.362671%, 58.239746%, 44.026184%)" offset="0.492188"/><stop stop-opacity="1" stop-color="rgb(37.60376%, 58.433533%, 44.070435%)" offset="0.496094"/><stop stop-opacity="1" stop-color="rgb(37.844849%, 58.628845%, 44.114685%)" offset="0.5"/><stop stop-opacity="1" stop-color="rgb(38.084412%, 58.822632%, 44.158936%)" offset="0.503906"/><stop stop-opacity="1" stop-color="rgb(38.3255%, 59.017944%, 44.203186%)" offset="0.507812"/><stop stop-opacity="1" stop-color="rgb(38.565063%, 59.211731%, 44.247437%)" offset="0.511719"/><stop stop-opacity="1" stop-color="rgb(38.806152%, 59.407043%, 44.291687%)" offset="0.515625"/><stop stop-opacity="1" stop-color="rgb(39.045715%, 59.60083%, 44.335938%)" offset="0.519531"/><stop stop-opacity="1" stop-color="rgb(39.286804%, 59.796143%, 44.380188%)" offset="0.523438"/><stop stop-opacity="1" stop-color="rgb(39.527893%, 59.989929%, 44.424438%)" offset="0.527344"/><stop stop-opacity="1" stop-color="rgb(39.768982%, 60.185242%, 44.470215%)" offset="0.53125"/><stop stop-opacity="1" stop-color="rgb(40.008545%, 60.379028%, 44.514465%)" offset="0.535156"/><stop stop-opacity="1" stop-color="rgb(40.249634%, 60.574341%, 44.558716%)" offset="0.539062"/><stop stop-opacity="1" stop-color="rgb(40.489197%, 60.768127%, 44.602966%)" offset="0.542969"/><stop stop-opacity="1" stop-color="rgb(40.730286%, 60.96344%, 44.647217%)" offset="0.546875"/><stop stop-opacity="1" stop-color="rgb(40.969849%, 61.157227%, 44.691467%)" offset="0.550781"/><stop stop-opacity="1" stop-color="rgb(41.210938%, 61.352539%, 44.735718%)" offset="0.554688"/><stop stop-opacity="1" stop-color="rgb(41.452026%, 61.546326%, 44.779968%)" offset="0.558594"/><stop stop-opacity="1" stop-color="rgb(41.693115%, 61.741638%, 44.824219%)" offset="0.5625"/><stop stop-opacity="1" stop-color="rgb(41.932678%, 61.935425%, 44.868469%)" offset="0.566406"/><stop stop-opacity="1" stop-color="rgb(42.173767%, 62.130737%, 44.914246%)" offset="0.570312"/><stop stop-opacity="1" stop-color="rgb(42.41333%, 62.324524%, 44.958496%)" offset="0.574219"/><stop stop-opacity="1" stop-color="rgb(42.654419%, 62.519836%, 45.002747%)" offset="0.578125"/><stop stop-opacity="1" stop-color="rgb(42.893982%, 62.713623%, 45.046997%)" offset="0.582031"/><stop stop-opacity="1" stop-color="rgb(43.135071%, 62.908936%, 45.091248%)" offset="0.585938"/><stop stop-opacity="1" stop-color="rgb(43.37616%, 63.102722%, 45.135498%)" offset="0.589844"/><stop stop-opacity="1" stop-color="rgb(43.617249%, 63.298035%, 45.179749%)" offset="0.59375"/><stop stop-opacity="1" stop-color="rgb(43.856812%, 63.491821%, 45.223999%)" offset="0.597656"/><stop stop-opacity="1" stop-color="rgb(44.0979%, 63.687134%, 45.269775%)" offset="0.601562"/><stop stop-opacity="1" stop-color="rgb(44.337463%, 63.88092%, 45.314026%)" offset="0.605469"/><stop stop-opacity="1" stop-color="rgb(44.578552%, 64.076233%, 45.358276%)" offset="0.609375"/><stop stop-opacity="1" stop-color="rgb(44.818115%, 64.27002%, 45.402527%)" offset="0.613281"/><stop stop-opacity="1" stop-color="rgb(45.059204%, 64.465332%, 45.446777%)" offset="0.617188"/><stop stop-opacity="1" stop-color="rgb(45.298767%, 64.659119%, 45.491028%)" offset="0.621094"/><stop stop-opacity="1" stop-color="rgb(45.539856%, 64.854431%, 45.535278%)" offset="0.625"/><stop stop-opacity="1" stop-color="rgb(45.780945%, 65.048218%, 45.579529%)" offset="0.628906"/><stop stop-opacity="1" stop-color="rgb(46.022034%, 65.24353%, 45.623779%)" offset="0.632812"/><stop stop-opacity="1" stop-color="rgb(46.261597%, 65.437317%, 45.66803%)" offset="0.636719"/><stop stop-opacity="1" stop-color="rgb(46.502686%, 65.632629%, 45.713806%)" offset="0.640625"/><stop stop-opacity="1" stop-color="rgb(46.742249%, 65.826416%, 45.758057%)" offset="0.644531"/><stop stop-opacity="1" stop-color="rgb(46.983337%, 66.021729%, 45.802307%)" offset="0.648438"/><stop stop-opacity="1" stop-color="rgb(47.2229%, 66.215515%, 45.846558%)" offset="0.652344"/><stop stop-opacity="1" stop-color="rgb(47.463989%, 66.410828%, 45.890808%)" offset="0.65625"/><stop stop-opacity="1" stop-color="rgb(47.705078%, 66.604614%, 45.935059%)" offset="0.660156"/><stop stop-opacity="1" stop-color="rgb(47.946167%, 66.799927%, 45.979309%)" offset="0.664062"/><stop stop-opacity="1" stop-color="rgb(48.18573%, 66.993713%, 46.02356%)" offset="0.667969"/><stop stop-opacity="1" stop-color="rgb(48.426819%, 67.189026%, 46.06781%)" offset="0.671875"/><stop stop-opacity="1" stop-color="rgb(48.666382%, 67.382812%, 46.112061%)" offset="0.675781"/><stop stop-opacity="1" stop-color="rgb(48.907471%, 67.578125%, 46.157837%)" offset="0.679688"/><stop stop-opacity="1" stop-color="rgb(49.147034%, 67.771912%, 46.202087%)" offset="0.683594"/><stop stop-opacity="1" stop-color="rgb(49.388123%, 67.967224%, 46.246338%)" offset="0.6875"/><stop stop-opacity="1" stop-color="rgb(49.629211%, 68.161011%, 46.290588%)" offset="0.691406"/><stop stop-opacity="1" stop-color="rgb(49.8703%, 68.356323%, 46.334839%)" offset="0.695312"/><stop stop-opacity="1" stop-color="rgb(50.109863%, 68.55011%, 46.379089%)" offset="0.699219"/><stop stop-opacity="1" stop-color="rgb(50.350952%, 68.745422%, 46.42334%)" offset="0.703125"/><stop stop-opacity="1" stop-color="rgb(50.590515%, 68.939209%, 46.46759%)" offset="0.707031"/><stop stop-opacity="1" stop-color="rgb(50.831604%, 69.134521%, 46.513367%)" offset="0.710938"/><stop stop-opacity="1" stop-color="rgb(51.071167%, 69.328308%, 46.557617%)" offset="0.714844"/><stop stop-opacity="1" stop-color="rgb(51.312256%, 69.523621%, 46.601868%)" offset="0.71875"/><stop stop-opacity="1" stop-color="rgb(51.553345%, 69.717407%, 46.646118%)" offset="0.722656"/><stop stop-opacity="1" stop-color="rgb(51.794434%, 69.91272%, 46.690369%)" offset="0.726562"/><stop stop-opacity="1" stop-color="rgb(52.033997%, 70.106506%, 46.734619%)" offset="0.730469"/><stop stop-opacity="1" stop-color="rgb(52.275085%, 70.301819%, 46.77887%)" offset="0.734375"/><stop stop-opacity="1" stop-color="rgb(52.514648%, 70.495605%, 46.82312%)" offset="0.738281"/><stop stop-opacity="1" stop-color="rgb(52.755737%, 70.690918%, 46.867371%)" offset="0.742188"/><stop stop-opacity="1" stop-color="rgb(52.9953%, 70.884705%, 46.911621%)" offset="0.746094"/><stop stop-opacity="1" stop-color="rgb(53.236389%, 71.080017%, 46.957397%)" offset="0.75"/><stop stop-opacity="1" stop-color="rgb(53.477478%, 71.273804%, 47.001648%)" offset="0.753906"/><stop stop-opacity="1" stop-color="rgb(53.718567%, 71.469116%, 47.045898%)" offset="0.757812"/><stop stop-opacity="1" stop-color="rgb(53.95813%, 71.662903%, 47.090149%)" offset="0.761719"/><stop stop-opacity="1" stop-color="rgb(54.199219%, 71.856689%, 47.134399%)" offset="0.765625"/><stop stop-opacity="1" stop-color="rgb(54.438782%, 72.050476%, 47.17865%)" offset="0.769531"/><stop stop-opacity="1" stop-color="rgb(54.679871%, 72.245789%, 47.2229%)" offset="0.773438"/><stop stop-opacity="1" stop-color="rgb(54.919434%, 72.439575%, 47.267151%)" offset="0.777344"/><stop stop-opacity="1" stop-color="rgb(55.160522%, 72.634888%, 47.311401%)" offset="0.78125"/><stop stop-opacity="1" stop-color="rgb(55.400085%, 72.828674%, 47.355652%)" offset="0.785156"/><stop stop-opacity="1" stop-color="rgb(55.641174%, 73.023987%, 47.401428%)" offset="0.789062"/><stop stop-opacity="1" stop-color="rgb(55.882263%, 73.217773%, 47.445679%)" offset="0.792969"/><stop stop-opacity="1" stop-color="rgb(56.123352%, 73.413086%, 47.489929%)" offset="0.796875"/><stop stop-opacity="1" stop-color="rgb(56.362915%, 73.606873%, 47.53418%)" offset="0.800781"/><stop stop-opacity="1" stop-color="rgb(56.604004%, 73.802185%, 47.57843%)" offset="0.804688"/><stop stop-opacity="1" stop-color="rgb(56.843567%, 73.995972%, 47.622681%)" offset="0.808594"/><stop stop-opacity="1" stop-color="rgb(57.084656%, 74.191284%, 47.666931%)" offset="0.8125"/><stop stop-opacity="1" stop-color="rgb(57.324219%, 74.385071%, 47.711182%)" offset="0.816406"/><stop stop-opacity="1" stop-color="rgb(57.565308%, 74.580383%, 47.756958%)" offset="0.820312"/><stop stop-opacity="1" stop-color="rgb(57.806396%, 74.77417%, 47.801208%)" offset="0.824219"/><stop stop-opacity="1" stop-color="rgb(58.047485%, 74.969482%, 47.845459%)" offset="0.828125"/><stop stop-opacity="1" stop-color="rgb(58.287048%, 75.163269%, 47.889709%)" offset="0.832031"/><stop stop-opacity="1" stop-color="rgb(58.528137%, 75.358582%, 47.93396%)" offset="0.835938"/><stop stop-opacity="1" stop-color="rgb(58.7677%, 75.552368%, 47.97821%)" offset="0.839844"/><stop stop-opacity="1" stop-color="rgb(59.008789%, 75.747681%, 48.022461%)" offset="0.84375"/><stop stop-opacity="1" stop-color="rgb(59.248352%, 75.941467%, 48.066711%)" offset="0.847656"/><stop stop-opacity="1" stop-color="rgb(59.489441%, 76.13678%, 48.110962%)" offset="0.851562"/><stop stop-opacity="1" stop-color="rgb(59.73053%, 76.330566%, 48.155212%)" offset="0.855469"/><stop stop-opacity="1" stop-color="rgb(59.971619%, 76.525879%, 48.200989%)" offset="0.859375"/><stop stop-opacity="1" stop-color="rgb(60.211182%, 76.719666%, 48.245239%)" offset="0.863281"/><stop stop-opacity="1" stop-color="rgb(60.452271%, 76.914978%, 48.28949%)" offset="0.867188"/><stop stop-opacity="1" stop-color="rgb(60.691833%, 77.108765%, 48.33374%)" offset="0.871094"/><stop stop-opacity="1" stop-color="rgb(60.932922%, 77.304077%, 48.377991%)" offset="0.875"/><stop stop-opacity="1" stop-color="rgb(61.172485%, 77.497864%, 48.422241%)" offset="0.878906"/><stop stop-opacity="1" stop-color="rgb(61.413574%, 77.693176%, 48.466492%)" offset="0.882812"/><stop stop-opacity="1" stop-color="rgb(61.654663%, 77.886963%, 48.510742%)" offset="0.886719"/><stop stop-opacity="1" stop-color="rgb(61.895752%, 78.082275%, 48.554993%)" offset="0.890625"/><stop stop-opacity="1" stop-color="rgb(62.135315%, 78.276062%, 48.599243%)" offset="0.894531"/><stop stop-opacity="1" stop-color="rgb(62.376404%, 78.471375%, 48.64502%)" offset="0.898438"/><stop stop-opacity="1" stop-color="rgb(62.615967%, 78.665161%, 48.68927%)" offset="0.902344"/><stop stop-opacity="1" stop-color="rgb(62.857056%, 78.860474%, 48.733521%)" offset="0.90625"/><stop stop-opacity="1" stop-color="rgb(63.096619%, 79.05426%, 48.777771%)" offset="0.910156"/><stop stop-opacity="1" stop-color="rgb(63.337708%, 79.249573%, 48.822021%)" offset="0.914062"/><stop stop-opacity="1" stop-color="rgb(63.577271%, 79.443359%, 48.866272%)" offset="0.917969"/><stop stop-opacity="1" stop-color="rgb(63.818359%, 79.638672%, 48.910522%)" offset="0.921875"/><stop stop-opacity="1" stop-color="rgb(64.059448%, 79.832458%, 48.954773%)" offset="0.925781"/><stop stop-opacity="1" stop-color="rgb(64.300537%, 80.027771%, 49.000549%)" offset="0.929688"/><stop stop-opacity="1" stop-color="rgb(64.5401%, 80.221558%, 49.0448%)" offset="0.933594"/><stop stop-opacity="1" stop-color="rgb(64.781189%, 80.41687%, 49.08905%)" offset="0.9375"/><stop stop-opacity="1" stop-color="rgb(65.020752%, 80.610657%, 49.133301%)" offset="0.941406"/><stop stop-opacity="1" stop-color="rgb(65.261841%, 80.805969%, 49.177551%)" offset="0.945312"/><stop stop-opacity="1" stop-color="rgb(65.501404%, 80.999756%, 49.221802%)" offset="0.949219"/><stop stop-opacity="1" stop-color="rgb(65.742493%, 81.195068%, 49.266052%)" offset="0.953125"/><stop stop-opacity="1" stop-color="rgb(65.983582%, 81.388855%, 49.310303%)" offset="0.957031"/><stop stop-opacity="1" stop-color="rgb(66.22467%, 81.584167%, 49.354553%)" offset="0.960938"/><stop stop-opacity="1" stop-color="rgb(66.464233%, 81.777954%, 49.398804%)" offset="0.964844"/><stop stop-opacity="1" stop-color="rgb(66.705322%, 81.973267%, 49.44458%)" offset="0.96875"/><stop stop-opacity="1" stop-color="rgb(66.944885%, 82.167053%, 49.488831%)" offset="0.972656"/><stop stop-opacity="1" stop-color="rgb(67.185974%, 82.362366%, 49.533081%)" offset="0.976562"/><stop stop-opacity="1" stop-color="rgb(67.425537%, 82.556152%, 49.577332%)" offset="0.980469"/><stop stop-opacity="1" stop-color="rgb(67.666626%, 82.751465%, 49.621582%)" offset="0.984375"/><stop stop-opacity="1" stop-color="rgb(67.907715%, 82.945251%, 49.665833%)" offset="0.988281"/><stop stop-opacity="1" stop-color="rgb(68.148804%, 83.140564%, 49.710083%)" offset="0.992188"/><stop stop-opacity="1" stop-color="rgb(68.388367%, 83.334351%, 49.754333%)" offset="0.996094"/><stop stop-opacity="1" stop-color="rgb(68.629456%, 83.529663%, 49.798584%)" offset="1"/></linearGradient><clipPath id="f7fec976eb"><rect x="0" width="1024" y="0" height="264"/></clipPath><clipPath id="1617f45a34"><rect x="0" width="1024" y="0" height="265"/></clipPath><clipPath id="82fc103082"><path d="M 447.707031 144.042969 L 673.421875 144.042969 L 673.421875 203.738281 L 447.707031 203.738281 Z M 447.707031 144.042969 " clip-rule="nonzero"/></clipPath><clipPath id="16cbf35559"><path d="M 477.554688 144.042969 L 643.535156 144.042969 C 651.453125 144.042969 659.042969 147.1875 664.640625 152.785156 C 670.238281 158.382812 673.382812 165.976562 673.382812 173.890625 C 673.382812 181.808594 670.238281 189.398438 664.640625 194.996094 C 659.042969 200.59375 651.453125 203.738281 643.535156 203.738281 L 477.554688 203.738281 C 469.636719 203.738281 462.046875 200.59375 456.449219 194.996094 C 450.851562 189.398438 447.707031 181.808594 447.707031 173.890625 C 447.707031 165.976562 450.851562 158.382812 456.449219 152.785156 C 462.046875 147.1875 469.636719 144.042969 477.554688 144.042969 Z M 477.554688 144.042969 " clip-rule="nonzero"/></clipPath><clipPath id="c2676cd4da"><path d="M 0.707031 0.0429688 L 226.421875 0.0429688 L 226.421875 59.738281 L 0.707031 59.738281 Z M 0.707031 0.0429688 " clip-rule="nonzero"/></clipPath><clipPath id="a792f771e6"><path d="M 30.554688 0.0429688 L 196.535156 0.0429688 C 204.453125 0.0429688 212.042969 3.1875 217.640625 8.785156 C 223.238281 14.382812 226.382812 21.976562 226.382812 29.890625 C 226.382812 37.808594 223.238281 45.398438 217.640625 50.996094 C 212.042969 56.59375 204.453125 59.738281 196.535156 59.738281 L 30.554688 59.738281 C 22.636719 59.738281 15.046875 56.59375 9.449219 50.996094 C 3.851562 45.398438 0.707031 37.808594 0.707031 29.890625 C 0.707031 21.976562 3.851562 14.382812 9.449219 8.785156 C 15.046875 3.1875 22.636719 0.0429688 30.554688 0.0429688 Z M 30.554688 0.0429688 " clip-rule="nonzero"/></clipPath><clipPath id="54999ecd7f"><rect x="0" width="227" y="0" height="60"/></clipPath></defs><g clip-path="url(#2fd9ec6aa4)"><g mask="url(#af91f41590)"><g transform="matrix(1, 0, 0, 1, 0.000000000000000028, 0)"><g clip-path="url(#1617f45a34)"><g clip-path="url(#fc990b2fc2)"><g clip-path="url(#f81388ecf9)"><g transform="matrix(1, 0, 0, 1, 0.000000000000000028, 0)"><g clip-path="url(#f7fec976eb)"><g clip-path="url(#0804f87e26)"><g clip-path="url(#0710cb09b7)"><path fill="url(#7bbc279d54)" d="M 0.234375 0 L 0.234375 264 L 1023.761719 264 L 1023.761719 0 Z M 0.234375 0 " fill-rule="nonzero"/></g></g></g></g></g></g></g></g></g></g><g fill="#135662" fill-opacity="1"><g transform="translate(196.4047, 187.073359)"><g><path d="M 34.5625 16.1875 C 24.3125 16.1875 16.570312 13.800781 11.34375 9.03125 C 6.113281 4.269531 3.5 -2.46875 3.5 -11.1875 C 3.5 -14.1875 3.914062 -17.566406 4.75 -21.328125 C 5.582031 -25.085938 6.726562 -28.734375 8.1875 -32.265625 L 17.78125 -29.46875 C 16.445312 -26.601562 15.394531 -23.707031 14.625 -20.78125 C 13.863281 -17.851562 13.484375 -15.320312 13.484375 -13.1875 C 13.484375 -8.988281 14.984375 -5.738281 17.984375 -3.4375 C 20.984375 -1.144531 25.179688 0 30.578125 0 L 38.5625 0 C 44.226562 0 48.390625 -1.296875 51.046875 -3.890625 C 53.710938 -6.492188 55.046875 -10.554688 55.046875 -16.078125 C 55.046875 -17.609375 54.878906 -19.570312 54.546875 -21.96875 C 54.210938 -24.375 53.8125 -26.640625 53.34375 -28.765625 L 51.359375 -38.0625 L 62.140625 -40.15625 L 64.046875 -30.96875 C 64.503906 -28.769531 64.882812 -26.253906 65.1875 -23.421875 C 65.488281 -20.597656 65.640625 -18.148438 65.640625 -16.078125 C 65.640625 -5.023438 63.125 3.113281 58.09375 8.34375 C 53.0625 13.570312 45.21875 16.1875 34.5625 16.1875 Z M 33.5625 -37.46875 C 31.832031 -37.46875 30.414062 -38 29.3125 -39.0625 C 28.21875 -40.132812 27.671875 -41.832031 27.671875 -44.15625 C 27.671875 -46.488281 28.21875 -48.1875 29.3125 -49.25 C 30.414062 -50.320312 31.832031 -50.859375 33.5625 -50.859375 L 35.5625 -50.859375 C 37.289062 -50.859375 38.703125 -50.320312 39.796875 -49.25 C 40.898438 -48.1875 41.453125 -46.488281 41.453125 -44.15625 C 41.453125 -41.832031 40.898438 -40.132812 39.796875 -39.0625 C 38.703125 -38 37.289062 -37.46875 35.5625 -37.46875 Z M 33.5625 -37.46875 "/></g></g></g><g fill="#135662" fill-opacity="1"><g transform="translate(265.536744, 187.073359)"><g><path d="M 4 -14.984375 L 21.1875 -30.46875 L -2 -52.25 L 6.6875 -61.640625 L 30.671875 -39.0625 C 31.804688 -40.332031 32.625 -41.710938 33.125 -43.203125 C 33.625 -44.703125 33.875 -46.6875 33.875 -49.15625 L 33.875 -73.9375 L 45.859375 -73.9375 L 45.859375 -49.15625 C 45.859375 -47.425781 45.707031 -45.828125 45.40625 -44.359375 C 45.101562 -42.890625 44.632812 -41.488281 44 -40.15625 C 43.375 -38.832031 42.523438 -37.550781 41.453125 -36.3125 C 40.390625 -35.082031 39.128906 -33.800781 37.671875 -32.46875 L 41.15625 -29.265625 C 42.5625 -27.941406 43.757812 -26.675781 44.75 -25.46875 C 45.75 -24.269531 46.550781 -23.070312 47.15625 -21.875 C 47.757812 -20.675781 48.191406 -19.425781 48.453125 -18.125 C 48.722656 -16.832031 48.859375 -15.453125 48.859375 -13.984375 C 48.859375 -11.984375 48.503906 -10.132812 47.796875 -8.4375 C 47.097656 -6.738281 46.132812 -5.253906 44.90625 -3.984375 C 43.675781 -2.722656 42.226562 -1.742188 40.5625 -1.046875 C 38.894531 -0.347656 37.0625 0 35.0625 0 L 4 0 Z M 27.875 -24.28125 L 17.28125 -15.390625 L 17.390625 -14.984375 L 37.859375 -14.984375 Z M -1.296875 -68.9375 C -1.296875 -71.925781 -0.515625 -74.117188 1.046875 -75.515625 C 2.609375 -76.921875 4.988281 -77.320312 8.1875 -76.71875 L 14.28125 -75.53125 C 15.75 -75.195312 16.863281 -74.992188 17.625 -74.921875 C 18.394531 -74.859375 19.015625 -74.828125 19.484375 -74.828125 C 21.015625 -74.828125 22.144531 -75.125 22.875 -75.71875 C 23.613281 -76.320312 24.25 -77.457031 24.78125 -79.125 L 30.578125 -76.21875 C 29.242188 -69.5 25.546875 -66.140625 19.484375 -66.140625 C 18.546875 -66.140625 17.578125 -66.1875 16.578125 -66.28125 C 15.585938 -66.382812 14.289062 -66.601562 12.6875 -66.9375 L 5.703125 -68.234375 L 5.703125 -65.328125 L -1.296875 -65.328125 Z M -1.296875 -68.9375 "/></g></g></g><g fill="#135662" fill-opacity="1"><g transform="translate(317.885295, 187.073359)"><g><path d="M 6 -73.9375 L 17.984375 -73.9375 L 17.984375 0 L 6 0 Z M 6 -73.9375 "/></g></g></g><g fill="#135662" fill-opacity="1"><g transform="translate(341.861725, 187.073359)"><g/></g></g><g fill="#135662" fill-opacity="1"><g transform="translate(365.43855, 187.073359)"><g><path d="M 4 -3.390625 C 4 -7.660156 4.226562 -11.257812 4.6875 -14.1875 C 5.15625 -17.113281 5.972656 -19.640625 7.140625 -21.765625 C 8.304688 -23.898438 9.890625 -25.734375 11.890625 -27.265625 C 13.890625 -28.804688 16.421875 -30.304688 19.484375 -31.765625 L 39.46875 -41.265625 L 52.65625 -41.265625 L 60.546875 -20.078125 C 61.273438 -18.015625 62.1875 -16.648438 63.28125 -15.984375 C 64.382812 -15.316406 66.035156 -14.984375 68.234375 -14.984375 L 71.234375 -14.984375 L 71.234375 -3 L 68.234375 0 C 63.835938 0 60.375 -0.679688 57.84375 -2.046875 C 55.3125 -3.410156 53.210938 -5.554688 51.546875 -8.484375 L 50.953125 -8.390625 L 50.953125 0 L 34.0625 0 C 30 0 26.734375 -1.015625 24.265625 -3.046875 C 21.804688 -5.078125 20.578125 -7.691406 20.578125 -10.890625 C 20.578125 -13.222656 21.34375 -15.421875 22.875 -17.484375 L 22.484375 -17.984375 L 20.1875 -16.984375 C 19.3125 -16.585938 18.609375 -16.101562 18.078125 -15.53125 C 17.546875 -14.96875 17.128906 -14.171875 16.828125 -13.140625 C 16.535156 -12.109375 16.320312 -10.804688 16.1875 -9.234375 C 16.050781 -7.671875 15.984375 -5.722656 15.984375 -3.390625 L 15.984375 30.375 L 4 30.375 Z M 28.171875 -19.078125 C 28.171875 -17.742188 28.6875 -16.726562 29.71875 -16.03125 C 30.75 -15.332031 32.164062 -14.984375 33.96875 -14.984375 L 48.65625 -14.984375 L 43.65625 -28.171875 L 33.171875 -23.984375 C 29.835938 -22.648438 28.171875 -21.015625 28.171875 -19.078125 Z M 28.171875 -19.078125 "/></g></g></g><g fill="#135662" fill-opacity="1"><g transform="translate(436.668524, 187.073359)"><g><path d="M -3 -11.984375 L 0 -14.984375 L 10.6875 -14.984375 L 10.6875 -3 L 7.6875 0 L -3 0 Z M -3 -11.984375 "/></g></g></g><g fill="#135662" fill-opacity="1"><g transform="translate(447.358014, 187.073359)"><g><path d="M -3 -11.984375 L 0 -14.984375 L 10.6875 -14.984375 L 10.6875 -3 L 7.6875 0 L -3 0 Z M -3 -11.984375 "/></g></g></g><g fill="#135662" fill-opacity="1"><g transform="translate(458.047504, 187.073359)"><g><path d="M -3 -11.984375 L 0 -14.984375 L 10.6875 -14.984375 L 10.6875 -3 L 7.6875 0 L -3 0 Z M -3 -11.984375 "/></g></g></g><g fill="#135662" fill-opacity="1"><g transform="translate(468.736994, 187.073359)"><g><path d="M -3 -11.984375 L 0 -14.984375 L 10.6875 -14.984375 L 10.6875 -3 L 7.6875 0 L -3 0 Z M -3 -11.984375 "/></g></g></g><g fill="#135662" fill-opacity="1"><g transform="translate(479.426485, 187.073359)"><g><path d="M -3 -11.984375 L 0 -14.984375 L 10.6875 -14.984375 L 10.6875 -3 L 7.6875 0 L -3 0 Z M -3 -11.984375 "/></g></g></g><g fill="#135662" fill-opacity="1"><g transform="translate(490.115975, 187.073359)"><g><path d="M -3 -11.984375 L 0 -14.984375 L 10.6875 -14.984375 L 10.6875 -3 L 7.6875 0 L -3 0 Z M -3 -11.984375 "/></g></g></g><g fill="#135662" fill-opacity="1"><g transform="translate(500.805465, 187.073359)"><g><path d="M -3 -11.984375 L 0 -14.984375 L 10.6875 -14.984375 L 10.6875 -3 L 7.6875 0 L -3 0 Z M -3 -11.984375 "/></g></g></g><g fill="#135662" fill-opacity="1"><g transform="translate(511.494955, 187.073359)"><g><path d="M -3 -11.984375 L 0 -14.984375 L 10.6875 -14.984375 L 10.6875 -3 L 7.6875 0 L -3 0 Z M -3 -11.984375 "/></g></g></g><g fill="#135662" fill-opacity="1"><g transform="translate(522.184445, 187.073359)"><g><path d="M -3 -11.984375 L 0 -14.984375 L 10.6875 -14.984375 L 10.6875 -3 L 7.6875 0 L -3 0 Z M -3 -11.984375 "/></g></g></g><g fill="#135662" fill-opacity="1"><g transform="translate(532.873935, 187.073359)"><g><path d="M -3 -11.984375 L 0 -14.984375 L 10.6875 -14.984375 L 10.6875 -3 L 7.6875 0 L -3 0 Z M -3 -11.984375 "/></g></g></g><g fill="#135662" fill-opacity="1"><g transform="translate(543.563425, 187.073359)"><g><path d="M -3 -11.984375 L 0 -14.984375 L 10.6875 -14.984375 L 10.6875 -3 L 7.6875 0 L -3 0 Z M -3 -11.984375 "/></g></g></g><g fill="#135662" fill-opacity="1"><g transform="translate(554.252915, 187.073359)"><g><path d="M -3 -11.984375 L 0 -14.984375 L 10.6875 -14.984375 L 10.6875 -3 L 7.6875 0 L -3 0 Z M -3 -11.984375 "/></g></g></g><g fill="#135662" fill-opacity="1"><g transform="translate(564.942406, 187.073359)"><g><path d="M -3 -11.984375 L 0 -14.984375 L 10.6875 -14.984375 L 10.6875 -3 L 7.6875 0 L -3 0 Z M -3 -11.984375 "/></g></g></g><g fill="#135662" fill-opacity="1"><g transform="translate(575.631896, 187.073359)"><g><path d="M -3 -11.984375 L 0 -14.984375 L 10.6875 -14.984375 L 10.6875 -3 L 7.6875 0 L -3 0 Z M -3 -11.984375 "/></g></g></g><g fill="#135662" fill-opacity="1"><g transform="translate(586.321386, 187.073359)"><g><path d="M -3 -11.984375 L 0 -14.984375 L 10.6875 -14.984375 L 10.6875 -3 L 7.6875 0 L -3 0 Z M -3 -11.984375 "/></g></g></g><g fill="#135662" fill-opacity="1"><g transform="translate(597.010876, 187.073359)"><g><path d="M -3 -11.984375 L 0 -14.984375 L 10.6875 -14.984375 L 10.6875 -3 L 7.6875 0 L -3 0 Z M -3 -11.984375 "/></g></g></g><g fill="#135662" fill-opacity="1"><g transform="translate(607.700366, 187.073359)"><g><path d="M -3 -11.984375 L 0 -14.984375 L 10.6875 -14.984375 L 10.6875 -3 L 7.6875 0 L -3 0 Z M -3 -11.984375 "/></g></g></g><g fill="#135662" fill-opacity="1"><g transform="translate(618.389856, 187.073359)"><g><path d="M -3 -11.984375 L 0 -14.984375 L 10.6875 -14.984375 L 10.6875 -3 L 7.6875 0 L -3 0 Z M -3 -11.984375 "/></g></g></g><g fill="#135662" fill-opacity="1"><g transform="translate(629.079346, 187.073359)"><g><path d="M -3 -11.984375 L 0 -14.984375 L 10.6875 -14.984375 L 10.6875 -3 L 7.6875 0 L -3 0 Z M -3 -11.984375 "/></g></g></g><g fill="#135662" fill-opacity="1"><g transform="translate(639.768837, 187.073359)"><g><path d="M -3 -11.984375 L 0 -14.984375 L 10.6875 -14.984375 L 10.6875 -3 L 7.6875 0 L -3 0 Z M -3 -11.984375 "/></g></g></g><g fill="#135662" fill-opacity="1"><g transform="translate(650.458327, 187.073359)"><g><path d="M -3 -11.984375 L 0 -14.984375 L 10.6875 -14.984375 L 10.6875 -3 L 7.6875 0 L -3 0 Z M -3 -11.984375 "/></g></g></g><g fill="#135662" fill-opacity="1"><g transform="translate(661.147817, 187.073359)"><g><path d="M -3 -11.984375 L 0 -14.984375 L 10.6875 -14.984375 L 10.6875 -3 L 7.6875 0 L -3 0 Z M -3 -11.984375 "/></g></g></g><g fill="#135662" fill-opacity="1"><g transform="translate(671.837307, 187.073359)"><g><path d="M -3 -11.984375 L 0 -14.984375 L 10.6875 -14.984375 L 10.6875 -3 L 7.6875 0 L -3 0 Z M -3 -11.984375 "/></g></g></g><g fill="#135662" fill-opacity="1"><g transform="translate(682.526797, 187.073359)"><g><path d="M 89.3125 0 C 86.976562 0 84.765625 -0.28125 82.671875 -0.84375 C 80.578125 -1.414062 78.597656 -2.46875 76.734375 -4 C 72.460938 -1.332031 66.398438 0 58.546875 0 L 29.96875 0 C 24.644531 0 20.597656 -1.082031 17.828125 -3.25 C 15.066406 -5.414062 13.21875 -8.828125 12.28125 -13.484375 L 11.6875 -13.484375 C 10.757812 -8.828125 9.160156 -5.414062 6.890625 -3.25 C 4.628906 -1.082031 1.332031 0 -3 0 L -3 -11.984375 L 0 -14.984375 L 3 -14.984375 C 8.320312 -14.984375 10.984375 -17.316406 10.984375 -21.984375 L 10.984375 -28.28125 L 21.984375 -28.28125 L 21.984375 -21.984375 C 21.984375 -19.117188 22.78125 -17.148438 24.375 -16.078125 L 28.765625 -23.671875 C 31.097656 -27.734375 33.476562 -31.195312 35.90625 -34.0625 C 38.34375 -36.925781 40.894531 -39.257812 43.5625 -41.0625 C 46.226562 -42.863281 49.039062 -44.175781 52 -45 C 54.96875 -45.832031 58.148438 -46.25 61.546875 -46.25 C 69.398438 -46.25 75.289062 -44.101562 79.21875 -39.8125 C 83.15625 -35.519531 85.125 -29.539062 85.125 -21.875 C 85.125 -19.34375 84.890625 -17.144531 84.421875 -15.28125 C 86.085938 -15.082031 87.71875 -14.984375 89.3125 -14.984375 L 92.3125 -14.984375 L 92.3125 -3 Z M 58.546875 -14.984375 C 61.742188 -14.984375 64.390625 -15.097656 66.484375 -15.328125 C 68.585938 -15.566406 70.285156 -15.96875 71.578125 -16.53125 C 72.878906 -17.101562 73.796875 -17.882812 74.328125 -18.875 C 74.859375 -19.875 75.125 -21.175781 75.125 -22.78125 C 75.125 -25.644531 74.191406 -27.773438 72.328125 -29.171875 C 70.460938 -30.566406 67.367188 -31.265625 63.046875 -31.265625 L 60.046875 -31.265625 C 57.046875 -31.265625 54.410156 -31.148438 52.140625 -30.921875 C 49.878906 -30.691406 47.882812 -30.242188 46.15625 -29.578125 C 44.425781 -28.910156 42.859375 -27.972656 41.453125 -26.765625 C 40.054688 -25.566406 38.726562 -24.003906 37.46875 -22.078125 L 33.171875 -15.578125 L 33.46875 -14.984375 Z M 57.546875 -54.25 C 55.816406 -54.25 54.398438 -54.78125 53.296875 -55.84375 C 52.203125 -56.914062 51.65625 -58.613281 51.65625 -60.9375 C 51.65625 -63.269531 52.203125 -64.96875 53.296875 -66.03125 C 54.398438 -67.101562 55.816406 -67.640625 57.546875 -67.640625 L 59.546875 -67.640625 C 61.273438 -67.640625 62.6875 -67.101562 63.78125 -66.03125 C 64.882812 -64.96875 65.4375 -63.269531 65.4375 -60.9375 C 65.4375 -58.613281 64.882812 -56.914062 63.78125 -55.84375 C 62.6875 -54.78125 61.273438 -54.25 59.546875 -54.25 Z M 57.546875 -54.25 "/></g></g></g><g fill="#135662" fill-opacity="1"><g transform="translate(774.836061, 187.073359)"><g><path d="M -3 -11.984375 L 0 -14.984375 L 2.890625 -14.984375 C 5.296875 -14.984375 7.28125 -15.082031 8.84375 -15.28125 C 10.40625 -15.476562 11.671875 -15.828125 12.640625 -16.328125 C 13.609375 -16.828125 14.273438 -17.457031 14.640625 -18.21875 C 15.003906 -18.988281 15.1875 -19.941406 15.1875 -21.078125 C 15.1875 -22.078125 15.101562 -23.359375 14.9375 -24.921875 C 14.769531 -26.492188 14.453125 -28.546875 13.984375 -31.078125 L 12.28125 -40.359375 L 23.171875 -42.15625 L 24.671875 -32.875 C 25.003906 -31.070312 25.269531 -29.070312 25.46875 -26.875 C 25.675781 -24.675781 25.78125 -22.742188 25.78125 -21.078125 C 25.78125 -13.816406 23.992188 -8.488281 20.421875 -5.09375 C 16.859375 -1.695312 11.015625 0 2.890625 0 L -3 0 Z M 15.1875 -50.15625 C 13.457031 -50.15625 12.039062 -50.6875 10.9375 -51.75 C 9.84375 -52.820312 9.296875 -54.519531 9.296875 -56.84375 C 9.296875 -59.175781 9.84375 -60.875 10.9375 -61.9375 C 12.039062 -63.007812 13.457031 -63.546875 15.1875 -63.546875 L 17.1875 -63.546875 C 18.914062 -63.546875 20.328125 -63.007812 21.421875 -61.9375 C 22.523438 -60.875 23.078125 -59.175781 23.078125 -56.84375 C 23.078125 -54.519531 22.523438 -52.820312 21.421875 -51.75 C 20.328125 -50.6875 18.914062 -50.15625 17.1875 -50.15625 Z M 15.1875 -50.15625 "/></g></g></g><g fill="#135662" fill-opacity="1"><g transform="translate(803.60781, 187.073359)"><g><path d="M 6 -73.9375 L 17.984375 -73.9375 L 17.984375 0 L 6 0 Z M 6 -73.9375 "/></g></g></g><g clip-path="url(#82fc103082)"><g clip-path="url(#16cbf35559)"><g transform="matrix(1, 0, 0, 1, 447, 144)"><g clip-path="url(#54999ecd7f)"><g clip-path="url(#c2676cd4da)"><g clip-path="url(#a792f771e6)"><path fill="#afd57f" d="M 0.707031 0.0429688 L 226.421875 0.0429688 L 226.421875 59.738281 L 0.707031 59.738281 Z M 0.707031 0.0429688 " fill-opacity="1" fill-rule="nonzero"/></g></g></g></g></g></g><g fill="#ffffff" fill-opacity="1"><g transform="translate(466.825299, 179.261165)"><g/></g></g><g fill="#ffffff" fill-opacity="1"><g transform="translate(471.5435, 179.261165)"><g><path d="M 0.796875 1.3125 C 0.796875 -2.007812 2.257812 -3.671875 5.1875 -3.671875 L 9.5625 -3.671875 C 9.507812 -4.460938 9.265625 -5.078125 8.828125 -5.515625 C 8.398438 -5.953125 7.859375 -6.171875 7.203125 -6.171875 C 6.535156 -6.171875 6.03125 -6.003906 5.6875 -5.671875 C 5.351562 -5.347656 5.128906 -4.9375 5.015625 -4.4375 L 2.828125 -5.125 C 2.953125 -5.90625 3.160156 -6.550781 3.453125 -7.0625 C 3.753906 -7.582031 4.109375 -7.992188 4.515625 -8.296875 C 4.921875 -8.609375 5.351562 -8.832031 5.8125 -8.96875 C 6.28125 -9.101562 6.734375 -9.171875 7.171875 -9.171875 C 8.523438 -9.171875 9.597656 -8.65625 10.390625 -7.625 C 11.179688 -6.59375 11.578125 -5.125 11.578125 -3.21875 L 11.578125 -0.671875 L 5.1875 -0.671875 C 4.789062 -0.671875 4.460938 -0.640625 4.203125 -0.578125 C 3.941406 -0.523438 3.738281 -0.425781 3.59375 -0.28125 C 3.445312 -0.132812 3.34375 0.0664062 3.28125 0.328125 C 3.21875 0.585938 3.1875 0.914062 3.1875 1.3125 L 3.1875 6.078125 L 0.796875 6.078125 Z M 0.796875 1.3125 "/></g></g></g><g fill="#ffffff" fill-opacity="1"><g transform="translate(483.827054, 179.261165)"><g><path d="M 1.203125 -14.78125 L 3.59375 -14.78125 L 3.59375 0 L 1.203125 0 Z M 1.203125 -14.78125 "/></g></g></g><g fill="#ffffff" fill-opacity="1"><g transform="translate(488.620634, 179.261165)"><g><path d="M -1.203125 1.796875 L -0.40625 1.796875 C 0.8125 1.796875 1.703125 1.546875 2.265625 1.046875 C 2.828125 0.554688 3.101562 -0.253906 3.09375 -1.390625 C 3.09375 -1.703125 3.070312 -2.023438 3.03125 -2.359375 C 2.988281 -2.703125 2.9375 -3.066406 2.875 -3.453125 L 2.453125 -6.109375 L 4.625 -6.453125 L 4.9375 -4.59375 C 4.988281 -4.300781 5.03125 -4.019531 5.0625 -3.75 C 5.09375 -3.488281 5.125 -3.238281 5.15625 -3 L 6.984375 -3 L 6.984375 -0.59375 L 6.390625 0 L 5.15625 0 C 4.925781 1.476562 4.34375 2.644531 3.40625 3.5 C 2.46875 4.363281 1.207031 4.796875 -0.375 4.796875 L -1.203125 4.796875 Z M -1.203125 1.796875 "/></g></g></g><g fill="#ffffff" fill-opacity="1"><g transform="translate(495.611271, 179.261165)"><g><path d="M -0.59375 -2.390625 L 0 -3 L 1.375 -3 C 2.125 -3 2.789062 -3.007812 3.375 -3.03125 C 3.96875 -3.050781 4.53125 -3.097656 5.0625 -3.171875 C 5.601562 -3.253906 6.125 -3.375 6.625 -3.53125 C 7.132812 -3.695312 7.675781 -3.914062 8.25 -4.1875 L 8.984375 -4.546875 L 8.984375 -4.65625 L 5.796875 -5.328125 L 2.78125 -6.078125 L 2.78125 -4.578125 L 0.484375 -4.578125 L 0.484375 -6.109375 C 0.484375 -7.054688 0.6875 -7.75 1.09375 -8.1875 C 1.5 -8.625 2.117188 -8.84375 2.953125 -8.84375 C 3.054688 -8.84375 3.164062 -8.835938 3.28125 -8.828125 C 3.394531 -8.816406 3.523438 -8.796875 3.671875 -8.765625 C 3.828125 -8.734375 4.007812 -8.691406 4.21875 -8.640625 C 4.4375 -8.585938 4.707031 -8.523438 5.03125 -8.453125 L 8.890625 -7.453125 C 9.421875 -7.304688 9.988281 -7.191406 10.59375 -7.109375 C 11.207031 -7.023438 11.816406 -6.984375 12.421875 -6.984375 L 12.8125 -6.984375 L 12.8125 -4 L 11.421875 -4 C 11.429688 -3.625 11.539062 -3.363281 11.75 -3.21875 C 11.957031 -3.070312 12.3125 -3 12.8125 -3 L 13.421875 -3 L 13.421875 -0.59375 L 12.8125 0 C 11.820312 -0.0078125 11.050781 -0.238281 10.5 -0.6875 C 9.945312 -1.132812 9.601562 -1.832031 9.46875 -2.78125 L 9.390625 -2.71875 C 8.503906 -2.113281 7.710938 -1.632812 7.015625 -1.28125 C 6.316406 -0.9375 5.65625 -0.664062 5.03125 -0.46875 C 4.40625 -0.28125 3.800781 -0.15625 3.21875 -0.09375 C 2.632812 -0.03125 2.019531 0 1.375 0 L -0.59375 0 Z M 6.28125 4.296875 C 5.9375 4.296875 5.65625 4.1875 5.4375 3.96875 C 5.21875 3.757812 5.109375 3.421875 5.109375 2.953125 C 5.109375 2.492188 5.21875 2.15625 5.4375 1.9375 C 5.65625 1.726562 5.9375 1.625 6.28125 1.625 L 6.6875 1.625 C 7.03125 1.625 7.3125 1.726562 7.53125 1.9375 C 7.75 2.15625 7.859375 2.492188 7.859375 2.953125 C 7.859375 3.421875 7.75 3.757812 7.53125 3.96875 C 7.3125 4.1875 7.03125 4.296875 6.6875 4.296875 Z M 6.28125 4.296875 "/></g></g></g><g fill="#ffffff" fill-opacity="1"><g transform="translate(509.033295, 179.261165)"><g><path d="M -0.59375 -2.390625 L 0 -3 L 0.5 -3 C 1.5625 -3 2.09375 -3.460938 2.09375 -4.390625 L 2.09375 -14.78125 L 4.5 -14.78125 L 4.5 -4.390625 C 4.5 -3.460938 4.960938 -3 5.890625 -3 L 6.59375 -3 L 6.59375 -0.59375 L 5.984375 0 C 4.898438 0 4.070312 -0.210938 3.5 -0.640625 C 2.925781 -1.078125 2.546875 -1.765625 2.359375 -2.703125 L 2.234375 -2.703125 C 2.066406 -1.765625 1.757812 -1.078125 1.3125 -0.640625 C 0.875 -0.210938 0.238281 0 -0.59375 0 Z M -0.59375 -2.390625 "/></g></g></g><g fill="#ffffff" fill-opacity="1"><g transform="translate(515.624464, 179.261165)"><g><path d="M -0.59375 -2.390625 L 0 -3 L 0.59375 -3 C 1.664062 -3 2.203125 -3.460938 2.203125 -4.390625 L 2.203125 -7.25 L 4.390625 -7.25 L 4.390625 -4.390625 C 4.390625 -3.460938 4.859375 -3 5.796875 -3 L 6.59375 -3 L 6.59375 -0.59375 L 5.984375 0 C 4.921875 0 4.113281 -0.210938 3.5625 -0.640625 C 3.007812 -1.078125 2.640625 -1.765625 2.453125 -2.703125 L 2.34375 -2.703125 C 2.15625 -1.765625 1.832031 -1.078125 1.375 -0.640625 C 0.925781 -0.210938 0.269531 0 -0.59375 0 Z M 4.671875 -8.84375 C 4.328125 -8.84375 4.046875 -8.945312 3.828125 -9.15625 C 3.609375 -9.375 3.5 -9.71875 3.5 -10.1875 C 3.5 -10.644531 3.609375 -10.976562 3.828125 -11.1875 C 4.046875 -11.40625 4.328125 -11.515625 4.671875 -11.515625 L 5.078125 -11.515625 C 5.421875 -11.515625 5.703125 -11.40625 5.921875 -11.1875 C 6.140625 -10.976562 6.25 -10.644531 6.25 -10.1875 C 6.25 -9.71875 6.140625 -9.375 5.921875 -9.15625 C 5.703125 -8.945312 5.421875 -8.84375 5.078125 -8.84375 Z M 1.515625 -8.84375 C 1.171875 -8.84375 0.890625 -8.945312 0.671875 -9.15625 C 0.453125 -9.375 0.34375 -9.71875 0.34375 -10.1875 C 0.34375 -10.644531 0.453125 -10.976562 0.671875 -11.1875 C 0.890625 -11.40625 1.171875 -11.515625 1.515625 -11.515625 L 1.921875 -11.515625 C 2.265625 -11.515625 2.546875 -11.40625 2.765625 -11.1875 C 2.984375 -10.976562 3.09375 -10.644531 3.09375 -10.1875 C 3.09375 -9.71875 2.984375 -9.375 2.765625 -9.15625 C 2.546875 -8.945312 2.265625 -8.84375 1.921875 -8.84375 Z M 1.515625 -8.84375 "/></g></g></g><g fill="#ffffff" fill-opacity="1"><g transform="translate(522.215632, 179.261165)"><g><path d="M -0.59375 -2.390625 L 0 -3 L 0.875 -3 C 1.382812 -3 1.722656 -3.09375 1.890625 -3.28125 C 2.054688 -3.476562 2.140625 -3.78125 2.140625 -4.1875 L 2.140625 -14.78125 L 4.53125 -14.78125 L 4.53125 -4.1875 C 4.53125 -2.769531 4.253906 -1.71875 3.703125 -1.03125 C 3.148438 -0.351562 2.207031 -0.0078125 0.875 0 L -0.59375 0 Z M -0.59375 -2.390625 "/></g></g></g><g fill="#ffffff" fill-opacity="1"><g transform="translate(527.947954, 179.261165)"><g><path d="M 1.203125 -14.78125 L 3.59375 -14.78125 L 3.59375 0 L 1.203125 0 Z M 1.203125 -14.78125 "/></g></g></g><g fill="#ffffff" fill-opacity="1"><g transform="translate(532.741535, 179.261165)"><g/></g></g><g fill="#ffffff" fill-opacity="1"><g transform="translate(537.455219, 179.261165)"><g><path d="M -1.203125 1.796875 L -0.40625 1.796875 C 0.8125 1.796875 1.703125 1.546875 2.265625 1.046875 C 2.828125 0.554688 3.101562 -0.253906 3.09375 -1.390625 C 3.09375 -1.703125 3.070312 -2.023438 3.03125 -2.359375 C 2.988281 -2.703125 2.9375 -3.066406 2.875 -3.453125 L 2.453125 -6.109375 L 4.625 -6.453125 L 4.859375 -4.984375 L 8.140625 -5.53125 L 8.140625 -7.25 L 10.34375 -7.25 L 10.34375 -4.46875 C 10.34375 -3.875 10.460938 -3.476562 10.703125 -3.28125 C 10.941406 -3.09375 11.351562 -3 11.9375 -3 L 12.546875 -3 L 12.546875 -0.59375 L 11.9375 0 L 11.71875 0 C 10.707031 0 9.921875 -0.203125 9.359375 -0.609375 C 8.804688 -1.015625 8.441406 -1.675781 8.265625 -2.59375 L 5.25 -2.09375 C 5.257812 -1.988281 5.265625 -1.882812 5.265625 -1.78125 C 5.265625 -1.675781 5.265625 -1.582031 5.265625 -1.5 C 5.265625 -0.539062 5.144531 0.320312 4.90625 1.09375 C 4.664062 1.863281 4.304688 2.523438 3.828125 3.078125 C 3.347656 3.628906 2.753906 4.050781 2.046875 4.34375 C 1.347656 4.644531 0.539062 4.796875 -0.375 4.796875 L -1.203125 4.796875 Z M 9.015625 4.296875 C 8.671875 4.296875 8.390625 4.1875 8.171875 3.96875 C 7.953125 3.757812 7.84375 3.421875 7.84375 2.953125 C 7.84375 2.492188 7.953125 2.15625 8.171875 1.9375 C 8.390625 1.726562 8.671875 1.625 9.015625 1.625 L 9.421875 1.625 C 9.765625 1.625 10.046875 1.726562 10.265625 1.9375 C 10.484375 2.15625 10.59375 2.492188 10.59375 2.953125 C 10.59375 3.421875 10.484375 3.757812 10.265625 3.96875 C 10.046875 4.1875 9.765625 4.296875 9.421875 4.296875 Z M 9.015625 4.296875 "/></g></g></g><g fill="#ffffff" fill-opacity="1"><g transform="translate(549.998423, 179.261165)"><g><path d="M -0.59375 -2.390625 L 0 -3 L 1.59375 -3 L 1.59375 -3.09375 C 1.332031 -3.476562 1.128906 -3.890625 0.984375 -4.328125 C 0.847656 -4.765625 0.78125 -5.238281 0.78125 -5.75 C 0.78125 -6.40625 0.894531 -7.019531 1.125 -7.59375 C 1.363281 -8.164062 1.6875 -8.664062 2.09375 -9.09375 C 2.5 -9.53125 2.976562 -9.867188 3.53125 -10.109375 C 4.082031 -10.359375 4.679688 -10.484375 5.328125 -10.484375 C 6.410156 -10.484375 7.289062 -10.265625 7.96875 -9.828125 C 8.644531 -9.390625 9.210938 -8.789062 9.671875 -8.03125 L 7.53125 -6.125 C 7.238281 -6.59375 6.898438 -6.9375 6.515625 -7.15625 C 6.128906 -7.375 5.664062 -7.484375 5.125 -7.484375 C 4.382812 -7.484375 3.804688 -7.332031 3.390625 -7.03125 C 2.984375 -6.738281 2.78125 -6.3125 2.78125 -5.75 C 2.78125 -5.070312 3.066406 -4.550781 3.640625 -4.1875 C 4.210938 -3.820312 5.015625 -3.640625 6.046875 -3.640625 C 6.390625 -3.640625 6.753906 -3.664062 7.140625 -3.71875 C 7.535156 -3.769531 7.890625 -3.84375 8.203125 -3.9375 L 10.140625 -4.46875 L 10.90625 -1.78125 L 7.96875 -0.875 C 7.394531 -0.707031 6.84375 -0.566406 6.3125 -0.453125 C 5.78125 -0.335938 5.191406 -0.242188 4.546875 -0.171875 C 3.910156 -0.109375 3.179688 -0.0625 2.359375 -0.03125 C 1.535156 -0.0078125 0.550781 0 -0.59375 0 Z M -0.59375 -2.390625 "/></g></g></g><g fill="#ffffff" fill-opacity="1"><g transform="translate(561.383172, 179.261165)"><g/></g></g><g fill="#ffffff" fill-opacity="1"><g transform="translate(566.096856, 179.261165)"><g><path d="M 6.3125 4.796875 C 4.457031 4.796875 3.054688 4.316406 2.109375 3.359375 C 1.171875 2.410156 0.703125 1.066406 0.703125 -0.671875 C 0.703125 -1.273438 0.785156 -1.953125 0.953125 -2.703125 C 1.117188 -3.453125 1.347656 -4.179688 1.640625 -4.890625 L 3.546875 -4.328125 C 3.285156 -3.753906 3.078125 -3.175781 2.921875 -2.59375 C 2.773438 -2.007812 2.703125 -1.503906 2.703125 -1.078125 C 2.703125 -0.234375 2.945312 0.414062 3.4375 0.875 C 3.9375 1.332031 4.628906 1.5625 5.515625 1.5625 L 7.109375 1.5625 C 7.628906 1.5625 8.066406 1.492188 8.421875 1.359375 C 8.785156 1.234375 9.078125 1.023438 9.296875 0.734375 C 9.515625 0.453125 9.671875 0.0820312 9.765625 -0.375 C 9.867188 -0.832031 9.921875 -1.394531 9.921875 -2.0625 L 9.921875 -14.78125 L 12.328125 -14.78125 L 12.328125 -2.0625 C 12.328125 0.300781 11.835938 2.035156 10.859375 3.140625 C 9.890625 4.242188 8.375 4.796875 6.3125 4.796875 Z M 6.3125 4.796875 "/></g></g></g><g fill="#ffffff" fill-opacity="1"><g transform="translate(579.618751, 179.261165)"><g><path d="M 1.203125 -14.78125 L 3.59375 -14.78125 L 3.59375 0 L 1.203125 0 Z M 1.203125 -14.78125 "/></g></g></g><g fill="#ffffff" fill-opacity="1"><g transform="translate(584.412331, 179.261165)"><g><path d="M 3.46875 0 C 2.539062 0 1.828125 -0.226562 1.328125 -0.6875 C 0.835938 -1.15625 0.59375 -1.90625 0.59375 -2.9375 L 0.59375 -4.265625 L 2.890625 -4.265625 L 2.890625 -3 L 5.953125 -3 C 6.835938 -3 7.28125 -3.34375 7.28125 -4.03125 C 7.28125 -4.1875 7.238281 -4.351562 7.15625 -4.53125 C 7.082031 -4.71875 6.957031 -4.921875 6.78125 -5.140625 C 6.613281 -5.367188 6.394531 -5.625 6.125 -5.90625 C 5.851562 -6.1875 5.515625 -6.515625 5.109375 -6.890625 L 3.140625 -8.71875 L 5.171875 -10.921875 L 6.796875 -9.328125 C 7.285156 -8.835938 7.703125 -8.378906 8.046875 -7.953125 C 8.390625 -7.523438 8.664062 -7.101562 8.875 -6.6875 C 9.09375 -6.28125 9.25 -5.859375 9.34375 -5.421875 C 9.4375 -4.984375 9.484375 -4.519531 9.484375 -4.03125 C 9.484375 -2.75 9.15625 -1.753906 8.5 -1.046875 C 7.851562 -0.347656 6.9375 0 5.75 0 Z M 3.46875 0 "/></g></g></g><g fill="#ffffff" fill-opacity="1"><g transform="translate(594.598688, 179.261165)"><g/></g></g><g fill="#ffffff" fill-opacity="1"><g transform="translate(599.312372, 179.261165)"><g><path d="M 6.453125 6.078125 C 4.640625 6.078125 3.234375 5.6875 2.234375 4.90625 C 1.234375 4.125 0.734375 3.007812 0.734375 1.5625 C 0.734375 1.144531 0.789062 0.738281 0.90625 0.34375 C 1.019531 -0.0390625 1.226562 -0.429688 1.53125 -0.828125 C 1.832031 -1.234375 2.242188 -1.648438 2.765625 -2.078125 C 3.285156 -2.515625 3.960938 -2.976562 4.796875 -3.46875 L 2.203125 -6.671875 L 2.203125 -9.765625 C 2.859375 -10.066406 3.554688 -10.300781 4.296875 -10.46875 C 5.035156 -10.632812 5.757812 -10.71875 6.46875 -10.71875 C 8.007812 -10.71875 9.140625 -10.441406 9.859375 -9.890625 C 10.578125 -9.347656 10.9375 -8.492188 10.9375 -7.328125 C 10.9375 -6.515625 10.742188 -5.796875 10.359375 -5.171875 C 9.984375 -4.554688 9.398438 -4 8.609375 -3.5 L 8.109375 -3.171875 C 8.359375 -3.097656 8.640625 -3.050781 8.953125 -3.03125 C 9.273438 -3.007812 9.679688 -3 10.171875 -3 L 12.5 -3 L 12.5 -0.59375 L 12.09375 0 L 9.96875 0 C 9.582031 0 9.234375 -0.0234375 8.921875 -0.078125 C 8.609375 -0.128906 8.300781 -0.222656 8 -0.359375 C 7.707031 -0.503906 7.410156 -0.695312 7.109375 -0.9375 C 6.804688 -1.1875 6.472656 -1.515625 6.109375 -1.921875 C 5.484375 -1.515625 4.96875 -1.164062 4.5625 -0.875 C 4.15625 -0.59375 3.832031 -0.34375 3.59375 -0.125 C 3.351562 0.09375 3.179688 0.296875 3.078125 0.484375 C 2.984375 0.671875 2.9375 0.863281 2.9375 1.0625 L 2.9375 1.171875 C 2.9375 1.734375 3.238281 2.191406 3.84375 2.546875 C 4.457031 2.898438 5.378906 3.078125 6.609375 3.078125 C 7.421875 3.078125 8.207031 2.90625 8.96875 2.5625 C 9.738281 2.226562 10.40625 1.75 10.96875 1.125 L 12.453125 3.46875 C 11.703125 4.300781 10.800781 4.941406 9.75 5.390625 C 8.695312 5.847656 7.597656 6.078125 6.453125 6.078125 Z M 4.109375 -7.34375 L 6.546875 -4.46875 L 7.75 -5.15625 C 8.550781 -5.613281 8.953125 -6.117188 8.953125 -6.671875 C 8.953125 -7.054688 8.765625 -7.328125 8.390625 -7.484375 C 8.023438 -7.648438 7.382812 -7.734375 6.46875 -7.734375 C 6.050781 -7.734375 5.628906 -7.703125 5.203125 -7.640625 C 4.785156 -7.585938 4.421875 -7.53125 4.109375 -7.46875 Z M 4.109375 -7.34375 "/></g></g></g><g fill="#ffffff" fill-opacity="1"><g transform="translate(611.815629, 179.261165)"><g><path d="M -0.59375 -2.390625 L 0 -3 L 1.734375 -3 C 1.722656 -3.070312 1.71875 -3.148438 1.71875 -3.234375 C 1.71875 -3.316406 1.71875 -3.394531 1.71875 -3.46875 C 1.71875 -5.082031 2.648438 -6.429688 4.515625 -7.515625 L 5.796875 -8.25 L 8.421875 -8.25 L 10 -4.015625 C 10.144531 -3.597656 10.328125 -3.320312 10.546875 -3.1875 C 10.773438 -3.0625 11.109375 -3 11.546875 -3 L 12.140625 -3 L 12.140625 -0.59375 L 11.546875 0 C 10.660156 0 9.960938 -0.132812 9.453125 -0.40625 C 8.953125 -0.675781 8.535156 -1.109375 8.203125 -1.703125 L 8.09375 -1.671875 L 8.09375 0 L 5.546875 0 C 4.578125 0 3.800781 -0.191406 3.21875 -0.578125 C 2.632812 -0.972656 2.222656 -1.472656 1.984375 -2.078125 L 1.796875 -2.078125 C 1.421875 -0.691406 0.625 0 -0.59375 0 Z M 3.53125 -3.75 C 3.53125 -3.457031 3.644531 -3.257812 3.875 -3.15625 C 4.101562 -3.050781 4.375 -3 4.6875 -3 L 7.625 -3 L 6.625 -5.625 L 4.8125 -4.90625 C 4.382812 -4.738281 4.0625 -4.5625 3.84375 -4.375 C 3.632812 -4.195312 3.53125 -3.988281 3.53125 -3.75 Z M 3.53125 -3.75 "/></g></g></g><g fill="#ffffff" fill-opacity="1"><g transform="translate(623.959365, 179.261165)"><g><path d="M -0.59375 -2.390625 L 0 -3 L 0.59375 -3 C 1.664062 -3 2.203125 -3.460938 2.203125 -4.390625 L 2.203125 -7.25 L 4.390625 -7.25 L 4.390625 -4.390625 C 4.390625 -3.460938 4.859375 -3 5.796875 -3 L 6.59375 -3 L 6.59375 -0.59375 L 5.984375 0 C 4.921875 0 4.113281 -0.210938 3.5625 -0.640625 C 3.007812 -1.078125 2.640625 -1.765625 2.453125 -2.703125 L 2.34375 -2.703125 C 2.15625 -1.765625 1.832031 -1.078125 1.375 -0.640625 C 0.925781 -0.210938 0.269531 0 -0.59375 0 Z M 4.671875 -8.84375 C 4.328125 -8.84375 4.046875 -8.945312 3.828125 -9.15625 C 3.609375 -9.375 3.5 -9.71875 3.5 -10.1875 C 3.5 -10.644531 3.609375 -10.976562 3.828125 -11.1875 C 4.046875 -11.40625 4.328125 -11.515625 4.671875 -11.515625 L 5.078125 -11.515625 C 5.421875 -11.515625 5.703125 -11.40625 5.921875 -11.1875 C 6.140625 -10.976562 6.25 -10.644531 6.25 -10.1875 C 6.25 -9.71875 6.140625 -9.375 5.921875 -9.15625 C 5.703125 -8.945312 5.421875 -8.84375 5.078125 -8.84375 Z M 1.515625 -8.84375 C 1.171875 -8.84375 0.890625 -8.945312 0.671875 -9.15625 C 0.453125 -9.375 0.34375 -9.71875 0.34375 -10.1875 C 0.34375 -10.644531 0.453125 -10.976562 0.671875 -11.1875 C 0.890625 -11.40625 1.171875 -11.515625 1.515625 -11.515625 L 1.921875 -11.515625 C 2.265625 -11.515625 2.546875 -11.40625 2.765625 -11.1875 C 2.984375 -10.976562 3.09375 -10.644531 3.09375 -10.1875 C 3.09375 -9.71875 2.984375 -9.375 2.765625 -9.15625 C 2.546875 -8.945312 2.265625 -8.84375 1.921875 -8.84375 Z M 1.515625 -8.84375 "/></g></g></g><g fill="#ffffff" fill-opacity="1"><g transform="translate(630.550534, 179.261165)"><g><path d="M -0.59375 -2.390625 L 0 -3 L 1.375 -3 C 2.125 -3 2.789062 -3.007812 3.375 -3.03125 C 3.96875 -3.050781 4.53125 -3.097656 5.0625 -3.171875 C 5.601562 -3.253906 6.125 -3.375 6.625 -3.53125 C 7.132812 -3.695312 7.675781 -3.914062 8.25 -4.1875 L 8.984375 -4.546875 L 8.984375 -4.65625 L 5.796875 -5.328125 L 2.78125 -6.078125 L 2.78125 -4.578125 L 0.484375 -4.578125 L 0.484375 -6.109375 C 0.484375 -7.054688 0.6875 -7.75 1.09375 -8.1875 C 1.5 -8.625 2.117188 -8.84375 2.953125 -8.84375 C 3.054688 -8.84375 3.164062 -8.835938 3.28125 -8.828125 C 3.394531 -8.816406 3.523438 -8.796875 3.671875 -8.765625 C 3.828125 -8.734375 4.007812 -8.691406 4.21875 -8.640625 C 4.4375 -8.585938 4.707031 -8.523438 5.03125 -8.453125 L 8.890625 -7.453125 C 9.421875 -7.304688 9.988281 -7.191406 10.59375 -7.109375 C 11.207031 -7.023438 11.816406 -6.984375 12.421875 -6.984375 L 12.8125 -6.984375 L 12.8125 -4 L 11.421875 -4 C 11.429688 -3.625 11.539062 -3.363281 11.75 -3.21875 C 11.957031 -3.070312 12.3125 -3 12.8125 -3 L 13.421875 -3 L 13.421875 -0.59375 L 12.8125 0 C 11.820312 -0.0078125 11.050781 -0.238281 10.5 -0.6875 C 9.945312 -1.132812 9.601562 -1.832031 9.46875 -2.78125 L 9.390625 -2.71875 C 8.503906 -2.113281 7.710938 -1.632812 7.015625 -1.28125 C 6.316406 -0.9375 5.65625 -0.664062 5.03125 -0.46875 C 4.40625 -0.28125 3.800781 -0.15625 3.21875 -0.09375 C 2.632812 -0.03125 2.019531 0 1.375 0 L -0.59375 0 Z M 6.28125 4.296875 C 5.9375 4.296875 5.65625 4.1875 5.4375 3.96875 C 5.21875 3.757812 5.109375 3.421875 5.109375 2.953125 C 5.109375 2.492188 5.21875 2.15625 5.4375 1.9375 C 5.65625 1.726562 5.9375 1.625 6.28125 1.625 L 6.6875 1.625 C 7.03125 1.625 7.3125 1.726562 7.53125 1.9375 C 7.75 2.15625 7.859375 2.492188 7.859375 2.953125 C 7.859375 3.421875 7.75 3.757812 7.53125 3.96875 C 7.3125 4.1875 7.03125 4.296875 6.6875 4.296875 Z M 6.28125 4.296875 "/></g></g></g><g fill="#ffffff" fill-opacity="1"><g transform="translate(643.972558, 179.261165)"><g><path d="M 2.34375 -1.125 C 2.03125 -0.707031 1.644531 -0.414062 1.1875 -0.25 C 0.726562 -0.0820312 0.132812 0 -0.59375 0 L -0.59375 -2.390625 L 0 -3 C 0.488281 -3 0.847656 -3.070312 1.078125 -3.21875 C 1.304688 -3.363281 1.492188 -3.625 1.640625 -4 L 2.203125 -5.375 C 2.367188 -5.800781 2.554688 -6.195312 2.765625 -6.5625 C 2.984375 -6.9375 3.238281 -7.265625 3.53125 -7.546875 C 3.820312 -7.828125 4.148438 -8.046875 4.515625 -8.203125 C 4.890625 -8.367188 5.316406 -8.453125 5.796875 -8.453125 C 7.046875 -8.453125 7.984375 -7.957031 8.609375 -6.96875 C 9.242188 -5.976562 9.5625 -4.613281 9.5625 -2.875 L 9.5625 -2.296875 L 7.671875 0.515625 Z M 3.4375 -3.890625 L 7.453125 -2.671875 L 7.453125 -2.875 C 7.453125 -3.675781 7.257812 -4.300781 6.875 -4.75 C 6.488281 -5.207031 5.960938 -5.4375 5.296875 -5.4375 C 4.867188 -5.4375 4.5 -5.320312 4.1875 -5.09375 C 3.875 -4.863281 3.632812 -4.503906 3.46875 -4.015625 Z M 3.4375 -3.890625 "/></g></g></g><g fill="#135662" fill-opacity="1"><g transform="translate(348.593007, 80.673818)"><g><path d="M 10.796875 -11.640625 L 10.796875 -15.140625 C 9.523438 -15.265625 8.320312 -15.578125 7.1875 -16.078125 C 6.0625 -16.578125 5.0625 -17.242188 4.1875 -18.078125 C 3.320312 -18.910156 2.628906 -19.875 2.109375 -20.96875 C 1.597656 -22.070312 1.34375 -23.273438 1.34375 -24.578125 C 1.34375 -26.242188 1.617188 -27.75 2.171875 -29.09375 C 2.722656 -30.445312 3.515625 -31.597656 4.546875 -32.546875 C 5.578125 -33.492188 6.800781 -34.21875 8.21875 -34.71875 C 9.632812 -35.21875 11.222656 -35.46875 12.984375 -35.46875 C 14.679688 -35.46875 16.1875 -35.242188 17.5 -34.796875 C 18.820312 -34.347656 19.972656 -33.753906 20.953125 -33.015625 C 21.929688 -32.285156 22.769531 -31.460938 23.46875 -30.546875 C 24.175781 -29.628906 24.757812 -28.707031 25.21875 -27.78125 L 18.375 -24.234375 C 18.21875 -24.628906 17.976562 -25.023438 17.65625 -25.421875 C 17.34375 -25.828125 16.9375 -26.1875 16.4375 -26.5 C 15.9375 -26.8125 15.351562 -27.078125 14.6875 -27.296875 C 14.019531 -27.515625 13.253906 -27.625 12.390625 -27.625 C 11.085938 -27.625 9.96875 -27.332031 9.03125 -26.75 C 8.101562 -26.164062 7.640625 -25.289062 7.640625 -24.125 C 7.640625 -23.363281 7.804688 -22.691406 8.140625 -22.109375 C 8.472656 -21.523438 9.015625 -21.03125 9.765625 -20.625 C 10.515625 -20.226562 11.488281 -19.910156 12.6875 -19.671875 C 13.882812 -19.441406 15.347656 -19.3125 17.078125 -19.28125 L 17.078125 -11.640625 Z M 13.984375 0.546875 C 12.484375 0.546875 11.375 0.171875 10.65625 -0.578125 C 9.945312 -1.328125 9.59375 -2.285156 9.59375 -3.453125 L 9.59375 -4.453125 C 9.59375 -5.609375 9.945312 -6.5625 10.65625 -7.3125 C 11.375 -8.0625 12.484375 -8.4375 13.984375 -8.4375 C 15.484375 -8.4375 16.585938 -8.0625 17.296875 -7.3125 C 18.015625 -6.5625 18.375 -5.609375 18.375 -4.453125 L 18.375 -3.453125 C 18.375 -2.285156 18.015625 -1.328125 17.296875 -0.578125 C 16.585938 0.171875 15.484375 0.546875 13.984375 0.546875 Z M 13.984375 0.546875 "/></g></g></g><g fill="#135662" fill-opacity="1"><g transform="translate(373.565552, 80.673818)"><g><path d="M 18.78125 11.484375 C 13.15625 11.484375 8.910156 10.285156 6.046875 7.890625 C 3.179688 5.492188 1.75 2.113281 1.75 -2.25 C 1.75 -3.75 1.957031 -5.4375 2.375 -7.3125 C 2.789062 -9.195312 3.363281 -11.019531 4.09375 -12.78125 L 8.890625 -11.390625 C 8.222656 -9.953125 7.695312 -8.5 7.3125 -7.03125 C 6.9375 -5.570312 6.75 -4.3125 6.75 -3.25 C 6.75 -1.144531 7.628906 0.484375 9.390625 1.640625 C 11.148438 2.804688 13.613281 3.390625 16.78125 3.390625 L 20.78125 3.390625 C 23.582031 3.390625 25.710938 3.128906 27.171875 2.609375 C 28.640625 2.097656 29.609375 1.226562 30.078125 0 L 23.78125 0 C 21.082031 0 18.972656 -0.789062 17.453125 -2.375 C 15.941406 -3.957031 15.1875 -6.160156 15.1875 -8.984375 C 15.1875 -10.722656 15.441406 -12.332031 15.953125 -13.8125 C 16.472656 -15.289062 17.191406 -16.570312 18.109375 -17.65625 C 19.023438 -18.738281 20.109375 -19.585938 21.359375 -20.203125 C 22.609375 -20.816406 23.960938 -21.125 25.421875 -21.125 C 28.390625 -21.125 30.753906 -19.925781 32.515625 -17.53125 C 34.285156 -15.132812 35.285156 -11.789062 35.515625 -7.5 L 38.0625 -7.5 L 38.0625 -1.5 L 36.5625 0 L 35.171875 0 C 34.867188 2.09375 34.328125 3.875 33.546875 5.34375 C 32.765625 6.8125 31.710938 7.992188 30.390625 8.890625 C 29.078125 9.785156 27.460938 10.441406 25.546875 10.859375 C 23.628906 11.273438 21.375 11.484375 18.78125 11.484375 Z M 20.1875 -9.984375 C 20.1875 -9.085938 20.550781 -8.445312 21.28125 -8.0625 C 22.007812 -7.6875 23.007812 -7.5 24.28125 -7.5 L 30.515625 -7.5 C 30.453125 -9.363281 29.878906 -10.851562 28.796875 -11.96875 C 27.710938 -13.082031 26.375 -13.640625 24.78125 -13.640625 C 23.476562 -13.640625 22.382812 -13.296875 21.5 -12.609375 C 20.625 -11.929688 20.1875 -11.054688 20.1875 -9.984375 Z M 28.875 -25.140625 C 28.007812 -25.140625 27.300781 -25.40625 26.75 -25.9375 C 26.195312 -26.46875 25.921875 -27.316406 25.921875 -28.484375 C 25.921875 -29.648438 26.195312 -30.5 26.75 -31.03125 C 27.300781 -31.5625 28.007812 -31.828125 28.875 -31.828125 L 29.875 -31.828125 C 30.738281 -31.828125 31.441406 -31.5625 31.984375 -31.03125 C 32.535156 -30.5 32.8125 -29.648438 32.8125 -28.484375 C 32.8125 -27.316406 32.535156 -26.46875 31.984375 -25.9375 C 31.441406 -25.40625 30.738281 -25.140625 29.875 -25.140625 Z M 20.984375 -25.140625 C 20.109375 -25.140625 19.394531 -25.40625 18.84375 -25.9375 C 18.300781 -26.46875 18.03125 -27.316406 18.03125 -28.484375 C 18.03125 -29.648438 18.300781 -30.5 18.84375 -31.03125 C 19.394531 -31.5625 20.109375 -31.828125 20.984375 -31.828125 L 21.984375 -31.828125 C 22.847656 -31.828125 23.550781 -31.5625 24.09375 -31.03125 C 24.644531 -30.5 24.921875 -29.648438 24.921875 -28.484375 C 24.921875 -27.316406 24.644531 -26.46875 24.09375 -25.9375 C 23.550781 -25.40625 22.847656 -25.140625 21.984375 -25.140625 Z M 20.984375 -25.140625 "/></g></g></g><g fill="#135662" fill-opacity="1"><g transform="translate(411.62372, 80.673818)"><g><path d="M -1.5 -6 L 0 -7.5 L 1.453125 -7.5 C 2.648438 -7.5 3.640625 -7.546875 4.421875 -7.640625 C 5.203125 -7.742188 5.832031 -7.921875 6.3125 -8.171875 C 6.800781 -8.421875 7.132812 -8.734375 7.3125 -9.109375 C 7.5 -9.492188 7.59375 -9.972656 7.59375 -10.546875 C 7.59375 -11.046875 7.550781 -11.6875 7.46875 -12.46875 C 7.382812 -13.25 7.226562 -14.269531 7 -15.53125 L 6.140625 -20.1875 L 11.59375 -21.078125 L 12.34375 -16.4375 C 12.507812 -15.53125 12.640625 -14.523438 12.734375 -13.421875 C 12.835938 -12.328125 12.890625 -11.367188 12.890625 -10.546875 C 12.890625 -6.910156 12 -4.242188 10.21875 -2.546875 C 8.4375 -0.847656 5.515625 0 1.453125 0 L -1.5 0 Z M 11.25 10.734375 C 10.382812 10.734375 9.675781 10.46875 9.125 9.9375 C 8.570312 9.40625 8.296875 8.554688 8.296875 7.390625 C 8.296875 6.222656 8.570312 5.375 9.125 4.84375 C 9.675781 4.3125 10.382812 4.046875 11.25 4.046875 L 12.25 4.046875 C 13.113281 4.046875 13.816406 4.3125 14.359375 4.84375 C 14.910156 5.375 15.1875 6.222656 15.1875 7.390625 C 15.1875 8.554688 14.910156 9.40625 14.359375 9.9375 C 13.816406 10.46875 13.113281 10.734375 12.25 10.734375 Z M 3.359375 10.734375 C 2.484375 10.734375 1.769531 10.46875 1.21875 9.9375 C 0.675781 9.40625 0.40625 8.554688 0.40625 7.390625 C 0.40625 6.222656 0.675781 5.375 1.21875 4.84375 C 1.769531 4.3125 2.484375 4.046875 3.359375 4.046875 L 4.359375 4.046875 C 5.222656 4.046875 5.925781 4.3125 6.46875 4.84375 C 7.019531 5.375 7.296875 6.222656 7.296875 7.390625 C 7.296875 8.554688 7.019531 9.40625 6.46875 9.9375 C 5.925781 10.46875 5.222656 10.734375 4.359375 10.734375 Z M 3.359375 10.734375 "/></g></g></g><g fill="#135662" fill-opacity="1"><g transform="translate(432.001658, 80.673818)"><g><path d="M -3 4.5 L -1 4.5 C 2.03125 4.5 4.253906 3.878906 5.671875 2.640625 C 7.085938 1.410156 7.78125 -0.632812 7.75 -3.5 C 7.75 -4.257812 7.695312 -5.0625 7.59375 -5.90625 C 7.488281 -6.757812 7.351562 -7.671875 7.1875 -8.640625 L 6.140625 -15.28125 L 11.59375 -16.140625 L 12.34375 -11.484375 C 12.46875 -10.753906 12.570312 -10.054688 12.65625 -9.390625 C 12.738281 -8.722656 12.816406 -8.09375 12.890625 -7.5 L 17.484375 -7.5 L 17.484375 -1.5 L 15.984375 0 L 12.890625 0 C 12.316406 3.695312 10.859375 6.617188 8.515625 8.765625 C 6.171875 10.910156 3.015625 11.984375 -0.953125 11.984375 L -3 11.984375 Z M -3 4.5 "/></g></g></g><g fill="#135662" fill-opacity="1"><g transform="translate(449.482445, 80.673818)"><g><path d="M -1.5 -6 L 0 -7.5 L 9.6875 -7.5 C 10.820312 -7.5 11.863281 -7.5625 12.8125 -7.6875 C 13.757812 -7.820312 14.554688 -8.054688 15.203125 -8.390625 C 15.859375 -8.722656 16.367188 -9.171875 16.734375 -9.734375 C 17.097656 -10.304688 17.28125 -11.023438 17.28125 -11.890625 L 17.28125 -14.1875 L 16.984375 -14.1875 C 16.015625 -11.550781 13.800781 -10.234375 10.34375 -10.234375 C 7.644531 -10.234375 5.535156 -10.941406 4.015625 -12.359375 C 2.503906 -13.773438 1.75 -15.734375 1.75 -18.234375 C 1.75 -19.960938 2.003906 -21.566406 2.515625 -23.046875 C 3.035156 -24.535156 3.753906 -25.816406 4.671875 -26.890625 C 5.585938 -27.972656 6.671875 -28.820312 7.921875 -29.4375 C 9.171875 -30.0625 10.523438 -30.375 11.984375 -30.375 C 15.253906 -30.375 17.796875 -29.003906 19.609375 -26.265625 C 21.421875 -23.535156 22.328125 -19.742188 22.328125 -14.890625 C 22.328125 -11.859375 22.0625 -9.375 21.53125 -7.4375 C 21 -5.507812 20.207031 -3.992188 19.15625 -2.890625 C 18.101562 -1.796875 16.785156 -1.039062 15.203125 -0.625 C 13.628906 -0.207031 11.789062 0 9.6875 0 L -1.5 0 Z M 11.890625 -16.734375 C 13.148438 -16.734375 14.210938 -16.789062 15.078125 -16.90625 C 15.953125 -17.019531 16.65625 -17.210938 17.1875 -17.484375 C 16.988281 -19.117188 16.347656 -20.425781 15.265625 -21.40625 C 14.179688 -22.382812 12.875 -22.875 11.34375 -22.875 C 10.039062 -22.875 8.945312 -22.53125 8.0625 -21.84375 C 7.1875 -21.164062 6.75 -20.296875 6.75 -19.234375 C 6.75 -18.335938 7.113281 -17.695312 7.84375 -17.3125 C 8.570312 -16.925781 9.570312 -16.734375 10.84375 -16.734375 Z M 11.5 -34.375 C 10.625 -34.375 9.910156 -34.640625 9.359375 -35.171875 C 8.816406 -35.703125 8.546875 -36.550781 8.546875 -37.71875 C 8.546875 -38.882812 8.816406 -39.734375 9.359375 -40.265625 C 9.910156 -40.796875 10.625 -41.0625 11.5 -41.0625 L 12.5 -41.0625 C 13.363281 -41.0625 14.066406 -40.796875 14.609375 -40.265625 C 15.160156 -39.734375 15.4375 -38.882812 15.4375 -37.71875 C 15.4375 -36.550781 15.160156 -35.703125 14.609375 -35.171875 C 14.066406 -34.640625 13.363281 -34.375 12.5 -34.375 Z M 11.5 -34.375 "/></g></g></g><g fill="#135662" fill-opacity="1"><g transform="translate(473.555978, 80.673818)"><g/></g></g><g fill="#135662" fill-opacity="1"><g transform="translate(485.343019, 80.673818)"><g><path d="M 17.28125 11.984375 C 12.15625 11.984375 8.285156 10.789062 5.671875 8.40625 C 3.054688 6.03125 1.75 2.660156 1.75 -1.703125 C 1.75 -3.203125 1.957031 -4.890625 2.375 -6.765625 C 2.789062 -8.648438 3.363281 -10.472656 4.09375 -12.234375 L 8.890625 -10.84375 C 8.222656 -9.40625 7.695312 -7.953125 7.3125 -6.484375 C 6.9375 -5.023438 6.75 -3.765625 6.75 -2.703125 C 6.75 -0.597656 7.492188 1.023438 8.984375 2.171875 C 10.484375 3.316406 12.582031 3.890625 15.28125 3.890625 L 19.28125 3.890625 C 22.113281 3.890625 24.195312 3.238281 25.53125 1.9375 C 26.863281 0.644531 27.53125 -1.378906 27.53125 -4.140625 C 27.53125 -4.910156 27.445312 -5.894531 27.28125 -7.09375 C 27.113281 -8.289062 26.910156 -9.421875 26.671875 -10.484375 L 25.671875 -15.140625 L 31.078125 -16.1875 L 32.015625 -11.59375 C 32.148438 -10.988281 32.265625 -10.328125 32.359375 -9.609375 C 32.460938 -8.898438 32.550781 -8.195312 32.625 -7.5 L 37.109375 -7.5 L 37.109375 -1.5 L 35.609375 0 L 32.515625 0 C 31.953125 4.09375 30.429688 7.113281 27.953125 9.0625 C 25.472656 11.007812 21.914062 11.984375 17.28125 11.984375 Z M 16.796875 -14.890625 C 15.921875 -14.890625 15.207031 -15.15625 14.65625 -15.6875 C 14.113281 -16.21875 13.84375 -17.066406 13.84375 -18.234375 C 13.84375 -19.398438 14.113281 -20.25 14.65625 -20.78125 C 15.207031 -21.3125 15.921875 -21.578125 16.796875 -21.578125 L 17.796875 -21.578125 C 18.660156 -21.578125 19.363281 -21.3125 19.90625 -20.78125 C 20.457031 -20.25 20.734375 -19.398438 20.734375 -18.234375 C 20.734375 -17.066406 20.457031 -16.21875 19.90625 -15.6875 C 19.363281 -15.15625 18.660156 -14.890625 17.796875 -14.890625 Z M 16.796875 -14.890625 "/></g></g></g><g fill="#135662" fill-opacity="1"><g transform="translate(522.452223, 80.673818)"><g><path d="M -1.5 -6 L 0 -7.5 L 4 -7.5 L 4 -7.75 C 3.332031 -8.707031 2.820312 -9.734375 2.46875 -10.828125 C 2.125 -11.929688 1.953125 -13.117188 1.953125 -14.390625 C 1.953125 -16.015625 2.242188 -17.539062 2.828125 -18.96875 C 3.410156 -20.40625 4.207031 -21.664062 5.21875 -22.75 C 6.238281 -23.832031 7.4375 -24.679688 8.8125 -25.296875 C 10.195312 -25.910156 11.707031 -26.21875 13.34375 -26.21875 C 16.039062 -26.21875 18.238281 -25.664062 19.9375 -24.5625 C 21.632812 -23.46875 23.046875 -21.972656 24.171875 -20.078125 L 18.828125 -15.328125 C 18.097656 -16.492188 17.25 -17.351562 16.28125 -17.90625 C 15.320312 -18.457031 14.175781 -18.734375 12.84375 -18.734375 C 10.976562 -18.734375 9.523438 -18.359375 8.484375 -17.609375 C 7.453125 -16.859375 6.9375 -15.785156 6.9375 -14.390625 C 6.9375 -12.691406 7.648438 -11.382812 9.078125 -10.46875 C 10.515625 -9.550781 12.535156 -9.09375 15.140625 -9.09375 C 16.003906 -9.09375 16.914062 -9.15625 17.875 -9.28125 C 18.84375 -9.414062 19.726562 -9.601562 20.53125 -9.84375 L 25.375 -11.1875 L 27.28125 -4.453125 L 19.9375 -2.203125 C 18.5 -1.765625 17.113281 -1.40625 15.78125 -1.125 C 14.445312 -0.84375 12.976562 -0.617188 11.375 -0.453125 C 9.78125 -0.285156 7.953125 -0.164062 5.890625 -0.09375 C 3.828125 -0.03125 1.363281 0 -1.5 0 Z M -1.5 -6 "/></g></g></g><g fill="#135662" fill-opacity="1"><g transform="translate(550.920931, 80.673818)"><g/></g></g><g fill="#135662" fill-opacity="1"><g transform="translate(562.707972, 80.673818)"><g><path d="M 21.53125 0.59375 C 17.894531 0.59375 14.835938 0.394531 12.359375 0 C 9.878906 -0.394531 7.875 -1.050781 6.34375 -1.96875 C 4.8125 -2.882812 3.703125 -4.078125 3.015625 -5.546875 C 2.335938 -7.015625 2 -8.828125 2 -10.984375 C 2 -12.316406 2.171875 -13.78125 2.515625 -15.375 C 2.867188 -16.976562 3.363281 -18.5625 4 -20.125 L 8.796875 -18.734375 C 8.222656 -17.597656 7.78125 -16.503906 7.46875 -15.453125 C 7.15625 -14.410156 7 -13.472656 7 -12.640625 C 7 -11.671875 7.195312 -10.859375 7.59375 -10.203125 C 7.988281 -9.554688 8.632812 -9.035156 9.53125 -8.640625 C 10.4375 -8.242188 11.617188 -7.953125 13.078125 -7.765625 C 14.546875 -7.585938 16.363281 -7.5 18.53125 -7.5 L 25.53125 -7.5 C 27.851562 -7.5 29.78125 -7.546875 31.3125 -7.640625 C 32.851562 -7.742188 34.054688 -7.925781 34.921875 -8.1875 C 35.785156 -8.457031 36.390625 -8.816406 36.734375 -9.265625 C 37.085938 -9.710938 37.265625 -10.285156 37.265625 -10.984375 L 37.265625 -18.140625 L 42.765625 -18.140625 L 42.765625 -10.984375 C 42.765625 -8.660156 44.09375 -7.5 46.75 -7.5 L 48.25 -7.5 L 48.25 -1.5 L 46.75 0 C 44.1875 0 42.1875 -0.539062 40.75 -1.625 C 39.320312 -2.707031 38.378906 -4.414062 37.921875 -6.75 L 37.609375 -6.75 C 37.347656 -5.382812 36.863281 -4.234375 36.15625 -3.296875 C 35.457031 -2.359375 34.476562 -1.597656 33.21875 -1.015625 C 31.957031 -0.441406 30.367188 -0.03125 28.453125 0.21875 C 26.535156 0.46875 24.226562 0.59375 21.53125 0.59375 Z M 25.4375 -18.140625 C 24.570312 -18.140625 23.863281 -18.40625 23.3125 -18.9375 C 22.757812 -19.46875 22.484375 -20.316406 22.484375 -21.484375 C 22.484375 -22.648438 22.757812 -23.5 23.3125 -24.03125 C 23.863281 -24.5625 24.570312 -24.828125 25.4375 -24.828125 L 26.4375 -24.828125 C 27.300781 -24.828125 28.003906 -24.5625 28.546875 -24.03125 C 29.097656 -23.5 29.375 -22.648438 29.375 -21.484375 C 29.375 -20.316406 29.097656 -19.46875 28.546875 -18.9375 C 28.003906 -18.40625 27.300781 -18.140625 26.4375 -18.140625 Z M 17.546875 -18.140625 C 16.671875 -18.140625 15.957031 -18.40625 15.40625 -18.9375 C 14.863281 -19.46875 14.59375 -20.316406 14.59375 -21.484375 C 14.59375 -22.648438 14.863281 -23.5 15.40625 -24.03125 C 15.957031 -24.5625 16.671875 -24.828125 17.546875 -24.828125 L 18.546875 -24.828125 C 19.410156 -24.828125 20.113281 -24.5625 20.65625 -24.03125 C 21.207031 -23.5 21.484375 -22.648438 21.484375 -21.484375 C 21.484375 -20.316406 21.207031 -19.46875 20.65625 -18.9375 C 20.113281 -18.40625 19.410156 -18.140625 18.546875 -18.140625 Z M 21.484375 -25.421875 C 20.617188 -25.421875 19.910156 -25.6875 19.359375 -26.21875 C 18.816406 -26.757812 18.546875 -27.609375 18.546875 -28.765625 C 18.546875 -29.929688 18.816406 -30.78125 19.359375 -31.3125 C 19.910156 -31.851562 20.617188 -32.125 21.484375 -32.125 L 22.484375 -32.125 C 23.347656 -32.125 24.054688 -31.851562 24.609375 -31.3125 C 25.160156 -30.78125 25.4375 -29.929688 25.4375 -28.765625 C 25.4375 -27.609375 25.160156 -26.757812 24.609375 -26.21875 C 24.054688 -25.6875 23.347656 -25.421875 22.484375 -25.421875 Z M 21.484375 -25.421875 "/></g></g></g><g fill="#135662" fill-opacity="1"><g transform="translate(610.95492, 80.673818)"><g><path d="M -1.5 -6 L 0 -7.5 L 3.453125 -7.5 C 5.316406 -7.5 6.988281 -7.519531 8.46875 -7.5625 C 9.945312 -7.613281 11.351562 -7.738281 12.6875 -7.9375 C 14.019531 -8.144531 15.316406 -8.445312 16.578125 -8.84375 C 17.847656 -9.238281 19.195312 -9.785156 20.625 -10.484375 L 22.484375 -11.390625 L 22.484375 -11.640625 L 14.484375 -13.34375 L 6.9375 -15.1875 L 6.9375 -11.4375 L 1.203125 -11.4375 L 1.203125 -15.28125 C 1.203125 -17.644531 1.707031 -19.375 2.71875 -20.46875 C 3.738281 -21.570312 5.296875 -22.125 7.390625 -22.125 C 7.660156 -22.125 7.9375 -22.109375 8.21875 -22.078125 C 8.5 -22.046875 8.832031 -21.992188 9.21875 -21.921875 C 9.601562 -21.859375 10.0625 -21.757812 10.59375 -21.625 C 11.125 -21.5 11.789062 -21.332031 12.59375 -21.125 L 22.234375 -18.625 C 23.566406 -18.257812 25 -17.976562 26.53125 -17.78125 C 28.0625 -17.582031 29.578125 -17.484375 31.078125 -17.484375 L 32.0625 -17.484375 L 32.0625 -9.984375 L 28.578125 -9.984375 C 28.609375 -9.054688 28.878906 -8.410156 29.390625 -8.046875 C 29.910156 -7.679688 30.800781 -7.5 32.0625 -7.5 L 33.5625 -7.5 L 33.5625 -1.5 L 32.0625 0 C 29.570312 -0.03125 27.632812 -0.601562 26.25 -1.71875 C 24.863281 -2.832031 24.003906 -4.570312 23.671875 -6.9375 L 23.484375 -6.796875 C 21.285156 -5.296875 19.3125 -4.101562 17.5625 -3.21875 C 15.8125 -2.332031 14.148438 -1.648438 12.578125 -1.171875 C 11.015625 -0.691406 9.5 -0.375 8.03125 -0.21875 C 6.570312 -0.0703125 5.046875 0 3.453125 0 L -1.5 0 Z M -1.5 -6 "/></g></g></g><g fill="#135662" fill-opacity="1"><g transform="translate(644.518042, 80.673818)"><g><path d="M -1.5 -6 L 0 -7.5 L 1.5 -7.5 C 4.164062 -7.5 5.5 -8.660156 5.5 -10.984375 L 5.5 -18.140625 L 10.984375 -18.140625 L 10.984375 -10.984375 C 10.984375 -8.660156 12.148438 -7.5 14.484375 -7.5 L 16.484375 -7.5 L 16.484375 -1.5 L 14.984375 0 C 12.316406 0 10.289062 -0.539062 8.90625 -1.625 C 7.53125 -2.707031 6.609375 -4.414062 6.140625 -6.75 L 5.84375 -6.75 C 5.375 -4.414062 4.570312 -2.707031 3.4375 -1.625 C 2.3125 -0.539062 0.664062 0 -1.5 0 Z M 7.75 10.734375 C 6.875 10.734375 6.160156 10.46875 5.609375 9.9375 C 5.066406 9.40625 4.796875 8.554688 4.796875 7.390625 C 4.796875 6.222656 5.066406 5.375 5.609375 4.84375 C 6.160156 4.3125 6.875 4.046875 7.75 4.046875 L 8.75 4.046875 C 9.613281 4.046875 10.316406 4.3125 10.859375 4.84375 C 11.410156 5.375 11.6875 6.222656 11.6875 7.390625 C 11.6875 8.554688 11.410156 9.40625 10.859375 9.9375 C 10.316406 10.46875 9.613281 10.734375 8.75 10.734375 Z M 7.75 10.734375 "/></g></g></g><g fill="#135662" fill-opacity="1"><g transform="translate(660.999914, 80.673818)"><g><path d="M -1.5 -6 L 0 -7.5 L 1.453125 -7.5 C 2.648438 -7.5 3.640625 -7.546875 4.421875 -7.640625 C 5.203125 -7.742188 5.832031 -7.921875 6.3125 -8.171875 C 6.800781 -8.421875 7.132812 -8.734375 7.3125 -9.109375 C 7.5 -9.492188 7.59375 -9.972656 7.59375 -10.546875 C 7.59375 -11.046875 7.550781 -11.6875 7.46875 -12.46875 C 7.382812 -13.25 7.226562 -14.269531 7 -15.53125 L 6.140625 -20.1875 L 11.59375 -21.078125 L 12.34375 -16.4375 C 12.507812 -15.53125 12.640625 -14.523438 12.734375 -13.421875 C 12.835938 -12.328125 12.890625 -11.367188 12.890625 -10.546875 C 12.890625 -6.910156 12 -4.242188 10.21875 -2.546875 C 8.4375 -0.847656 5.515625 0 1.453125 0 L -1.5 0 Z M 11.546875 -25.078125 C 10.679688 -25.078125 9.972656 -25.34375 9.421875 -25.875 C 8.867188 -26.40625 8.59375 -27.253906 8.59375 -28.421875 C 8.59375 -29.585938 8.867188 -30.4375 9.421875 -30.96875 C 9.972656 -31.5 10.679688 -31.765625 11.546875 -31.765625 L 12.546875 -31.765625 C 13.410156 -31.765625 14.113281 -31.5 14.65625 -30.96875 C 15.207031 -30.4375 15.484375 -29.585938 15.484375 -28.421875 C 15.484375 -27.253906 15.207031 -26.40625 14.65625 -25.875 C 14.113281 -25.34375 13.410156 -25.078125 12.546875 -25.078125 Z M 3.65625 -25.078125 C 2.78125 -25.078125 2.066406 -25.34375 1.515625 -25.875 C 0.972656 -26.40625 0.703125 -27.253906 0.703125 -28.421875 C 0.703125 -29.585938 0.972656 -30.4375 1.515625 -30.96875 C 2.066406 -31.5 2.78125 -31.765625 3.65625 -31.765625 L 4.65625 -31.765625 C 5.519531 -31.765625 6.222656 -31.5 6.765625 -30.96875 C 7.316406 -30.4375 7.59375 -29.585938 7.59375 -28.421875 C 7.59375 -27.253906 7.316406 -26.40625 6.765625 -25.875 C 6.222656 -25.34375 5.519531 -25.078125 4.65625 -25.078125 Z M 3.65625 -25.078125 "/></g></g></g></svg>