<svg xmlns="http://www.w3.org/2000/svg" xmlns:xlink="http://www.w3.org/1999/xlink" width="481" zoomAndPan="magnify" viewBox="0 0 360.75 234.749995" height="313" preserveAspectRatio="xMidYMid meet" version="1.0"><defs><g/><clipPath id="91dca43f87"><path d="M 140 64 L 155.902344 64 L 155.902344 83 L 140 83 Z M 140 64 " clip-rule="nonzero"/></clipPath><clipPath id="b8700b0d94"><path d="M 13 193 L 22.542969 193 L 22.542969 198.28125 L 13 198.28125 Z M 13 193 " clip-rule="nonzero"/></clipPath><clipPath id="d6144447e6"><path d="M 0.0664062 173.558594 L 22.542969 173.558594 L 22.542969 197 L 0.0664062 197 Z M 0.0664062 173.558594 " clip-rule="nonzero"/></clipPath><clipPath id="f589677460"><path d="M 219 193 L 229.410156 193 L 229.410156 198.28125 L 219 198.28125 Z M 219 193 " clip-rule="nonzero"/></clipPath><clipPath id="a996289a38"><path d="M 206.933594 173.558594 L 229.410156 173.558594 L 229.410156 197 L 206.933594 197 Z M 206.933594 173.558594 " clip-rule="nonzero"/></clipPath></defs><path fill="#c8c96b" d="M 36.265625 112.625 C 36.773438 114.71875 32.6875 115.71875 31.105469 115.460938 C 26.9375 115.265625 23.066406 113.496094 19.910156 110.824219 C 18.480469 109.382812 15.796875 106.960938 17.332031 104.832031 C 18.261719 103.960938 19.652344 104.167969 20.832031 104.085938 C 23.898438 103.691406 26.675781 105.234375 29.390625 106.441406 C 31.820312 107.632812 33.9375 109.234375 35.75 111.242188 C 36.070312 111.609375 36.464844 112.105469 36.265625 112.625 Z M 36.265625 112.625 " fill-opacity="1" fill-rule="nonzero"/><path fill="#c8c96b" d="M 48.964844 121.601562 C 50.183594 121.933594 50.949219 123.363281 50.265625 124.492188 C 48.589844 126.808594 45.496094 127.683594 42.742188 127.679688 C 38.660156 127.566406 34.390625 126.570312 31.242188 123.820312 C 29.789062 122.828125 28.375 120.078125 30.648438 119.203125 C 32.542969 118.007812 34.746094 117.875 36.941406 118.027344 C 41.230469 118.269531 45.238281 119.460938 48.964844 121.601562 Z M 48.964844 121.601562 " fill-opacity="1" fill-rule="nonzero"/><path fill="#c8c96b" d="M 63.722656 127.792969 C 63.882812 127.917969 64.03125 128.058594 64.160156 128.214844 C 64.292969 128.371094 64.40625 128.539062 64.503906 128.71875 C 64.597656 128.898438 64.675781 129.085938 64.730469 129.285156 C 64.785156 129.480469 64.820312 129.679688 64.832031 129.882812 C 64.847656 130.085938 64.839844 130.289062 64.808594 130.492188 C 64.777344 130.691406 64.726562 130.890625 64.65625 131.082031 C 64.582031 131.273438 64.492188 131.453125 64.382812 131.625 C 64.273438 131.796875 64.144531 131.953125 64 132.097656 C 61.117188 134.777344 56.742188 134.550781 53.101562 134.578125 C 50.511719 134.382812 44.582031 133.609375 45.734375 129.871094 C 47.851562 127.019531 56.050781 126 59.414062 126.441406 C 60.878906 126.757812 62.453125 126.960938 63.722656 127.792969 Z M 63.722656 127.792969 " fill-opacity="1" fill-rule="nonzero"/><path fill="#c8c96b" d="M 70.058594 119.640625 C 70.328125 121.902344 69.863281 125.839844 66.855469 125.660156 C 66.523438 125.929688 66.078125 125.78125 65.75 125.578125 C 63.5 124.144531 61.835938 121.867188 60.601562 119.53125 C 59.355469 117.09375 55.546875 107.324219 60.933594 107.9375 C 64.25 108.472656 69.824219 116.324219 70.058594 119.640625 Z M 70.058594 119.640625 " fill-opacity="1" fill-rule="nonzero"/><path fill="#c8c96b" d="M 41.804688 90.800781 C 45.328125 92.558594 44.949219 98.160156 44.898438 101.507812 C 44.679688 104.875 44.488281 110.359375 40.015625 110.273438 C 34.691406 109.015625 34.066406 87.4375 41.804688 90.800781 Z M 41.804688 90.800781 " fill-opacity="1" fill-rule="nonzero"/><path fill="#c8c96b" d="M 33.570312 76.320312 C 36.769531 76.652344 36.976562 82.730469 36.664062 85.195312 C 35.769531 89.285156 34.921875 96.207031 29.746094 96.699219 C 29.429688 96.671875 29.152344 96.550781 28.917969 96.339844 C 28.054688 96.390625 27.972656 95.199219 27.792969 94.613281 C 25.644531 88.8125 28.011719 79.375 33.570312 76.320312 Z M 33.570312 76.320312 " fill-opacity="1" fill-rule="nonzero"/><path fill="#c8c96b" d="M 19.71875 80.335938 C 20.027344 82.59375 17.335938 83.515625 15.550781 82.890625 C 10.824219 81.617188 8.023438 77.046875 5.675781 73.078125 C 4.488281 70.917969 3.824219 67.738281 5.449219 65.65625 C 6.367188 64.964844 7.691406 65.332031 8.683594 65.628906 C 9.4375 65.875 10.308594 66.09375 10.964844 66.535156 C 13.460938 67.902344 15.730469 69.992188 17.007812 72.539062 C 18.296875 75.003906 19.203125 77.605469 19.71875 80.335938 Z M 19.71875 80.335938 " fill-opacity="1" fill-rule="nonzero"/><path fill="#c8c96b" d="M 32.59375 63.15625 C 35.296875 66.382812 32.925781 72.214844 31.023438 75.414062 C 29.242188 77.367188 27.015625 80.144531 24.097656 79.546875 C 22.964844 79.332031 22.261719 78.316406 22.058594 77.226562 C 21.773438 77.007812 21.671875 76.726562 21.75 76.375 C 21.671875 72.097656 24.289062 68.425781 27.328125 65.636719 C 28.714844 64.683594 30.800781 62.035156 32.59375 63.15625 Z M 32.59375 63.15625 " fill-opacity="1" fill-rule="nonzero"/><path fill="#c8c96b" d="M 17.863281 55.605469 C 18.3125 57.519531 19.519531 64.132812 16.324219 63.921875 C 12.101562 62.929688 9.441406 57.296875 8.933594 53.324219 C 8.503906 49.488281 10.898438 47.9375 14.253906 49.835938 C 16.210938 51.085938 17.449219 53.375 17.863281 55.605469 Z M 17.863281 55.605469 " fill-opacity="1" fill-rule="nonzero"/><path fill="#c8c96b" d="M 18 34.210938 C 20.75 36.480469 22.496094 40 22.09375 43.605469 C 21.816406 45.492188 21.484375 49.214844 18.761719 48.542969 C 17.066406 47.878906 16.039062 46.238281 15.082031 44.785156 C 13.648438 42.503906 12.808594 39.707031 13.734375 37.074219 C 14.164062 35.339844 16.085938 33.117188 18 34.210938 Z M 18 34.210938 " fill-opacity="1" fill-rule="nonzero"/><path fill="#c8c96b" d="M 36.023438 40.175781 C 36.816406 40.554688 36.953125 41.757812 36.890625 42.464844 C 36.835938 44.925781 34.980469 46.828125 33.203125 48.320312 C 31.175781 49.414062 28.605469 51.511719 26.304688 50.003906 C 24.121094 49.457031 25.691406 46.472656 26.605469 45.367188 C 28.71875 42.773438 32.378906 39.050781 36.023438 40.175781 Z M 36.023438 40.175781 " fill-opacity="1" fill-rule="nonzero"/><path fill="#c8c96b" d="M 26.488281 22.035156 C 30.316406 23.691406 30.585938 29.785156 29.027344 33.046875 C 28.546875 33.808594 28.257812 35.742188 27.125 35.585938 C 26.90625 35.703125 26.671875 35.753906 26.425781 35.738281 C 21.222656 34.65625 20.503906 22.160156 26.488281 22.035156 Z M 26.488281 22.035156 " fill-opacity="1" fill-rule="nonzero"/><path fill="#c8c96b" d="M 34.4375 10.316406 C 39.050781 11.238281 38.324219 18.265625 37.339844 21.703125 C 37.066406 23.105469 36.265625 24.914062 34.640625 25.015625 C 34.503906 24.996094 34.371094 24.949219 34.253906 24.871094 C 32.664062 24.953125 31.761719 19.996094 31.492188 18.679688 C 31.042969 16.484375 31.300781 14.378906 32.265625 12.359375 C 32.640625 11.335938 33.277344 10.34375 34.4375 10.316406 Z M 34.4375 10.316406 " fill-opacity="1" fill-rule="nonzero"/><path fill="#c8c96b" d="M 52.1875 19.613281 C 56.402344 20.203125 50.953125 24.164062 49.496094 25.023438 C 46.675781 26.679688 43.457031 27.984375 40.136719 27.71875 C 39.660156 27.691406 38.941406 27.589844 38.785156 27.054688 C 38.75 26.929688 38.742188 26.800781 38.753906 26.667969 C 37.335938 24.871094 42.035156 22.03125 43.320312 21.386719 C 46.019531 19.882812 49.09375 18.953125 52.1875 19.613281 Z M 52.1875 19.613281 " fill-opacity="1" fill-rule="nonzero"/><path fill="#c8c96b" d="M 43.203125 29.105469 C 46.097656 32.625 34.5625 39.96875 31.847656 37.988281 C 31.613281 37.726562 31.484375 37.417969 31.457031 37.066406 C 30.628906 35.792969 32.726562 33.785156 33.488281 32.8125 C 35.671875 30.621094 40.109375 26.917969 43.203125 29.105469 Z M 43.203125 29.105469 " fill-opacity="1" fill-rule="nonzero"/><path fill="#c8c96b" d="M 30.152344 51.441406 C 34.585938 50.847656 31.476562 58.121094 30.152344 59.886719 C 28.65625 61.957031 26.40625 64.320312 23.691406 64.195312 C 20.089844 63.457031 23.359375 58.085938 24.300781 56.199219 C 24.925781 55.054688 25.746094 54.070312 26.757812 53.246094 C 27.769531 52.421875 28.902344 51.820312 30.152344 51.441406 Z M 30.152344 51.441406 " fill-opacity="1" fill-rule="nonzero"/><path fill="#c8c96b" d="M 26.171875 96.691406 C 26.972656 99.671875 23.316406 100.976562 20.941406 100.476562 C 17.855469 100.222656 15.117188 98.847656 12.738281 96.921875 C 10.910156 95.375 8.855469 93.636719 8.222656 91.226562 C 8.078125 89.554688 8.261719 87.523438 9.71875 86.445312 C 11.941406 85.453125 14.761719 86.027344 16.933594 86.988281 C 19.667969 88.273438 21.707031 90.632812 23.660156 92.867188 C 24.542969 94.066406 25.84375 95.191406 26.171875 96.691406 Z M 26.171875 96.691406 " fill-opacity="1" fill-rule="nonzero"/><path fill="#c8c96b" d="M 56.230469 113.589844 C 56.464844 115.726562 56.5625 118.316406 54.9375 119.957031 C 54.835938 120.085938 54.710938 120.191406 54.570312 120.269531 C 54.425781 120.351562 54.273438 120.402344 54.109375 120.421875 C 53.945312 120.445312 53.785156 120.433594 53.625 120.394531 C 53.464844 120.351562 53.320312 120.28125 53.1875 120.183594 L 53.054688 120.097656 C 53.042969 120.09375 53.035156 120.085938 53.027344 120.078125 C 50.425781 119.75 46.769531 112.152344 46.5625 109.695312 C 46.351562 107.398438 46.230469 99.691406 49.796875 100.335938 C 54.6875 102.136719 55.191406 109.164062 56.230469 113.589844 Z M 56.230469 113.589844 " fill-opacity="1" fill-rule="nonzero"/><path fill="#c8c96b" d="M 86.160156 127.761719 C 86.960938 131.972656 81.9375 135.144531 78.167969 134.089844 C 76.554688 133.59375 75.515625 132.101562 74.675781 130.738281 C 74.238281 130.214844 73.902344 129.632812 73.664062 128.992188 C 72.875 129.144531 71.757812 128.894531 71.167969 128.941406 C 63.761719 127.808594 56.820312 124.472656 50.070312 121.324219 C 41.832031 116.578125 35.023438 109.753906 29.585938 102.007812 C 24.734375 95.136719 21.949219 86.851562 20.054688 78.734375 C 17.261719 65.601562 18.933594 51.574219 25.730469 39.90625 C 29.804688 32.839844 34.519531 26.015625 40.082031 20.050781 C 41.476562 18.644531 42.894531 17.269531 44.261719 15.835938 C 44.433594 15.6875 44.632812 15.625 44.859375 15.644531 C 45.082031 15.664062 45.269531 15.761719 45.414062 15.9375 C 45.582031 16.097656 45.671875 16.292969 45.6875 16.523438 C 45.703125 16.753906 45.640625 16.960938 45.496094 17.140625 C 44.027344 18.699219 42.476562 20.179688 40.996094 21.722656 C 37.203125 25.65625 34.183594 30.238281 30.984375 34.65625 C 25.511719 42.9375 21.15625 52.136719 20.6875 62.179688 C 19.726562 74.285156 22.925781 86.519531 28.402344 97.191406 C 32.765625 104.351562 38.339844 111.066406 45.105469 115.992188 C 50.714844 120.277344 57.371094 122.804688 63.953125 125.148438 C 66.953125 126.097656 69.957031 126.957031 73.089844 127.042969 C 73.089844 127.027344 73.089844 127.015625 73.089844 127 C 73.023438 123.46875 76.671875 120.421875 80.128906 120.816406 C 83.621094 120.824219 85.585938 124.746094 86.160156 127.761719 Z M 86.160156 127.761719 " fill-opacity="1" fill-rule="nonzero"/><path fill="#c8c96b" d="M 86.785156 128.132812 L 86.785156 126.25 C 86.929688 126.238281 87.070312 126.210938 87.203125 126.160156 C 90.1875 126.015625 93.0625 125.1875 95.9375 124.277344 C 102.507812 121.941406 109.183594 119.398438 114.785156 115.121094 C 121.554688 110.195312 127.125 103.484375 131.484375 96.324219 C 136.863281 85.648438 140.066406 73.417969 139.101562 61.324219 C 138.632812 51.28125 134.285156 42.089844 128.800781 33.796875 C 125.609375 29.378906 122.589844 24.792969 118.792969 20.878906 C 117.308594 19.335938 115.761719 17.855469 114.292969 16.296875 C 114.152344 16.117188 114.085938 15.910156 114.101562 15.679688 C 114.117188 15.449219 114.210938 15.253906 114.378906 15.09375 C 114.519531 14.914062 114.707031 14.816406 114.933594 14.796875 C 115.160156 14.777344 115.359375 14.84375 115.53125 14.992188 C 116.894531 16.421875 118.316406 17.800781 119.707031 19.203125 C 125.285156 25.164062 129.972656 31.988281 134.058594 39.054688 C 140.855469 50.726562 142.53125 64.75 139.730469 77.882812 C 137.84375 86.007812 135.054688 94.289062 130.203125 101.15625 C 124.769531 108.902344 117.949219 115.730469 109.722656 120.472656 C 102.972656 123.628906 96.03125 126.960938 88.621094 128.089844 C 88.289062 128.078125 87.960938 128.09375 87.628906 128.132812 C 87.351562 128.160156 87.054688 128.183594 86.769531 128.1875 Z M 86.785156 128.132812 " fill-opacity="1" fill-rule="nonzero"/><path fill="#c8c96b" d="M 123.523438 111.753906 C 123.328125 111.234375 123.722656 110.742188 124.042969 110.363281 C 125.851562 108.355469 127.972656 106.753906 130.398438 105.558594 C 133.109375 104.351562 135.894531 102.8125 138.953125 103.203125 C 140.128906 103.273438 141.53125 103.082031 142.457031 103.949219 C 143.996094 106.082031 141.308594 108.503906 139.878906 109.945312 C 136.722656 112.625 132.851562 114.394531 128.6875 114.582031 C 128.5 114.609375 128.3125 114.625 128.125 114.625 C 126.308594 114.648438 123.066406 113.632812 123.523438 111.753906 Z M 123.523438 111.753906 " fill-opacity="1" fill-rule="nonzero"/><path fill="#c8c96b" d="M 117.03125 126.804688 C 114.28125 126.804688 111.195312 125.925781 109.523438 123.617188 C 108.828125 122.492188 109.609375 121.066406 110.824219 120.726562 C 114.550781 118.585938 118.5625 117.394531 122.855469 117.15625 C 125.042969 117.003906 127.246094 117.136719 129.148438 118.332031 C 131.421875 119.210938 130.007812 121.972656 128.558594 122.949219 C 125.402344 125.6875 121.136719 126.691406 117.050781 126.804688 Z M 117.03125 126.804688 " fill-opacity="1" fill-rule="nonzero"/><path fill="#c8c96b" d="M 95.792969 131.242188 C 95.648438 131.097656 95.523438 130.9375 95.414062 130.765625 C 95.300781 130.59375 95.210938 130.414062 95.140625 130.222656 C 95.066406 130.03125 95.015625 129.835938 94.988281 129.632812 C 94.957031 129.433594 94.949219 129.230469 94.960938 129.027344 C 94.976562 128.820312 95.007812 128.621094 95.066406 128.425781 C 95.121094 128.230469 95.195312 128.042969 95.292969 127.859375 C 95.386719 127.679688 95.5 127.511719 95.632812 127.355469 C 95.765625 127.199219 95.910156 127.058594 96.070312 126.933594 C 97.339844 126.105469 98.917969 125.898438 100.378906 125.59375 C 103.738281 125.152344 111.941406 126.171875 114.054688 129.023438 C 115.207031 132.761719 109.28125 133.53125 106.691406 133.726562 C 103.050781 133.6875 98.675781 133.921875 95.792969 131.242188 Z M 95.792969 131.242188 " fill-opacity="1" fill-rule="nonzero"/><path fill="#c8c96b" d="M 92.9375 124.789062 C 89.929688 124.972656 89.464844 121.03125 89.738281 118.769531 C 89.96875 115.457031 95.546875 107.605469 98.875 107.074219 C 104.25 106.457031 100.441406 116.226562 99.207031 118.667969 C 97.976562 121.011719 96.308594 123.285156 94.0625 124.714844 C 93.855469 124.855469 93.628906 124.933594 93.382812 124.949219 C 93.214844 124.953125 93.066406 124.898438 92.9375 124.789062 Z M 92.9375 124.789062 " fill-opacity="1" fill-rule="nonzero"/><path fill="#c8c96b" d="M 114.898438 100.652344 C 114.847656 97.300781 114.46875 91.707031 117.996094 89.941406 C 125.722656 86.566406 125.097656 108.140625 119.78125 109.414062 L 119.675781 109.414062 C 115.308594 109.417969 115.117188 103.996094 114.898438 100.652344 Z M 114.898438 100.652344 " fill-opacity="1" fill-rule="nonzero"/><path fill="#c8c96b" d="M 123.125 84.328125 C 122.8125 81.859375 123.023438 75.78125 126.222656 75.453125 C 131.78125 78.503906 134.144531 87.957031 131.996094 93.742188 C 131.820312 94.328125 131.738281 95.523438 130.871094 95.46875 C 130.636719 95.679688 130.359375 95.800781 130.042969 95.828125 C 124.871094 95.339844 124.023438 88.417969 123.125 84.328125 Z M 123.125 84.328125 " fill-opacity="1" fill-rule="nonzero"/><g clip-path="url(#91dca43f87)"><path fill="#c8c96b" d="M 140.074219 79.464844 C 140.589844 76.738281 141.496094 74.144531 142.789062 71.6875 C 144.066406 69.140625 146.335938 67.050781 148.832031 65.679688 C 149.496094 65.238281 150.359375 65.019531 151.113281 64.773438 C 152.105469 64.460938 153.429688 64.089844 154.339844 64.773438 C 155.96875 66.855469 155.300781 70.035156 154.113281 72.191406 C 151.773438 76.167969 148.964844 80.730469 144.238281 82.011719 C 143.859375 82.140625 143.464844 82.203125 143.0625 82.203125 C 141.476562 82.214844 139.824219 81.261719 140.074219 79.464844 Z M 140.074219 79.464844 " fill-opacity="1" fill-rule="nonzero"/></g><path fill="#c8c96b" d="M 128.769531 74.53125 C 126.851562 71.34375 124.492188 65.511719 127.195312 62.277344 C 128.992188 61.152344 131.078125 63.804688 132.464844 64.753906 C 135.503906 67.53125 138.121094 71.21875 138.042969 75.496094 C 138.121094 75.84375 138.015625 76.128906 137.730469 76.347656 C 137.53125 77.425781 136.824219 78.441406 135.691406 78.664062 C 135.425781 78.71875 135.15625 78.746094 134.882812 78.746094 C 132.351562 78.746094 130.378906 76.304688 128.769531 74.53125 Z M 128.769531 74.53125 " fill-opacity="1" fill-rule="nonzero"/><path fill="#c8c96b" d="M 141.925781 54.734375 C 142.339844 52.5 143.582031 50.214844 145.535156 48.976562 C 148.890625 47.082031 151.289062 48.648438 150.855469 52.464844 C 150.351562 56.441406 147.683594 62.070312 143.46875 63.066406 L 143.320312 63.066406 C 140.320312 63.058594 141.5 56.621094 141.925781 54.734375 Z M 141.925781 54.734375 " fill-opacity="1" fill-rule="nonzero"/><path fill="#c8c96b" d="M 137.695312 42.734375 C 137.289062 39.132812 139.035156 35.609375 141.789062 33.34375 C 143.699219 32.25 145.625 34.472656 146.054688 36.203125 C 146.980469 38.851562 146.136719 41.632812 144.710938 43.914062 C 143.75 45.371094 142.722656 47.015625 141.027344 47.671875 C 140.824219 47.726562 140.617188 47.753906 140.40625 47.757812 C 138.25 47.742188 137.945312 44.46875 137.695312 42.734375 Z M 137.695312 42.734375 " fill-opacity="1" fill-rule="nonzero"/><path fill="#c8c96b" d="M 126.597656 47.453125 C 124.820312 45.960938 122.96875 44.054688 122.914062 41.597656 C 122.847656 40.890625 122.984375 39.6875 123.777344 39.308594 C 127.421875 38.183594 131.082031 41.898438 133.195312 44.492188 C 134.109375 45.601562 135.679688 48.589844 133.5 49.128906 C 132.964844 49.480469 132.382812 49.65625 131.742188 49.652344 C 129.9375 49.660156 128.105469 48.273438 126.597656 47.453125 Z M 126.597656 47.453125 " fill-opacity="1" fill-rule="nonzero"/><path fill="#c8c96b" d="M 133.292969 34.867188 C 133.070312 34.871094 132.863281 34.820312 132.667969 34.714844 C 131.535156 34.875 131.242188 32.941406 130.761719 32.179688 C 129.203125 28.917969 129.472656 22.808594 133.304688 21.167969 C 139.285156 21.292969 138.566406 33.789062 133.367188 34.867188 Z M 133.292969 34.867188 " fill-opacity="1" fill-rule="nonzero"/><path fill="#c8c96b" d="M 122.453125 20.816406 C 121.457031 17.382812 120.738281 10.351562 125.355469 9.429688 C 126.511719 9.472656 127.148438 10.464844 127.523438 11.472656 C 128.488281 13.492188 128.746094 15.597656 128.296875 17.792969 C 128.03125 19.117188 127.125 24.066406 125.535156 23.984375 C 125.417969 24.0625 125.289062 24.109375 125.148438 24.128906 C 123.527344 24.027344 122.722656 22.214844 122.453125 20.816406 Z M 122.453125 20.816406 " fill-opacity="1" fill-rule="nonzero"/><path fill="#c8c96b" d="M 110.289062 24.152344 C 108.835938 23.292969 103.386719 19.335938 107.601562 18.746094 C 110.683594 18.082031 113.769531 19.015625 116.472656 20.503906 C 117.757812 21.144531 122.453125 23.984375 121.03125 25.785156 C 121.050781 25.914062 121.039062 26.042969 121 26.171875 C 120.847656 26.71875 120.128906 26.832031 119.652344 26.832031 C 119.363281 26.859375 119.070312 26.871094 118.78125 26.871094 C 115.773438 26.875 112.871094 25.652344 110.289062 24.152344 Z M 110.289062 24.152344 " fill-opacity="1" fill-rule="nonzero"/><path fill="#c8c96b" d="M 116.582031 28.234375 C 119.679688 26.050781 124.113281 29.75 126.300781 31.945312 C 127.058594 32.917969 129.160156 34.925781 128.328125 36.199219 C 128.300781 36.550781 128.171875 36.855469 127.941406 37.121094 C 127.554688 37.363281 127.136719 37.476562 126.683594 37.453125 C 122.753906 37.453125 114.011719 31.34375 116.582031 28.234375 Z M 116.582031 28.234375 " fill-opacity="1" fill-rule="nonzero"/><path fill="#c8c96b" d="M 129.648438 59.019531 C 128.324219 57.253906 125.203125 49.976562 129.648438 50.574219 C 130.898438 50.949219 132.03125 51.546875 133.042969 52.367188 C 134.058594 53.1875 134.878906 54.171875 135.503906 55.3125 C 136.464844 57.203125 139.71875 62.574219 136.117188 63.308594 L 135.871094 63.308594 C 133.261719 63.308594 131.097656 61.03125 129.648438 59.019531 Z M 129.648438 59.019531 " fill-opacity="1" fill-rule="nonzero"/><path fill="#c8c96b" d="M 133.617188 95.824219 C 133.949219 94.324219 135.246094 93.199219 136.132812 91.996094 C 138.078125 89.761719 140.105469 87.40625 142.855469 86.121094 C 145.027344 85.160156 147.847656 84.570312 150.070312 85.578125 C 151.527344 86.65625 151.707031 88.6875 151.566406 90.359375 C 150.933594 92.769531 148.875 94.507812 147.046875 96.054688 C 144.671875 97.980469 141.929688 99.367188 138.847656 99.605469 C 138.5 99.679688 138.148438 99.714844 137.792969 99.714844 C 135.539062 99.714844 132.929688 98.390625 133.617188 95.824219 Z M 133.617188 95.824219 " fill-opacity="1" fill-rule="nonzero"/><path fill="#c8c96b" d="M 104.851562 119.089844 C 103.238281 117.433594 103.324219 114.859375 103.5625 112.722656 C 104.601562 108.296875 105.105469 101.269531 109.996094 99.476562 C 113.558594 98.835938 113.445312 106.535156 113.234375 108.835938 C 113.023438 111.296875 109.371094 118.886719 106.765625 119.21875 L 106.738281 119.238281 L 106.605469 119.324219 C 106.402344 119.492188 106.164062 119.578125 105.898438 119.574219 C 105.480469 119.5625 105.128906 119.402344 104.851562 119.089844 Z M 104.851562 119.089844 " fill-opacity="1" fill-rule="nonzero"/><path fill="#c8c96b" d="M 85.703125 128.394531 C 84.773438 128.066406 85.207031 126.914062 86.03125 126.773438 C 87.605469 126.566406 89.152344 126.234375 90.667969 125.78125 C 90.929688 125.699219 91.175781 125.734375 91.402344 125.890625 C 92.816406 127.230469 87.882812 128.457031 86.164062 128.457031 C 86.007812 128.464844 85.851562 128.445312 85.703125 128.394531 Z M 85.703125 128.394531 " fill-opacity="1" fill-rule="nonzero"/><path fill="#c8c96b" d="M 85.660156 126.15625 C 86.808594 126.15625 87.957031 126.15625 89.097656 126.066406 C 89.273438 126.046875 89.429688 126.085938 89.570312 126.191406 C 89.714844 126.292969 89.800781 126.433594 89.832031 126.605469 C 89.835938 126.800781 89.777344 126.972656 89.648438 127.121094 C 89.523438 127.269531 89.363281 127.355469 89.167969 127.378906 C 87.910156 127.46875 86.671875 127.851562 85.410156 127.871094 C 83.832031 127.710938 84.367188 126.03125 85.660156 126.15625 Z M 85.660156 126.15625 " fill-opacity="1" fill-rule="nonzero"/><path fill="#c8c96b" d="M 88.839844 126.6875 C 88.875 125.617188 90.800781 125.433594 90.804688 126.609375 C 90.777344 126.878906 90.65625 127.101562 90.445312 127.269531 C 90.238281 127.441406 90 127.515625 89.730469 127.492188 C 89.613281 127.503906 89.503906 127.492188 89.394531 127.457031 C 89.285156 127.421875 89.1875 127.367188 89.101562 127.289062 C 89.019531 127.210938 88.953125 127.121094 88.90625 127.015625 C 88.859375 126.910156 88.835938 126.800781 88.839844 126.6875 Z M 88.839844 126.6875 " fill-opacity="1" fill-rule="nonzero"/><path fill="#c8c96b" d="M 110.917969 13.71875 C 106.863281 12.304688 102.449219 9.582031 100.902344 5.375 C 100.800781 5.148438 100.726562 4.917969 100.679688 4.679688 C 100.628906 4.4375 100.605469 4.195312 100.609375 3.949219 C 100.613281 3.707031 100.640625 3.464844 100.695312 3.226562 C 100.753906 2.988281 100.832031 2.757812 100.9375 2.535156 C 101.042969 2.3125 101.167969 2.105469 101.320312 1.914062 C 101.46875 1.71875 101.636719 1.542969 101.824219 1.386719 C 102.011719 1.226562 102.214844 1.09375 102.433594 0.980469 C 102.648438 0.863281 102.875 0.777344 103.113281 0.710938 C 104.363281 0.457031 105.660156 1.042969 106.757812 1.585938 C 109.96875 3.800781 113.710938 6.660156 113.871094 10.898438 C 113.871094 12.351562 112.835938 13.765625 111.371094 13.765625 C 111.21875 13.761719 111.070312 13.746094 110.917969 13.71875 Z M 110.917969 13.71875 " fill-opacity="1" fill-rule="nonzero"/><path fill="#c8c96b" d="M 49.707031 14.878906 C 48.585938 14.675781 47.058594 14.125 47.011719 12.789062 C 46.324219 12.101562 47.125 11.164062 47.480469 10.511719 C 49.730469 6.90625 53.019531 4.257812 56.65625 2.1875 C 59.777344 0.125 65.972656 0.53125 63.910156 5.636719 C 61.921875 9.121094 58.613281 11.652344 54.96875 13.171875 C 53.363281 13.832031 51.730469 14.882812 49.945312 14.882812 Z M 49.707031 14.878906 " fill-opacity="1" fill-rule="nonzero"/><path fill="#c8c96b" d="M 99.898438 91.558594 C 100.054688 92.28125 99.898438 93.09375 99.355469 93.246094 C 98.96875 94.140625 97.628906 94.011719 96.882812 94.0625 C 91.558594 94.441406 86.328125 94.726562 81.023438 94.675781 C 77.492188 94.726562 73.707031 94.5 70.234375 94.539062 C 68.054688 94.570312 65.910156 94.835938 63.90625 94.308594 C 62.882812 94.078125 62.777344 92.9375 62.722656 92.070312 C 62.390625 89.75 62.425781 87.390625 62.214844 85.058594 C 62.382812 82.410156 67.097656 83.523438 68.914062 83.359375 C 69.601562 83.5 71.136719 83.214844 72.292969 83.257812 C 72.292969 83.199219 72.292969 83.136719 72.292969 83.074219 C 72.246094 80.453125 72.140625 77.847656 72.277344 75.226562 C 72.003906 67.777344 72.472656 60.320312 72.800781 52.886719 C 70.5625 53.441406 68.035156 53.296875 65.800781 53.472656 C 64.535156 53.523438 62.789062 53.78125 62.453125 52.210938 C 62.015625 50.0625 62.421875 47.847656 62.386719 45.671875 C 62.527344 44.882812 62.140625 43.160156 62.84375 42.625 C 62.808594 42.320312 62.898438 42.054688 63.113281 41.832031 C 65.363281 40.441406 68.292969 40.535156 70.824219 39.84375 C 76.347656 38.886719 81.832031 37.457031 87.425781 37.078125 C 87.613281 37.074219 87.777344 37.132812 87.917969 37.253906 C 88.058594 37.375 88.144531 37.527344 88.171875 37.710938 C 89.257812 38.433594 88.835938 41.683594 89.066406 42.734375 C 89.363281 47.039062 89.324219 51.347656 89.601562 55.652344 C 90.160156 64.011719 90.410156 72.378906 90.347656 80.753906 C 90.242188 81.25 90.332031 82.296875 90.320312 83.28125 C 90.539062 83.273438 90.75 83.25 90.964844 83.214844 C 92.3125 83.117188 93.652344 82.925781 95.007812 82.949219 C 98.394531 82.949219 99.429688 83.699219 99.804688 87.128906 C 99.96875 88.609375 99.8125 90.085938 99.898438 91.558594 Z M 99.898438 91.558594 " fill-opacity="1" fill-rule="nonzero"/><path fill="#ffffff" d="M 75.183594 62.980469 C 75.140625 59.351562 74.960938 55.691406 75.03125 52.085938 C 75.554688 50.308594 77.660156 51.285156 77.230469 52.875 C 77.253906 56.246094 77.058594 59.613281 76.988281 62.980469 C 76.964844 64.351562 75.207031 64.371094 75.183594 62.980469 Z M 75.183594 62.980469 " fill-opacity="1" fill-rule="nonzero"/><path fill="#ffffff" d="M 75.101562 71.492188 C 75.03125 70.253906 74.363281 66.640625 76.664062 67.679688 C 77.660156 68.671875 76.996094 70.25 77.03125 71.492188 C 77.03125 71.757812 76.9375 71.984375 76.746094 72.171875 C 76.558594 72.359375 76.332031 72.453125 76.066406 72.453125 C 75.800781 72.453125 75.574219 72.359375 75.386719 72.171875 C 75.195312 71.984375 75.101562 71.757812 75.101562 71.492188 Z M 75.101562 71.492188 " fill-opacity="1" fill-rule="nonzero"/><path fill="#ffffff" d="M 64.328125 92.148438 C 64.464844 90.492188 66.664062 90.917969 67.714844 90.78125 C 70.210938 90.699219 72.539062 90.59375 75 90.46875 C 75.125 90.449219 75.246094 90.460938 75.363281 90.496094 C 75.484375 90.53125 75.589844 90.589844 75.683594 90.671875 C 75.777344 90.753906 75.847656 90.855469 75.898438 90.96875 C 75.949219 91.082031 75.972656 91.203125 75.96875 91.328125 C 75.941406 91.609375 75.824219 91.847656 75.625 92.046875 C 75.425781 92.246094 75.183594 92.359375 74.902344 92.386719 C 73.277344 92.542969 71.652344 92.699219 70.023438 92.863281 C 68.558594 93.03125 67.070312 92.984375 65.601562 93.140625 C 65.449219 93.183594 65.296875 93.1875 65.140625 93.15625 C 64.984375 93.121094 64.84375 93.058594 64.71875 92.960938 C 64.59375 92.863281 64.5 92.742188 64.429688 92.601562 C 64.359375 92.457031 64.328125 92.308594 64.328125 92.148438 Z M 64.328125 92.148438 " fill-opacity="1" fill-rule="nonzero"/><path fill="#ffffff" d="M 78.082031 91.792969 C 78.082031 90.308594 81.0625 89.941406 81.128906 91.542969 C 81.109375 93.007812 78.117188 93.425781 78.082031 91.792969 Z M 78.082031 91.792969 " fill-opacity="1" fill-rule="nonzero"/><path fill="#a6c2b9" d="M 278.203125 127.679688 C 279.011719 131.941406 273.929688 135.152344 270.113281 134.085938 C 268.476562 133.582031 267.429688 132.070312 266.574219 130.691406 C 266.136719 130.160156 265.800781 129.570312 265.566406 128.921875 C 264.765625 129.078125 263.632812 128.820312 263.035156 128.871094 C 255.539062 127.726562 248.507812 124.34375 241.671875 121.160156 C 233.332031 116.351562 226.4375 109.445312 220.933594 101.601562 C 216.023438 94.640625 213.203125 86.253906 211.28125 78.035156 C 208.4375 64.734375 210.152344 50.53125 217.019531 38.707031 C 221.140625 31.550781 225.902344 24.644531 231.546875 18.601562 C 232.957031 17.183594 234.394531 15.789062 235.777344 14.339844 C 235.953125 14.191406 236.152344 14.125 236.382812 14.144531 C 236.613281 14.164062 236.800781 14.261719 236.945312 14.441406 C 237.113281 14.601562 237.207031 14.800781 237.222656 15.035156 C 237.238281 15.269531 237.175781 15.476562 237.027344 15.660156 C 235.542969 17.238281 233.972656 18.738281 232.472656 20.300781 C 228.632812 24.285156 225.578125 28.929688 222.335938 33.40625 C 216.792969 41.789062 212.382812 51.105469 211.910156 61.273438 C 210.9375 73.53125 214.175781 85.917969 219.71875 96.726562 C 224.136719 103.976562 229.78125 110.773438 236.632812 115.761719 C 242.3125 120.085938 249.066406 122.660156 255.71875 125.03125 C 258.757812 125.992188 261.796875 126.863281 264.96875 126.949219 L 264.96875 126.90625 C 264.898438 123.328125 268.59375 120.242188 272.09375 120.644531 C 275.632812 120.652344 277.621094 124.621094 278.203125 127.679688 Z M 278.203125 127.679688 " fill-opacity="1" fill-rule="nonzero"/><path fill="#a6c2b9" d="M 261.898438 119.453125 C 262.175781 121.742188 261.703125 125.730469 258.65625 125.550781 C 258.320312 125.820312 257.867188 125.671875 257.535156 125.460938 C 255.257812 124.011719 253.570312 121.710938 252.324219 119.339844 C 251.0625 116.875 247.207031 106.984375 252.660156 107.605469 C 256.015625 108.148438 261.660156 116.09375 261.898438 119.453125 Z M 261.898438 119.453125 " fill-opacity="1" fill-rule="nonzero"/><path fill="#a6c2b9" d="M 247.898438 113.328125 C 248.140625 115.492188 248.234375 118.109375 246.59375 119.773438 C 246.125 120.269531 245.378906 120.464844 244.816406 120.003906 L 244.679688 119.917969 L 244.65625 119.898438 C 242.019531 119.5625 238.324219 111.875 238.109375 109.382812 C 237.894531 107.058594 237.773438 99.257812 241.386719 99.90625 C 246.335938 101.730469 246.84375 108.847656 247.898438 113.328125 Z M 247.898438 113.328125 " fill-opacity="1" fill-rule="nonzero"/><path fill="#a6c2b9" d="M 233.292969 90.265625 C 236.859375 92.046875 236.476562 97.71875 236.425781 101.109375 C 236.203125 104.519531 236.007812 110.070312 231.480469 109.980469 C 226.089844 108.691406 225.457031 86.847656 233.292969 90.265625 Z M 233.292969 90.265625 " fill-opacity="1" fill-rule="nonzero"/><path fill="#a6c2b9" d="M 224.953125 75.597656 C 228.191406 75.933594 228.402344 82.085938 228.085938 84.585938 C 227.179688 88.726562 226.320312 95.734375 221.082031 96.230469 C 220.761719 96.203125 220.480469 96.082031 220.242188 95.867188 C 219.367188 95.921875 219.285156 94.710938 219.105469 94.117188 C 216.929688 88.253906 219.324219 78.683594 224.953125 75.597656 Z M 224.953125 75.597656 " fill-opacity="1" fill-rule="nonzero"/><path fill="#a6c2b9" d="M 223.96875 62.261719 C 226.703125 65.53125 224.304688 71.433594 222.375 74.671875 C 220.574219 76.648438 218.320312 79.464844 215.363281 78.855469 C 214.21875 78.640625 213.503906 77.613281 213.296875 76.507812 C 213.011719 76.289062 212.90625 76 212.988281 75.648438 C 212.90625 71.316406 215.554688 67.597656 218.632812 64.773438 C 220.039062 63.808594 222.152344 61.125 223.96875 62.261719 Z M 223.96875 62.261719 " fill-opacity="1" fill-rule="nonzero"/><path fill="#a6c2b9" d="M 221.492188 50.402344 C 225.980469 49.796875 222.832031 57.164062 221.492188 58.953125 C 219.980469 61.050781 217.699219 63.441406 214.953125 63.296875 C 211.304688 62.550781 214.617188 57.113281 215.570312 55.199219 C 216.207031 54.042969 217.035156 53.050781 218.058594 52.21875 C 219.085938 51.386719 220.226562 50.78125 221.492188 50.402344 Z M 221.492188 50.402344 " fill-opacity="1" fill-rule="nonzero"/><path fill="#a6c2b9" d="M 227.4375 38.992188 C 228.238281 39.378906 228.378906 40.59375 228.316406 41.3125 C 228.257812 43.800781 226.382812 45.730469 224.582031 47.238281 C 222.535156 48.347656 219.929688 50.472656 217.597656 48.945312 C 215.382812 48.394531 216.976562 45.367188 217.902344 44.25 C 220.042969 41.613281 223.75 37.855469 227.4375 38.992188 Z M 227.4375 38.992188 " fill-opacity="1" fill-rule="nonzero"/><path fill="#a6c2b9" d="M 243.804688 18.171875 C 248.070312 18.769531 242.554688 22.78125 241.078125 23.648438 C 238.222656 25.328125 234.964844 26.667969 231.601562 26.378906 C 231.121094 26.351562 230.390625 26.25 230.238281 25.707031 C 230.199219 25.582031 230.1875 25.453125 230.203125 25.320312 C 228.765625 23.5 233.523438 20.625 234.824219 19.972656 C 237.5625 18.449219 240.671875 17.507812 243.804688 18.171875 Z M 243.804688 18.171875 " fill-opacity="1" fill-rule="nonzero"/><path fill="#a6c2b9" d="M 225.832031 8.742188 C 230.503906 9.679688 229.769531 16.792969 228.773438 20.273438 C 228.492188 21.691406 227.683594 23.523438 226.039062 23.625 C 225.898438 23.609375 225.765625 23.558594 225.644531 23.480469 C 224.035156 23.5625 223.121094 18.546875 222.847656 17.210938 C 222.394531 14.988281 222.65625 12.855469 223.632812 10.8125 C 224.011719 9.792969 224.65625 8.785156 225.832031 8.742188 Z M 225.832031 8.742188 " fill-opacity="1" fill-rule="nonzero"/><path fill="#a6c2b9" d="M 217.785156 20.625 C 221.660156 22.300781 221.9375 28.472656 220.355469 31.777344 C 219.867188 32.546875 219.578125 34.503906 218.425781 34.34375 C 218.203125 34.460938 217.96875 34.511719 217.71875 34.5 C 212.453125 33.40625 211.726562 20.753906 217.785156 20.625 Z M 217.785156 20.625 " fill-opacity="1" fill-rule="nonzero"/><path fill="#a6c2b9" d="M 209.054688 54.617188 C 209.503906 56.554688 210.730469 63.253906 207.488281 63.039062 C 203.222656 62.03125 200.519531 56.332031 200.007812 52.304688 C 199.570312 48.421875 202 46.851562 205.398438 48.773438 C 207.375 50.039062 208.628906 52.351562 209.054688 54.617188 Z M 209.054688 54.617188 " fill-opacity="1" fill-rule="nonzero"/><path fill="#a6c2b9" d="M 210.925781 79.660156 C 211.242188 81.941406 208.515625 82.875 206.707031 82.242188 C 201.921875 80.960938 199.085938 76.328125 196.710938 72.308594 C 195.507812 70.121094 194.835938 66.902344 196.480469 64.796875 C 197.398438 64.085938 198.734375 64.460938 199.75 64.796875 C 200.511719 65.046875 201.394531 65.269531 202.058594 65.714844 C 204.585938 67.097656 206.882812 69.214844 208.175781 71.792969 C 209.488281 74.277344 210.402344 76.898438 210.925781 79.660156 Z M 210.925781 79.660156 " fill-opacity="1" fill-rule="nonzero"/><path fill="#a6c2b9" d="M 217.464844 96.21875 C 218.273438 99.238281 214.570312 100.558594 212.164062 100.050781 C 209.042969 99.792969 206.269531 98.402344 203.863281 96.449219 C 202.011719 94.882812 199.925781 93.121094 199.289062 90.683594 C 199.144531 88.992188 199.328125 86.9375 200.804688 85.84375 C 203.054688 84.835938 205.910156 85.417969 208.109375 86.390625 C 210.878906 87.695312 212.941406 90.082031 214.917969 92.34375 C 215.8125 93.558594 217.136719 94.710938 217.464844 96.21875 Z M 217.464844 96.21875 " fill-opacity="1" fill-rule="nonzero"/><path fill="#a6c2b9" d="M 240.539062 121.4375 C 241.773438 121.773438 242.550781 123.222656 241.859375 124.363281 C 240.179688 126.710938 237.027344 127.59375 234.242188 127.589844 C 230.105469 127.472656 225.789062 126.457031 222.59375 123.6875 C 221.125 122.683594 219.695312 119.898438 221.996094 118.992188 C 223.914062 117.785156 226.144531 117.652344 228.367188 117.808594 C 232.710938 118.054688 236.769531 119.261719 240.539062 121.4375 Z M 240.539062 121.4375 " fill-opacity="1" fill-rule="nonzero"/><path fill="#a6c2b9" d="M 255.484375 127.707031 C 255.648438 127.835938 255.796875 127.976562 255.929688 128.136719 C 256.0625 128.292969 256.175781 128.464844 256.273438 128.644531 C 256.371094 128.828125 256.449219 129.019531 256.503906 129.21875 C 256.5625 129.417969 256.597656 129.617188 256.609375 129.824219 C 256.621094 130.03125 256.613281 130.238281 256.582031 130.441406 C 256.554688 130.644531 256.5 130.84375 256.429688 131.039062 C 256.355469 131.230469 256.265625 131.414062 256.152344 131.589844 C 256.039062 131.761719 255.910156 131.921875 255.765625 132.070312 C 252.84375 134.78125 248.414062 134.550781 244.726562 134.578125 C 242.105469 134.375 236.101562 133.597656 237.269531 129.8125 C 239.414062 126.925781 247.714844 125.894531 251.125 126.339844 C 252.601562 126.65625 254.199219 126.867188 255.484375 127.707031 Z M 255.484375 127.707031 " fill-opacity="1" fill-rule="nonzero"/><path fill="#a6c2b9" d="M 227.683594 112.347656 C 228.203125 114.46875 224.058594 115.484375 222.457031 115.222656 C 218.238281 115.027344 214.316406 113.210938 211.121094 110.527344 C 209.675781 109.074219 206.957031 106.617188 208.511719 104.460938 C 209.453125 103.578125 210.859375 103.789062 212.0625 103.707031 C 215.160156 103.308594 217.976562 104.871094 220.722656 106.089844 C 223.179688 107.300781 225.324219 108.921875 227.160156 110.953125 C 227.484375 111.324219 227.882812 111.816406 227.683594 112.347656 Z M 227.683594 112.347656 " fill-opacity="1" fill-rule="nonzero"/><path fill="#a6c2b9" d="M 209.191406 32.957031 C 211.972656 35.253906 213.746094 38.816406 213.332031 42.464844 C 213.054688 44.378906 212.71875 48.148438 209.957031 47.464844 C 208.246094 46.792969 207.203125 45.117188 206.230469 43.660156 C 204.785156 41.351562 203.933594 38.519531 204.867188 35.851562 C 205.308594 34.097656 207.25 31.847656 209.191406 32.957031 Z M 209.191406 32.957031 " fill-opacity="1" fill-rule="nonzero"/><path fill="#a6c2b9" d="M 234.710938 27.78125 C 237.640625 31.347656 225.957031 38.785156 223.210938 36.777344 C 222.976562 36.511719 222.84375 36.203125 222.816406 35.847656 C 221.972656 34.554688 224.101562 32.523438 224.871094 31.539062 C 227.082031 29.316406 231.574219 25.570312 234.710938 27.78125 Z M 234.710938 27.78125 " fill-opacity="1" fill-rule="nonzero"/><path fill="#a6c2b9" d="M 307.613281 10.171875 C 307.664062 11.667969 306.46875 13.085938 304.882812 12.738281 C 304.710938 12.804688 304.535156 12.828125 304.351562 12.808594 C 302.53125 12.371094 300.871094 11.585938 299.375 10.457031 C 297.878906 9.328125 296.671875 7.949219 295.753906 6.316406 C 293.976562 2.960938 295.234375 0.0820312 299.285156 0.5625 C 303.308594 1.640625 307.675781 5.867188 307.613281 10.171875 Z M 307.613281 10.171875 " fill-opacity="1" fill-rule="nonzero"/><path fill="#a6c2b9" d="M 249.292969 1.910156 C 256.671875 2.289062 254.445312 7.3125 250.296875 10.660156 C 247.160156 12.96875 243.234375 14.917969 239.261719 14.550781 C 235.289062 13.9375 237.789062 10.035156 239.328125 8.179688 C 240.632812 6.652344 242.132812 5.355469 243.832031 4.285156 C 245.53125 3.214844 247.351562 2.421875 249.292969 1.910156 Z M 249.292969 1.910156 " fill-opacity="1" fill-rule="nonzero"/><path fill="#a6c2b9" d="M 347.238281 63.914062 C 348.882812 66.019531 348.210938 69.242188 347.007812 71.425781 C 344.640625 75.449219 341.796875 80.070312 337.007812 81.367188 C 336.625 81.496094 336.226562 81.5625 335.820312 81.558594 C 334.214844 81.558594 332.539062 80.59375 332.800781 78.777344 C 333.324219 76.011719 334.238281 73.386719 335.550781 70.898438 C 336.84375 68.320312 339.144531 66.203125 341.671875 64.820312 C 342.34375 64.371094 343.21875 64.148438 343.980469 63.898438 C 344.984375 63.582031 346.308594 63.207031 347.238281 63.914062 Z M 347.238281 63.914062 " fill-opacity="1" fill-rule="nonzero"/><path fill="#a6c2b9" d="M 338.320312 47.90625 C 341.71875 45.988281 344.144531 47.554688 343.710938 51.441406 C 343.195312 55.464844 340.496094 61.167969 336.226562 62.171875 L 336.078125 62.171875 C 333.058594 62.171875 334.21875 55.652344 334.664062 53.742188 C 335.089844 51.472656 336.34375 49.160156 338.320312 47.90625 Z M 338.320312 47.90625 " fill-opacity="1" fill-rule="nonzero"/><path fill="#a6c2b9" d="M 342.910156 84.960938 C 344.390625 86.058594 344.589844 88.109375 344.429688 89.804688 C 343.789062 92.246094 341.707031 94.003906 339.855469 95.566406 C 337.449219 97.519531 334.675781 98.921875 331.554688 99.167969 C 331.199219 99.242188 330.84375 99.28125 330.480469 99.277344 C 328.199219 99.277344 325.558594 97.933594 326.253906 95.339844 C 326.589844 93.820312 327.90625 92.679688 328.800781 91.464844 C 330.773438 89.203125 332.824219 86.816406 335.609375 85.515625 C 337.808594 84.542969 340.660156 83.945312 342.910156 84.960938 Z M 342.910156 84.960938 " fill-opacity="1" fill-rule="nonzero"/><path fill="#a6c2b9" d="M 321.722656 118.128906 C 324.023438 119.019531 322.59375 121.816406 321.125 122.824219 C 317.929688 125.59375 313.613281 126.605469 309.476562 126.722656 L 309.457031 126.722656 C 306.671875 126.722656 303.550781 125.835938 301.859375 123.492188 C 301.15625 122.351562 301.945312 120.910156 303.179688 120.574219 C 306.953125 118.402344 311.015625 117.195312 315.363281 116.953125 C 317.570312 116.785156 319.816406 116.917969 321.722656 118.128906 Z M 321.722656 118.128906 " fill-opacity="1" fill-rule="nonzero"/><path fill="#a6c2b9" d="M 302.332031 99.027344 C 305.941406 98.375 305.828125 106.171875 305.613281 108.5 C 305.398438 110.992188 301.703125 118.675781 299.066406 119.015625 L 299.039062 119.015625 L 298.90625 119.105469 C 298.695312 119.277344 298.457031 119.363281 298.183594 119.363281 C 297.761719 119.351562 297.410156 119.1875 297.128906 118.871094 C 295.496094 117.195312 295.582031 114.589844 295.824219 112.429688 C 296.875 107.96875 297.382812 100.851562 302.332031 99.027344 Z M 302.332031 99.027344 " fill-opacity="1" fill-rule="nonzero"/><path fill="#a6c2b9" d="M 318.765625 74.707031 C 324.394531 77.800781 326.789062 87.371094 324.613281 93.230469 C 324.433594 93.824219 324.351562 95.035156 323.472656 94.980469 C 323.234375 95.195312 322.957031 95.316406 322.636719 95.34375 C 317.398438 94.851562 316.539062 87.835938 315.628906 83.699219 C 315.316406 81.199219 315.527344 75.046875 318.765625 74.707031 Z M 318.765625 74.707031 " fill-opacity="1" fill-rule="nonzero"/><path fill="#a6c2b9" d="M 328.15625 54.320312 C 329.128906 56.230469 332.421875 61.671875 328.777344 62.414062 L 328.542969 62.414062 C 325.898438 62.414062 323.703125 60.101562 322.238281 58.054688 C 320.894531 56.265625 317.738281 48.902344 322.238281 49.507812 C 323.5 49.890625 324.644531 50.496094 325.671875 51.332031 C 326.695312 52.164062 327.523438 53.160156 328.15625 54.320312 Z M 328.15625 54.320312 " fill-opacity="1" fill-rule="nonzero"/><path fill="#a6c2b9" d="M 318.847656 30.660156 C 319.617188 31.648438 321.742188 33.675781 320.902344 34.96875 C 320.875 35.324219 320.742188 35.636719 320.507812 35.902344 C 320.117188 36.152344 319.695312 36.265625 319.230469 36.238281 C 315.253906 36.238281 306.417969 30.058594 309.007812 26.90625 C 312.144531 24.6875 316.636719 28.4375 318.847656 30.660156 Z M 318.847656 30.660156 " fill-opacity="1" fill-rule="nonzero"/><path fill="#a6c2b9" d="M 330.730469 74.769531 C 330.8125 75.121094 330.707031 75.40625 330.417969 75.628906 C 330.214844 76.722656 329.5 77.746094 328.355469 77.976562 C 328.082031 78.03125 327.808594 78.0625 327.53125 78.0625 C 324.976562 78.0625 322.976562 75.582031 321.339844 73.789062 C 319.402344 70.5625 317.015625 64.660156 319.75 61.382812 C 321.566406 60.246094 323.679688 62.925781 325.085938 63.894531 C 328.164062 66.703125 330.8125 70.4375 330.730469 74.769531 Z M 330.730469 74.769531 " fill-opacity="1" fill-rule="nonzero"/><path fill="#a6c2b9" d="M 335.207031 103.566406 C 336.761719 105.726562 334.042969 108.175781 332.597656 109.636719 C 329.402344 112.347656 325.480469 114.144531 321.261719 114.332031 C 321.074219 114.359375 320.882812 114.375 320.695312 114.371094 C 318.851562 114.371094 315.570312 113.367188 316.035156 111.457031 C 315.835938 110.925781 316.234375 110.429688 316.558594 110.046875 C 318.394531 108.015625 320.539062 106.390625 322.996094 105.183594 C 325.742188 103.960938 328.558594 102.402344 331.65625 102.796875 C 332.847656 102.882812 334.265625 102.6875 335.207031 103.566406 Z M 335.207031 103.566406 " fill-opacity="1" fill-rule="nonzero"/><path fill="#a6c2b9" d="M 310.425781 89.382812 C 318.253906 85.964844 317.621094 107.8125 312.238281 109.101562 L 312.128906 109.101562 C 307.707031 109.101562 307.515625 103.609375 307.292969 100.222656 C 307.253906 96.835938 306.871094 91.164062 310.425781 89.382812 Z M 310.425781 89.382812 " fill-opacity="1" fill-rule="nonzero"/><path fill="#a6c2b9" d="M 291.070312 106.730469 C 296.515625 106.105469 292.660156 115.996094 291.40625 118.46875 C 290.160156 120.839844 288.472656 123.144531 286.195312 124.59375 C 285.996094 124.734375 285.769531 124.8125 285.523438 124.828125 C 285.363281 124.832031 285.214844 124.78125 285.089844 124.675781 C 282.039062 124.863281 281.570312 120.875 281.847656 118.582031 C 282.058594 115.214844 287.703125 107.269531 291.070312 106.730469 Z M 291.070312 106.730469 " fill-opacity="1" fill-rule="nonzero"/><path fill="#a6c2b9" d="M 306.449219 128.941406 C 307.617188 132.726562 301.613281 133.507812 298.988281 133.707031 C 295.300781 133.679688 290.875 133.914062 287.953125 131.199219 C 287.808594 131.054688 287.679688 130.894531 287.566406 130.71875 C 287.453125 130.546875 287.363281 130.363281 287.289062 130.167969 C 287.214844 129.976562 287.164062 129.777344 287.136719 129.574219 C 287.105469 129.367188 287.097656 129.164062 287.109375 128.957031 C 287.121094 128.75 287.15625 128.546875 287.214844 128.347656 C 287.269531 128.148438 287.347656 127.960938 287.445312 127.777344 C 287.542969 127.59375 287.65625 127.425781 287.789062 127.265625 C 287.921875 127.109375 288.070312 126.964844 288.234375 126.839844 C 289.519531 126 291.117188 125.789062 292.59375 125.5 C 296.003906 125.023438 304.304688 126.050781 306.449219 128.941406 Z M 306.449219 128.941406 " fill-opacity="1" fill-rule="nonzero"/><path fill="#a6c2b9" d="M 325.816406 43.363281 C 326.742188 44.484375 328.332031 47.515625 326.121094 48.058594 C 325.582031 48.417969 324.992188 48.597656 324.347656 48.59375 C 322.527344 48.59375 320.675781 47.183594 319.136719 46.351562 C 317.335938 44.84375 315.445312 42.917969 315.402344 40.429688 C 315.339844 39.707031 315.480469 38.488281 316.28125 38.105469 C 319.96875 36.972656 323.675781 40.734375 325.816406 43.363281 Z M 325.816406 43.363281 " fill-opacity="1" fill-rule="nonzero"/><path fill="#a6c2b9" d="M 338.851562 34.976562 C 339.785156 37.640625 338.933594 40.46875 337.484375 42.777344 C 336.515625 44.253906 335.472656 45.921875 333.761719 46.585938 C 333.554688 46.640625 333.34375 46.667969 333.132812 46.667969 C 330.945312 46.667969 330.640625 43.34375 330.386719 41.585938 C 329.972656 37.9375 331.746094 34.371094 334.527344 32.078125 C 336.464844 30.96875 338.410156 33.21875 338.851562 34.976562 Z M 338.851562 34.976562 " fill-opacity="1" fill-rule="nonzero"/><path fill="#a6c2b9" d="M 325.933594 19.742188 C 331.992188 19.875 331.265625 32.523438 326 33.621094 L 325.929688 33.621094 C 325.703125 33.621094 325.492188 33.570312 325.292969 33.460938 C 324.140625 33.625 323.851562 31.664062 323.363281 30.890625 C 321.78125 27.589844 322.058594 21.40625 325.933594 19.742188 Z M 325.933594 19.742188 " fill-opacity="1" fill-rule="nonzero"/><path fill="#a6c2b9" d="M 320.085938 9.929688 C 321.0625 11.976562 321.324219 14.109375 320.867188 16.328125 C 320.597656 17.671875 319.679688 22.679688 318.070312 22.601562 C 317.953125 22.675781 317.820312 22.726562 317.679688 22.746094 C 316.035156 22.644531 315.226562 20.808594 314.945312 19.394531 C 313.941406 15.917969 313.214844 8.804688 317.886719 7.863281 C 319.0625 7.90625 319.707031 8.914062 320.085938 9.929688 Z M 320.085938 9.929688 " fill-opacity="1" fill-rule="nonzero"/><path fill="#a6c2b9" d="M 308.894531 19.078125 C 310.195312 19.722656 314.953125 22.601562 313.515625 24.425781 C 313.53125 24.554688 313.519531 24.6875 313.480469 24.8125 C 313.328125 25.367188 312.597656 25.484375 312.117188 25.484375 C 311.820312 25.507812 311.527344 25.519531 311.238281 25.519531 C 308.183594 25.519531 305.246094 24.277344 302.636719 22.757812 C 301.164062 21.890625 295.644531 17.878906 299.910156 17.28125 C 303.046875 16.625 306.15625 17.578125 308.894531 19.078125 Z M 308.894531 19.078125 " fill-opacity="1" fill-rule="nonzero"/><path fill="#a6c2b9" d="M 326.699219 37.835938 C 333.582031 49.652344 335.277344 63.851562 332.449219 77.148438 C 330.535156 85.375 327.710938 93.761719 322.796875 100.714844 C 317.292969 108.558594 310.390625 115.472656 302.058594 120.273438 C 295.25 123.460938 288.246094 126.824219 280.765625 127.988281 C 279.449219 128.324219 278.109375 128.472656 277.75 128.324219 C 277.457031 128.246094 277.285156 128.058594 277.230469 127.757812 C 275.90625 127.484375 276.449219 125.933594 277.707031 126.054688 C 278.261719 126.054688 278.8125 126.054688 279.359375 126.054688 C 280.070312 126.011719 280.773438 125.9375 281.46875 125.832031 C 281.679688 125.726562 281.902344 125.6875 282.136719 125.714844 C 284.128906 125.320312 286.082031 124.800781 288.007812 124.160156 C 294.660156 121.792969 301.421875 119.21875 307.09375 114.886719 C 313.945312 109.902344 319.585938 103.105469 324 95.855469 C 329.542969 85.046875 332.789062 72.664062 331.8125 60.40625 C 331.339844 50.238281 326.933594 40.929688 321.386719 32.535156 C 318.148438 28.058594 315.09375 23.417969 311.246094 19.453125 C 309.75 17.890625 308.179688 16.390625 306.691406 14.816406 C 306.546875 14.632812 306.484375 14.421875 306.5 14.191406 C 306.515625 13.957031 306.609375 13.757812 306.777344 13.59375 C 306.921875 13.417969 307.109375 13.316406 307.339844 13.296875 C 307.570312 13.277344 307.769531 13.34375 307.945312 13.496094 C 309.324219 14.941406 310.765625 16.339844 312.171875 17.757812 C 317.804688 23.777344 322.578125 30.679688 326.699219 37.835938 Z M 326.699219 37.835938 " fill-opacity="1" fill-rule="nonzero"/><path fill="#a6c2b9" d="M 290.777344 52.792969 C 291.78125 58.449219 288.171875 63.890625 283.734375 67.238281 C 282.039062 68.578125 280.234375 69.746094 278.316406 70.746094 C 275.679688 72.453125 273.007812 74.121094 270.304688 75.710938 C 273.859375 75.609375 277.402344 75.359375 280.957031 75.402344 C 280.777344 70.28125 280.777344 71 285.730469 70.722656 C 286.988281 70.785156 288.234375 70.449219 289.460938 70.699219 C 289.535156 70.734375 289.597656 70.777344 289.652344 70.835938 C 290.050781 70.96875 290.324219 71.5625 290.269531 72.121094 C 290.0625 77.875 289.558594 83.605469 288.753906 89.308594 C 288.726562 91.207031 286.828125 91.472656 285.316406 91.367188 C 284.375 91.441406 283.320312 91.542969 282.417969 91.5625 C 282.269531 91.5625 282.113281 91.5625 281.960938 91.5625 C 281.804688 91.5625 281.625 91.5625 281.449219 91.539062 L 281.492188 91.539062 C 280.421875 91.539062 280.105469 90.285156 280.265625 89.28125 C 278.472656 89.308594 276.683594 89.371094 274.902344 89.453125 C 266.691406 89.929688 258.546875 90.082031 250.390625 89.992188 C 249.550781 89.902344 248.628906 90.03125 247.832031 89.78125 C 247.683594 89.785156 247.542969 89.746094 247.414062 89.660156 C 246.605469 88.808594 246.859375 87.316406 246.8125 86.207031 C 247.007812 84.171875 246.957031 82.375 247.25 80.417969 C 247.292969 80.171875 247.417969 79.980469 247.625 79.839844 C 248.296875 78.46875 251.453125 77.050781 252.222656 76.222656 C 256.871094 72.839844 261.675781 69.628906 265.972656 65.804688 C 270.023438 62.351562 278.824219 54.960938 273.035156 49.628906 C 269.5625 46.03125 263.765625 46.332031 259.808594 48.960938 C 257.84375 50.816406 257.09375 53.773438 257.28125 56.40625 C 257.28125 56.410156 257.28125 56.417969 257.28125 56.425781 C 257.382812 56.9375 257.367188 57.445312 257.230469 57.949219 C 257.171875 58.234375 257.03125 58.46875 256.800781 58.644531 C 256.570312 58.824219 256.308594 58.90625 256.019531 58.890625 C 253.109375 59.082031 250.265625 59.355469 247.394531 59.664062 L 247.46875 59.664062 C 246.796875 59.734375 246.515625 59.226562 246.558594 58.707031 C 246.464844 58.378906 246.402344 58.042969 246.371094 57.703125 C 246.140625 55.332031 245.9375 52.925781 246.496094 50.597656 C 248.296875 43.34375 252.613281 39.027344 259.621094 36.695312 C 259.710938 36.652344 259.804688 36.640625 259.898438 36.65625 C 266.507812 34.515625 274.320312 34.035156 280.226562 38.019531 C 285.804688 40.902344 290.050781 46.597656 290.777344 52.792969 Z M 290.777344 52.792969 " fill-opacity="1" fill-rule="nonzero"/><path fill="#ffffff" d="M 280.285156 61.609375 C 279.644531 60.9375 280.070312 60.039062 280.570312 59.4375 C 281.566406 57.90625 282.386719 56.289062 283.03125 54.582031 C 284.371094 51.136719 282.515625 44.621094 278.746094 43.417969 C 277.148438 43.417969 277.582031 40.597656 279.082031 41.042969 C 282.355469 41.628906 284.085938 44.8125 284.984375 47.726562 C 286.429688 51.324219 285.699219 55.265625 283.742188 58.519531 C 283.019531 59.429688 281.703125 62.820312 280.285156 61.609375 Z M 280.285156 61.609375 " fill-opacity="1" fill-rule="nonzero"/><path fill="#ffffff" d="M 275.191406 67.289062 C 274.121094 66.023438 276.617188 63.359375 277.734375 64.820312 C 278.769531 66.078125 276.328125 68.796875 275.191406 67.289062 Z M 275.191406 67.289062 " fill-opacity="1" fill-rule="nonzero"/><path fill="#ffffff" d="M 251.488281 87.179688 C 251.214844 85.503906 253.242188 85.589844 254.375 85.523438 C 256.625 85.390625 258.988281 85.238281 261.210938 85.167969 C 263.222656 85.085938 265.253906 85.046875 267.273438 84.984375 C 267.394531 84.980469 267.507812 85.003906 267.617188 85.050781 C 267.726562 85.09375 267.824219 85.160156 267.90625 85.246094 C 267.988281 85.328125 268.050781 85.429688 268.09375 85.539062 C 268.136719 85.648438 268.15625 85.765625 268.152344 85.882812 C 268.125 86.179688 268.007812 86.433594 267.796875 86.644531 C 267.589844 86.855469 267.335938 86.976562 267.039062 87.007812 C 262.386719 87.386719 257.714844 87.675781 253.054688 87.71875 C 252.5 88.003906 251.671875 87.855469 251.488281 87.179688 Z M 251.488281 87.179688 " fill-opacity="1" fill-rule="nonzero"/><path fill="#ffffff" d="M 272.03125 87.078125 C 270.652344 86.25 272.121094 84.394531 273.410156 84.824219 C 273.542969 84.824219 273.675781 84.847656 273.800781 84.902344 C 273.925781 84.953125 274.035156 85.03125 274.128906 85.125 C 274.222656 85.222656 274.296875 85.335938 274.347656 85.460938 C 274.394531 85.589844 274.417969 85.71875 274.414062 85.855469 C 274.363281 86.980469 272.957031 87.433594 272.03125 87.078125 Z M 272.03125 87.078125 " fill-opacity="1" fill-rule="nonzero"/><g clip-path="url(#b8700b0d94)"><path fill="#135662" d="M 13.886719 195.53125 C 13.488281 196.410156 13.226562 197.363281 13.128906 198.363281 L 21.507812 196.582031 C 21.90625 195.703125 22.167969 194.75 22.265625 193.75 Z M 13.886719 195.53125 " fill-opacity="1" fill-rule="nonzero"/></g><g clip-path="url(#d6144447e6)"><path fill="#135662" d="M 21.507812 191.242188 C 21.90625 190.367188 22.167969 189.414062 22.265625 188.414062 L 15.738281 189.800781 L 15.738281 187.132812 L 21.507812 185.90625 C 21.90625 185.027344 22.167969 184.074219 22.265625 183.074219 L 15.738281 184.464844 L 15.738281 174.863281 C 14.738281 175.425781 13.851562 176.171875 13.128906 177.054688 L 13.128906 185.019531 L 10.515625 185.574219 L 10.515625 173.558594 C 9.515625 174.121094 8.628906 174.867188 7.90625 175.75 L 7.90625 186.128906 L 2.0625 187.371094 C 1.667969 188.246094 1.40625 189.199219 1.304688 190.199219 L 7.90625 188.796875 L 7.90625 192.160156 L 0.832031 193.664062 C 0.433594 194.539062 0.171875 195.492188 0.0742188 196.492188 L 7.476562 194.917969 C 8.082031 194.792969 8.597656 194.4375 8.933594 193.945312 L 10.292969 191.933594 C 10.433594 191.726562 10.515625 191.472656 10.515625 191.203125 L 10.515625 188.242188 L 13.128906 187.6875 L 13.128906 193.027344 Z M 21.507812 191.242188 " fill-opacity="1" fill-rule="nonzero"/></g><g fill="#135662" fill-opacity="1"><g transform="translate(29.898302, 197.280373)"><g><path d="M 16.28125 0 L 14.828125 -22.96875 L 0.84375 -22.96875 L 0.84375 -30.46875 L 13.875 -30.46875 C 15.976562 -30.46875 17.632812 -29.957031 18.84375 -28.9375 C 20.0625 -27.925781 20.753906 -26.1875 20.921875 -23.71875 L 22.375 0 Z M 16.28125 0 "/></g></g></g><g fill="#135662" fill-opacity="1"><g transform="translate(55.267349, 197.280373)"><g><path d="M 2.453125 -13.4375 C 2.453125 -15.101562 2.863281 -16.328125 3.6875 -17.109375 C 4.519531 -17.890625 5.570312 -18.28125 6.84375 -18.28125 L 7.9375 -18.28125 C 9.207031 -18.28125 10.253906 -17.890625 11.078125 -17.109375 C 11.910156 -16.328125 12.328125 -15.101562 12.328125 -13.4375 C 12.328125 -11.769531 11.910156 -10.546875 11.078125 -9.765625 C 10.253906 -8.984375 9.207031 -8.59375 7.9375 -8.59375 L 6.84375 -8.59375 C 5.570312 -8.59375 4.519531 -8.984375 3.6875 -9.765625 C 2.863281 -10.546875 2.453125 -11.769531 2.453125 -13.4375 Z M 2.453125 -13.4375 "/></g></g></g><g fill="#135662" fill-opacity="1"><g transform="translate(70.04932, 197.280373)"><g><path d="M 7.84375 -8.4375 C 9.34375 -8.4375 10.445312 -8.0625 11.15625 -7.3125 C 11.875 -6.5625 12.234375 -5.601562 12.234375 -4.4375 L 12.234375 -3.453125 C 12.234375 -1.421875 11.738281 0.578125 10.75 2.546875 C 9.769531 4.515625 8.484375 6.113281 6.890625 7.34375 L 1.890625 7.34375 C 3.054688 6.238281 4.054688 5.144531 4.890625 4.0625 C 5.722656 2.988281 6.359375 1.785156 6.796875 0.453125 C 5.628906 0.253906 4.78125 -0.203125 4.25 -0.921875 C 3.71875 -1.640625 3.453125 -2.484375 3.453125 -3.453125 L 3.453125 -4.4375 C 3.453125 -5.601562 3.804688 -6.5625 4.515625 -7.3125 C 5.234375 -8.0625 6.34375 -8.4375 7.84375 -8.4375 Z M 7.84375 -8.4375 "/></g></g></g><g fill="#135662" fill-opacity="1"><g transform="translate(85.530432, 197.280373)"><g><path d="M 2.453125 -13.4375 C 2.453125 -15.101562 2.863281 -16.328125 3.6875 -17.109375 C 4.519531 -17.890625 5.570312 -18.28125 6.84375 -18.28125 L 7.9375 -18.28125 C 9.207031 -18.28125 10.253906 -17.890625 11.078125 -17.109375 C 11.910156 -16.328125 12.328125 -15.101562 12.328125 -13.4375 C 12.328125 -11.769531 11.910156 -10.546875 11.078125 -9.765625 C 10.253906 -8.984375 9.207031 -8.59375 7.9375 -8.59375 L 6.84375 -8.59375 C 5.570312 -8.59375 4.519531 -8.984375 3.6875 -9.765625 C 2.863281 -10.546875 2.453125 -11.769531 2.453125 -13.4375 Z M 2.453125 -13.4375 "/></g></g></g><g fill="#135662" fill-opacity="1"><g transform="translate(100.312404, 197.280373)"><g><path d="M 2.453125 -13.4375 C 2.453125 -15.101562 2.863281 -16.328125 3.6875 -17.109375 C 4.519531 -17.890625 5.570312 -18.28125 6.84375 -18.28125 L 7.9375 -18.28125 C 9.207031 -18.28125 10.253906 -17.890625 11.078125 -17.109375 C 11.910156 -16.328125 12.328125 -15.101562 12.328125 -13.4375 C 12.328125 -11.769531 11.910156 -10.546875 11.078125 -9.765625 C 10.253906 -8.984375 9.207031 -8.59375 7.9375 -8.59375 L 6.84375 -8.59375 C 5.570312 -8.59375 4.519531 -8.984375 3.6875 -9.765625 C 2.863281 -10.546875 2.453125 -11.769531 2.453125 -13.4375 Z M 2.453125 -13.4375 "/></g></g></g><g fill="#135662" fill-opacity="1"><g transform="translate(115.094375, 197.280373)"><g><path d="M 2.453125 -13.4375 C 2.453125 -15.101562 2.863281 -16.328125 3.6875 -17.109375 C 4.519531 -17.890625 5.570312 -18.28125 6.84375 -18.28125 L 7.9375 -18.28125 C 9.207031 -18.28125 10.253906 -17.890625 11.078125 -17.109375 C 11.910156 -16.328125 12.328125 -15.101562 12.328125 -13.4375 C 12.328125 -11.769531 11.910156 -10.546875 11.078125 -9.765625 C 10.253906 -8.984375 9.207031 -8.59375 7.9375 -8.59375 L 6.84375 -8.59375 C 5.570312 -8.59375 4.519531 -8.984375 3.6875 -9.765625 C 2.863281 -10.546875 2.453125 -11.769531 2.453125 -13.4375 Z M 2.453125 -13.4375 "/></g></g></g><g clip-path="url(#f589677460)"><path fill="#135662" d="M 220.75 195.53125 C 220.355469 196.410156 220.09375 197.363281 219.992188 198.363281 L 228.375 196.582031 C 228.769531 195.703125 229.03125 194.75 229.132812 193.75 Z M 220.75 195.53125 " fill-opacity="1" fill-rule="nonzero"/></g><g clip-path="url(#a996289a38)"><path fill="#135662" d="M 228.375 191.242188 C 228.769531 190.367188 229.03125 189.414062 229.132812 188.414062 L 222.605469 189.800781 L 222.605469 187.132812 L 228.375 185.90625 C 228.769531 185.027344 229.03125 184.074219 229.132812 183.074219 L 222.605469 184.464844 L 222.605469 174.863281 C 221.601562 175.425781 220.714844 176.171875 219.992188 177.054688 L 219.992188 185.019531 L 217.382812 185.574219 L 217.382812 173.558594 C 216.382812 174.121094 215.492188 174.867188 214.769531 175.75 L 214.769531 186.128906 L 208.929688 187.371094 C 208.53125 188.246094 208.269531 189.199219 208.167969 190.199219 L 214.769531 188.796875 L 214.769531 192.160156 L 207.695312 193.664062 C 207.300781 194.539062 207.039062 195.492188 206.9375 196.492188 L 214.34375 194.917969 C 214.945312 194.792969 215.464844 194.4375 215.800781 193.945312 L 217.160156 191.933594 C 217.300781 191.726562 217.382812 191.472656 217.382812 191.203125 L 217.382812 188.242188 L 219.992188 187.6875 L 219.992188 193.027344 Z M 228.375 191.242188 " fill-opacity="1" fill-rule="nonzero"/></g><g fill="#135662" fill-opacity="1"><g transform="translate(236.36545, 197.280373)"><g><path d="M 13.390625 0.59375 C 9.359375 0.59375 6.410156 -0.109375 4.546875 -1.515625 C 2.679688 -2.929688 1.75 -4.921875 1.75 -7.484375 C 1.75 -9.515625 2.429688 -11.070312 3.796875 -12.15625 C 5.160156 -13.238281 7.09375 -13.8125 9.59375 -13.875 L 9.59375 -14.1875 C 8.519531 -14.382812 7.609375 -14.695312 6.859375 -15.125 C 6.117188 -15.5625 5.503906 -16.078125 5.015625 -16.671875 C 4.535156 -17.273438 4.1875 -17.925781 3.96875 -18.625 C 3.75 -19.320312 3.625 -20.054688 3.59375 -20.828125 C 3.53125 -23.285156 4.242188 -25.195312 5.734375 -26.5625 C 7.234375 -27.925781 9.535156 -28.925781 12.640625 -29.5625 L 20.03125 -31.0625 L 21.328125 -23.671875 L 12.390625 -22.171875 C 11.585938 -22.035156 10.960938 -21.816406 10.515625 -21.515625 C 10.066406 -21.222656 9.84375 -20.789062 9.84375 -20.21875 C 9.84375 -19.550781 10.125 -19.0625 10.6875 -18.75 C 11.25 -18.4375 12.015625 -18.28125 12.984375 -18.28125 L 20.46875 -18.28125 L 20.46875 -10.9375 L 10.78125 -10.9375 C 9.65625 -10.9375 8.816406 -10.816406 8.265625 -10.578125 C 7.710938 -10.347656 7.4375 -9.832031 7.4375 -9.03125 C 7.4375 -8.332031 7.898438 -7.800781 8.828125 -7.4375 C 9.765625 -7.070312 11.285156 -6.890625 13.390625 -6.890625 C 15.210938 -6.890625 16.832031 -7.054688 18.25 -7.390625 C 19.664062 -7.722656 20.957031 -8.269531 22.125 -9.03125 L 25.015625 -2.796875 C 23.222656 -1.628906 21.394531 -0.769531 19.53125 -0.21875 C 17.664062 0.320312 15.617188 0.59375 13.390625 0.59375 Z M 13.390625 0.59375 "/></g></g></g><g fill="#135662" fill-opacity="1"><g transform="translate(262.53353, 197.280373)"><g><path d="M 2.453125 -13.4375 C 2.453125 -15.101562 2.863281 -16.328125 3.6875 -17.109375 C 4.519531 -17.890625 5.570312 -18.28125 6.84375 -18.28125 L 7.9375 -18.28125 C 9.207031 -18.28125 10.253906 -17.890625 11.078125 -17.109375 C 11.910156 -16.328125 12.328125 -15.101562 12.328125 -13.4375 C 12.328125 -11.769531 11.910156 -10.546875 11.078125 -9.765625 C 10.253906 -8.984375 9.207031 -8.59375 7.9375 -8.59375 L 6.84375 -8.59375 C 5.570312 -8.59375 4.519531 -8.984375 3.6875 -9.765625 C 2.863281 -10.546875 2.453125 -11.769531 2.453125 -13.4375 Z M 2.453125 -13.4375 "/></g></g></g><g fill="#135662" fill-opacity="1"><g transform="translate(277.315501, 197.280373)"><g><path d="M 7.84375 -8.4375 C 9.34375 -8.4375 10.445312 -8.0625 11.15625 -7.3125 C 11.875 -6.5625 12.234375 -5.601562 12.234375 -4.4375 L 12.234375 -3.453125 C 12.234375 -1.421875 11.738281 0.578125 10.75 2.546875 C 9.769531 4.515625 8.484375 6.113281 6.890625 7.34375 L 1.890625 7.34375 C 3.054688 6.238281 4.054688 5.144531 4.890625 4.0625 C 5.722656 2.988281 6.359375 1.785156 6.796875 0.453125 C 5.628906 0.253906 4.78125 -0.203125 4.25 -0.921875 C 3.71875 -1.640625 3.453125 -2.484375 3.453125 -3.453125 L 3.453125 -4.4375 C 3.453125 -5.601562 3.804688 -6.5625 4.515625 -7.3125 C 5.234375 -8.0625 6.34375 -8.4375 7.84375 -8.4375 Z M 7.84375 -8.4375 "/></g></g></g><g fill="#135662" fill-opacity="1"><g transform="translate(292.796614, 197.280373)"><g><path d="M 2.453125 -13.4375 C 2.453125 -15.101562 2.863281 -16.328125 3.6875 -17.109375 C 4.519531 -17.890625 5.570312 -18.28125 6.84375 -18.28125 L 7.9375 -18.28125 C 9.207031 -18.28125 10.253906 -17.890625 11.078125 -17.109375 C 11.910156 -16.328125 12.328125 -15.101562 12.328125 -13.4375 C 12.328125 -11.769531 11.910156 -10.546875 11.078125 -9.765625 C 10.253906 -8.984375 9.207031 -8.59375 7.9375 -8.59375 L 6.84375 -8.59375 C 5.570312 -8.59375 4.519531 -8.984375 3.6875 -9.765625 C 2.863281 -10.546875 2.453125 -11.769531 2.453125 -13.4375 Z M 2.453125 -13.4375 "/></g></g></g><g fill="#135662" fill-opacity="1"><g transform="translate(307.578585, 197.280373)"><g><path d="M 2.453125 -13.4375 C 2.453125 -15.101562 2.863281 -16.328125 3.6875 -17.109375 C 4.519531 -17.890625 5.570312 -18.28125 6.84375 -18.28125 L 7.9375 -18.28125 C 9.207031 -18.28125 10.253906 -17.890625 11.078125 -17.109375 C 11.910156 -16.328125 12.328125 -15.101562 12.328125 -13.4375 C 12.328125 -11.769531 11.910156 -10.546875 11.078125 -9.765625 C 10.253906 -8.984375 9.207031 -8.59375 7.9375 -8.59375 L 6.84375 -8.59375 C 5.570312 -8.59375 4.519531 -8.984375 3.6875 -9.765625 C 2.863281 -10.546875 2.453125 -11.769531 2.453125 -13.4375 Z M 2.453125 -13.4375 "/></g></g></g><g fill="#135662" fill-opacity="1"><g transform="translate(322.360556, 197.280373)"><g><path d="M 2.453125 -13.4375 C 2.453125 -15.101562 2.863281 -16.328125 3.6875 -17.109375 C 4.519531 -17.890625 5.570312 -18.28125 6.84375 -18.28125 L 7.9375 -18.28125 C 9.207031 -18.28125 10.253906 -17.890625 11.078125 -17.109375 C 11.910156 -16.328125 12.328125 -15.101562 12.328125 -13.4375 C 12.328125 -11.769531 11.910156 -10.546875 11.078125 -9.765625 C 10.253906 -8.984375 9.207031 -8.59375 7.9375 -8.59375 L 6.84375 -8.59375 C 5.570312 -8.59375 4.519531 -8.984375 3.6875 -9.765625 C 2.863281 -10.546875 2.453125 -11.769531 2.453125 -13.4375 Z M 2.453125 -13.4375 "/></g></g></g></svg>