<?xml version="1.0" encoding="utf-8"?>
<!-- Generator: Adobe Illustrator 27.6.1, SVG Export Plug-In . SVG Version: 6.00 Build 0)  -->
<svg version="1.1" id="Layer_1" xmlns="http://www.w3.org/2000/svg" xmlns:xlink="http://www.w3.org/1999/xlink" x="0px" y="0px"
	 viewBox="0 0 1000 1000" style="enable-background:new 0 0 1000 1000;" xml:space="preserve">
<style type="text/css">
	.st0{fill-rule:evenodd;clip-rule:evenodd;fill:url(#SVGID_1_);}
	.st1{fill-rule:evenodd;clip-rule:evenodd;fill:url(#SVGID_00000148636835870590100250000000055371913306950016_);}
	.st2{fill-rule:evenodd;clip-rule:evenodd;fill:url(#SVGID_00000090275320271737563970000008798122963040003213_);}
	.st3{fill-rule:evenodd;clip-rule:evenodd;fill:url(#SVGID_00000152942387241793003150000005064434008684770192_);}
	.st4{fill:#414042;}
</style>
<g>
	
		<linearGradient id="SVGID_1_" gradientUnits="userSpaceOnUse" x1="106.6346" y1="-6502.4761" x2="900.9739" y2="-6226.5571" gradientTransform="matrix(1 0 0 1 0 6832)">
		<stop  offset="0" style="stop-color:#74F8B0"/>
		<stop  offset="1" style="stop-color:#7D5FEF"/>
	</linearGradient>
	<path class="st0" d="M579.5,329.4c-17.1-9.9-38.9-4-48.8,13.1L408.3,554.4c-9.9,17.1-4,38.9,13.1,48.8s38.9,4,48.8-13.1
		l122.3-211.9C602.4,361.2,596.5,339.3,579.5,329.4L579.5,329.4z"/>
	
		<linearGradient id="SVGID_00000107563095194293477940000008984261273849556108_" gradientUnits="userSpaceOnUse" x1="93.2293" y1="-6463.8643" x2="887.554" y2="-6187.9336" gradientTransform="matrix(1 0 0 1 0 6832)">
		<stop  offset="0" style="stop-color:#74F8B0"/>
		<stop  offset="1" style="stop-color:#7D5FEF"/>
	</linearGradient>
	<path style="fill-rule:evenodd;clip-rule:evenodd;fill:url(#SVGID_00000107563095194293477940000008984261273849556108_);" d="
		M455,329.4c-17.1-9.9-38.9-4-48.8,13.1l-92.8,160.8L210.9,340.8c-10.5-16.7-32.6-21.7-49.3-11.1c-16.7,10.5-21.7,32.6-11.2,49.3
		l134,212.4c6.6,10.5,17.8,16.3,29.3,16.7c0.7,0,1.3,0,2,0c0.5,0,0.9,0,1.4,0c11.5-0.7,22.5-7,28.7-17.8l24.8-42.9l97.6-169
		C477.9,361.1,472,339.3,455,329.4z"/>
	
		<linearGradient id="SVGID_00000181066205488672899620000012905528909367576218_" gradientUnits="userSpaceOnUse" x1="120.135" y1="-6541.3374" x2="914.473" y2="-6265.4185" gradientTransform="matrix(1 0 0 1 0 6832)">
		<stop  offset="0" style="stop-color:#74F8B0"/>
		<stop  offset="1" style="stop-color:#7D5FEF"/>
	</linearGradient>
	<path style="fill-rule:evenodd;clip-rule:evenodd;fill:url(#SVGID_00000181066205488672899620000012905528909367576218_);" d="
		M855.9,570.4c0-1.2-0.2-2.4-0.4-3.6c0-0.1,0-0.1,0-0.2c-0.1-0.4-0.1-0.8-0.2-1.2c0-0.1-0.1-0.3-0.1-0.4c-0.1-0.4-0.2-0.9-0.3-1.4
		c0-0.1,0-0.1-0.1-0.2c0-0.1-0.1-0.2-0.1-0.4c-0.1-0.4-0.2-0.8-0.3-1.2c-0.3-1-0.6-2.1-1.1-3c-0.1-0.2-0.2-0.4-0.2-0.6
		c-0.1-0.2-0.2-0.4-0.3-0.6c-0.1-0.1-0.1-0.3-0.2-0.4c-0.1-0.3-0.2-0.5-0.3-0.7c-0.3-0.6-0.6-1.1-0.9-1.7c-0.2-0.4-0.4-0.8-0.6-1.1
		c0,0,0,0,0-0.1c-0.1-0.2-0.2-0.4-0.3-0.5l-0.6-0.9L716.5,340.8c-10.5-16.7-32.6-21.7-49.3-11.1c-5.9,3.7-10.2,8.8-13,14.6
		L583.9,466c0,0,0,0,0,0l-51,88.3c-9.5,16.3-4.5,37,11,47.4c0.1,0.1,0.2,0.1,0.3,0.2c0.6,0.4,1.2,0.8,1.8,1.2
		c0.2,0.1,0.5,0.3,0.8,0.4c0.2,0.1,0.4,0.2,0.7,0.4c0.8,0.4,1.6,0.8,2.4,1.2c0.3,0.1,0.5,0.2,0.8,0.3c0.8,0.3,1.6,0.6,2.5,0.9
		c0.3,0.1,0.6,0.2,0.9,0.3c0.8,0.2,1.7,0.5,2.5,0.6c0.3,0.1,0.7,0.1,1,0.2c0.8,0.1,1.6,0.3,2.4,0.4c0.4,0.1,0.8,0.1,1.3,0.1
		c0.7,0.1,1.5,0.1,2.2,0.1c0.1,0,0.3,0,0.5,0h256.4c0.6,0,1.2,0,1.8-0.1c1.1-0.1,2.2-0.2,3.3-0.3c0.3-0.1,0.7-0.1,1-0.2
		c0.5-0.1,1.1-0.2,1.6-0.3c0.3-0.1,0.6-0.2,1-0.2c0.4-0.1,0.7-0.2,1.1-0.3c0.4-0.1,0.8-0.2,1.2-0.4c0,0,0.1,0,0.1,0
		c0.8-0.3,1.5-0.6,2.3-0.9c0.4-0.2,0.8-0.3,1.2-0.5c0.4-0.2,0.8-0.4,1.1-0.5c0.6-0.3,1.3-0.6,1.9-1c0.2-0.1,0.3-0.2,0.5-0.3
		c0.3-0.2,0.6-0.4,1-0.6c0.7-0.4,1.3-0.9,2-1.3c0.6-0.4,1.1-0.9,1.7-1.3c0-0.1,0.1-0.1,0.1-0.1c0.5-0.4,1-0.9,1.5-1.4
		c0.1-0.1,0.3-0.2,0.4-0.4c0.4-0.4,0.8-0.8,1.2-1.2c0.1-0.1,0.2-0.2,0.3-0.3c0.5-0.5,1-1.1,1.4-1.6c0.4-0.5,0.8-1.1,1.2-1.6
		c0.1-0.1,0.1-0.1,0.2-0.2c0.1-0.1,0.1-0.2,0.2-0.3c0.3-0.4,0.5-0.7,0.8-1.1c0.2-0.3,0.4-0.5,0.5-0.8c0.3-0.5,0.6-1.1,0.9-1.6
		c0.4-0.6,0.7-1.3,1-2l0,0c0,0,0,0,0-0.1c0.3-0.6,0.6-1.3,0.8-2c0.5-1.4,1-2.8,1.3-4.2c0.2-0.7,0.3-1.4,0.5-2.2
		c0.1-0.7,0.2-1.5,0.3-2.2c0.1-0.6,0.2-1.3,0.2-2c0-0.1,0-0.3,0-0.4c0.1-0.7,0.1-1.4,0.1-2.1v0C856,571.6,856,571,855.9,570.4
		L855.9,570.4L855.9,570.4z M625.7,536.5l62-107.5l67.8,107.5H625.7z"/>
	
		<linearGradient id="SVGID_00000014601615282113108400000006604111362100680580_" gradientUnits="userSpaceOnUse" x1="108.5502" y1="-6507.9067" x2="902.8601" y2="-6231.9961" gradientTransform="matrix(1 0 0 1 0 6832)">
		<stop  offset="0" style="stop-color:#74F8B0"/>
		<stop  offset="1" style="stop-color:#7D5FEF"/>
	</linearGradient>
	<path style="fill-rule:evenodd;clip-rule:evenodd;fill:url(#SVGID_00000014601615282113108400000006604111362100680580_);" d="
		M853.5,585.2c0.5-1.4,1-2.8,1.3-4.2C854.5,582.4,854.1,583.9,853.5,585.2z"/>
	<path class="st4" d="M336.6,635.9h-9.8c-2.2,0-3.6,1-4,2.8l-5.9,20.1c-0.2,1-0.4,1.9-0.6,2.9c-0.2,1-0.4,1.9-0.6,2.9h-0.9
		c-0.2-1-0.4-1.9-0.6-2.9c-0.2-0.9-0.4-1.9-0.7-2.8l-6-20.1c-0.5-1.9-1.8-2.8-4-2.8h-9.6c-2.5,0-3.7,1.1-3.8,3.2l-1.8,36.8h9.5
		l1.4-33.2h1.1l7.5,24.9c0.5,1.8,1.9,2.8,4.2,2.8h6.5c2.3,0,3.6-0.9,4-2.8l7.5-24.9h1.2l1.5,33.2h9.5l-1.8-36.8
		C340.3,637,339,635.9,336.6,635.9L336.6,635.9z"/>
	<path class="st4" d="M451.5,639.5c-1.5-1.6-3.6-2.7-6.2-3.4c-2.5-0.7-5.7-1-9.3-1c-3.7,0-6.8,0.3-9.3,1s-4.6,1.8-6.2,3.4
		c-1.6,1.6-2.7,3.7-3.4,6.4c-0.7,2.7-1.1,6-1.1,10c0,4,0.4,7.4,1.1,10c0.7,2.7,1.9,4.8,3.4,6.4c1.6,1.6,3.6,2.7,6.2,3.4
		c2.6,0.7,5.7,1,9.3,1c3.7,0,6.8-0.3,9.3-1c2.6-0.7,4.6-1.8,6.2-3.4c1.5-1.6,2.7-3.7,3.4-6.4c0.7-2.7,1.1-6,1.1-10
		c0-4-0.4-7.4-1.1-10C454.2,643.2,453.1,641.1,451.5,639.5z M444.3,664.3c-0.6,2-1.5,3.4-2.8,4.2c-1.3,0.8-3.1,1.2-5.5,1.2
		c-2.3,0-4.2-0.4-5.5-1.2c-1.3-0.8-2.3-2.2-2.8-4.2c-0.6-2-0.8-4.8-0.8-8.3c0-3.6,0.3-6.4,0.8-8.4c0.6-2,1.5-3.4,2.8-4.2
		c1.3-0.8,3.2-1.2,5.5-1.2c2.4,0,4.2,0.4,5.5,1.2c1.3,0.8,2.3,2.2,2.8,4.2c0.6,2,0.8,4.8,0.8,8.4
		C445.2,659.5,444.9,662.3,444.3,664.3z"/>
	<path class="st4" d="M570.7,642.5v-6.6h-33.2v6.6h21.9l-22.4,26.8v6.6h34.3v-6.6h-22.9L570.7,642.5z"/>
	<path class="st4" d="M676.6,658.6c0,1.1,0,2.2,0.1,3.3c0.1,1.1,0.2,2.2,0.3,3.4h-0.8c-0.5-1.2-1.1-2.3-1.7-3.4
		c-0.6-1.1-1.1-2.1-1.7-3l-12.4-20.4c-0.5-0.9-1.1-1.6-1.7-2s-1.4-0.7-2.5-0.7h-5.6c-2.5,0-3.8,1.1-3.8,3.2v36.8h9.8v-23.4
		c0-1,0-2.1-0.1-3.2c-0.1-1.1-0.2-2.1-0.3-3.2h0.7c0.4,1,0.8,2,1.3,3.1c0.5,1.1,1,2.1,1.6,3l12.8,21c0.5,0.9,1,1.6,1.6,2
		c0.6,0.4,1.4,0.7,2.6,0.7h5.6c2.5,0,3.7-1.1,3.7-3.2v-36.8h-9.7L676.6,658.6L676.6,658.6z"/>
	<path class="st4" d="M824.3,637.4c-0.7-0.4-1.4-0.6-2.2-0.6h-9.8c-0.9,0-1.6,0.2-2.3,0.6c-0.7,0.4-1.1,1-1.3,1.7l-13.5,37.7h10.5
		l3.4-10.5h16l3.4,10.5h10.5l-13.4-37.7C825.4,638.4,825,637.8,824.3,637.4L824.3,637.4z M811.3,659.5l3.9-12.2
		c0.2-0.7,0.4-1.3,0.6-2c0.2-0.7,0.3-1.3,0.4-1.9h1.8c0.1,0.6,0.3,1.3,0.5,1.9c0.2,0.7,0.4,1.3,0.5,2l3.9,12.2H811.3z"/>
	<path class="st4" d="M854.1,636.7h-10.2v40h10.2V636.7z"/>
	<path class="st4" d="M741.8,667.9h-2.6c-1.3,0-2.2,0.2-2.7,0.7c-0.5,0.5-0.8,1.2-0.8,2.3v2.8c0,1.1,0.3,1.9,0.8,2.3
		c0.5,0.4,1.4,0.7,2.7,0.7h2.6c1.3,0,2.2-0.2,2.7-0.7c0.5-0.4,0.8-1.2,0.8-2.3V671c0-1.1-0.3-1.9-0.8-2.3
		C744,668.2,743.1,667.9,741.8,667.9z"/>
</g>
</svg>
