<svg xmlns="http://www.w3.org/2000/svg" xmlns:xlink="http://www.w3.org/1999/xlink" width="1000" zoomAndPan="magnify" viewBox="0 0 750 599.999999" height="800" preserveAspectRatio="xMidYMid meet" version="1.0"><defs><clipPath id="e74cdbbc00"><path d="M 12 41 L 199 41 L 199 245 L 12 245 Z M 12 41 " clip-rule="nonzero"/></clipPath><clipPath id="a2b7fe48ee"><path d="M 71.738281 43.394531 C 73.066406 42.609375 74.394531 41.839844 75.84375 41.507812 C 78.394531 42.171875 80.609375 43.832031 82.933594 45.054688 C 100.679688 55.375 118.53125 65.679688 136.277344 76.003906 C 137.726562 76.785156 139.160156 78.113281 138.933594 79.878906 C 138.933594 100.628906 138.933594 121.253906 139.039062 142.003906 C 138.933594 143.769531 139.265625 146.214844 137.488281 147.210938 C 135.375 148.765625 133.050781 146.984375 131.058594 146.09375 C 127.285156 143.980469 123.300781 142.214844 119.527344 139.878906 C 118.082031 139.214844 117.761719 137.660156 117.761719 136.332031 C 117.65625 120.910156 117.867188 105.488281 117.65625 90.082031 C 116.433594 88.421875 114.214844 87.757812 112.554688 86.640625 C 100.242188 79.65625 88.15625 72.335938 75.84375 65.347656 C 62.640625 72.894531 49.449219 80.652344 36.246094 88.300781 C 35.359375 88.964844 33.804688 89.523438 34.027344 90.957031 C 34.027344 105.714844 34.027344 120.457031 34.136719 135.335938 C 42.117188 140.101562 50.21875 144.644531 58.203125 149.308594 C 59.652344 150.199219 61.644531 151.195312 61.417969 153.1875 C 61.523438 158.621094 61.523438 164.050781 61.417969 169.496094 C 61.644531 172.484375 57.75 174.160156 55.546875 172.273438 C 42.238281 164.621094 28.929688 156.851562 15.621094 149.097656 C 13.960938 148.207031 12.40625 146.769531 12.738281 144.660156 L 12.738281 83.441406 C 12.84375 80.996094 12.074219 77.554688 14.847656 76.226562 C 33.710938 65.136719 52.785156 54.257812 71.632812 43.167969 Z M 149.375 115.492188 C 149.707031 112.941406 153.148438 111.945312 155.140625 113.5 C 168.449219 121.148438 181.757812 128.917969 195.066406 136.675781 C 196.726562 137.566406 198.28125 139 197.949219 141.113281 C 197.949219 162.738281 198.175781 184.375 197.949219 205.996094 C 198.28125 207.992188 196.5 209.332031 194.960938 210.207031 C 175.992188 221.191406 157.039062 232.179688 138.175781 243.269531 C 136.515625 244.265625 134.511719 245.035156 132.851562 243.828125 C 114.214844 233.066406 95.699219 222.203125 77.066406 211.550781 C 75.070312 210.222656 71.738281 209.226562 71.964844 206.222656 L 71.964844 142.214844 C 71.527344 139.332031 74.953125 137.113281 77.398438 138.773438 C 82.164062 141.21875 86.828125 143.542969 91.476562 146.214844 C 93.800781 147.433594 92.921875 150.316406 93.136719 152.429688 L 93.136719 196.355469 C 107.109375 204.457031 120.976562 212.664062 135.054688 220.648438 C 148.921875 212.546875 162.671875 204.457031 176.644531 196.582031 C 176.871094 181.386719 176.644531 166.070312 176.644531 150.875 C 168.101562 145.773438 159.347656 141.007812 150.808594 135.785156 C 148.816406 134.789062 149.253906 132.242188 149.148438 130.355469 C 149.253906 125.480469 148.921875 120.589844 149.375 115.824219 Z M 120.644531 154.527344 C 122.636719 154.195312 124.417969 155.644531 126.183594 156.414062 C 129.957031 158.527344 133.941406 160.292969 137.605469 162.628906 C 139.160156 163.519531 138.722656 165.511719 138.933594 166.960938 C 138.933594 172.167969 139.039062 177.492188 138.828125 182.714844 C 138.828125 185.15625 135.71875 186.59375 133.621094 185.371094 C 128.851562 183.046875 124.191406 180.601562 119.542969 177.933594 C 117.550781 176.9375 117.773438 174.492188 117.773438 172.605469 C 117.773438 167.730469 117.667969 162.738281 117.773438 157.847656 C 117.773438 156.1875 118.996094 154.742188 120.65625 154.410156 L 120.65625 154.515625 Z M 120.644531 154.527344 " clip-rule="nonzero"/></clipPath><radialGradient gradientTransform="matrix(1, 0, 0, 1, -288.868379, -363.84782)" gradientUnits="userSpaceOnUse" r="97.174779" cx="394.237897" id="e64cc19708" cy="506.820384" fx="394.237897" fy="506.820384"><stop stop-opacity="1" stop-color="rgb(87.841797%, 43.025208%, 4.728699%)" offset="0"/><stop stop-opacity="1" stop-color="rgb(87.849426%, 42.741394%, 4.777527%)" offset="0.0078125"/><stop stop-opacity="1" stop-color="rgb(87.858582%, 42.401123%, 4.837036%)" offset="0.0195312"/><stop stop-opacity="1" stop-color="rgb(87.869263%, 42.062378%, 4.898071%)" offset="0.03125"/><stop stop-opacity="1" stop-color="rgb(87.878418%, 41.722107%, 4.957581%)" offset="0.0429688"/><stop stop-opacity="1" stop-color="rgb(87.887573%, 41.381836%, 5.01709%)" offset="0.0546875"/><stop stop-opacity="1" stop-color="rgb(87.896729%, 41.041565%, 5.076599%)" offset="0.0664062"/><stop stop-opacity="1" stop-color="rgb(87.905884%, 40.701294%, 5.136108%)" offset="0.078125"/><stop stop-opacity="1" stop-color="rgb(87.915039%, 40.361023%, 5.195618%)" offset="0.0898438"/><stop stop-opacity="1" stop-color="rgb(87.924194%, 40.020752%, 5.255127%)" offset="0.101562"/><stop stop-opacity="1" stop-color="rgb(87.93335%, 39.680481%, 5.314636%)" offset="0.113281"/><stop stop-opacity="1" stop-color="rgb(87.942505%, 39.341736%, 5.374146%)" offset="0.125"/><stop stop-opacity="1" stop-color="rgb(87.95166%, 39.001465%, 5.433655%)" offset="0.136719"/><stop stop-opacity="1" stop-color="rgb(87.960815%, 38.661194%, 5.493164%)" offset="0.148438"/><stop stop-opacity="1" stop-color="rgb(87.969971%, 38.320923%, 5.554199%)" offset="0.160156"/><stop stop-opacity="1" stop-color="rgb(87.979126%, 37.980652%, 5.613708%)" offset="0.171875"/><stop stop-opacity="1" stop-color="rgb(87.988281%, 37.640381%, 5.673218%)" offset="0.183594"/><stop stop-opacity="1" stop-color="rgb(87.997437%, 37.30011%, 5.732727%)" offset="0.195312"/><stop stop-opacity="1" stop-color="rgb(88.008118%, 36.959839%, 5.792236%)" offset="0.207031"/><stop stop-opacity="1" stop-color="rgb(88.017273%, 36.621094%, 5.851746%)" offset="0.21875"/><stop stop-opacity="1" stop-color="rgb(88.026428%, 36.280823%, 5.911255%)" offset="0.230469"/><stop stop-opacity="1" stop-color="rgb(88.035583%, 35.940552%, 5.970764%)" offset="0.242188"/><stop stop-opacity="1" stop-color="rgb(88.043213%, 35.656738%, 6.021118%)" offset="0.253906"/><stop stop-opacity="1" stop-color="rgb(88.049316%, 35.430908%, 6.060791%)" offset="0.261719"/><stop stop-opacity="1" stop-color="rgb(88.05542%, 35.203552%, 6.100464%)" offset="0.269531"/><stop stop-opacity="1" stop-color="rgb(88.061523%, 34.976196%, 6.140137%)" offset="0.277344"/><stop stop-opacity="1" stop-color="rgb(88.067627%, 34.750366%, 6.17981%)" offset="0.285156"/><stop stop-opacity="1" stop-color="rgb(88.07373%, 34.52301%, 6.221008%)" offset="0.292969"/><stop stop-opacity="1" stop-color="rgb(88.079834%, 34.29718%, 6.260681%)" offset="0.300781"/><stop stop-opacity="1" stop-color="rgb(88.085938%, 34.069824%, 6.300354%)" offset="0.308594"/><stop stop-opacity="1" stop-color="rgb(88.092041%, 33.843994%, 6.340027%)" offset="0.316406"/><stop stop-opacity="1" stop-color="rgb(88.098145%, 33.616638%, 6.3797%)" offset="0.324219"/><stop stop-opacity="1" stop-color="rgb(88.104248%, 33.389282%, 6.419373%)" offset="0.332031"/><stop stop-opacity="1" stop-color="rgb(88.110352%, 33.163452%, 6.459045%)" offset="0.339844"/><stop stop-opacity="1" stop-color="rgb(88.116455%, 32.936096%, 6.498718%)" offset="0.347656"/><stop stop-opacity="1" stop-color="rgb(88.122559%, 32.710266%, 6.538391%)" offset="0.355469"/><stop stop-opacity="1" stop-color="rgb(88.128662%, 32.48291%, 6.578064%)" offset="0.363281"/><stop stop-opacity="1" stop-color="rgb(88.134766%, 32.255554%, 6.617737%)" offset="0.371094"/><stop stop-opacity="1" stop-color="rgb(88.140869%, 32.029724%, 6.65741%)" offset="0.378906"/><stop stop-opacity="1" stop-color="rgb(88.148499%, 31.802368%, 6.697083%)" offset="0.386719"/><stop stop-opacity="1" stop-color="rgb(88.154602%, 31.576538%, 6.736755%)" offset="0.394531"/><stop stop-opacity="1" stop-color="rgb(88.160706%, 31.349182%, 6.776428%)" offset="0.402344"/><stop stop-opacity="1" stop-color="rgb(88.166809%, 31.123352%, 6.816101%)" offset="0.410156"/><stop stop-opacity="1" stop-color="rgb(88.172913%, 30.895996%, 6.855774%)" offset="0.417969"/><stop stop-opacity="1" stop-color="rgb(88.179016%, 30.66864%, 6.896973%)" offset="0.425781"/><stop stop-opacity="1" stop-color="rgb(88.18512%, 30.44281%, 6.936646%)" offset="0.433594"/><stop stop-opacity="1" stop-color="rgb(88.191223%, 30.215454%, 6.976318%)" offset="0.441406"/><stop stop-opacity="1" stop-color="rgb(88.197327%, 29.989624%, 7.015991%)" offset="0.449219"/><stop stop-opacity="1" stop-color="rgb(88.20343%, 29.762268%, 7.055664%)" offset="0.457031"/><stop stop-opacity="1" stop-color="rgb(88.209534%, 29.534912%, 7.095337%)" offset="0.464844"/><stop stop-opacity="1" stop-color="rgb(88.215637%, 29.309082%, 7.13501%)" offset="0.472656"/><stop stop-opacity="1" stop-color="rgb(88.221741%, 29.081726%, 7.174683%)" offset="0.480469"/><stop stop-opacity="1" stop-color="rgb(88.227844%, 28.855896%, 7.214355%)" offset="0.488281"/><stop stop-opacity="1" stop-color="rgb(88.233948%, 28.62854%, 7.254028%)" offset="0.496094"/><stop stop-opacity="1" stop-color="rgb(88.241577%, 28.344727%, 7.302856%)" offset="0.503906"/><stop stop-opacity="1" stop-color="rgb(88.250732%, 28.004456%, 7.362366%)" offset="0.515625"/><stop stop-opacity="1" stop-color="rgb(88.259888%, 27.66571%, 7.421875%)" offset="0.527344"/><stop stop-opacity="1" stop-color="rgb(88.269043%, 27.325439%, 7.48291%)" offset="0.539062"/><stop stop-opacity="1" stop-color="rgb(88.278198%, 26.985168%, 7.542419%)" offset="0.550781"/><stop stop-opacity="1" stop-color="rgb(88.288879%, 26.644897%, 7.601929%)" offset="0.5625"/><stop stop-opacity="1" stop-color="rgb(88.298035%, 26.304626%, 7.661438%)" offset="0.574219"/><stop stop-opacity="1" stop-color="rgb(88.30719%, 25.964355%, 7.720947%)" offset="0.585938"/><stop stop-opacity="1" stop-color="rgb(88.316345%, 25.624084%, 7.780457%)" offset="0.597656"/><stop stop-opacity="1" stop-color="rgb(88.3255%, 25.283813%, 7.839966%)" offset="0.609375"/><stop stop-opacity="1" stop-color="rgb(88.334656%, 24.945068%, 7.899475%)" offset="0.621094"/><stop stop-opacity="1" stop-color="rgb(88.342285%, 24.661255%, 7.949829%)" offset="0.632812"/><stop stop-opacity="1" stop-color="rgb(88.348389%, 24.433899%, 7.989502%)" offset="0.640625"/><stop stop-opacity="1" stop-color="rgb(88.354492%, 24.208069%, 8.029175%)" offset="0.648438"/><stop stop-opacity="1" stop-color="rgb(88.360596%, 23.980713%, 8.068848%)" offset="0.65625"/><stop stop-opacity="1" stop-color="rgb(88.366699%, 23.754883%, 8.108521%)" offset="0.664062"/><stop stop-opacity="1" stop-color="rgb(88.372803%, 23.527527%, 8.148193%)" offset="0.671875"/><stop stop-opacity="1" stop-color="rgb(88.378906%, 23.300171%, 8.189392%)" offset="0.679688"/><stop stop-opacity="1" stop-color="rgb(88.38501%, 23.074341%, 8.229065%)" offset="0.6875"/><stop stop-opacity="1" stop-color="rgb(88.391113%, 22.846985%, 8.268738%)" offset="0.695312"/><stop stop-opacity="1" stop-color="rgb(88.397217%, 22.621155%, 8.308411%)" offset="0.703125"/><stop stop-opacity="1" stop-color="rgb(88.40332%, 22.393799%, 8.348083%)" offset="0.710938"/><stop stop-opacity="1" stop-color="rgb(88.409424%, 22.167969%, 8.387756%)" offset="0.71875"/><stop stop-opacity="1" stop-color="rgb(88.415527%, 21.940613%, 8.427429%)" offset="0.726562"/><stop stop-opacity="1" stop-color="rgb(88.423157%, 21.713257%, 8.467102%)" offset="0.734375"/><stop stop-opacity="1" stop-color="rgb(88.42926%, 21.487427%, 8.506775%)" offset="0.742188"/><stop stop-opacity="1" stop-color="rgb(88.435364%, 21.260071%, 8.546448%)" offset="0.75"/><stop stop-opacity="1" stop-color="rgb(88.442993%, 20.976257%, 8.595276%)" offset="0.757812"/><stop stop-opacity="1" stop-color="rgb(88.452148%, 20.635986%, 8.654785%)" offset="0.769531"/><stop stop-opacity="1" stop-color="rgb(88.461304%, 20.297241%, 8.714294%)" offset="0.78125"/><stop stop-opacity="1" stop-color="rgb(88.470459%, 19.95697%, 8.77533%)" offset="0.792969"/><stop stop-opacity="1" stop-color="rgb(88.479614%, 19.616699%, 8.834839%)" offset="0.804688"/><stop stop-opacity="1" stop-color="rgb(88.487244%, 19.332886%, 8.885193%)" offset="0.816406"/><stop stop-opacity="1" stop-color="rgb(88.493347%, 19.107056%, 8.924866%)" offset="0.824219"/><stop stop-opacity="1" stop-color="rgb(88.499451%, 18.8797%, 8.964539%)" offset="0.832031"/><stop stop-opacity="1" stop-color="rgb(88.505554%, 18.65387%, 9.004211%)" offset="0.839844"/><stop stop-opacity="1" stop-color="rgb(88.511658%, 18.426514%, 9.043884%)" offset="0.847656"/><stop stop-opacity="1" stop-color="rgb(88.517761%, 18.199158%, 9.083557%)" offset="0.855469"/><stop stop-opacity="1" stop-color="rgb(88.523865%, 17.973328%, 9.12323%)" offset="0.863281"/><stop stop-opacity="1" stop-color="rgb(88.529968%, 17.745972%, 9.162903%)" offset="0.871094"/><stop stop-opacity="1" stop-color="rgb(88.537598%, 17.462158%, 9.211731%)" offset="0.878906"/><stop stop-opacity="1" stop-color="rgb(88.546753%, 17.121887%, 9.27124%)" offset="0.890625"/><stop stop-opacity="1" stop-color="rgb(88.555908%, 16.783142%, 9.33075%)" offset="0.902344"/><stop stop-opacity="1" stop-color="rgb(88.565063%, 16.499329%, 9.381104%)" offset="0.914062"/><stop stop-opacity="1" stop-color="rgb(88.571167%, 16.271973%, 9.420776%)" offset="0.921875"/><stop stop-opacity="1" stop-color="rgb(88.577271%, 16.046143%, 9.460449%)" offset="0.929688"/><stop stop-opacity="1" stop-color="rgb(88.583374%, 15.818787%, 9.501648%)" offset="0.9375"/><stop stop-opacity="1" stop-color="rgb(88.591003%, 15.534973%, 9.550476%)" offset="0.945312"/><stop stop-opacity="1" stop-color="rgb(88.598633%, 15.252686%, 9.60083%)" offset="0.957031"/><stop stop-opacity="1" stop-color="rgb(88.604736%, 15.02533%, 9.640503%)" offset="0.964844"/><stop stop-opacity="1" stop-color="rgb(88.612366%, 14.741516%, 9.689331%)" offset="0.972656"/><stop stop-opacity="1" stop-color="rgb(88.619995%, 14.459229%, 9.739685%)" offset="0.984375"/><stop stop-opacity="1" stop-color="rgb(88.626099%, 14.231873%, 9.779358%)" offset="0.992188"/><stop stop-opacity="1" stop-color="rgb(88.62915%, 14.118958%, 9.799194%)" offset="1"/></radialGradient></defs><path fill="#1d2346" d="M 348.769531 205.664062 C 359.09375 205 369.398438 205.558594 379.707031 205.441406 C 369.613281 218.3125 358.972656 230.835938 348.652344 243.601562 C 345.769531 247.148438 342.660156 250.585938 340.109375 254.464844 C 351.761719 254.796875 363.289062 254.464844 374.925781 254.570312 C 382.136719 254.679688 389.335938 254.015625 396.441406 255.566406 C 409.859375 258.226562 422.277344 266.765625 428.824219 278.972656 C 433.699219 287.84375 435.148438 298.390625 433.488281 308.367188 C 432.824219 312.246094 431.375 315.910156 430.378906 319.683594 L 453.664062 319.683594 C 459.097656 319.683594 464.980469 318.898438 469.417969 315.246094 C 474.621094 311.140625 476.507812 304.15625 476.734375 297.726562 C 477.066406 283.300781 476.628906 268.890625 476.960938 254.464844 L 506.128906 254.464844 L 506.128906 299.492188 C 506.234375 306.253906 505.691406 313.027344 503.246094 319.351562 C 499.914062 327.890625 493.378906 335.105469 485.277344 339.421875 C 475.632812 344.628906 464.542969 346.300781 453.78125 346.179688 L 248.515625 346.179688 C 237.980469 358.496094 227.992188 371.246094 217.578125 383.679688 C 216.464844 385.125 214.589844 384.566406 213.039062 384.675781 L 184.09375 384.675781 C 194.191406 371.578125 205.28125 359.277344 215.148438 346.074219 C 201.507812 344.746094 188.199219 339.195312 178.554688 329.324219 C 168.566406 319.335938 163.027344 305.257812 163.480469 291.164062 C 163.480469 277.296875 169.578125 263.550781 179.671875 254 C 190.988281 243.242188 206.847656 237.582031 222.363281 238.246094 C 237.664062 238.6875 252.859375 245.355469 263.179688 256.65625 C 273.5 267.75 278.148438 283.277344 276.382812 298.246094 C 275.824219 305.789062 272.835938 312.777344 269.5 319.535156 L 385.390625 319.535156 C 389.601562 319.535156 393.8125 318.539062 397.144531 315.871094 C 407.015625 308.550781 406.910156 291.351562 396.707031 284.363281 C 393.71875 282.148438 390.054688 281.03125 386.28125 281.03125 L 304.554688 281.03125 C 304.554688 273.925781 304.222656 266.832031 304.660156 259.738281 C 306.546875 256.628906 309.097656 254.082031 311.316406 251.304688 C 323.851562 236.109375 336.152344 220.582031 348.917969 205.492188 L 348.8125 205.597656 Z M 213.355469 265.011719 C 205.480469 267.003906 198.613281 272.886719 195.730469 280.539062 C 191.1875 292.1875 193.617188 307.277344 203.9375 315.035156 C 213.703125 322.789062 229.003906 322.140625 237.980469 313.480469 C 250.402344 301.949219 249.40625 278.757812 235.207031 268.890625 C 228.988281 264.335938 220.792969 263.007812 213.355469 265.011719 Z M 213.355469 265.011719 " fill-opacity="1" fill-rule="nonzero"/><path fill="#1d2346" d="M 667.152344 229.507812 C 674.804688 227.289062 683.449219 232.617188 685.125 240.375 C 687.117188 248.128906 681.683594 256.683594 673.808594 258.117188 C 666.15625 259.886719 657.84375 254.453125 656.394531 246.695312 C 654.734375 239.257812 659.726562 231.273438 667.152344 229.613281 Z M 667.152344 229.507812 " fill-opacity="1" fill-rule="nonzero"/><path fill="#1d2346" d="M 545.617188 254.253906 C 557.039062 243.269531 573.230469 237.503906 589.089844 238.394531 C 605.058594 238.953125 620.703125 246.269531 631.011719 258.582031 C 645.316406 275.226562 646.871094 300.953125 635.671875 319.695312 L 682.695312 319.695312 C 688.019531 319.695312 693.558594 319.03125 697.886719 315.816406 C 703.546875 311.714844 705.644531 304.5 705.871094 297.738281 C 706.097656 283.316406 705.871094 269.011719 705.976562 254.585938 L 735.144531 254.585938 C 735.371094 269.011719 735.144531 283.316406 735.144531 297.738281 C 735.585938 308.5 733.925781 319.816406 727.164062 328.460938 C 717.957031 340.882812 701.992188 345.769531 687.128906 346.207031 C 662.957031 346.433594 638.660156 346.207031 614.488281 346.433594 C 603.953125 359.183594 593.632812 371.949219 583.207031 384.699219 C 572.234375 385.03125 561.132812 384.699219 550.160156 384.699219 C 560.585938 371.722656 571.226562 359.078125 581.546875 346.101562 C 566.683594 344.878906 552.167969 338.226562 542.402344 326.800781 C 533.863281 317.039062 529.320312 304.167969 529.757812 291.191406 C 529.757812 277.324219 535.75 263.789062 545.722656 254.253906 L 545.605469 254.253906 Z M 580.988281 264.558594 C 573.113281 266.113281 566.125 271.441406 562.6875 278.757812 C 557.148438 290.742188 559.351562 307.15625 570.5625 315.140625 C 580.429688 322.789062 595.734375 321.902344 604.5 313.027344 C 616.691406 301.273438 615.46875 278.203125 601.285156 268.652344 C 595.519531 264.441406 587.976562 263.113281 580.988281 264.546875 Z M 580.988281 264.558594 " fill-opacity="1" fill-rule="nonzero"/><path fill="#1d2346" d="M 438.375 362.957031 C 446.132812 361.070312 454.671875 366.625 455.894531 374.488281 C 457.554688 382.136719 452.015625 390.347656 444.246094 391.675781 C 436.59375 393.335938 428.28125 387.675781 427.058594 379.917969 C 425.503906 372.375 430.832031 364.390625 438.375 362.945312 Z M 438.375 362.957031 " fill-opacity="1" fill-rule="nonzero"/><path fill="#1d2346" d="M 175.539062 427.402344 C 186.074219 417.640625 200.9375 415.980469 214.804688 416.207031 C 228.007812 416.433594 242.085938 418.320312 251.847656 427.734375 C 259.605469 435.054688 263.496094 445.8125 263.605469 456.464844 L 263.605469 520.582031 C 254.066406 520.914062 244.410156 520.6875 234.875 520.582031 C 234.648438 501.386719 234.875 482.089844 234.875 462.90625 C 234.875 455.695312 232.324219 447.488281 225.667969 443.714844 C 218.683594 439.835938 209.703125 439.835938 202.386719 443.15625 C 195.066406 446.703125 192.183594 455.363281 192.183594 462.90625 L 192.183594 520.367188 C 182.648438 520.925781 172.992188 520.59375 163.453125 520.59375 C 163.226562 499.515625 163.453125 478.449219 163.453125 457.371094 C 163.347656 446.277344 167.332031 434.960938 175.542969 427.3125 L 175.542969 427.417969 Z M 175.539062 427.402344 " fill-opacity="1" fill-rule="nonzero"/><path fill="#1d2346" d="M 433.273438 418.96875 C 448.574219 414.414062 465.761719 414.972656 480.082031 422.304688 C 493.285156 428.730469 502.929688 439.941406 506.035156 454.246094 C 508.917969 467.78125 508.027344 482.539062 501.375 494.851562 C 494.28125 508.613281 480.746094 518.695312 465.777344 522.132812 C 452.695312 525.242188 438.828125 523.355469 426.847656 517.472656 C 426.621094 531.234375 426.847656 544.980469 426.847656 558.742188 C 417.308594 558.96875 407.773438 558.96875 398.339844 558.742188 L 398.339844 472.21875 C 398.339844 463.015625 399.335938 453.691406 402.550781 445.042969 C 407.425781 431.402344 419.738281 422.96875 433.378906 418.984375 L 433.273438 418.984375 Z M 449.347656 440.9375 C 441.46875 441.828125 434.378906 446.824219 430.5 453.691406 C 423.617188 466.335938 425.835938 484.746094 438.253906 493.179688 C 447.898438 500.164062 462.324219 498.71875 470.519531 490.070312 C 480.507812 479.75 480.945312 462.003906 472.511719 450.582031 C 467.183594 443.59375 457.980469 439.71875 449.332031 440.925781 Z M 449.347656 440.9375 " fill-opacity="1" fill-rule="nonzero"/><path fill="#1d2346" d="M 540.292969 429.0625 C 552.605469 418.742188 569.234375 414.867188 585.320312 416.527344 C 596.636719 417.746094 608.046875 419.300781 617.703125 425.625 C 613.597656 432.835938 609.492188 439.929688 605.390625 447.140625 C 597.40625 443.476562 588.746094 440.261719 579.886719 441.152344 C 570.457031 442.042969 561.914062 448.589844 558.488281 457.34375 C 555.605469 464.78125 555.605469 473.203125 558.382812 480.640625 C 561.824219 489.84375 570.921875 496.617188 580.671875 497.164062 C 589.210938 497.722656 597.527344 494.945312 605.070312 491.066406 C 609.734375 498.054688 613.609375 505.492188 617.714844 512.808594 C 608.074219 518.90625 596.753906 522.121094 585.332031 523.238281 C 565.488281 525.003906 544.847656 516.6875 532.429688 500.9375 C 524.550781 491.066406 520.78125 478.195312 521.667969 465.671875 C 522.332031 451.589844 529.546875 438.054688 540.304688 429.0625 Z M 540.292969 429.0625 " fill-opacity="1" fill-rule="nonzero"/><path fill="#1d2346" d="M 668.148438 416.859375 C 681.789062 414.746094 696.203125 415.636719 708.078125 422.621094 C 720.722656 429.726562 730.363281 443.582031 733.683594 457.675781 C 736.792969 470.878906 735.132812 485.410156 728.253906 497.164062 C 720.707031 510.472656 707.292969 518.347656 692.550781 521.894531 C 677.246094 525.5625 660.5 523.34375 647.082031 515.136719 C 634.332031 507.589844 624.675781 494.613281 621.914062 479.976562 C 619.695312 468.222656 621.023438 455.683594 626.574219 445.03125 C 634.558594 429.171875 650.75 419.621094 668.164062 416.964844 L 668.164062 416.859375 Z M 671.816406 441.378906 C 663.9375 443.261719 656.953125 448.921875 653.738281 456.347656 C 648.636719 468.433594 651.082031 484.519531 662.277344 492.5 C 672.265625 500.152344 687.78125 499.050781 696.652344 490.058594 C 708.632812 478.300781 707.519531 455.441406 693.4375 445.574219 C 687.222656 441.136719 679.238281 439.582031 671.816406 441.363281 Z M 671.816406 441.378906 " fill-opacity="1" fill-rule="nonzero"/><path fill="#1d2346" d="M 280.792969 419.074219 C 290.328125 418.96875 299.984375 419.074219 309.523438 419.074219 C 309.746094 438.496094 309.523438 456.574219 309.628906 475.976562 C 309.734375 483.191406 312.402344 491.171875 319.164062 494.71875 C 326.378906 498.492188 335.582031 498.492188 342.902344 494.71875 C 349.78125 490.949219 352.332031 482.511719 352.332031 475.089844 L 352.332031 419.183594 C 361.972656 418.957031 371.628906 418.957031 381.273438 419.183594 C 381.167969 440.472656 381.273438 460.332031 381.273438 481.636719 C 381.273438 493.058594 376.730469 504.707031 367.859375 512.144531 C 355.878906 522.132812 339.355469 524.460938 324.277344 523.34375 C 310.53125 522.226562 296 516.796875 288.015625 504.933594 C 282.027344 496.617188 280.699219 485.964844 281.03125 475.976562 L 281.03125 419.183594 L 280.804688 419.074219 Z M 280.792969 419.074219 " fill-opacity="1" fill-rule="nonzero"/><g clip-path="url(#e74cdbbc00)"><g clip-path="url(#a2b7fe48ee)"><path fill="url(#e64cc19708)" d="M 12.074219 41.507812 L 12.074219 245.035156 L 198.28125 245.035156 L 198.28125 41.507812 Z M 12.074219 41.507812 " fill-rule="nonzero"/></g></g></svg>