<svg xmlns="http://www.w3.org/2000/svg" xmlns:xlink="http://www.w3.org/1999/xlink" width="1000" zoomAndPan="magnify" viewBox="0 0 750 187.499995" height="250" preserveAspectRatio="xMidYMid meet" version="1.0"><path fill="#4d4d4f" d="M 124.886719 120.46875 L 128.589844 120.46875 L 128.589844 99.226562 L 124.886719 99.226562 Z M 266.03125 99.226562 L 271.398438 99.226562 L 271.398438 102.933594 L 269.734375 102.933594 L 269.734375 120.46875 L 245.390625 120.46875 C 243.953125 121.980469 241.839844 122.96875 239.566406 122.96875 C 237.371094 122.96875 235.261719 121.992188 233.820312 120.46875 L 147.191406 120.46875 C 143.109375 120.46875 139.78125 117.144531 139.78125 113.0625 C 139.78125 108.980469 143.109375 105.726562 147.191406 105.726562 L 149.300781 105.726562 L 149.300781 104.441406 L 153.003906 104.441406 L 153.003906 116.839844 L 176.0625 116.839844 L 176.0625 105.726562 L 179.765625 105.726562 L 179.765625 116.839844 L 205.019531 116.839844 L 205.019531 112.449219 C 205.019531 111.390625 204.183594 110.5625 203.132812 110.5625 L 191.113281 110.5625 L 189.828125 106.929688 L 194.0625 99.21875 L 197.988281 99.21875 L 193.910156 106.929688 L 203.507812 106.929688 C 206.304688 106.929688 208.570312 109.195312 208.570312 111.992188 L 208.570312 116.828125 L 218.097656 116.828125 L 218.097656 99.21875 L 221.804688 99.21875 L 221.804688 116.828125 L 231.78125 116.828125 C 231.628906 116.296875 231.628906 115.765625 231.628906 115.164062 C 231.628906 110.707031 235.179688 107.15625 239.496094 107.15625 C 243.953125 107.15625 247.503906 110.636719 247.503906 115.164062 C 247.503906 115.765625 247.433594 116.296875 247.351562 116.828125 L 256.953125 116.828125 L 256.953125 99.21875 L 260.65625 99.21875 L 260.65625 116.828125 L 266.023438 116.828125 L 266.023438 99.226562 Z M 149.300781 109.441406 L 147.191406 109.441406 C 145.148438 109.441406 143.484375 111.105469 143.484375 113.144531 C 143.484375 115.183594 145.148438 116.847656 147.191406 116.847656 L 149.300781 116.847656 Z M 243.800781 115.105469 C 243.800781 112.605469 241.984375 110.796875 239.496094 110.796875 C 237.078125 110.796875 235.332031 112.6875 235.332031 115.105469 C 235.332031 117.449219 237.148438 119.339844 239.496094 119.339844 C 241.914062 119.339844 243.800781 117.523438 243.800781 115.105469 Z M 281.753906 113.0625 C 281.753906 108.980469 285.082031 105.726562 289.089844 105.726562 L 291.203125 105.726562 L 291.203125 104.441406 L 294.90625 104.441406 L 294.90625 116.839844 L 316.21875 116.839844 L 316.21875 105.726562 L 319.921875 105.726562 L 319.921875 120.46875 L 289.152344 120.46875 C 285 120.46875 281.753906 117.144531 281.753906 113.0625 Z M 285.375 113.0625 C 285.375 115.105469 287.039062 116.765625 289.082031 116.765625 L 291.191406 116.765625 L 291.191406 109.359375 L 289.082031 109.359375 C 287.039062 109.441406 285.375 111.105469 285.375 113.0625 Z M 428.714844 120.46875 L 432.417969 120.46875 L 432.417969 99.226562 L 428.714844 99.226562 Z M 486.851562 101.726562 L 483.21875 101.726562 L 483.21875 101.042969 C 483.21875 100.207031 483.597656 99.757812 484.65625 99.757812 L 486.015625 99.757812 L 486.015625 98.542969 L 484.503906 98.542969 C 482.464844 98.542969 481.179688 99.453125 481.179688 101.800781 L 481.179688 103.6875 L 486.921875 103.6875 L 486.921875 101.71875 L 486.851562 101.71875 Z M 443.683594 113.0625 C 443.683594 108.980469 447.007812 105.726562 451.089844 105.726562 L 453.203125 105.726562 L 453.203125 104.441406 L 456.90625 104.441406 L 456.90625 116.839844 L 482.382812 116.839844 L 482.382812 105.726562 L 486.085938 105.726562 L 486.085938 116.839844 L 498.480469 116.839844 L 498.480469 105.726562 L 502.1875 105.726562 L 502.1875 116.839844 L 514.050781 116.839844 C 513.746094 116.15625 513.519531 115.328125 513.519531 114.492188 C 513.519531 111.390625 516.019531 108.902344 519.113281 108.902344 C 522.203125 108.902344 524.703125 111.398438 524.703125 114.492188 C 524.703125 115.328125 524.480469 116.082031 524.171875 116.839844 L 526.671875 116.839844 C 526.898438 116.082031 527.050781 115.328125 527.050781 114.492188 C 527.050781 110.105469 523.5 106.554688 519.113281 106.554688 C 517.519531 106.554688 516.09375 107.003906 514.808594 107.839844 L 512.765625 104.585938 C 514.582031 103.371094 516.777344 102.695312 519.113281 102.695312 C 525.613281 102.695312 530.824219 107.992188 530.824219 114.410156 C 530.824219 115.246094 530.753906 116 530.601562 116.757812 L 541.414062 116.757812 L 541.414062 99.148438 L 546.78125 99.148438 L 546.78125 102.851562 L 545.121094 102.851562 L 545.121094 120.460938 L 451.089844 120.460938 C 447.007812 120.46875 443.683594 117.144531 443.683594 113.0625 Z M 516.859375 114.5 C 516.859375 115.789062 517.917969 116.847656 519.203125 116.847656 C 520.488281 116.847656 521.550781 115.789062 521.550781 114.5 C 521.550781 113.214844 520.488281 112.15625 519.203125 112.15625 C 517.917969 112.15625 516.859375 113.214844 516.859375 114.5 Z M 447.386719 113.0625 C 447.386719 115.105469 449.050781 116.765625 451.089844 116.765625 L 453.203125 116.765625 L 453.203125 109.359375 L 451.089844 109.359375 C 448.976562 109.441406 447.386719 111.105469 447.386719 113.0625 Z M 549.597656 99.226562 L 549.597656 120.46875 L 553.300781 120.46875 L 553.300781 99.226562 Z M 40.449219 124.101562 C 40.449219 125.164062 41.355469 126.070312 42.417969 126.070312 C 43.476562 126.070312 44.386719 125.164062 44.386719 124.101562 C 44.386719 123.042969 43.476562 122.132812 42.417969 122.132812 C 41.273438 122.132812 40.449219 123.042969 40.449219 124.101562 Z M 46.722656 122.132812 C 45.660156 122.132812 44.753906 123.042969 44.753906 124.101562 C 44.753906 125.164062 45.660156 126.070312 46.722656 126.070312 C 47.785156 126.070312 48.691406 125.164062 48.691406 124.101562 C 48.691406 123.042969 47.773438 122.132812 46.722656 122.132812 Z M 102.582031 102.636719 C 103.644531 102.636719 104.550781 101.726562 104.550781 100.667969 C 104.550781 99.605469 103.644531 98.699219 102.582031 98.699219 C 101.523438 98.699219 100.613281 99.605469 100.613281 100.667969 C 100.625 101.800781 101.449219 102.636719 102.582031 102.636719 Z M 175.390625 122.132812 C 174.328125 122.132812 173.421875 123.042969 173.421875 124.101562 C 173.421875 125.164062 174.328125 126.070312 175.390625 126.070312 C 176.453125 126.070312 177.359375 125.164062 177.359375 124.101562 C 177.359375 123.042969 176.441406 122.132812 175.390625 122.132812 Z M 181.664062 124.101562 C 181.664062 123.042969 180.757812 122.132812 179.695312 122.132812 C 178.636719 122.132812 177.726562 123.042969 177.726562 124.101562 C 177.726562 125.164062 178.636719 126.070312 179.695312 126.070312 C 180.757812 126.070312 181.664062 125.164062 181.664062 124.101562 Z M 450.40625 102.636719 C 451.46875 102.636719 452.375 101.726562 452.375 100.667969 C 452.375 99.605469 451.46875 98.699219 450.40625 98.699219 C 449.34375 98.699219 448.4375 99.605469 448.4375 100.667969 C 448.519531 101.800781 449.355469 102.636719 450.40625 102.636719 Z M 454.722656 102.636719 C 455.785156 102.636719 456.691406 101.726562 456.691406 100.667969 C 456.691406 99.605469 455.785156 98.699219 454.722656 98.699219 C 453.660156 98.699219 452.753906 99.605469 452.753906 100.667969 C 452.753906 101.800781 453.660156 102.636719 454.722656 102.636719 Z M 313.503906 122.132812 C 312.445312 122.132812 311.535156 123.042969 311.535156 124.101562 C 311.535156 125.164062 312.445312 126.070312 313.503906 126.070312 C 314.566406 126.070312 315.476562 125.164062 315.476562 124.101562 C 315.464844 123.042969 314.636719 122.132812 313.503906 122.132812 Z M 319.78125 124.101562 C 319.78125 123.042969 318.871094 122.132812 317.8125 122.132812 C 316.75 122.132812 315.84375 123.042969 315.84375 124.101562 C 315.84375 125.164062 316.75 126.070312 317.8125 126.070312 C 318.871094 126.070312 319.78125 125.164062 319.78125 124.101562 Z M 497.960938 122.132812 C 496.902344 122.132812 495.992188 123.042969 495.992188 124.101562 C 495.992188 125.164062 496.902344 126.070312 497.960938 126.070312 C 499.023438 126.070312 499.929688 125.164062 499.929688 124.101562 C 499.929688 123.042969 499.023438 122.132812 497.960938 122.132812 Z M 500.308594 124.101562 C 500.308594 125.164062 501.214844 126.070312 502.277344 126.070312 C 503.339844 126.070312 504.246094 125.164062 504.246094 124.101562 C 504.246094 123.042969 503.339844 122.132812 502.277344 122.132812 C 501.136719 122.132812 500.308594 123.042969 500.308594 124.101562 Z M 288.476562 102.636719 C 289.539062 102.636719 290.445312 101.726562 290.445312 100.667969 C 290.445312 99.605469 289.539062 98.699219 288.476562 98.699219 C 287.417969 98.699219 286.507812 99.605469 286.507812 100.667969 C 286.519531 101.800781 287.417969 102.636719 288.476562 102.636719 Z M 292.792969 102.636719 C 293.855469 102.636719 294.761719 101.726562 294.761719 100.667969 C 294.761719 99.605469 293.855469 98.699219 292.792969 98.699219 C 291.734375 98.699219 290.824219 99.605469 290.824219 100.667969 C 290.824219 101.800781 291.652344 102.636719 292.792969 102.636719 Z M 335.878906 110.796875 C 335.878906 108.003906 333.617188 105.738281 330.820312 105.738281 L 327.421875 105.738281 L 326.515625 109.371094 L 330.289062 109.371094 C 331.351562 109.371094 332.175781 110.207031 332.175781 111.257812 L 332.175781 116.847656 L 322.800781 116.847656 L 322.800781 120.550781 L 335.878906 120.550781 Z M 146.589844 102.636719 C 147.648438 102.636719 148.558594 101.726562 148.558594 100.667969 C 148.558594 99.605469 147.648438 98.699219 146.589844 98.699219 C 145.527344 98.699219 144.617188 99.605469 144.617188 100.667969 C 144.617188 101.800781 145.527344 102.636719 146.589844 102.636719 Z M 150.894531 102.636719 C 151.953125 102.636719 152.863281 101.726562 152.863281 100.667969 C 152.863281 99.605469 151.953125 98.699219 150.894531 98.699219 C 149.832031 98.699219 148.925781 99.605469 148.925781 100.667969 C 148.925781 101.800781 149.761719 102.636719 150.894531 102.636719 Z M 21.472656 102.636719 C 22.53125 102.636719 23.441406 101.726562 23.441406 100.667969 C 23.441406 99.605469 22.53125 98.699219 21.472656 98.699219 C 20.410156 98.699219 19.5 99.605469 19.5 100.667969 C 19.5 101.800781 20.410156 102.636719 21.472656 102.636719 Z M 25.777344 102.636719 C 26.835938 102.636719 27.746094 101.726562 27.746094 100.667969 C 27.746094 99.605469 26.835938 98.699219 25.777344 98.699219 C 24.714844 98.699219 23.808594 99.605469 23.808594 100.667969 C 23.808594 101.800781 24.644531 102.636719 25.777344 102.636719 Z M 14.664062 113.0625 C 14.664062 108.980469 17.992188 105.726562 22 105.726562 L 24.113281 105.726562 L 24.113281 104.441406 L 27.886719 104.441406 L 27.886719 116.839844 L 44.519531 116.839844 L 44.519531 105.726562 L 48.222656 105.726562 L 48.222656 120.46875 L 22.0625 120.46875 C 17.992188 120.46875 14.664062 117.144531 14.664062 113.0625 Z M 18.371094 113.0625 C 18.371094 115.105469 20.03125 116.765625 22.074219 116.765625 L 24.183594 116.765625 L 24.183594 109.359375 L 22.074219 109.359375 C 20.03125 109.441406 18.371094 111.105469 18.371094 113.0625 Z M 53.140625 126.226562 C 52.457031 126.226562 51.703125 126.152344 51.253906 126 L 51.253906 122.367188 C 51.785156 122.519531 52.234375 122.519531 52.691406 122.519531 C 54.128906 122.519531 54.660156 121.765625 54.660156 119.949219 L 54.660156 105.667969 L 58.363281 105.667969 L 58.363281 116.777344 L 81.648438 116.777344 L 81.648438 112.390625 C 81.648438 111.328125 80.808594 110.503906 79.757812 110.503906 L 67.742188 110.503906 L 66.457031 106.871094 L 70.6875 99.15625 L 74.617188 99.15625 L 70.535156 106.871094 L 80.136719 106.871094 C 82.933594 106.871094 85.199219 109.136719 85.199219 111.929688 L 85.199219 116.765625 L 95.480469 116.765625 C 94.796875 115.707031 94.503906 114.421875 94.503906 113.0625 C 94.503906 108.980469 97.828125 105.65625 101.839844 105.65625 L 107.574219 105.65625 L 107.574219 116.765625 L 116.722656 116.765625 L 116.722656 99.15625 L 122.089844 99.15625 L 122.089844 102.859375 L 120.355469 102.859375 L 120.355469 120.46875 L 58.210938 120.46875 C 58.128906 124.480469 56.621094 126.226562 53.140625 126.226562 Z M 98.195312 113.0625 C 98.195312 115.105469 99.859375 116.765625 101.898438 116.765625 L 104.011719 116.765625 L 104.011719 109.359375 L 101.898438 109.359375 C 99.859375 109.441406 98.195312 111.105469 98.195312 113.0625 Z M 347.828125 120.46875 L 345.789062 120.46875 C 341.707031 120.46875 338.378906 117.144531 338.378906 113.0625 C 338.378906 108.980469 341.707031 105.726562 345.789062 105.726562 L 351.519531 105.726562 L 351.519531 116.839844 L 362.5625 116.839844 L 359.304688 108.523438 C 361.804688 106.328125 364.296875 104.820312 367.398438 104.820312 C 370.417969 104.820312 373.070312 106.328125 375.488281 108.59375 L 372.316406 116.910156 L 381.691406 116.910156 C 383.730469 116.910156 385.394531 115.246094 385.394531 113.207031 L 385.394531 103.757812 L 389.097656 103.757812 L 389.097656 113.207031 C 389.097656 115.246094 390.761719 116.910156 392.800781 116.910156 C 394.84375 116.910156 396.503906 115.246094 396.503906 113.207031 L 396.503906 106.859375 L 400.207031 106.859375 L 400.207031 113.207031 C 400.207031 115.246094 401.871094 116.910156 403.914062 116.910156 C 405.953125 116.910156 407.617188 115.246094 407.617188 113.207031 L 407.617188 103.757812 L 411.320312 103.757812 L 411.320312 113.207031 C 411.320312 115.246094 412.984375 116.910156 415.023438 116.910156 L 420.695312 116.910156 L 420.695312 99.300781 L 426.0625 99.300781 L 426.0625 103.003906 L 424.398438 103.003906 L 424.398438 120.46875 L 415.023438 120.46875 C 412.828125 120.46875 410.859375 119.492188 409.503906 117.972656 C 408.148438 119.480469 406.175781 120.46875 403.984375 120.46875 C 401.789062 120.46875 399.820312 119.492188 398.464844 117.972656 C 397.105469 119.480469 395.136719 120.46875 392.945312 120.46875 C 390.75 120.46875 388.78125 119.492188 387.425781 117.972656 C 386.066406 119.480469 384.097656 120.46875 381.90625 120.46875 L 351.664062 120.46875 C 351.441406 123.949219 349.695312 126.214844 345.011719 126.214844 C 343.574219 126.214844 342.820312 126.0625 341.15625 125.613281 L 341.15625 121.980469 C 342.441406 122.359375 343.574219 122.582031 344.707031 122.582031 C 346.542969 122.59375 347.59375 122.285156 347.828125 120.46875 Z M 363.398438 110.042969 L 365.816406 116.765625 L 368.988281 116.765625 L 371.40625 109.960938 C 369.96875 108.980469 368.90625 108.605469 367.398438 108.605469 C 365.898438 108.605469 364.753906 109.0625 363.398438 110.042969 Z M 347.898438 116.847656 L 347.898438 109.441406 L 345.789062 109.441406 C 343.746094 109.441406 342.082031 111.105469 342.082031 113.144531 C 342.082031 115.183594 343.746094 116.847656 345.789062 116.847656 Z M 347.898438 116.847656 " fill-opacity="1" fill-rule="nonzero"/><path fill="#4d4d4f" d="M 45.507812 144.589844 L 45.507812 152.90625 C 43.691406 153.589844 41.425781 154.039062 39.304688 154.039062 C 35.753906 154.039062 32.582031 152.753906 32.582031 149.273438 C 32.582031 146.101562 35.304688 144.4375 39.234375 144.4375 C 39.988281 144.4375 40.96875 144.507812 42.03125 144.660156 L 42.03125 144.4375 C 42.03125 142.84375 40.671875 142.394531 38.703125 142.394531 C 37.265625 142.394531 35.070312 143 33.714844 143.683594 L 34.164062 140.050781 C 35.296875 139.449219 37.265625 138.988281 39.222656 138.988281 C 42.785156 138.917969 45.507812 140.425781 45.507812 144.589844 Z M 41.957031 147.539062 C 41.273438 147.386719 40.367188 147.230469 39.539062 147.230469 C 37.722656 147.230469 36.214844 147.679688 36.214844 149.046875 C 36.214844 150.335938 37.570312 150.863281 39.316406 150.863281 C 40.222656 150.863281 41.203125 150.710938 41.957031 150.488281 Z M 57.679688 150.179688 C 56.621094 150.488281 55.792969 150.558594 55.039062 150.558594 C 53.070312 150.558594 52.242188 149.804688 52.242188 147.160156 L 52.242188 139.375 L 48.691406 139.375 L 48.691406 148.070312 C 48.691406 152.527344 51.488281 153.964844 55.191406 153.964844 C 57.691406 153.964844 59.273438 153.589844 61.3125 152.90625 L 61.3125 139.375 L 57.761719 139.375 Z M 74.382812 133.101562 L 77.933594 133.101562 L 77.933594 153.210938 C 76.199219 153.660156 74.230469 153.964844 72.1875 153.964844 C 66.894531 153.964844 63.875 150.710938 63.875 146.476562 C 63.875 142.242188 67.046875 138.917969 71.964844 138.917969 C 72.566406 138.917969 73.476562 138.988281 74.464844 139.140625 L 74.464844 133.089844 L 74.382812 133.089844 Z M 74.382812 142.703125 C 73.546875 142.476562 72.792969 142.394531 72.1875 142.394531 C 69.394531 142.394531 67.578125 143.753906 67.578125 146.476562 C 67.578125 149.203125 69.394531 150.488281 72.1875 150.488281 C 72.871094 150.488281 73.628906 150.414062 74.382812 150.179688 Z M 81.800781 153.742188 L 85.351562 153.742188 L 85.351562 139.457031 L 81.800781 139.457031 Z M 124.886719 150.179688 C 123.824219 150.488281 123 150.558594 122.242188 150.558594 C 120.273438 150.558594 119.449219 149.804688 119.449219 147.160156 L 119.449219 139.375 L 115.898438 139.375 L 115.898438 148.070312 C 115.898438 152.527344 118.695312 153.964844 122.398438 153.964844 C 124.898438 153.964844 126.476562 153.589844 128.519531 152.90625 L 128.519531 139.375 L 124.96875 139.375 Z M 136.988281 147.914062 L 136.988281 142.703125 L 142.425781 142.703125 L 142.425781 139.375 L 136.988281 139.375 L 136.988281 134.164062 L 133.4375 134.164062 L 133.4375 139.375 L 130.792969 139.375 L 130.792969 142.703125 L 133.4375 142.703125 L 133.4375 149.128906 C 133.4375 152.527344 135.171875 153.671875 139.179688 153.671875 L 142.507812 153.671875 L 142.507812 150.414062 L 139.488281 150.414062 C 137.660156 150.414062 136.988281 149.804688 136.988281 147.914062 Z M 151.871094 138.917969 C 151.117188 138.917969 150.058594 139.070312 148.996094 139.222656 L 148.996094 133.171875 L 145.445312 133.171875 L 145.445312 153.730469 L 148.996094 153.730469 L 148.996094 142.703125 C 149.976562 142.550781 150.964844 142.394531 151.71875 142.394531 C 153.832031 142.394531 154.894531 143.152344 154.894531 145.792969 L 154.894531 153.730469 L 158.445312 153.730469 L 158.445312 144.8125 C 158.453125 140.050781 155.503906 138.917969 151.871094 138.917969 Z M 176.289062 146.476562 C 176.289062 150.710938 172.960938 154.039062 168.574219 154.039062 C 164.1875 154.039062 160.863281 150.78125 160.863281 146.476562 C 160.863281 142.242188 164.1875 138.917969 168.574219 138.917969 C 172.890625 138.917969 176.289062 142.242188 176.289062 146.476562 Z M 172.585938 146.476562 C 172.585938 144.285156 171.074219 142.394531 168.574219 142.394531 C 166.074219 142.394531 164.566406 144.285156 164.566406 146.476562 C 164.566406 148.742188 166.074219 150.558594 168.574219 150.558594 C 171.003906 150.488281 172.585938 148.753906 172.585938 146.476562 Z M 189.746094 153.742188 L 193.296875 153.742188 L 193.296875 139.457031 L 189.746094 139.457031 Z M 201.847656 147.914062 L 201.847656 142.703125 L 207.285156 142.703125 L 207.285156 139.375 L 201.847656 139.375 L 201.847656 134.164062 L 198.296875 134.164062 L 198.296875 139.375 L 195.652344 139.375 L 195.652344 142.703125 L 198.296875 142.703125 L 198.296875 149.128906 C 198.296875 152.527344 200.03125 153.671875 204.039062 153.671875 L 207.367188 153.671875 L 207.367188 150.414062 L 204.347656 150.414062 C 202.449219 150.414062 201.847656 149.804688 201.847656 147.914062 Z M 218.925781 149.886719 C 217.863281 150.191406 217.039062 150.261719 216.28125 150.261719 C 214.3125 150.261719 213.488281 149.507812 213.488281 146.863281 L 213.488281 139.375 L 209.9375 139.375 L 209.9375 147.84375 C 209.9375 152.527344 212.507812 153.742188 216.140625 153.742188 C 217.046875 153.742188 218.027344 153.671875 219.015625 153.4375 L 219.015625 153.742188 C 219.015625 155.40625 217.507812 156.160156 215.3125 156.160156 C 213.957031 156.160156 211.683594 155.710938 210.324219 155.097656 L 211.078125 158.800781 C 212.210938 159.179688 214.101562 159.402344 215.160156 159.402344 C 220.832031 159.402344 222.566406 157.667969 222.566406 152.597656 L 222.566406 139.367188 L 219.015625 139.367188 Z M 234.953125 138.007812 L 234.953125 139.367188 L 232.3125 139.367188 L 232.3125 142.691406 L 234.953125 142.691406 L 234.953125 153.648438 L 238.503906 153.648438 L 238.503906 142.703125 L 243.941406 142.703125 L 243.941406 139.375 L 238.503906 139.375 L 238.503906 138.691406 C 238.503906 137.183594 238.8125 136.425781 240.617188 136.425781 L 243.941406 136.425781 L 243.941406 133.101562 L 240.546875 133.101562 C 236.617188 133.101562 234.953125 134.613281 234.953125 138.007812 Z M 260.277344 146.476562 C 260.277344 150.710938 256.953125 154.039062 252.5625 154.039062 C 248.175781 154.039062 244.851562 150.78125 244.851562 146.476562 C 244.851562 142.242188 248.175781 138.917969 252.5625 138.917969 C 256.953125 138.917969 260.277344 142.242188 260.277344 146.476562 Z M 256.574219 146.476562 C 256.574219 144.285156 255.0625 142.394531 252.5625 142.394531 C 250.066406 142.394531 248.554688 144.285156 248.554688 146.476562 C 248.554688 148.742188 250.066406 150.558594 252.5625 150.558594 C 255.0625 150.488281 256.574219 148.753906 256.574219 146.476562 Z M 294.90625 138.917969 C 293.394531 138.917969 290.671875 139.222656 288.476562 139.671875 L 288.476562 153.730469 L 292.027344 153.730469 L 292.027344 142.703125 C 293.007812 142.550781 293.996094 142.394531 294.753906 142.394531 C 296.863281 142.394531 297.925781 143.152344 297.925781 145.792969 L 297.925781 153.730469 L 301.476562 153.730469 L 301.476562 144.8125 C 301.558594 140.050781 298.539062 138.917969 294.90625 138.917969 Z M 309.800781 147.914062 L 309.800781 142.703125 L 315.238281 142.703125 L 315.238281 139.375 L 309.800781 139.375 L 309.800781 134.164062 L 306.25 134.164062 L 306.25 139.375 L 303.609375 139.375 L 303.609375 142.703125 L 306.25 142.703125 L 306.25 149.128906 C 306.25 152.527344 307.984375 153.671875 311.996094 153.671875 L 315.320312 153.671875 L 315.320312 150.414062 L 312.300781 150.414062 C 310.402344 150.414062 309.800781 149.804688 309.800781 147.914062 Z M 331.492188 147.609375 L 320.230469 147.609375 C 320.679688 149.578125 322.269531 150.488281 324.535156 150.488281 L 324.914062 150.488281 C 326.421875 150.488281 328.308594 149.886719 329.074219 149.203125 L 330.667969 152.375 C 329.15625 153.210938 327.269531 153.964844 324.464844 153.964844 C 319.921875 153.964844 316.597656 150.710938 316.597656 146.40625 C 316.597656 142.019531 319.921875 138.84375 324.15625 138.84375 C 328.472656 138.917969 331.644531 142.101562 331.492188 147.609375 Z M 327.789062 144.660156 C 327.410156 142.925781 325.972656 142.019531 324.085938 142.019531 C 322.199219 142.019531 320.757812 143.152344 320.3125 144.660156 Z M 333.992188 153.742188 L 337.542969 153.742188 L 337.542969 133.183594 L 333.992188 133.183594 Z M 341.398438 153.742188 L 344.949219 153.742188 L 344.949219 133.183594 L 341.398438 133.183594 Z M 362.488281 147.609375 L 351.226562 147.609375 C 351.675781 149.578125 353.265625 150.488281 355.53125 150.488281 L 355.910156 150.488281 C 357.417969 150.488281 359.304688 149.886719 360.070312 149.203125 L 361.664062 152.375 C 360.152344 153.210938 358.265625 153.964844 355.460938 153.964844 C 350.917969 153.964844 347.59375 150.710938 347.59375 146.40625 C 347.59375 142.019531 350.917969 138.84375 355.152344 138.84375 C 359.539062 138.917969 362.714844 142.101562 362.488281 147.609375 Z M 358.785156 144.660156 C 358.40625 142.925781 356.96875 142.019531 355.082031 142.019531 C 353.195312 142.019531 351.753906 143.152344 351.308594 144.660156 Z M 372.019531 142.394531 C 373.304688 142.394531 374.4375 142.773438 375.34375 143.304688 L 376.785156 140.132812 C 375.34375 139.375 373.761719 138.917969 371.867188 138.917969 C 367.476562 138.917969 364.234375 142.171875 364.234375 146.476562 C 364.234375 150.78125 367.488281 154.039062 371.867188 154.039062 C 373.835938 154.039062 375.34375 153.660156 376.785156 152.90625 L 375.34375 149.648438 C 374.4375 150.253906 373.304688 150.558594 372.019531 150.558594 C 369.519531 150.558594 367.9375 148.964844 367.9375 146.476562 C 367.9375 144.058594 369.519531 142.394531 372.019531 142.394531 Z M 383.957031 147.914062 L 383.957031 142.703125 L 389.394531 142.703125 L 389.394531 139.375 L 383.957031 139.375 L 383.957031 134.164062 L 380.40625 134.164062 L 380.40625 139.375 L 377.761719 139.375 L 377.761719 142.703125 L 380.40625 142.703125 L 380.40625 149.128906 C 380.40625 152.527344 382.140625 153.671875 386.148438 153.671875 L 389.476562 153.671875 L 389.476562 150.414062 L 386.457031 150.414062 C 384.640625 150.414062 383.957031 149.804688 383.957031 147.914062 Z M 401.046875 150.179688 C 399.984375 150.488281 399.15625 150.558594 398.402344 150.558594 C 396.433594 150.558594 395.609375 149.804688 395.609375 147.160156 L 395.609375 139.375 L 392.058594 139.375 L 392.058594 148.070312 C 392.058594 152.527344 394.851562 153.964844 398.554688 153.964844 C 401.054688 153.964844 402.636719 153.589844 404.675781 152.90625 L 404.675781 139.375 L 401.128906 139.375 Z M 420.695312 144.589844 L 420.695312 152.90625 C 418.878906 153.589844 416.613281 154.039062 414.492188 154.039062 C 410.941406 154.039062 407.769531 152.753906 407.769531 149.273438 C 407.769531 146.101562 410.492188 144.4375 414.421875 144.4375 C 415.175781 144.4375 416.15625 144.507812 417.21875 144.660156 L 417.21875 144.4375 C 417.21875 142.84375 415.859375 142.394531 413.890625 142.394531 C 412.453125 142.394531 410.257812 143 408.902344 143.683594 L 409.351562 140.050781 C 410.484375 139.449219 412.453125 138.988281 414.410156 138.988281 C 417.980469 138.917969 420.695312 140.425781 420.695312 144.589844 Z M 417.074219 147.539062 C 416.390625 147.386719 415.484375 147.230469 414.65625 147.230469 C 412.839844 147.230469 411.328125 147.679688 411.328125 149.046875 C 411.328125 150.335938 412.6875 150.863281 414.429688 150.863281 C 415.339844 150.863281 416.320312 150.710938 417.074219 150.488281 Z M 424.257812 153.742188 L 427.808594 153.742188 L 427.808594 133.183594 L 424.257812 133.183594 Z M 481.554688 146.476562 C 481.554688 150.710938 478.230469 154.039062 473.84375 154.039062 C 469.457031 154.039062 466.128906 150.78125 466.128906 146.476562 C 466.128906 142.242188 469.457031 138.917969 473.84375 138.917969 C 478.230469 138.917969 481.554688 142.242188 481.554688 146.476562 Z M 477.851562 146.476562 C 477.851562 144.285156 476.34375 142.394531 473.84375 142.394531 C 471.34375 142.394531 469.832031 144.285156 469.832031 146.476562 C 469.832031 148.742188 471.34375 150.558594 473.84375 150.558594 C 476.34375 150.488281 477.851562 148.753906 477.851562 146.476562 Z M 498.269531 146.476562 C 498.269531 150.710938 495.09375 154.039062 490.175781 154.039062 C 489.574219 154.039062 488.738281 153.964844 487.675781 153.8125 L 487.675781 159.25 L 484.125 159.25 L 484.125 139.671875 C 485.863281 139.140625 487.832031 138.917969 489.871094 138.917969 C 495.238281 138.917969 498.269531 142.171875 498.269531 146.476562 Z M 494.5625 146.476562 C 494.5625 143.753906 492.75 142.394531 489.953125 142.394531 C 489.269531 142.394531 488.515625 142.550781 487.757812 142.703125 L 487.757812 150.261719 C 488.597656 150.488281 489.351562 150.570312 489.953125 150.570312 C 492.820312 150.488281 494.5625 149.203125 494.5625 146.476562 Z M 515.050781 147.609375 L 503.789062 147.609375 C 504.238281 149.578125 505.828125 150.488281 508.09375 150.488281 L 508.472656 150.488281 C 509.980469 150.488281 511.867188 149.886719 512.632812 149.203125 L 514.226562 152.375 C 512.714844 153.210938 510.828125 153.964844 508.023438 153.964844 C 503.480469 153.964844 500.15625 150.710938 500.15625 146.40625 C 500.15625 142.019531 503.480469 138.84375 507.714844 138.84375 C 512.101562 138.917969 515.195312 142.101562 515.050781 147.609375 Z M 511.335938 144.660156 C 510.960938 142.925781 509.523438 142.019531 507.632812 142.019531 C 505.746094 142.019531 504.308594 143.152344 503.859375 144.660156 Z M 533.109375 147.914062 L 533.109375 142.703125 L 538.546875 142.703125 L 538.546875 139.375 L 533.109375 139.375 L 533.109375 134.164062 L 529.558594 134.164062 L 529.558594 139.375 L 526.835938 139.375 L 526.835938 142.703125 L 529.476562 142.703125 L 529.476562 149.128906 C 529.476562 152.527344 531.210938 153.671875 535.222656 153.671875 L 538.546875 153.671875 L 538.546875 150.414062 L 535.527344 150.414062 C 533.722656 150.414062 533.109375 149.804688 533.109375 147.914062 Z M 549.75 149.886719 C 548.691406 150.191406 547.863281 150.261719 547.109375 150.261719 C 545.140625 150.261719 544.3125 149.507812 544.3125 146.863281 L 544.3125 139.375 L 540.761719 139.375 L 540.761719 147.84375 C 540.761719 152.527344 543.332031 153.742188 546.964844 153.742188 C 547.875 153.742188 548.851562 153.671875 549.84375 153.4375 L 549.84375 153.742188 C 549.84375 155.40625 548.332031 156.160156 546.140625 156.160156 C 544.78125 156.160156 542.507812 155.710938 541.148438 155.097656 L 541.90625 158.800781 C 543.039062 159.179688 544.925781 159.402344 545.988281 159.402344 C 551.660156 159.402344 553.394531 157.667969 553.394531 152.597656 L 553.394531 139.367188 L 549.84375 139.367188 Z M 262.929688 143.152344 L 262.929688 153.730469 L 266.480469 153.730469 L 266.480469 143.683594 C 266.480469 143.078125 266.929688 142.621094 267.542969 142.621094 C 268.980469 142.621094 271.175781 142.621094 271.175781 142.621094 L 271.175781 139.222656 L 266.785156 139.222656 C 264.746094 139.222656 262.929688 140.957031 262.929688 143.152344 Z M 178.941406 143.152344 L 178.941406 153.730469 L 182.492188 153.730469 L 182.492188 143.683594 C 182.492188 143.078125 182.941406 142.621094 183.550781 142.621094 C 184.992188 142.621094 187.183594 142.621094 187.183594 142.621094 L 187.183594 139.222656 L 182.878906 139.222656 C 180.675781 139.222656 178.941406 140.957031 178.941406 143.152344 Z M 456.539062 143.152344 L 456.539062 153.730469 L 460.089844 153.730469 L 460.089844 143.683594 C 460.089844 143.078125 460.539062 142.621094 461.148438 142.621094 C 462.589844 142.621094 464.78125 142.621094 464.78125 142.621094 L 464.78125 139.222656 L 460.394531 139.222656 C 458.273438 139.222656 456.539062 140.957031 456.539062 143.152344 Z M 517.386719 143.152344 L 517.386719 153.730469 L 520.9375 153.730469 L 520.9375 143.683594 C 520.9375 143.078125 521.386719 142.621094 522 142.621094 C 523.4375 142.621094 525.632812 142.621094 525.632812 142.621094 L 525.632812 139.222656 L 521.246094 139.222656 C 519.203125 139.222656 517.386719 140.957031 517.386719 143.152344 Z M 83.535156 133.324219 C 82.472656 133.324219 81.566406 134.234375 81.566406 135.296875 C 81.566406 136.355469 82.472656 137.265625 83.535156 137.265625 C 84.59375 137.265625 85.503906 136.355469 85.503906 135.296875 C 85.503906 134.234375 84.667969 133.324219 83.535156 133.324219 Z M 191.5625 133.324219 C 190.5 133.324219 189.59375 134.234375 189.59375 135.296875 C 189.59375 136.355469 190.5 137.265625 191.5625 137.265625 C 192.621094 137.265625 193.53125 136.355469 193.53125 135.296875 C 193.449219 134.234375 192.621094 133.324219 191.5625 133.324219 Z M 191.5625 133.324219 " fill-opacity="1" fill-rule="nonzero"/><path fill="#006e63" d="M 30.386719 147.84375 C 30.386719 151.773438 26.910156 153.964844 22.226562 153.964844 C 19.347656 153.964844 16.398438 153.210938 14.664062 152.148438 L 16.105469 148.894531 C 17.542969 149.804688 20.03125 150.488281 22.15625 150.488281 C 24.652344 150.488281 26.542969 149.648438 26.542969 147.761719 C 26.542969 146.027344 25.03125 145.417969 22.613281 144.886719 L 20.949219 144.4375 C 17.246094 143.527344 15.277344 141.335938 15.277344 138.316406 C 15.277344 134.988281 18.296875 132.722656 22.765625 132.722656 C 25.335938 132.722656 28.203125 133.480469 29.949219 134.613281 L 28.511719 137.867188 C 27 136.886719 24.734375 136.273438 22.683594 136.273438 C 20.714844 136.273438 19.054688 137.03125 19.054688 138.46875 C 19.054688 139.824219 20.03125 140.507812 22.308594 141.109375 L 24.042969 141.558594 C 27.519531 142.394531 30.386719 144.210938 30.386719 147.84375 Z M 106.746094 133.101562 L 114.378906 153.660156 L 110.519531 153.660156 L 108.785156 148.824219 L 100.246094 148.824219 L 98.511719 153.660156 L 94.65625 153.660156 L 102.289062 133.101562 Z M 107.574219 145.425781 L 104.550781 136.886719 L 101.53125 145.425781 Z M 454.722656 139.449219 C 454.722656 142.84375 452.304688 146.027344 447.164062 146.027344 L 443.082031 146.027344 L 443.082031 153.742188 L 439.449219 153.742188 L 439.449219 133.183594 L 447.164062 133.183594 C 452.375 133.101562 454.722656 136.203125 454.722656 139.449219 Z M 450.867188 139.527344 C 450.867188 137.488281 449.425781 136.582031 446.40625 136.582031 L 443.152344 136.582031 L 443.152344 142.628906 L 446.40625 142.628906 C 449.050781 142.621094 450.867188 141.867188 450.867188 139.527344 Z M 281.140625 153.742188 L 284.691406 153.742188 L 284.691406 133.183594 L 281.140625 133.183594 Z M 281.140625 153.742188 " fill-opacity="1" fill-rule="nonzero"/><path fill="#0065a1" d="M 709.640625 66.875 C 713.71875 45.480469 717.730469 23.859375 700.34375 15.320312 C 670.785156 0.882812 595.492188 1.484375 587.023438 40.644531 C 585.429688 48.132812 588.53125 61.355469 593.675781 73.679688 C 595.5625 60.527344 607.132812 40.492188 658.6875 37.164062 C 691.640625 35.050781 705.253906 48.355469 709.640625 66.875 Z M 709.640625 66.875 " fill-opacity="1" fill-rule="nonzero"/><path fill="#006e63" d="M 740.402344 44.796875 C 739.953125 30.207031 725.503906 21.433594 708.425781 16.21875 C 710.3125 17.882812 711.976562 19.699219 713.414062 21.890625 C 717.578125 28.164062 717.71875 40.785156 715.761719 53.867188 C 702.304688 146.101562 667.378906 144.285156 664.429688 144.355469 C 702.527344 157.433594 716.820312 125.460938 718.636719 121.980469 C 719.617188 120.175781 741.460938 79.046875 740.402344 44.796875 Z M 740.402344 44.796875 " fill-opacity="1" fill-rule="nonzero"/><path fill="#006e63" d="M 670.246094 69.976562 C 671.839844 69.671875 673.5 69.527344 675.234375 69.527344 C 682.867188 69.527344 689.753906 72.476562 694.96875 77.242188 C 690.203125 67.414062 680.226562 60.683594 668.65625 60.683594 C 667.816406 60.683594 666.992188 60.753906 666.238281 60.753906 C 668.738281 57.121094 672.359375 54.40625 676.59375 52.96875 C 670.09375 52.0625 663.511719 54.480469 659.125 59.46875 C 659.125 59.160156 659.125 58.867188 659.125 58.558594 C 659.125 54.785156 657.992188 51.222656 656.023438 48.355469 C 654.054688 51.304688 652.921875 54.785156 652.921875 58.558594 C 652.921875 58.867188 652.921875 59.160156 652.921875 59.46875 C 648.535156 54.480469 641.882812 52.0625 635.453125 52.96875 C 639.6875 54.40625 643.320312 57.132812 645.8125 60.753906 C 644.972656 60.683594 644.21875 60.683594 643.394531 60.683594 C 631.824219 60.683594 621.84375 67.40625 617.078125 77.242188 C 622.292969 72.476562 629.25 69.527344 636.8125 69.527344 C 638.476562 69.527344 640.136719 69.679688 641.800781 69.976562 C 634.699219 73.832031 629.558594 80.558594 627.515625 88.269531 C 631.75 82.527344 637.953125 78.363281 645.433594 76.851562 C 646.269531 76.699219 647.097656 76.546875 647.933594 76.476562 L 656.09375 84.71875 L 664.257812 76.476562 C 665.09375 76.546875 665.921875 76.699219 666.757812 76.851562 C 674.246094 78.292969 680.4375 82.527344 684.671875 88.269531 C 682.5 80.558594 677.359375 73.832031 670.246094 69.976562 Z M 670.246094 69.976562 " fill-opacity="1" fill-rule="nonzero"/><path fill="#006e63" d="M 655.960938 105.503906 C 658.003906 105.503906 659.738281 103.839844 659.738281 101.726562 C 659.738281 99.617188 658.074219 97.953125 655.960938 97.953125 C 653.921875 97.953125 652.1875 99.617188 652.1875 101.726562 C 652.257812 103.769531 653.921875 105.503906 655.960938 105.503906 Z M 655.960938 105.503906 " fill-opacity="1" fill-rule="nonzero"/><path fill="#006e63" d="M 655.960938 113.441406 C 657.625 113.441406 658.980469 112.082031 658.980469 110.421875 C 658.980469 108.757812 657.625 107.402344 655.960938 107.402344 C 654.300781 107.402344 652.941406 108.757812 652.941406 110.421875 C 652.941406 112.082031 654.300781 113.441406 655.960938 113.441406 Z M 655.960938 113.441406 " fill-opacity="1" fill-rule="nonzero"/><path fill="#006e63" d="M 655.960938 96.207031 C 658.535156 96.207031 660.644531 94.097656 660.644531 91.445312 C 660.644531 88.800781 658.535156 86.679688 655.960938 86.679688 C 653.390625 86.679688 651.277344 88.789062 651.277344 91.445312 C 651.277344 94.085938 653.390625 96.207031 655.960938 96.207031 Z M 655.960938 96.207031 " fill-opacity="1" fill-rule="nonzero"/><path fill="#006e63" d="M 686.429688 108.15625 C 668.359375 108.15625 651.882812 115.339844 639.78125 127.050781 L 646.207031 127.050781 C 647.871094 127.050781 649.382812 126.449219 650.667969 125.316406 C 660.421875 116.847656 672.664062 111.03125 686.429688 109.289062 C 689.753906 108.910156 693.007812 108.6875 696.253906 108.839844 C 693.082031 108.378906 689.753906 108.15625 686.429688 108.15625 Z M 686.429688 108.15625 " fill-opacity="1" fill-rule="nonzero"/><path fill="#006e63" d="M 625.566406 108.15625 C 643.636719 108.15625 660.113281 115.339844 672.214844 127.050781 L 665.789062 127.050781 C 664.125 127.050781 662.613281 126.449219 661.328125 125.316406 C 651.574219 116.847656 639.332031 111.03125 625.566406 109.289062 C 622.242188 108.910156 618.988281 108.6875 615.742188 108.839844 C 618.917969 108.378906 622.171875 108.15625 625.566406 108.15625 Z M 625.566406 108.15625 " fill-opacity="1" fill-rule="nonzero"/><path fill="#00a19b" d="M 582.859375 49.113281 C 577.339844 54.632812 565.769531 68.464844 568.421875 85.027344 C 571.902344 106.574219 622.253906 179.21875 659.441406 179.21875 C 677.582031 179.21875 691.640625 165.535156 706.007812 144.070312 C 675.316406 171.421875 597.898438 130.378906 582.859375 49.113281 Z M 582.859375 49.113281 " fill-opacity="1" fill-rule="nonzero"/></svg>