<?xml version="1.0" encoding="utf-8"?>
<!-- Generator: Adobe Illustrator 25.2.0, SVG Export Plug-In . SVG Version: 6.00 Build 0)  -->
<svg version="1.1" id="Layer_1" xmlns="http://www.w3.org/2000/svg" xmlns:xlink="http://www.w3.org/1999/xlink" x="0px" y="0px"
	 viewBox="0 0 726.37 583.68" style="enable-background:new 0 0 726.37 583.68;" xml:space="preserve">
<style type="text/css">
	.st0{fill:#00945E;}
</style>
<g id="b483f2e6-9933-46dc-b81e-eb3db1eb5c57">
	<g id="ad8b157d-c60f-4de6-8ab7-52c6ebc27c61">
		<path class="st0" d="M647.23,253.73c-4.2-4.85-11.52-5.42-16.41-1.27c-1.76,1.49-3.39,2.82-4.92,4c-6,4.42-10.75,5.44-21.5,6.77
			c-8.37,1.21-16.63-2.86-20.78-10.23c-9-15.93-5.69-33.07,8.6-44.72c8.92-7.27,21.46-9.07,30.51-4.38
			c5.81,2.83,12.81,0.41,15.64-5.4c2.72-5.6,0.59-12.35-4.86-15.36c-17.35-9-39.89-6.19-56.08,7c-23,18.75-28.69,48.63-14.18,74.35
			c3.68,6.54,8.98,12.01,15.4,15.9c-14.22,3.29-25.57,1.31-32.52-2.6c-14.13-8-13.86-25.2-11.93-48.68c0.14-1.68,0.28-3.33,0.4-4.94
			c0.39-6.45-4.53-11.99-10.98-12.38c-6.31-0.38-11.77,4.32-12.35,10.61c-0.12,1.56-0.25,3.16-0.38,4.79
			c-0.91,11.08-2,24.11,0.22,36.44c-6.59,13.31-14.49,11.57-19.86,9.09c-13.69-6.32-24.86-26.82-18.39-41.72
			c2.98-5.73,0.75-12.8-4.98-15.78c-5.73-2.98-12.8-0.75-15.78,4.98c-0.25,0.48-0.47,0.99-0.65,1.5c-6.85,15.78-4,33.3,4.07,47.55
			c-2.57,6.25-9,8.41-12.61,9.14c-8.5,1.7-17.88-0.72-22.81-5.89c-10.76-11.26-12.19-31.46-10.14-45.34
			c0.97-6.39-3.43-12.35-9.81-13.32c-6.39-0.97-12.35,3.43-13.32,9.81c0,0.03-0.01,0.06-0.01,0.1
			c-2.72,18.46-0.58,43.35,12.79,60.72c-9.42,26.22-25.92,49.32-47.67,66.73c4.5,1.06,9.1,1.6,13.72,1.61
			c7.99,0.01,15.91-1.63,23.24-4.81c12.7-14.55,22.89-31.11,30.16-49c5.83,2.21,12.02,3.34,18.25,3.33c3.41,0,6.81-0.34,10.15-1
			c9.87-2,18.13-6.75,23.87-13.59c3.13,2.47,6.52,4.57,10.13,6.26c5.2,2.48,10.89,3.8,16.65,3.86c8.95-0.04,17.53-3.58,23.91-9.86
			c3.58,4.12,7.86,7.58,12.64,10.22c9.03,4.96,19.2,7.49,29.5,7.34c20.4,0,38.91-8.54,45.8-12.15l1.64-0.86
			c11.69-6.11,18.89-9.87,28.92-17.77c1.8-1.35,3.66-2.88,5.61-4.6C650.95,265.93,651.44,258.59,647.23,253.73z"/>
		<circle class="st0" cx="623.09" cy="497.74" r="14.55"/>
		<circle class="st0" cx="185.14" cy="281.13" r="14.55"/>
		<circle class="st0" cx="147.54" cy="281.12" r="14.55"/>
		<circle class="st0" cx="479.82" cy="185.73" r="14.55"/>
		<circle class="st0" cx="461.02" cy="151.08" r="14.55"/>
		<circle class="st0" cx="442.23" cy="185.73" r="14.55"/>
		<path class="st0" d="M130.88,310.82c-13.78-23.05-21.04-49.42-21-76.28C109.85,152.3,176.75,85.4,258.99,85.4
			c55.27-0.04,106.02,30.51,131.85,79.37c3.04,5.71,10.13,7.87,15.83,4.84c5.71-3.04,7.87-10.13,4.84-15.84l0,0
			C381.63,97.25,322.92,61.93,258.99,62c-95.14,0-172.54,77.4-172.54,172.54c-0.03,31.99,8.88,63.35,25.73,90.54
			C117.73,319.49,124.02,314.69,130.88,310.82z"/>
		<path class="st0" d="M625.6,343.94c-6.46-0.01-11.71,5.22-11.72,11.68c0,0.59,0.04,1.18,0.13,1.76c2.16,14.32,4.39,29.13,2.6,43
			s-7.87,25.39-16.66,31.51c-6.05,4.21-14.06,6.4-23.11,6.4c-2.84,0-5.67-0.21-8.48-0.61c-8.46-1.18-16.93-3.93-25.28-7.12
			c8.2-9.81,13.97-21.41,16.86-33.87c2.46-10.92,1.87-22.3-1.71-32.91c-4.17-12-12.2-21.21-22.63-25.85
			c-5.29-2.33-11-3.51-16.78-3.48c-12.6,0-26.29,5.26-39.41,15.43c-24.54,19-40.65,45.78-56,74.06c-0.46-0.05-0.93-0.08-1.4-0.07
			c-1.37-2-2-3.89-1.57-5.51c3.38-13.81,5.12-18.23,5.51-19.12c3.44-5.47,1.79-12.69-3.69-16.13c-5.16-3.24-11.93-1.98-15.58,2.89
			c-1.23,1.54-3.51,4.4-9,26.74c-2.14,8.73,0,16.82,4.82,24c-7.49,4.58-16.08,7.03-24.86,7.09c-1.53,0-3.07-0.08-4.59-0.25
			c-12.73-1.36-19.68-5.05-25.93-14.42c12.53-13.47,22.23-29.32,28.54-46.6c10.96-1.17,21.6-4.41,31.34-9.56
			c5.72-3,7.92-10.06,4.93-15.78c-3-5.72-10.06-7.92-15.78-4.93c-0.05,0.03-0.1,0.05-0.15,0.08c-5.35,2.82-11.07,4.86-17,6.06
			c-11.37,2.37-23.17,1.7-34.2-1.93c-4.35-1.43-8.53-3.34-12.47-5.68c-3.79-2.27-7.51-5-11.45-7.9
			c-8.78-6.46-18.74-13.79-31.21-16.52c-3.29-0.71-6.64-1.07-10-1.07c-26.69-0.24-48.51,21.2-48.76,47.88
			c-0.01,1.17,0.02,2.33,0.1,3.5c0.39,6.17,5.49,10.98,11.67,11c0.24,0,0.49,0,0.74,0c6.44-0.42,11.33-5.97,10.94-12.41
			c-0.85-13.78,9.63-25.64,23.41-26.49c0.58-0.04,1.15-0.05,1.73-0.05c1.74,0,3.48,0.18,5.18,0.55c7.62,1.67,14.78,6.94,22.36,12.52
			c4.1,3,8.35,6.12,12.94,8.9l0.35,0.22c8.91,5.28,18.69,8.92,28.88,10.74c0.52,0.1,1,0.21,1.55,0.29
			c-12.05,27.12-34.52,48.93-60.87,58.38c-9.33,3.3-19.15,5.01-29.05,5.08c-16.13,0-29.8-6.4-39.07-20.36
			c-3.56-5.35-3.38-33.72-2.94-39.36c0.2-2.46,0.38-4.9,0.54-7.34c0-0.5,0.08-1,0.11-1.49c1.73-28.25-5.13-48.41-20.39-59.93
			c-8.27-6.25-18.75-9.46-30.13-9.46c-6.09,0.03-12.14,0.88-18,2.54c-5.71,1.6-11.21,3.87-16.38,6.76
			c-6.87,3.83-13.12,8.67-18.55,14.36c-11.38,11.89-18.96,27.28-20.58,43.64c-3,31.45,16.71,62.49,45.93,72.2
			c5.61,1.86,11.48,2.8,17.39,2.79c15.23-0.19,29.9-5.82,41.34-15.88l0.42,0.94c8.14,17.58,23.65,28.86,44.86,32.61
			c5.15,0.9,10.37,1.34,15.6,1.32c12.54-0.05,24.99-2.24,36.8-6.46c11.44-4.14,22.19-9.98,31.89-17.32
			c9.89,13.37,22.37,19.92,40.9,21.91c2.38,0.25,4.77,0.38,7.16,0.38c15.35-0.06,30.28-5.08,42.56-14.29
			c7.4,4.52,15.34,8.08,23.64,10.6c7.41,2.25,15.12,3.37,22.86,3.34c13.02-0.11,25.89-2.83,37.84-8c6.82-2.89,13.32-6.5,19.38-10.75
			c12.93,5.29,26.32,10.64,41.09,12.71c3.86,0.55,7.76,0.83,11.66,0.83c13.86,0,26.55-3.63,36.54-10.59
			c14.2-9.88,23.86-27.27,26.5-47.71c2.21-17.1-0.38-34.29-2.66-49.46C636.32,348.22,631.41,343.95,625.6,343.94z M196.12,375.4
			c-0.17,2.79-0.39,5.61-0.61,8.43c-0.28,3.53-0.55,7.15-0.75,10.84c-0.16,3.06-0.27,6.16-0.25,9.29
			c-7.06,13.64-21.63,22.44-35.73,22.44c-3.4,0.01-6.77-0.53-10-1.59c-18.81-6.26-32-27.23-30-47.75c1.16-10.08,5.34-19.57,12-27.23
			c5.09-6.04,11.41-10.93,18.54-14.33c2.58-1.22,5.25-2.23,8-3c3.78-1.08,7.69-1.64,11.62-1.66c6.32,0,12,1.6,16.09,4.71
			c9.33,7,11.49,21.6,11.34,34.28C196.31,371.76,196.23,373.62,196.12,375.4z M537.12,391.55c-4.29,19.16-20.24,36.7-41.62,45.78
			c-9.04,3.96-18.79,6.07-28.66,6.19c-5.42,0.03-10.81-0.75-16-2.32c-2.89-0.89-5.72-1.93-8.49-3.13
			c15.18-28.13,29.56-52.78,51.41-69.72c3.64-2.83,14.57-10.54,25.05-10.54c2.51-0.03,4.99,0.47,7.29,1.47
			C536.45,363.91,539.85,379.32,537.12,391.55L537.12,391.55z"/>
		<path class="st0" d="M133.04,499.42c0.48-1.57,0.73-3.2,0.75-4.84c0.13-3.6-1.54-7.02-4.44-9.15c-2.71-2-6.38-3.07-10.9-3.07
			c-4.69,0.01-9.21,1.79-12.63,5c-1.21,1.13-2.26,2.42-3.11,3.84c-0.88,1.51-1.55,3.14-2,4.83c-0.53,2.12-0.78,4.31-0.74,6.5
			c0,2.65,0.54,5.27,1.57,7.71c1.95,4.82,5.92,8.54,10.86,10.17c1.18,0.42,2.39,0.74,3.62,0.95c1.49,0.23,2.99,0.34,4.49,0.32
			c2.01-0.04,4.01-0.38,5.92-1c0.77-0.23,1.51-0.51,2.24-0.84c0.56-0.27,1.1-0.56,1.63-0.89c0.9-0.49,1.48-1.42,1.51-2.44
			c-0.01-0.54-0.15-1.06-0.39-1.54l-0.7-1.42c-0.42-1.09-1.45-1.81-2.62-1.84c-0.52,0.01-1.02,0.14-1.48,0.38l-1.68,0.83
			c-0.37,0.16-0.75,0.28-1.14,0.38c-0.59,0.15-1.19,0.26-1.79,0.34c-1.5,0.21-3.01,0.21-4.51,0c-2.06-0.31-3.99-1.2-5.57-2.57
			c-2.56-2.22-3.81-5.26-3.81-9.28c0-3.86,1.15-6.75,3.51-8.83c1.94-1.77,4.49-2.72,7.11-2.68c1.88-0.11,3.74,0.38,5.33,1.39
			c0.44,0.3,0.8,0.69,1.08,1.14c-1.31-0.44-2.68-0.66-4.06-0.65c-2.55-0.11-5.07,0.59-7.19,2c-2.38,1.73-3.73,4.54-3.58,7.48
			c-0.08,2.78,1.13,5.43,3.27,7.2c0.97,0.79,2.09,1.4,3.28,1.79c2.2,0.72,4.56,0.78,6.79,0.19c1.28-0.34,2.49-0.91,3.56-1.69
			c0,0.08,0.07,0.16,0.11,0.23c0.54,0.94,1.58,1.46,2.65,1.34h2c1.55,0.1,2.9-1.07,3-2.63c0.01-0.12,0.01-0.25,0-0.37
			c-0.09-2.46-0.6-4.89-1.5-7.18L133.04,499.42z M121.12,503.21c-0.53,0.01-1.04-0.17-1.44-0.51c-0.14-0.11-0.26-0.25-0.33-0.42
			c-0.1-0.23-0.14-0.48-0.13-0.73c-0.01-0.19,0.03-0.39,0.12-0.56c0.2-0.28,0.44-0.52,0.72-0.71c0.4-0.21,0.85-0.31,1.3-0.27
			c0.88-0.03,1.76,0.18,2.54,0.6c0.74,0.42,0.77,0.8,0.78,0.86c0,0.22-0.28,0.58-0.73,0.93c-0.33,0.25-0.7,0.45-1.1,0.59
			C122.29,503.16,121.71,503.23,121.12,503.21L121.12,503.21z"/>
		<path class="st0" d="M161.82,511.77h-10.37v-26.36c0.01-0.81-0.27-1.59-0.79-2.21c-0.57-0.7-1.42-1.1-2.32-1.1h-3.22
			c-0.89,0-1.74,0.39-2.31,1.08c-0.54,0.62-0.83,1.41-0.82,2.23v31.83c-0.01,0.82,0.28,1.61,0.8,2.23c0.57,0.69,1.42,1.09,2.31,1.09
			h16.72c0.9,0.01,1.76-0.38,2.34-1.07c0.47-0.59,0.73-1.32,0.72-2.07v-2.49c0.01-0.76-0.24-1.5-0.72-2.09
			C163.59,512.14,162.72,511.75,161.82,511.77z"/>
		<path class="st0" d="M174.45,490.63c1.46,0.02,2.86-0.55,3.9-1.58c1.63-1.62,2.11-4.07,1.21-6.18c-0.83-2.08-2.88-3.41-5.11-3.33
			c-3.06-0.02-5.56,2.44-5.58,5.5c-0.01,1.48,0.58,2.91,1.63,3.96C171.55,490.05,172.97,490.64,174.45,490.63z"/>
		<path class="st0" d="M182.64,513.37c-0.39-1.04-1.37-1.73-2.48-1.75c-0.41,0.01-0.82,0.1-1.21,0.25v-17.24
			c0.01-0.8-0.25-1.58-0.74-2.22c-0.56-0.72-1.42-1.14-2.33-1.14h-3c-0.88,0.01-1.72,0.41-2.28,1.09c-0.53,0.63-0.82,1.44-0.81,2.27
			v17.67c0,2.92,0.56,5,1.75,6.49c0.62,0.78,1.44,1.36,2.38,1.7c1.01,0.33,2.06,0.48,3.12,0.45c1.39,0,2.77-0.35,4-1
			c1.8-0.9,2.71-2.07,2.71-3.48c0-0.51-0.12-1.02-0.34-1.48L182.64,513.37z"/>
		<path class="st0" d="M208.58,491.27h-2.61c-0.71-0.01-1.41,0.2-2,0.61c-0.4,0.26-0.74,0.6-1,1c-0.38,0.71-0.61,1.49-0.67,2.3
			c-0.13,0.84-0.32,2-0.6,3.63c-0.54,3.83-1.5,7.58-2.87,11.19c-1.29-5.28-2.81-10.55-4.55-15.71c-0.25-0.89-0.78-1.68-1.5-2.26
			c-0.69-0.48-1.52-0.73-2.37-0.71h-2.06c-2.68,0-3.64,1.74-3.64,3.23c0.02,0.52,0.11,1.04,0.28,1.54l3.29,9.45
			c1.06,3.15,2.09,6.37,3.08,9.68c0.35,1.53,1.08,2.95,2.13,4.12c0.59,0.57,1.31,0.98,2.1,1.21c0.8,0.23,1.63,0.34,2.47,0.33
			c0.92,0,1.84-0.13,2.72-0.39c1.22-0.4,2.28-1.16,3.07-2.17c2.24-2.7,4.18-7,5.93-13.11c1.05-3.37,1.75-6.84,2.11-10.35v-0.13
			c0.17-1.73-1.09-3.28-2.82-3.45C208.91,491.26,208.75,491.26,208.58,491.27z"/>
		<path class="st0" d="M239.45,512.26c-0.73-1.6-2.62-2.31-4.22-1.58c-0.25,0.11-0.48,0.26-0.7,0.43c-3.16,2.2-7.22,2.05-9.22,0.12
			c-0.49-0.46-0.86-1.02-1.09-1.65c5.4,1,9.37,0.25,12.25-1.62c2.53-1.57,4.03-4.37,3.94-7.35c0.12-2.86-1.11-5.62-3.32-7.44
			c-1.06-0.86-2.28-1.5-3.59-1.88c-3.29-0.89-6.77-0.79-10,0.29c-5.73,2-8.63,7-8.63,14.81c0,4.49,1.4,8.13,4.15,10.82
			c1.32,1.3,2.9,2.29,4.64,2.93c1.66,0.64,3.43,0.98,5.21,1c1.6,0.01,3.19-0.16,4.75-0.49c0.76-0.17,1.5-0.38,2.23-0.63
			c0.73-0.26,1.44-0.59,2.1-1c0.63-0.38,1.2-0.85,1.68-1.41c0.56-0.63,0.87-1.43,0.89-2.27c0-0.61-0.13-1.22-0.38-1.78
			L239.45,512.26z M224.45,501.78c0.07-0.19,0.15-0.38,0.25-0.55c0.48-0.88,1.43-2.06,4.16-2.06c2.48,0,2.48,0.8,2.48,1.38
			c0,1-1.38,1.53-4.09,1.53C226.31,502.09,225.37,501.99,224.45,501.78z"/>
		<path class="st0" d="M288.95,482.1h-2.06c-1.41-0.1-2.74,0.67-3.36,1.94c-0.22,0.48-0.36,1-0.4,1.53c0,0.36-0.05,1-0.05,1.95
			s0,1.73-0.14,2.77c0,0.66-0.11,1.4-0.2,2.23s-0.29,2.37-0.58,4.53c-0.41,2.8-0.97,5.57-1.68,8.31l-0.68,2.66l-3.61-14.44
			c-0.33-1.31-1-3.62-2-7c-0.53-2.09-2.44-3.53-4.59-3.49h-2.26c-2.24-0.13-4.21,1.44-4.61,3.64c-0.51,2.26-0.98,4.48-1.41,6.67
			c-0.42,2.14-0.88,4.29-1.39,6.42l-1.63,6.59c-0.08,0.33-0.16,0.66-0.25,1c-0.27-1.33-0.6-2.9-1-4.71l-4-17.76
			c-0.19-1.63-1.57-2.86-3.21-2.86h-3.24c-0.94-0.02-1.84,0.39-2.44,1.12c-0.5,0.61-0.76,1.38-0.76,2.17
			c-0.01,0.47,0.04,0.93,0.15,1.39l7.33,28.6c0.28,1.43,0.98,2.75,2,3.8c1.07,0.95,2.48,1.45,3.91,1.38h1.81
			c1.53,0.08,3.04-0.46,4.16-1.51c0.41-0.41,1-1.17,1.81-3.57c1.8-5.1,3.18-10.33,4.11-15.66l3.86,15.36
			c1.17,4.68,4.35,5.38,6.13,5.38h1.79c1.5,0.06,2.95-0.52,4-1.6c0.73-0.77,1.78-2.32,3.48-7.6c2.28-6.7,3.82-13.63,4.59-20.66
			c0.1-0.93,0.16-1.76,0.19-2.48s0.05-1.28,0.05-1.7c0-0.45-0.04-0.9-0.12-1.34C292.41,483.33,290.8,481.99,288.95,482.1z"/>
		<path class="st0" d="M320.6,512.26c-0.75-1.61-2.66-2.3-4.26-1.56c-0.23,0.11-0.45,0.25-0.66,0.41c-3.15,2.2-7.21,2.05-9.22,0.12
			c-0.49-0.46-0.86-1.02-1.09-1.65c5.39,1,9.36,0.25,12.25-1.62c2.53-1.57,4.03-4.37,3.94-7.35c0.12-2.86-1.11-5.62-3.32-7.44
			c-1.06-0.86-2.28-1.5-3.59-1.88c-3.29-0.89-6.77-0.79-10,0.29c-5.73,2-8.64,7-8.64,14.81c0,4.49,1.4,8.13,4.15,10.82
			c1.32,1.3,2.9,2.29,4.64,2.93c1.66,0.64,3.43,0.98,5.21,1c1.6,0.01,3.19-0.16,4.75-0.49c0.76-0.17,1.5-0.38,2.23-0.63
			c0.74-0.25,1.44-0.59,2.1-1c0.63-0.38,1.2-0.85,1.68-1.41c0.56-0.63,0.87-1.43,0.89-2.27c0-0.61-0.13-1.22-0.38-1.78L320.6,512.26
			z M305.6,501.78c0.06-0.19,0.14-0.37,0.24-0.54c0.49-0.89,1.45-2.07,4.17-2.07c2.48,0,2.48,0.8,2.48,1.38c0,1-1.37,1.53-4.09,1.53
			c-0.94,0.01-1.88-0.09-2.79-0.3H305.6z"/>
		<path class="st0" d="M339.86,513.37c-0.4-1.05-1.4-1.74-2.52-1.75c-0.5,0.02-1,0.13-1.46,0.33v-27.46c0.01-0.8-0.25-1.57-0.74-2.2
			c-0.56-0.72-1.42-1.14-2.33-1.14h-3c-0.88,0.01-1.72,0.41-2.28,1.09c-0.53,0.63-0.82,1.43-0.81,2.25v27.81
			c0,7.52,4.35,8.64,6.94,8.64c2.08,0.08,4.11-0.59,5.74-1.88c0.85-0.64,1.4-1.62,1.5-2.68c0-0.47-0.1-0.94-0.29-1.38L339.86,513.37
			z"/>
		<path class="st0" d="M357.33,513.37c-0.4-1.05-1.4-1.74-2.52-1.75c-0.51,0.02-1,0.13-1.47,0.33v-27.46
			c0.01-0.8-0.25-1.58-0.75-2.21c-0.55-0.72-1.41-1.13-2.31-1.13h-3c-0.88,0.01-1.72,0.41-2.28,1.09c-0.53,0.63-0.82,1.43-0.81,2.25
			v27.81c0,7.52,4.35,8.64,6.94,8.64c2.08,0.08,4.11-0.59,5.74-1.88c1.36-0.86,1.88-2.59,1.21-4.06L357.33,513.37z"/>
		<path class="st0" d="M400.45,486.81l-0.2-1.35c-0.32-2.02-2.12-3.47-4.17-3.36h-2.56c-1.16,0-3.28,0.46-4.29,3.48l-6.9,19.24
			l-7.88-19.29c-0.37-1.12-1.06-2.09-2-2.8c-0.78-0.47-1.69-0.69-2.6-0.63h-2.45c-1.42-0.1-2.77,0.6-3.5,1.82
			c-0.46,0.99-0.7,2.07-0.71,3.16l-2.72,29.8c-0.1,0.86,0.13,1.74,0.64,2.44c0.55,0.78,1.44,1.25,2.4,1.24h3.12
			c0.71-0.01,1.39-0.25,1.94-0.7c0.64-0.48,1.04-1.21,1.13-2l1-13.57c0.1-1.37,0.18-2.74,0.25-4.09c1.33,3.16,3.64,8.59,7,16.51
			c0.44,1.18,1.55,1.97,2.81,2h3.56c0.7-0.01,1.38-0.27,1.9-0.75c0.46-0.37,0.8-0.85,1-1.4l6-16.17c0.09,1.33,0.21,2.67,0.37,4
			l1.56,13.53c0.07,0.74,0.43,1.42,1,1.89c0.55,0.49,1.27,0.75,2,0.73h3.76c1.49-0.01,2.68-1.22,2.68-2.7c0-0.1-0.01-0.2-0.02-0.3
			c0-0.24-0.02-0.48-0.06-0.72L400.45,486.81z"/>
		<path class="st0" d="M426.82,481.53c-5.09-0.16-10,1.87-13.5,5.57c-1.67,1.8-2.97,3.91-3.82,6.22c-0.86,2.24-1.31,4.61-1.33,7
			c-0.02,1.96,0.16,3.93,0.56,5.85c0.36,1.63,0.9,3.21,1.62,4.72c0.71,1.48,1.6,2.86,2.66,4.11c1.06,1.25,2.3,2.34,3.67,3.24
			c1.42,0.92,2.97,1.63,4.59,2.11c1.94,0.53,3.94,0.78,5.95,0.74c2.44-0.01,4.85-0.55,7.06-1.58c2.25-1.01,4.27-2.48,5.93-4.31
			c3.48-3.87,5.34-8.93,5.2-14.14c0-5.63-1.6-10.28-4.75-13.83C437.3,483.46,432.64,481.53,426.82,481.53z M420.45,493.26
			c3.15-3.49,8.53-3.76,12.02-0.62c0.28,0.25,0.55,0.53,0.79,0.82c1.58,2.21,2.38,4.89,2.26,7.61c0.13,2.84-0.66,5.64-2.24,8
			c-1.52,2.06-3.98,3.22-6.54,3.07c-2.58,0.13-5.05-1.08-6.52-3.21c-0.75-1.09-1.31-2.3-1.64-3.58c-0.38-1.46-0.57-2.96-0.56-4.46
			C417.89,498.14,418.75,495.43,420.45,493.26z"/>
		<path class="st0" d="M480.27,482.1h-3.18c-0.89,0-1.73,0.39-2.3,1.07c-0.54,0.62-0.84,1.42-0.83,2.24v11.69h-13.15v-11.69
			c0.01-0.81-0.28-1.6-0.8-2.22c-0.57-0.69-1.42-1.09-2.31-1.09h-3.17c-0.89,0-1.74,0.39-2.31,1.08c-0.54,0.62-0.83,1.41-0.82,2.23
			v31.83c0,0.81,0.28,1.6,0.79,2.22c0.57,0.7,1.42,1.1,2.32,1.1h3.17c0.89,0,1.74-0.39,2.31-1.08c0.54-0.62,0.83-1.42,0.82-2.24
			v-11.41h13.15v11.39c-0.01,0.81,0.28,1.59,0.8,2.21c0.57,0.69,1.41,1.1,2.31,1.1h3.17c0.89,0,1.73-0.38,2.3-1.06
			c0.55-0.62,0.84-1.42,0.84-2.25v-31.81c0.01-0.81-0.28-1.59-0.8-2.21C482.01,482.51,481.17,482.1,480.27,482.1z"/>
	</g>
</g>
</svg>
